<svg id="eyH4gPzB1IU1" xmlns="http://www.w3.org/2000/svg" xmlns:xlink="http://www.w3.org/1999/xlink" viewBox="0 0 1600 2100" shape-rendering="geometricPrecision" text-rendering="geometricPrecision"><defs><linearGradient id="eyH4gPzB1IU7-fill" x1="1035.56" y1="428.973" x2="-292.949" y2="428.973" spreadMethod="pad" gradientUnits="userSpaceOnUse" gradientTransform="translate(0 0)"><stop id="eyH4gPzB1IU7-fill-0" offset="0%" stop-color="#21064e"/><stop id="eyH4gPzB1IU7-fill-1" offset="6.66667%" stop-color="rgba(33,6,78,0.991353)"/><stop id="eyH4gPzB1IU7-fill-2" offset="13.3333%" stop-color="rgba(33,6,78,0.96449)"/><stop id="eyH4gPzB1IU7-fill-3" offset="20%" stop-color="rgba(33,6,78,0.91834)"/><stop id="eyH4gPzB1IU7-fill-4" offset="26.6667%" stop-color="rgba(33,6,78,0.852589)"/><stop id="eyH4gPzB1IU7-fill-5" offset="33.3333%" stop-color="rgba(33,6,78,0.768225)"/><stop id="eyH4gPzB1IU7-fill-6" offset="40%" stop-color="rgba(33,6,78,0.668116)"/><stop id="eyH4gPzB1IU7-fill-7" offset="46.6667%" stop-color="rgba(33,6,78,0.557309)"/><stop id="eyH4gPzB1IU7-fill-8" offset="53.3333%" stop-color="rgba(33,6,78,0.442691)"/><stop id="eyH4gPzB1IU7-fill-9" offset="60%" stop-color="rgba(33,6,78,0.331884)"/><stop id="eyH4gPzB1IU7-fill-10" offset="66.6667%" stop-color="rgba(33,6,78,0.231775)"/><stop id="eyH4gPzB1IU7-fill-11" offset="73.3333%" stop-color="rgba(33,6,78,0.147411)"/><stop id="eyH4gPzB1IU7-fill-12" offset="80%" stop-color="rgba(33,6,78,0.0816599)"/><stop id="eyH4gPzB1IU7-fill-13" offset="86.6667%" stop-color="rgba(33,6,78,0.03551)"/><stop id="eyH4gPzB1IU7-fill-14" offset="93.3333%" stop-color="rgba(33,6,78,0.01)"/><stop id="eyH4gPzB1IU7-fill-15" offset="100%" stop-color="rgba(33,6,78,0)"/></linearGradient><linearGradient id="eyH4gPzB1IU12-fill" x1="1598.89" y1="691.111" x2="641.109" y2="691.111" spreadMethod="pad" gradientUnits="userSpaceOnUse" gradientTransform="translate(0 0)"><stop id="eyH4gPzB1IU12-fill-0" offset="0%" stop-color="#21064e"/><stop id="eyH4gPzB1IU12-fill-1" offset="100%" stop-color="rgba(33,6,78,0)"/></linearGradient><linearGradient id="eyH4gPzB1IU15-fill" x1="1.11243" y1="973.333" x2="656.668" y2="973.333" spreadMethod="pad" gradientUnits="userSpaceOnUse" gradientTransform="translate(0 0)"><stop id="eyH4gPzB1IU15-fill-0" offset="0%" stop-color="#21064e"/><stop id="eyH4gPzB1IU15-fill-1" offset="100%" stop-color="rgba(33,6,78,0)"/></linearGradient><linearGradient id="eyH4gPzB1IU17-fill" x1="55.5556" y1="6" x2="0" y2="6" spreadMethod="pad" gradientUnits="userSpaceOnUse" gradientTransform="translate(0 0)"><stop id="eyH4gPzB1IU17-fill-0" offset="0%" stop-color="#9b6aff"/><stop id="eyH4gPzB1IU17-fill-1" offset="6.66667%" stop-color="rgba(155,106,255,0.991353)"/><stop id="eyH4gPzB1IU17-fill-2" offset="13.3333%" stop-color="rgba(155,106,255,0.96449)"/><stop id="eyH4gPzB1IU17-fill-3" offset="20%" stop-color="rgba(155,106,255,0.91834)"/><stop id="eyH4gPzB1IU17-fill-4" offset="26.6667%" stop-color="rgba(155,106,255,0.852589)"/><stop id="eyH4gPzB1IU17-fill-5" offset="33.3333%" stop-color="rgba(155,106,255,0.768225)"/><stop id="eyH4gPzB1IU17-fill-6" offset="40%" stop-color="rgba(155,106,255,0.668116)"/><stop id="eyH4gPzB1IU17-fill-7" offset="46.6667%" stop-color="rgba(155,106,255,0.557309)"/><stop id="eyH4gPzB1IU17-fill-8" offset="53.3333%" stop-color="rgba(155,106,255,0.442691)"/><stop id="eyH4gPzB1IU17-fill-9" offset="60%" stop-color="rgba(155,106,255,0.331884)"/><stop id="eyH4gPzB1IU17-fill-10" offset="66.6667%" stop-color="rgba(155,106,255,0.231775)"/><stop id="eyH4gPzB1IU17-fill-11" offset="73.3333%" stop-color="rgba(155,106,255,0.147411)"/><stop id="eyH4gPzB1IU17-fill-12" offset="80%" stop-color="rgba(155,106,255,0.0816599)"/><stop id="eyH4gPzB1IU17-fill-13" offset="86.6667%" stop-color="rgba(155,106,255,0.03551)"/><stop id="eyH4gPzB1IU17-fill-14" offset="93.3333%" stop-color="rgba(155,106,255,0.01)"/><stop id="eyH4gPzB1IU17-fill-15" offset="100%" stop-color="rgba(155,106,255,0)"/></linearGradient><linearGradient id="eyH4gPzB1IU19-fill" x1="31.1111" y1="6" x2="0" y2="6" spreadMethod="pad" gradientUnits="userSpaceOnUse" gradientTransform="translate(0 0)"><stop id="eyH4gPzB1IU19-fill-0" offset="0%" stop-color="#9b6aff"/><stop id="eyH4gPzB1IU19-fill-1" offset="6.66667%" stop-color="rgba(155,106,255,0.991353)"/><stop id="eyH4gPzB1IU19-fill-2" offset="13.3333%" stop-color="rgba(155,106,255,0.96449)"/><stop id="eyH4gPzB1IU19-fill-3" offset="20%" stop-color="rgba(155,106,255,0.91834)"/><stop id="eyH4gPzB1IU19-fill-4" offset="26.6667%" stop-color="rgba(155,106,255,0.852589)"/><stop id="eyH4gPzB1IU19-fill-5" offset="33.3333%" stop-color="rgba(155,106,255,0.768225)"/><stop id="eyH4gPzB1IU19-fill-6" offset="40%" stop-color="rgba(155,106,255,0.668116)"/><stop id="eyH4gPzB1IU19-fill-7" offset="46.6667%" stop-color="rgba(155,106,255,0.557309)"/><stop id="eyH4gPzB1IU19-fill-8" offset="53.3333%" stop-color="rgba(155,106,255,0.442691)"/><stop id="eyH4gPzB1IU19-fill-9" offset="60%" stop-color="rgba(155,106,255,0.331884)"/><stop id="eyH4gPzB1IU19-fill-10" offset="66.6667%" stop-color="rgba(155,106,255,0.231775)"/><stop id="eyH4gPzB1IU19-fill-11" offset="73.3333%" stop-color="rgba(155,106,255,0.147411)"/><stop id="eyH4gPzB1IU19-fill-12" offset="80%" stop-color="rgba(155,106,255,0.0816599)"/><stop id="eyH4gPzB1IU19-fill-13" offset="86.6667%" stop-color="rgba(155,106,255,0.03551)"/><stop id="eyH4gPzB1IU19-fill-14" offset="93.3333%" stop-color="rgba(155,106,255,0.01)"/><stop id="eyH4gPzB1IU19-fill-15" offset="100%" stop-color="rgba(155,106,255,0)"/></linearGradient><linearGradient id="eyH4gPzB1IU22-fill" x1="247.779" y1="858.303" x2="851.693" y2="869.887" spreadMethod="pad" gradientUnits="userSpaceOnUse" gradientTransform="translate(0 0)"><stop id="eyH4gPzB1IU22-fill-0" offset="0%" stop-color="#21064e"/><stop id="eyH4gPzB1IU22-fill-1" offset="100%" stop-color="rgba(33,6,78,0)"/></linearGradient><linearGradient id="eyH4gPzB1IU29-fill" x1="1501.11" y1="1746.67" x2="1501.11" y2="1348.89" spreadMethod="pad" gradientUnits="userSpaceOnUse" gradientTransform="translate(0 0)"><stop id="eyH4gPzB1IU29-fill-0" offset="0%" stop-color="#21064e"/><stop id="eyH4gPzB1IU29-fill-1" offset="6.66667%" stop-color="rgba(33,6,78,0.991353)"/><stop id="eyH4gPzB1IU29-fill-2" offset="13.3333%" stop-color="rgba(33,6,78,0.96449)"/><stop id="eyH4gPzB1IU29-fill-3" offset="20%" stop-color="rgba(33,6,78,0.91834)"/><stop id="eyH4gPzB1IU29-fill-4" offset="26.6667%" stop-color="rgba(33,6,78,0.852589)"/><stop id="eyH4gPzB1IU29-fill-5" offset="33.3333%" stop-color="rgba(33,6,78,0.768225)"/><stop id="eyH4gPzB1IU29-fill-6" offset="40%" stop-color="rgba(33,6,78,0.668116)"/><stop id="eyH4gPzB1IU29-fill-7" offset="46.6667%" stop-color="rgba(33,6,78,0.557309)"/><stop id="eyH4gPzB1IU29-fill-8" offset="53.3333%" stop-color="rgba(33,6,78,0.442691)"/><stop id="eyH4gPzB1IU29-fill-9" offset="60%" stop-color="rgba(33,6,78,0.331884)"/><stop id="eyH4gPzB1IU29-fill-10" offset="66.6667%" stop-color="rgba(33,6,78,0.231775)"/><stop id="eyH4gPzB1IU29-fill-11" offset="73.3333%" stop-color="rgba(33,6,78,0.147411)"/><stop id="eyH4gPzB1IU29-fill-12" offset="80%" stop-color="rgba(33,6,78,0.0816599)"/><stop id="eyH4gPzB1IU29-fill-13" offset="86.6667%" stop-color="rgba(33,6,78,0.03551)"/><stop id="eyH4gPzB1IU29-fill-14" offset="93.3333%" stop-color="rgba(33,6,78,0.01)"/><stop id="eyH4gPzB1IU29-fill-15" offset="100%" stop-color="rgba(33,6,78,0)"/></linearGradient><linearGradient id="eyH4gPzB1IU30-fill" x1="1601.11" y1="1403.89" x2="643.332" y2="1403.89" spreadMethod="pad" gradientUnits="userSpaceOnUse" gradientTransform="translate(0 0)"><stop id="eyH4gPzB1IU30-fill-0" offset="0%" stop-color="#21064e"/><stop id="eyH4gPzB1IU30-fill-1" offset="100%" stop-color="rgba(33,6,78,0)"/></linearGradient><linearGradient id="eyH4gPzB1IU34-fill" x1="-14.444" y1="1252.78" x2="962.223" y2="1252.78" spreadMethod="pad" gradientUnits="userSpaceOnUse" gradientTransform="translate(0 0)"><stop id="eyH4gPzB1IU34-fill-0" offset="0%" stop-color="#21064e"/><stop id="eyH4gPzB1IU34-fill-1" offset="100%" stop-color="rgba(33,6,78,0)"/></linearGradient></defs><g clip-path="url(#eyH4gPzB1IU59)"><g><rect width="1600" height="2613.33" rx="0" ry="0" fill="#21064e"/><g opacity="0.8"><path d="M362.318,98.7186c362.721.0001,656.762,295.7194,656.762,660.5084h-1313.525c0-364.789,294.042775-660.5084,656.763-660.5084Z" opacity="0.5" fill="#4c249f"/><path d="M371.303,95.7233c366.856,0,664.257,298.4017,664.257,666.4987h-1328.509c0-368.097,297.39574-666.4988,664.252-666.4987Z" fill="url(#eyH4gPzB1IU7-fill)" fill-opacity="0.5"/><g clip-path="url(#eyH4gPzB1IU13)"><g><path d="M1598.89,321.111h-824.444c-73.638,0-133.333,59.695-133.333,133.333v606.666h957.777v-739.999Z" fill="#4c269c"/><path d="M1398.89,520c0-109.843,89.54-198.889,200-198.889v397.778c-110.46,0-200-89.046-200-198.889Z" fill="#4c249f"/><path d="M641.109,454.444c0-73.638,59.696-133.333,133.334-133.333h824.447v739.999h-957.781v-606.666Z" fill="url(#eyH4gPzB1IU12-fill)" fill-opacity="0.51"/></g><clipPath id="eyH4gPzB1IU13"><rect width="1054.44" height="740" rx="0" ry="0" transform="matrix(-1 0 0 1 1598.89 321.111)" fill="#fff"/></clipPath></g><path d="M656.668,851.111c0-73.638-59.695-133.333-133.333-133.333h-522.22257v511.112h655.55557v-377.779Z" fill="url(#eyH4gPzB1IU15-fill)" fill-opacity="0.51"/><path d="M782.777,903.333h228.333c49.09,0,88.89-39.797,88.89-88.889v-46.666c0-73.638,59.69-133.334,133.33-133.334h366.67" fill="none" stroke="#21064e" stroke-width="40"/><rect width="55.5556" height="16" rx="0" ry="0" transform="matrix(-1 0 0 1 1345.55 626.555)" fill="url(#eyH4gPzB1IU17-fill)" fill-opacity="0.46"/><circle r="8" transform="matrix(-1 0 0 1 1290.89 634.555)" fill="#35f0d0"/><rect width="31.1111" height="16" rx="0" ry="0" transform="matrix(-1 0 0 1 1294.45 626.555)" fill="url(#eyH4gPzB1IU19-fill)" fill-opacity="0.46"/><circle r="8" transform="matrix(-1 0 0 1 1264.22 634.555)" fill="#ffb636"/><path d="M806.668,790c0-73.638-59.695-133.333-133.333-133.333h-843.334v404.443h976.667v-271.11Z" fill="#4e289d"/><path d="M806.668,790c0-73.638-59.695-133.333-133.333-133.333h-843.334v404.443h976.667v-271.11Z" fill="url(#eyH4gPzB1IU22-fill)" fill-opacity="0.7"/><path d="M1693.89,2491.11c409.61,0,741.67-333.3,741.67-744.44h-1483.337c0,411.14,332.057,744.44,741.667,744.44Z" fill="#36147d" fill-opacity="0.27"/><path d="M201.664,1920c269.085,0,487.222-219.38,487.222-490h-974.445c0,270.62,218.1373,490,487.223,490Z" fill="#36147d" fill-opacity="0.27"/><g clip-path="url(#eyH4gPzB1IU31)"><g><path d="M1601.11,1746.67h-824.445c-73.638,0-133.333-59.7-133.333-133.34v-551.11h957.778v684.45Z" fill="#36147d"/><path d="M1401.11,1547.78c0,109.84,89.54,198.89,200,198.89v-397.78c-110.46,0-200,89.04-200,198.89Z" fill="#8050e3"/><path d="M1401.11,1547.78c0,109.84,89.54,198.89,200,198.89v-397.78c-110.46,0-200,89.04-200,198.89Z" fill="url(#eyH4gPzB1IU29-fill)" fill-opacity="0.5"/><path d="M643.332,1613.33c0,73.64,59.695,133.34,133.333,133.34h824.445v-685.56h-957.778v552.22Z" fill="url(#eyH4gPzB1IU30-fill)" fill-opacity="0.51"/></g><clipPath id="eyH4gPzB1IU31"><rect width="1054.44" height="685.556" rx="0" ry="0" transform="matrix(-1 0 0-1 1601.11 1746.67)" fill="#fff"/></clipPath></g><path d="M-14.4453,1444.44h593.3333c211.709,0,383.333-171.62,383.333-383.33v0h-976.6663v383.33Z" fill="#4e289d"/><path d="M962.223,1061.11c0,211.71-171.624,383.33-383.334,383.33h-593.333v-383.33h976.667v0Z" fill="url(#eyH4gPzB1IU34-fill)" fill-opacity="0.51"/></g><path d="M1314.95,259.448c8.87,0,16.06,7.051,16.06,15.748h-32.12c0-8.697,7.19-15.748,16.06-15.748Z" fill="#ffb636"/><path d="M1327.67,299.955c-13.8-13.794-13.8-36.16,0-49.955l49.95,49.955c-13.79,13.795-36.16,13.795-49.95,0Z" fill="#9b6aff"/><path d="M1356.84,270.787c9.39,0,17,7.614,17,17.007h-34.01c0-9.393,7.61-17.007,17.01-17.007Z" fill="#8050e3"/><circle r="4.72425" transform="matrix(-1 0 0 1 1330.07575 268.58125)" fill="#21064e"/><rect width="5.0392" height="11.9681" rx="0" ry="0" transform="matrix(-1 0 0 1 1361.88 309.21)" fill="#9b6aff"/><path d="M1355.58,314.88c3.48,0,6.3,2.82,6.3,6.299h-12.6c0-3.479,2.82-6.299,6.3-6.299Z" fill="#ffb636"/><line x1="190.029" y1="601.005" x2="190.029" y2="658.295" fill="none" stroke="#fff" stroke-width="2.83945"/><path d="M190,594.755v25" fill="none" stroke="#fff" stroke-width="2.83945" stroke-linecap="round"/><path d="M190,519.757v25" fill="none" stroke="#fff" stroke-width="2.83945" stroke-linecap="round"/><path d="M215,569.756h24.999" fill="none" stroke="#fff" stroke-width="2.83945" stroke-linecap="round"/><path d="M140,569.756h24.999" fill="none" stroke="#fff" stroke-width="2.83945" stroke-linecap="round"/><path d="M207.672,587.434l17.677,17.677" fill="none" stroke="#fff" stroke-width="2.83945" stroke-linecap="round"/><path d="M154.645,534.402l17.677,17.677" fill="none" stroke="#fff" stroke-width="2.83945" stroke-linecap="round"/><path d="M207.672,552.079l17.677-17.678" fill="none" stroke="#fff" stroke-width="2.83945" stroke-linecap="round"/><path d="M154.645,605.111l17.677-17.677" fill="none" stroke="#fff" stroke-width="2.83945" stroke-linecap="round"/><ellipse rx="14.583" ry="14.583" transform="translate(189.997 569.756)" fill="#ffb636"/><ellipse rx="3.12492" ry="3.12492" transform="translate(175.414 534.34)" fill="#35f0d0"/><ellipse rx="3.12492" ry="3.12492" transform="translate(204.578 534.34)" fill="#9b6aff"/><ellipse rx="3.12492" ry="3.12492" transform="translate(225.414 555.173)" fill="#35f0d0"/><ellipse rx="3.12492" ry="3.12492" transform="translate(154.586 555.173)" fill="#9b6aff"/><ellipse rx="3.12492" ry="3.12492" transform="translate(225.414 583.297)" fill="#9b6aff"/><ellipse rx="3.12492" ry="3.12492" transform="translate(154.586 583.297)" fill="#35f0d0"/><ellipse rx="3.12492" ry="3.12492" transform="translate(204.578 604.13)" fill="#35f0d0"/><ellipse rx="3.12492" ry="3.12492" transform="translate(175.414 604.13)" fill="#9b6aff"/></g><clipPath id="eyH4gPzB1IU59"><rect width="1600" height="2613.33" rx="0" ry="0" fill="#fff"/></clipPath></g></svg>
