<svg id="ePZWapjvuXI1" xmlns="http://www.w3.org/2000/svg" xmlns:xlink="http://www.w3.org/1999/xlink" viewBox="0 0 1600 1560" shape-rendering="geometricPrecision" text-rendering="geometricPrecision"><defs><linearGradient id="ePZWapjvuXI5-fill" x1="246" y1="468.611" x2="1400" y2="451.111" spreadMethod="pad" gradientUnits="userSpaceOnUse" gradientTransform="translate(0 0)"><stop id="ePZWapjvuXI5-fill-0" offset="0%" stop-color="#4c249f"/><stop id="ePZWapjvuXI5-fill-1" offset="100%" stop-color="#6436c0"/></linearGradient><linearGradient id="ePZWapjvuXI6-fill" x1="80" y1="466.611" x2="1901.5" y2="453.111" spreadMethod="pad" gradientUnits="userSpaceOnUse" gradientTransform="translate(0 0)"><stop id="ePZWapjvuXI6-fill-0" offset="0%" stop-color="rgba(152,104,250,0)"/><stop id="ePZWapjvuXI6-fill-1" offset="80.6355%" stop-color="#46248c"/></linearGradient><linearGradient id="ePZWapjvuXI7-fill" x1="1074.94" y1="1086.91" x2="466.037" y2="1066.72" spreadMethod="pad" gradientUnits="userSpaceOnUse" gradientTransform="translate(0 0)"><stop id="ePZWapjvuXI7-fill-0" offset="0%" stop-color="#4c249f"/><stop id="ePZWapjvuXI7-fill-1" offset="100%" stop-color="rgba(76,36,159,0)"/></linearGradient><linearGradient id="ePZWapjvuXI22-fill" x1="412.004" y1="1130.47" x2="-169.138" y2="1124.13" spreadMethod="pad" gradientUnits="userSpaceOnUse" gradientTransform="translate(0 0)"><stop id="ePZWapjvuXI22-fill-0" offset="0%" stop-color="rgba(24,7,61,0)"/><stop id="ePZWapjvuXI22-fill-1" offset="80.7292%" stop-color="#18073d"/></linearGradient><linearGradient id="ePZWapjvuXI24-fill" x1="726.38" y1="1618.11" x2="1183.85" y2="1163.93" spreadMethod="pad" gradientUnits="userSpaceOnUse" gradientTransform="translate(0 0)"><stop id="ePZWapjvuXI24-fill-0" offset="0%" stop-color="rgba(33,6,78,0)"/><stop id="ePZWapjvuXI24-fill-1" offset="89.5863%" stop-color="#3b137d"/></linearGradient><linearGradient id="ePZWapjvuXI25-fill" x1="-65.7682" y1="1269.66" x2="609.921" y2="1292.05" spreadMethod="pad" gradientUnits="userSpaceOnUse" gradientTransform="translate(0 0)"><stop id="ePZWapjvuXI25-fill-0" offset="0%" stop-color="#4c249f"/><stop id="ePZWapjvuXI25-fill-1" offset="100%" stop-color="rgba(76,36,159,0)"/></linearGradient><linearGradient id="ePZWapjvuXI29-fill" x1="30" y1="6" x2="0" y2="6" spreadMethod="pad" gradientUnits="userSpaceOnUse" gradientTransform="translate(0 0)"><stop id="ePZWapjvuXI29-fill-0" offset="0%" stop-color="#9b6aff"/><stop id="ePZWapjvuXI29-fill-1" offset="6.66667%" stop-color="rgba(155,106,255,0.991353)"/><stop id="ePZWapjvuXI29-fill-2" offset="13.3333%" stop-color="rgba(155,106,255,0.96449)"/><stop id="ePZWapjvuXI29-fill-3" offset="20%" stop-color="rgba(155,106,255,0.91834)"/><stop id="ePZWapjvuXI29-fill-4" offset="26.6667%" stop-color="rgba(155,106,255,0.852589)"/><stop id="ePZWapjvuXI29-fill-5" offset="33.3333%" stop-color="rgba(155,106,255,0.768225)"/><stop id="ePZWapjvuXI29-fill-6" offset="40%" stop-color="rgba(155,106,255,0.668116)"/><stop id="ePZWapjvuXI29-fill-7" offset="46.6667%" stop-color="rgba(155,106,255,0.557309)"/><stop id="ePZWapjvuXI29-fill-8" offset="53.3333%" stop-color="rgba(155,106,255,0.442691)"/><stop id="ePZWapjvuXI29-fill-9" offset="60%" stop-color="rgba(155,106,255,0.331884)"/><stop id="ePZWapjvuXI29-fill-10" offset="66.6667%" stop-color="rgba(155,106,255,0.231775)"/><stop id="ePZWapjvuXI29-fill-11" offset="73.3333%" stop-color="rgba(155,106,255,0.147411)"/><stop id="ePZWapjvuXI29-fill-12" offset="80%" stop-color="rgba(155,106,255,0.0816599)"/><stop id="ePZWapjvuXI29-fill-13" offset="86.6667%" stop-color="rgba(155,106,255,0.03551)"/><stop id="ePZWapjvuXI29-fill-14" offset="93.3333%" stop-color="rgba(155,106,255,0.01)"/><stop id="ePZWapjvuXI29-fill-15" offset="100%" stop-color="rgba(155,106,255,0)"/></linearGradient><linearGradient id="ePZWapjvuXI31-fill" x1="30" y1="6" x2="0" y2="6" spreadMethod="pad" gradientUnits="userSpaceOnUse" gradientTransform="translate(0 0)"><stop id="ePZWapjvuXI31-fill-0" offset="0%" stop-color="#9b6aff"/><stop id="ePZWapjvuXI31-fill-1" offset="6.66667%" stop-color="rgba(155,106,255,0.991353)"/><stop id="ePZWapjvuXI31-fill-2" offset="13.3333%" stop-color="rgba(155,106,255,0.96449)"/><stop id="ePZWapjvuXI31-fill-3" offset="20%" stop-color="rgba(155,106,255,0.91834)"/><stop id="ePZWapjvuXI31-fill-4" offset="26.6667%" stop-color="rgba(155,106,255,0.852589)"/><stop id="ePZWapjvuXI31-fill-5" offset="33.3333%" stop-color="rgba(155,106,255,0.768225)"/><stop id="ePZWapjvuXI31-fill-6" offset="40%" stop-color="rgba(155,106,255,0.668116)"/><stop id="ePZWapjvuXI31-fill-7" offset="46.6667%" stop-color="rgba(155,106,255,0.557309)"/><stop id="ePZWapjvuXI31-fill-8" offset="53.3333%" stop-color="rgba(155,106,255,0.442691)"/><stop id="ePZWapjvuXI31-fill-9" offset="60%" stop-color="rgba(155,106,255,0.331884)"/><stop id="ePZWapjvuXI31-fill-10" offset="66.6667%" stop-color="rgba(155,106,255,0.231775)"/><stop id="ePZWapjvuXI31-fill-11" offset="73.3333%" stop-color="rgba(155,106,255,0.147411)"/><stop id="ePZWapjvuXI31-fill-12" offset="80%" stop-color="rgba(155,106,255,0.0816599)"/><stop id="ePZWapjvuXI31-fill-13" offset="86.6667%" stop-color="rgba(155,106,255,0.03551)"/><stop id="ePZWapjvuXI31-fill-14" offset="93.3333%" stop-color="rgba(155,106,255,0.01)"/><stop id="ePZWapjvuXI31-fill-15" offset="100%" stop-color="rgba(155,106,255,0)"/></linearGradient><linearGradient id="ePZWapjvuXI33-fill" x1="30" y1="6" x2="0" y2="6" spreadMethod="pad" gradientUnits="userSpaceOnUse" gradientTransform="translate(0 0)"><stop id="ePZWapjvuXI33-fill-0" offset="0%" stop-color="#9b6aff"/><stop id="ePZWapjvuXI33-fill-1" offset="6.66667%" stop-color="rgba(155,106,255,0.991353)"/><stop id="ePZWapjvuXI33-fill-2" offset="13.3333%" stop-color="rgba(155,106,255,0.96449)"/><stop id="ePZWapjvuXI33-fill-3" offset="20%" stop-color="rgba(155,106,255,0.91834)"/><stop id="ePZWapjvuXI33-fill-4" offset="26.6667%" stop-color="rgba(155,106,255,0.852589)"/><stop id="ePZWapjvuXI33-fill-5" offset="33.3333%" stop-color="rgba(155,106,255,0.768225)"/><stop id="ePZWapjvuXI33-fill-6" offset="40%" stop-color="rgba(155,106,255,0.668116)"/><stop id="ePZWapjvuXI33-fill-7" offset="46.6667%" stop-color="rgba(155,106,255,0.557309)"/><stop id="ePZWapjvuXI33-fill-8" offset="53.3333%" stop-color="rgba(155,106,255,0.442691)"/><stop id="ePZWapjvuXI33-fill-9" offset="60%" stop-color="rgba(155,106,255,0.331884)"/><stop id="ePZWapjvuXI33-fill-10" offset="66.6667%" stop-color="rgba(155,106,255,0.231775)"/><stop id="ePZWapjvuXI33-fill-11" offset="73.3333%" stop-color="rgba(155,106,255,0.147411)"/><stop id="ePZWapjvuXI33-fill-12" offset="80%" stop-color="rgba(155,106,255,0.0816599)"/><stop id="ePZWapjvuXI33-fill-13" offset="86.6667%" stop-color="rgba(155,106,255,0.03551)"/><stop id="ePZWapjvuXI33-fill-14" offset="93.3333%" stop-color="rgba(155,106,255,0.01)"/><stop id="ePZWapjvuXI33-fill-15" offset="100%" stop-color="rgba(155,106,255,0)"/></linearGradient><linearGradient id="ePZWapjvuXI46-fill" x1="51.7566" y1="376.225" x2="36.5614" y2="385.368" spreadMethod="pad" gradientUnits="userSpaceOnUse" gradientTransform="translate(0 0)"><stop id="ePZWapjvuXI46-fill-0" offset="0%" stop-color="#9b6aff"/><stop id="ePZWapjvuXI46-fill-1" offset="6.66667%" stop-color="rgba(155,106,255,0.991353)"/><stop id="ePZWapjvuXI46-fill-2" offset="13.3333%" stop-color="rgba(155,106,255,0.96449)"/><stop id="ePZWapjvuXI46-fill-3" offset="20%" stop-color="rgba(155,106,255,0.91834)"/><stop id="ePZWapjvuXI46-fill-4" offset="26.6667%" stop-color="rgba(155,106,255,0.852589)"/><stop id="ePZWapjvuXI46-fill-5" offset="33.3333%" stop-color="rgba(155,106,255,0.768225)"/><stop id="ePZWapjvuXI46-fill-6" offset="40%" stop-color="rgba(155,106,255,0.668116)"/><stop id="ePZWapjvuXI46-fill-7" offset="46.6667%" stop-color="rgba(155,106,255,0.557309)"/><stop id="ePZWapjvuXI46-fill-8" offset="53.3333%" stop-color="rgba(155,106,255,0.442691)"/><stop id="ePZWapjvuXI46-fill-9" offset="60%" stop-color="rgba(155,106,255,0.331884)"/><stop id="ePZWapjvuXI46-fill-10" offset="66.6667%" stop-color="rgba(155,106,255,0.231775)"/><stop id="ePZWapjvuXI46-fill-11" offset="73.3333%" stop-color="rgba(155,106,255,0.147411)"/><stop id="ePZWapjvuXI46-fill-12" offset="80%" stop-color="rgba(155,106,255,0.0816599)"/><stop id="ePZWapjvuXI46-fill-13" offset="86.6667%" stop-color="rgba(155,106,255,0.03551)"/><stop id="ePZWapjvuXI46-fill-14" offset="93.3333%" stop-color="rgba(155,106,255,0.01)"/><stop id="ePZWapjvuXI46-fill-15" offset="100%" stop-color="rgba(155,106,255,0)"/></linearGradient><linearGradient id="ePZWapjvuXI49-fill" x1="30.0704" y1="388.994" x2="-12.4938" y2="419.111" spreadMethod="pad" gradientUnits="userSpaceOnUse" gradientTransform="translate(0 0)"><stop id="ePZWapjvuXI49-fill-0" offset="0%" stop-color="#9b6aff"/><stop id="ePZWapjvuXI49-fill-1" offset="6.66667%" stop-color="rgba(155,106,255,0.991353)"/><stop id="ePZWapjvuXI49-fill-2" offset="13.3333%" stop-color="rgba(155,106,255,0.96449)"/><stop id="ePZWapjvuXI49-fill-3" offset="20%" stop-color="rgba(155,106,255,0.91834)"/><stop id="ePZWapjvuXI49-fill-4" offset="26.6667%" stop-color="rgba(155,106,255,0.852589)"/><stop id="ePZWapjvuXI49-fill-5" offset="33.3333%" stop-color="rgba(155,106,255,0.768225)"/><stop id="ePZWapjvuXI49-fill-6" offset="40%" stop-color="rgba(155,106,255,0.668116)"/><stop id="ePZWapjvuXI49-fill-7" offset="46.6667%" stop-color="rgba(155,106,255,0.557309)"/><stop id="ePZWapjvuXI49-fill-8" offset="53.3333%" stop-color="rgba(155,106,255,0.442691)"/><stop id="ePZWapjvuXI49-fill-9" offset="60%" stop-color="rgba(155,106,255,0.331884)"/><stop id="ePZWapjvuXI49-fill-10" offset="66.6667%" stop-color="rgba(155,106,255,0.231775)"/><stop id="ePZWapjvuXI49-fill-11" offset="73.3333%" stop-color="rgba(155,106,255,0.147411)"/><stop id="ePZWapjvuXI49-fill-12" offset="80%" stop-color="rgba(155,106,255,0.0816599)"/><stop id="ePZWapjvuXI49-fill-13" offset="86.6667%" stop-color="rgba(155,106,255,0.03551)"/><stop id="ePZWapjvuXI49-fill-14" offset="93.3333%" stop-color="rgba(155,106,255,0.01)"/><stop id="ePZWapjvuXI49-fill-15" offset="100%" stop-color="rgba(155,106,255,0)"/></linearGradient><linearGradient id="ePZWapjvuXI113-fill" x1="1320" y1="371.611" x2="288" y2="371.611" spreadMethod="pad" gradientUnits="userSpaceOnUse" gradientTransform="translate(0 0)"><stop id="ePZWapjvuXI113-fill-0" offset="0%" stop-color="#21064e"/><stop id="ePZWapjvuXI113-fill-1" offset="6.66667%" stop-color="rgba(33,6,78,0.991353)"/><stop id="ePZWapjvuXI113-fill-2" offset="13.3333%" stop-color="rgba(33,6,78,0.96449)"/><stop id="ePZWapjvuXI113-fill-3" offset="20%" stop-color="rgba(33,6,78,0.91834)"/><stop id="ePZWapjvuXI113-fill-4" offset="26.6667%" stop-color="rgba(33,6,78,0.852589)"/><stop id="ePZWapjvuXI113-fill-5" offset="33.3333%" stop-color="rgba(33,6,78,0.768225)"/><stop id="ePZWapjvuXI113-fill-6" offset="40%" stop-color="rgba(33,6,78,0.668116)"/><stop id="ePZWapjvuXI113-fill-7" offset="46.6667%" stop-color="rgba(33,6,78,0.557309)"/><stop id="ePZWapjvuXI113-fill-8" offset="53.3333%" stop-color="rgba(33,6,78,0.442691)"/><stop id="ePZWapjvuXI113-fill-9" offset="60%" stop-color="rgba(33,6,78,0.331884)"/><stop id="ePZWapjvuXI113-fill-10" offset="66.6667%" stop-color="rgba(33,6,78,0.231775)"/><stop id="ePZWapjvuXI113-fill-11" offset="73.3333%" stop-color="rgba(33,6,78,0.147411)"/><stop id="ePZWapjvuXI113-fill-12" offset="80%" stop-color="rgba(33,6,78,0.0816599)"/><stop id="ePZWapjvuXI113-fill-13" offset="86.6667%" stop-color="rgba(33,6,78,0.03551)"/><stop id="ePZWapjvuXI113-fill-14" offset="93.3333%" stop-color="rgba(33,6,78,0.01)"/><stop id="ePZWapjvuXI113-fill-15" offset="100%" stop-color="rgba(33,6,78,0)"/></linearGradient></defs><g clip-path="url(#ePZWapjvuXI115)"><g><rect width="1600" height="2210" rx="0" ry="0" fill="#21064e"/><path d="M0,290.611h268c11.046,0,20,8.954,20,20v79h1032v-79c0-11.046,8.95-20,20-20h180v882.999h-156-44-1032-27.002-260.998v-882.999Z" clip-rule="evenodd" fill="url(#ePZWapjvuXI5-fill)" fill-rule="evenodd"/><path d="M0,290.611h268c11.046,0,20,8.954,20,20v79h1032v-79c0-11.046,8.95-20,20-20h260v882.999h-236-44-1032-27.002-260.998v-882.999Z" clip-rule="evenodd" fill="url(#ePZWapjvuXI6-fill)" fill-rule="evenodd"/><path d="M881,786.611c-213.182,0-386,173.266-386,386.999h772c0-213.733-172.82-386.999-386-386.999Z" fill="url(#ePZWapjvuXI7-fill)"/><path d="M288.5,370.866h-203.5c-66.2742,0-120,53.726-120,120v16.745" fill="none" stroke="#21064e" stroke-width="30"/><path d="M288,316.611h1032v70c0,22.091-17.91,40-40,40h-952c-22.091,0-40-17.909-40-40v-70Z" fill="#36157d"/><path d="M1330.94,284.611l.48-1.345l1.29.613-.61-1.29l1.34-.478-1.34-.479.61-1.289-1.29.613-.48-1.345-.48,1.345-1.29-.613.62,1.289-1.35.479l1.35.478-.62,1.29l1.29-.613.48,1.345Z" fill="#b18cff" fill-opacity="0.25"/><path d="M1323.94,275.611l.67-1.883l1.81.858-.86-1.805l1.88-.67-1.88-.67.86-1.805-1.81.858-.67-1.883-.67,1.883-1.8-.858.85,1.805-1.88.67l1.88.67-.85,1.805l1.8-.858.67,1.883Z" fill="#b18cff" fill-opacity="0.4"/><path d="M1313.94,266.611l1.05-2.959l2.84,1.348-1.35-2.837l2.96-1.052-2.96-1.053l1.35-2.836-2.84,1.348-1.05-2.959-1.05,2.959-2.84-1.348l1.35,2.836-2.96,1.053l2.96,1.052-1.35,2.837l2.84-1.348l1.05,2.959Z" fill="#b18cff" fill-opacity="0.6"/><path d="M1249.78,214.381c-.01-.019-.02-.037-.04-.056-3.7-5.125-10.86-6.274-15.99-2.568-5.12,3.707-6.27,10.867-2.57,15.991.02.019.03.038.04.056l18.56-13.423Z" clip-rule="evenodd" fill="#ffb636" fill-rule="evenodd"/><circle r="2.68729" transform="matrix(.995427-.095525 0.095525 0.995427 1249.310034 209.454821)" fill="#36147d"/><path d="M1246.69,196.661c-.04.051-.08.104-.11.156-10.46,15.151-6.66,35.912,8.49,46.371c15.16,10.459,35.92,6.655,46.38-8.496.03-.052.07-.104.1-.156l-54.86-37.875Z" clip-rule="evenodd" fill="#9b6aff" fill-rule="evenodd"/><circle r="4" transform="matrix(.995427-.095525 0.095525 0.995427 1250.749959 210.636859)" fill="#21064e"/><rect width="5.75848" height="20.4746" rx="0" ry="0" transform="matrix(.74214-.670245 0.670245 0.74214 1282.519881 236.953734)" fill="#9b6aff"/><path d="M1300.91,247.948c-.03-.03-.05-.059-.08-.089-2.7-2.96-7.06-3.387-9.72-.953s-2.63,6.806.07,9.766c.03.03.06.06.09.089l9.64-8.813Z" clip-rule="evenodd" fill="#ffb636" fill-rule="evenodd"/><path d="M1293.4,220.981c-.01.03-.01.06-.02.09-1.44,8.623-9.6,14.441-18.23,12.995-8.62-1.446-14.44-9.608-12.99-18.23c0-.03.01-.06.01-.09l31.23,5.235Z" clip-rule="evenodd" fill="#8050e3" fill-rule="evenodd"/><path d="M412.004,1173.61c0-71.34-28.341-139.76-78.788-190.211-50.448-50.447-118.869-78.788-190.212-78.788-71.3433,0-139.76451,28.341-190.2118,78.788-50.4473,50.451-78.7882,118.871-78.7882,190.211h269h269Z" fill="#4c249f"/><path d="M412.004,1173.61c0-71.34-28.341-139.76-78.788-190.211-50.448-50.447-118.869-78.788-190.212-78.788-71.3433,0-139.76451,28.341-190.2118,78.788-50.4473,50.451-78.7882,118.871-78.7882,190.211h269h269Z" fill="#4c249f"/><path d="M412.004,1173.61c0-35.32-6.958-70.3-20.477-102.94-13.518-32.64-33.332-62.29-58.311-87.271-24.979-24.979-54.634-44.793-87.27-58.312-32.637-13.518-67.617-20.476-102.942-20.476-35.326,0-70.3054,6.958-102.942,20.476-32.63653,13.519-62.2909,33.333-87.2698,58.312-24.979,24.981-44.7934,54.631-58.3122,87.271-13.518,32.64-20.476,67.62-20.476,102.94h269h269Z" fill="url(#ePZWapjvuXI22-fill)"/><path d="M1163,1036.61c0-66.273,53.73-119.999,120-119.999h425v256.999h-545v-137Z" fill="#36147d"/><path d="M857.004,1293.61c0-66.27,53.726-120,120-120h622.996v462h-742.996v-342Z" fill="url(#ePZWapjvuXI24-fill)" fill-opacity="0.51"/><path d="M149.447,1603.33c236.562,0,428.333-192.51,428.333-430h-856.667c0,237.49,191.7717,430,428.334,430Z" opacity="0.5" fill="url(#ePZWapjvuXI25-fill)"/><rect width="69" height="16" rx="8" ry="8" transform="matrix(0-1 1 0 1508.55 1120.61)" fill="#4d25a0"/><rect width="69" height="16" rx="8" ry="8" transform="matrix(0-1 1 0 1452.55 1121.61)" fill="#4d25a0"/><rect width="69" height="16" rx="8" ry="8" transform="matrix(0-1 1 0 1396.55 1120.61)" fill="#4d25a0"/><rect width="30" height="16" rx="0" ry="0" transform="matrix(0 1-1 0 1524.55 1063.61)" fill="url(#ePZWapjvuXI29-fill)" fill-opacity="0.46"/><circle r="8" transform="matrix(0 1-1 0 1516.55 1093.61)" fill="#ffb636"/><rect width="30" height="16" rx="0" ry="0" transform="matrix(0-1 1 0 1452.55 1090.61)" fill="url(#ePZWapjvuXI31-fill)" fill-opacity="0.46"/><circle r="8" transform="matrix(0-1 1 0 1460.55 1060.61)" fill="#9b6aff"/><rect width="30" height="16" rx="0" ry="0" transform="matrix(0 1-1 0 1412.56 1082.61)" fill="url(#ePZWapjvuXI33-fill)" fill-opacity="0.46"/><circle r="8" transform="matrix(0 1-1 0 1404.56 1112.61)" fill="#35f0d0"/><rect width="75.2768" height="21.2546" rx="10.6273" ry="10.6273" transform="translate(1139.72 307.176)" fill="#fa48e8"/><rect width="60.2758" height="8.4133" rx="4.20665" ry="4.20665" transform="matrix(-.5 0.866025-.866025-.5 1175.686527 270.578735)" fill="#fa48e8"/><path d="M1176.01,267.006c0-2.14-.42-4.259-1.24-6.236-.83-1.977-2.03-3.774-3.56-5.287-1.52-1.513-3.32-2.714-5.31-3.533s-4.12-1.24-6.27-1.24c-2.16,0-4.29.421-6.27,1.24-1.99.819-3.8,2.02-5.32,3.533s-2.73,3.31-3.55,5.287c-.83,1.977-1.25,4.096-1.25,6.236h16.39h16.38Z" fill="#fa48e8"/><path d="M1166.47,278.789c1.62-.436,3.15-1.187,4.48-2.212c1.34-1.025,2.46-2.302,3.3-3.76s1.39-3.067,1.61-4.736.11-3.364-.33-4.99c-.43-1.626-1.18-3.15-2.21-4.486-1.02-1.335-2.3-2.456-3.76-3.297-1.46-.842-3.07-1.388-4.74-1.608-1.66-.22-3.36-.108-4.99.327l3.32,12.381l3.32,12.381Z" fill="#fa48e8"/><circle r="5.12707" transform="translate(1158.07 254.738)" fill="#f5f0ff"/><circle r="1.64799" transform="translate(1159.72 254.738)"/><g mask="url(#ePZWapjvuXI44)"><g><path d="M1176.01,267.007c0-2.141-.42-4.26-1.24-6.237-.83-1.977-2.03-3.774-3.56-5.287-1.52-1.513-3.32-2.714-5.31-3.533s-4.12-1.24-6.27-1.24c-2.16,0-4.29.421-6.27,1.24-1.99.819-3.8,2.02-5.32,3.533s-2.73,3.31-3.55,5.287c-.83,1.977-1.25,4.096-1.25,6.237h16.39h16.38Z" fill="#770f6d"/></g><mask id="ePZWapjvuXI44" mask-type="alpha" x="-150%" y="-150%" height="400%" width="400%"><path d="M1144.98,256.386l8.64,13.733h-17.28l8.64-13.733Z" fill="#d9d9d9"/></mask></g><path d="M5.01596,430.691L-25.8221,522.658l-15.1698-5.086l30.838-91.968c9.615841-28.677,32.5665-49.124,59.6369-56.753l4.2621,15.424c-22.1204,6.256-40.8693,22.976-48.72914,46.416Z" fill="url(#ePZWapjvuXI46-fill)" fill-opacity="0.46"/><circle r="8" transform="matrix(.948119 0.317917-.317917 0.948119 51.592751 376.699011)" fill="#ffb636"/><circle r="8" transform="matrix(.948119 0.317917-.317917 0.948119 306.587931 410.738978)" fill="#ffb636"/><path d="M-2.49513,426.111l-37.00007,88.5-17.9999-8.5l43-89.5c6.61609-19.731,23.26287-28.055,39.5029-38.5l9,12.5c-13.7317,8.533-30.9616,18.974-36.50293,35.5Z" fill="url(#ePZWapjvuXI49-fill)" fill-opacity="0.46"/><circle r="8" transform="matrix(.948119 0.317917-.317917 0.948119 28.135682 384.739018)" fill="#35f0d0"/><circle r="8" transform="translate(1296 411.611)" fill="#35f0d0"/><circle r="8" transform="translate(321 418.611)" fill="#9b6aff"/><circle r="8" transform="translate(337 418.611)" fill="#35f0d0"/><circle r="8" transform="translate(353 418.611)" fill="#ffb636"/><circle r="8" transform="translate(369 418.611)" fill="#9b6aff"/><circle r="8" transform="translate(385 418.611)" fill="#35f0d0"/><circle r="8" transform="translate(401 418.611)" fill="#ffb636"/><circle r="8" transform="translate(417 418.611)" fill="#9b6aff"/><circle r="8" transform="translate(433 418.611)" fill="#35f0d0"/><circle r="8" transform="translate(449 418.611)" fill="#ffb636"/><circle r="8" transform="translate(465 418.611)" fill="#9b6aff"/><circle r="8" transform="translate(481 418.611)" fill="#35f0d0"/><circle r="8" transform="translate(497 418.611)" fill="#ffb636"/><circle r="8" transform="translate(513 418.611)" fill="#9b6aff"/><circle r="8" transform="translate(529 418.611)" fill="#35f0d0"/><circle r="8" transform="translate(545 418.611)" fill="#ffb636"/><circle r="8" transform="translate(561 418.611)" fill="#9b6aff"/><circle r="8" transform="translate(577 418.611)" fill="#35f0d0"/><circle r="8" transform="translate(593 418.611)" fill="#ffb636"/><circle r="8" transform="translate(609 418.611)" fill="#9b6aff"/><circle r="8" transform="translate(625 418.611)" fill="#35f0d0"/><circle r="8" transform="translate(641 418.611)" fill="#ffb636"/><circle r="8" transform="translate(657 418.611)" fill="#9b6aff"/><circle r="8" transform="translate(673 418.611)" fill="#35f0d0"/><circle r="8" transform="translate(689 418.611)" fill="#ffb636"/><circle r="8" transform="translate(705 418.611)" fill="#9b6aff"/><circle r="8" transform="translate(721 418.611)" fill="#35f0d0"/><circle r="8" transform="translate(737 418.611)" fill="#ffb636"/><circle r="8" transform="translate(753 418.611)" fill="#9b6aff"/><circle r="8" transform="translate(769 418.611)" fill="#35f0d0"/><circle r="8" transform="translate(785 418.611)" fill="#ffb636"/><circle r="8" transform="translate(801 418.611)" fill="#9b6aff"/><circle r="8" transform="translate(817 418.611)" fill="#35f0d0"/><circle r="8" transform="translate(833 418.611)" fill="#ffb636"/><circle r="8" transform="translate(849 418.611)" fill="#9b6aff"/><circle r="8" transform="translate(865 418.611)" fill="#35f0d0"/><circle r="8" transform="translate(881 418.611)" fill="#ffb636"/><circle r="8" transform="translate(897 418.611)" fill="#9b6aff"/><circle r="8" transform="translate(913 418.611)" fill="#35f0d0"/><circle r="8" transform="translate(929 418.611)" fill="#ffb636"/><circle r="8" transform="translate(945 418.611)" fill="#9b6aff"/><circle r="8" transform="translate(961 418.611)" fill="#35f0d0"/><circle r="8" transform="translate(977 418.611)" fill="#ffb636"/><circle r="8" transform="translate(993 418.611)" fill="#9b6aff"/><circle r="8" transform="translate(1009 418.611)" fill="#35f0d0"/><circle r="8" transform="translate(1025 418.611)" fill="#ffb636"/><circle r="8" transform="translate(1041 418.611)" fill="#9b6aff"/><circle r="8" transform="translate(1057 418.611)" fill="#35f0d0"/><circle r="8" transform="translate(1073 418.611)" fill="#ffb636"/><circle r="8" transform="translate(1089 418.611)" fill="#9b6aff"/><circle r="8" transform="translate(1105 418.611)" fill="#35f0d0"/><circle r="8" transform="translate(1121 418.611)" fill="#ffb636"/><circle r="8" transform="translate(1137 418.611)" fill="#9b6aff"/><circle r="8" transform="translate(1153 418.611)" fill="#35f0d0"/><circle r="8" transform="translate(1169 418.611)" fill="#ffb636"/><circle r="8" transform="translate(1185 418.611)" fill="#9b6aff"/><circle r="8" transform="translate(1201 418.611)" fill="#35f0d0"/><circle r="8" transform="translate(1217 418.611)" fill="#ffb636"/><circle r="8" transform="translate(1233 418.611)" fill="#9b6aff"/><circle r="8" transform="translate(1249 418.611)" fill="#35f0d0"/><circle r="8" transform="translate(1265 418.611)" fill="#ffb636"/><circle r="8" transform="translate(1281 418.611)" fill="#9b6aff"/><path d="M288,316.611h1032v70c0,22.091-17.91,40-40,40h-952c-22.091,0-40-17.909-40-40v-70Z" fill="url(#ePZWapjvuXI113-fill)" fill-opacity="0.5"/><path d="M440.081,236.247l15.463,22.594l20.619-17.708-4.842,26.928l27.064,2.256-22.309,15.487l17.656,20.899-26.71-5.027-2.095,27.3-15.463-22.595-20.618,17.708l4.841-26.927-27.064-2.257l22.309-15.486-17.656-20.899l26.71,5.026l2.095-27.299Z" fill="#9b6aff"/></g><clipPath id="ePZWapjvuXI115"><rect width="1600" height="2210" rx="0" ry="0" fill="#fff"/></clipPath></g></svg>
