<svg id="et1WKm7C65s1" xmlns="http://www.w3.org/2000/svg" xmlns:xlink="http://www.w3.org/1999/xlink" viewBox="0 0 1600 1950" shape-rendering="geometricPrecision" text-rendering="geometricPrecision"><defs><linearGradient id="et1WKm7C65s2-fill" x1="800" y1="0" x2="800" y2="2461.11" spreadMethod="pad" gradientUnits="userSpaceOnUse" gradientTransform="translate(0 0)"><stop id="et1WKm7C65s2-fill-0" offset="19.7917%" stop-color="#21064e"/><stop id="et1WKm7C65s2-fill-1" offset="100%" stop-color="#36147d"/></linearGradient><linearGradient id="et1WKm7C65s7-fill" x1="1600" y1="462.222" x2="1180" y2="462.222" spreadMethod="pad" gradientUnits="userSpaceOnUse" gradientTransform="translate(0 0)"><stop id="et1WKm7C65s7-fill-0" offset="0%" stop-color="#21064e"/><stop id="et1WKm7C65s7-fill-1" offset="6.66667%" stop-color="rgba(33,6,78,0.991353)"/><stop id="et1WKm7C65s7-fill-2" offset="13.3333%" stop-color="rgba(33,6,78,0.96449)"/><stop id="et1WKm7C65s7-fill-3" offset="20%" stop-color="rgba(33,6,78,0.91834)"/><stop id="et1WKm7C65s7-fill-4" offset="26.6667%" stop-color="rgba(33,6,78,0.852589)"/><stop id="et1WKm7C65s7-fill-5" offset="33.3333%" stop-color="rgba(33,6,78,0.768225)"/><stop id="et1WKm7C65s7-fill-6" offset="40%" stop-color="rgba(33,6,78,0.668116)"/><stop id="et1WKm7C65s7-fill-7" offset="46.6667%" stop-color="rgba(33,6,78,0.557309)"/><stop id="et1WKm7C65s7-fill-8" offset="53.3333%" stop-color="rgba(33,6,78,0.442691)"/><stop id="et1WKm7C65s7-fill-9" offset="60%" stop-color="rgba(33,6,78,0.331884)"/><stop id="et1WKm7C65s7-fill-10" offset="66.6667%" stop-color="rgba(33,6,78,0.231775)"/><stop id="et1WKm7C65s7-fill-11" offset="73.3333%" stop-color="rgba(33,6,78,0.147411)"/><stop id="et1WKm7C65s7-fill-12" offset="80%" stop-color="rgba(33,6,78,0.0816599)"/><stop id="et1WKm7C65s7-fill-13" offset="86.6667%" stop-color="rgba(33,6,78,0.03551)"/><stop id="et1WKm7C65s7-fill-14" offset="93.3333%" stop-color="rgba(33,6,78,0.01)"/><stop id="et1WKm7C65s7-fill-15" offset="100%" stop-color="rgba(33,6,78,0)"/></linearGradient><linearGradient id="et1WKm7C65s9-stroke" x1="1527.22" y1="343.333" x2="1477.78" y2="406.667" spreadMethod="pad" gradientUnits="userSpaceOnUse" gradientTransform="translate(0 0)"><stop id="et1WKm7C65s9-stroke-0" offset="0%" stop-color="#9b6aff"/><stop id="et1WKm7C65s9-stroke-1" offset="6.66667%" stop-color="rgba(155,106,255,0.991353)"/><stop id="et1WKm7C65s9-stroke-2" offset="13.3333%" stop-color="rgba(155,106,255,0.96449)"/><stop id="et1WKm7C65s9-stroke-3" offset="20%" stop-color="rgba(155,106,255,0.91834)"/><stop id="et1WKm7C65s9-stroke-4" offset="26.6667%" stop-color="rgba(155,106,255,0.852589)"/><stop id="et1WKm7C65s9-stroke-5" offset="33.3333%" stop-color="rgba(155,106,255,0.768225)"/><stop id="et1WKm7C65s9-stroke-6" offset="40%" stop-color="rgba(155,106,255,0.668116)"/><stop id="et1WKm7C65s9-stroke-7" offset="46.6667%" stop-color="rgba(155,106,255,0.557309)"/><stop id="et1WKm7C65s9-stroke-8" offset="53.3333%" stop-color="rgba(155,106,255,0.442691)"/><stop id="et1WKm7C65s9-stroke-9" offset="60%" stop-color="rgba(155,106,255,0.331884)"/><stop id="et1WKm7C65s9-stroke-10" offset="66.6667%" stop-color="rgba(155,106,255,0.231775)"/><stop id="et1WKm7C65s9-stroke-11" offset="73.3333%" stop-color="rgba(155,106,255,0.147411)"/><stop id="et1WKm7C65s9-stroke-12" offset="80%" stop-color="rgba(155,106,255,0.0816599)"/><stop id="et1WKm7C65s9-stroke-13" offset="86.6667%" stop-color="rgba(155,106,255,0.03551)"/><stop id="et1WKm7C65s9-stroke-14" offset="93.3333%" stop-color="rgba(155,106,255,0.01)"/><stop id="et1WKm7C65s9-stroke-15" offset="100%" stop-color="rgba(155,106,255,0)"/></linearGradient><linearGradient id="et1WKm7C65s10-stroke" x1="1466.67" y1="436.667" x2="1497.22" y2="520.556" spreadMethod="pad" gradientUnits="userSpaceOnUse" gradientTransform="translate(0 0)"><stop id="et1WKm7C65s10-stroke-0" offset="0%" stop-color="#9b6aff"/><stop id="et1WKm7C65s10-stroke-1" offset="6.66667%" stop-color="rgba(155,106,255,0.991353)"/><stop id="et1WKm7C65s10-stroke-2" offset="13.3333%" stop-color="rgba(155,106,255,0.96449)"/><stop id="et1WKm7C65s10-stroke-3" offset="20%" stop-color="rgba(155,106,255,0.91834)"/><stop id="et1WKm7C65s10-stroke-4" offset="26.6667%" stop-color="rgba(155,106,255,0.852589)"/><stop id="et1WKm7C65s10-stroke-5" offset="33.3333%" stop-color="rgba(155,106,255,0.768225)"/><stop id="et1WKm7C65s10-stroke-6" offset="40%" stop-color="rgba(155,106,255,0.668116)"/><stop id="et1WKm7C65s10-stroke-7" offset="46.6667%" stop-color="rgba(155,106,255,0.557309)"/><stop id="et1WKm7C65s10-stroke-8" offset="53.3333%" stop-color="rgba(155,106,255,0.442691)"/><stop id="et1WKm7C65s10-stroke-9" offset="60%" stop-color="rgba(155,106,255,0.331884)"/><stop id="et1WKm7C65s10-stroke-10" offset="66.6667%" stop-color="rgba(155,106,255,0.231775)"/><stop id="et1WKm7C65s10-stroke-11" offset="73.3333%" stop-color="rgba(155,106,255,0.147411)"/><stop id="et1WKm7C65s10-stroke-12" offset="80%" stop-color="rgba(155,106,255,0.0816599)"/><stop id="et1WKm7C65s10-stroke-13" offset="86.6667%" stop-color="rgba(155,106,255,0.03551)"/><stop id="et1WKm7C65s10-stroke-14" offset="93.3333%" stop-color="rgba(155,106,255,0.01)"/><stop id="et1WKm7C65s10-stroke-15" offset="100%" stop-color="rgba(155,106,255,0)"/></linearGradient><linearGradient id="et1WKm7C65s12-stroke" x1="1540" y1="494.444" x2="1594.44" y2="530" spreadMethod="pad" gradientUnits="userSpaceOnUse" gradientTransform="translate(0 0)"><stop id="et1WKm7C65s12-stroke-0" offset="0%" stop-color="#9b6aff"/><stop id="et1WKm7C65s12-stroke-1" offset="6.66667%" stop-color="rgba(155,106,255,0.991353)"/><stop id="et1WKm7C65s12-stroke-2" offset="13.3333%" stop-color="rgba(155,106,255,0.96449)"/><stop id="et1WKm7C65s12-stroke-3" offset="20%" stop-color="rgba(155,106,255,0.91834)"/><stop id="et1WKm7C65s12-stroke-4" offset="26.6667%" stop-color="rgba(155,106,255,0.852589)"/><stop id="et1WKm7C65s12-stroke-5" offset="33.3333%" stop-color="rgba(155,106,255,0.768225)"/><stop id="et1WKm7C65s12-stroke-6" offset="40%" stop-color="rgba(155,106,255,0.668116)"/><stop id="et1WKm7C65s12-stroke-7" offset="46.6667%" stop-color="rgba(155,106,255,0.557309)"/><stop id="et1WKm7C65s12-stroke-8" offset="53.3333%" stop-color="rgba(155,106,255,0.442691)"/><stop id="et1WKm7C65s12-stroke-9" offset="60%" stop-color="rgba(155,106,255,0.331884)"/><stop id="et1WKm7C65s12-stroke-10" offset="66.6667%" stop-color="rgba(155,106,255,0.231775)"/><stop id="et1WKm7C65s12-stroke-11" offset="73.3333%" stop-color="rgba(155,106,255,0.147411)"/><stop id="et1WKm7C65s12-stroke-12" offset="80%" stop-color="rgba(155,106,255,0.0816599)"/><stop id="et1WKm7C65s12-stroke-13" offset="86.6667%" stop-color="rgba(155,106,255,0.03551)"/><stop id="et1WKm7C65s12-stroke-14" offset="93.3333%" stop-color="rgba(155,106,255,0.01)"/><stop id="et1WKm7C65s12-stroke-15" offset="100%" stop-color="rgba(155,106,255,0)"/></linearGradient><linearGradient id="et1WKm7C65s19-fill" x1="1.10986" y1="1237.22" x2="1323.33" y2="1237.22" spreadMethod="pad" gradientUnits="userSpaceOnUse" gradientTransform="translate(0 0)"><stop id="et1WKm7C65s19-fill-0" offset="0%" stop-color="#21064e"/><stop id="et1WKm7C65s19-fill-1" offset="100%" stop-color="rgba(33,6,78,0)"/></linearGradient><linearGradient id="et1WKm7C65s22-fill" x1="1598.89" y1="987.778" x2="943.332" y2="987.778" spreadMethod="pad" gradientUnits="userSpaceOnUse" gradientTransform="translate(0 0)"><stop id="et1WKm7C65s22-fill-0" offset="0%" stop-color="#21064e"/><stop id="et1WKm7C65s22-fill-1" offset="100%" stop-color="rgba(33,6,78,0)"/></linearGradient><linearGradient id="et1WKm7C65s24-fill" x1="55.556" y1="6" x2="0" y2="6" spreadMethod="pad" gradientUnits="userSpaceOnUse" gradientTransform="translate(0 0)"><stop id="et1WKm7C65s24-fill-0" offset="0%" stop-color="#9b6aff"/><stop id="et1WKm7C65s24-fill-1" offset="6.66667%" stop-color="rgba(155,106,255,0.991353)"/><stop id="et1WKm7C65s24-fill-2" offset="13.3333%" stop-color="rgba(155,106,255,0.96449)"/><stop id="et1WKm7C65s24-fill-3" offset="20%" stop-color="rgba(155,106,255,0.91834)"/><stop id="et1WKm7C65s24-fill-4" offset="26.6667%" stop-color="rgba(155,106,255,0.852589)"/><stop id="et1WKm7C65s24-fill-5" offset="33.3333%" stop-color="rgba(155,106,255,0.768225)"/><stop id="et1WKm7C65s24-fill-6" offset="40%" stop-color="rgba(155,106,255,0.668116)"/><stop id="et1WKm7C65s24-fill-7" offset="46.6667%" stop-color="rgba(155,106,255,0.557309)"/><stop id="et1WKm7C65s24-fill-8" offset="53.3333%" stop-color="rgba(155,106,255,0.442691)"/><stop id="et1WKm7C65s24-fill-9" offset="60%" stop-color="rgba(155,106,255,0.331884)"/><stop id="et1WKm7C65s24-fill-10" offset="66.6667%" stop-color="rgba(155,106,255,0.231775)"/><stop id="et1WKm7C65s24-fill-11" offset="73.3333%" stop-color="rgba(155,106,255,0.147411)"/><stop id="et1WKm7C65s24-fill-12" offset="80%" stop-color="rgba(155,106,255,0.0816599)"/><stop id="et1WKm7C65s24-fill-13" offset="86.6667%" stop-color="rgba(155,106,255,0.03551)"/><stop id="et1WKm7C65s24-fill-14" offset="93.3333%" stop-color="rgba(155,106,255,0.01)"/><stop id="et1WKm7C65s24-fill-15" offset="100%" stop-color="rgba(155,106,255,0)"/></linearGradient><linearGradient id="et1WKm7C65s26-fill" x1="31.111" y1="6" x2="0" y2="6" spreadMethod="pad" gradientUnits="userSpaceOnUse" gradientTransform="translate(0 0)"><stop id="et1WKm7C65s26-fill-0" offset="0%" stop-color="#9b6aff"/><stop id="et1WKm7C65s26-fill-1" offset="6.66667%" stop-color="rgba(155,106,255,0.991353)"/><stop id="et1WKm7C65s26-fill-2" offset="13.3333%" stop-color="rgba(155,106,255,0.96449)"/><stop id="et1WKm7C65s26-fill-3" offset="20%" stop-color="rgba(155,106,255,0.91834)"/><stop id="et1WKm7C65s26-fill-4" offset="26.6667%" stop-color="rgba(155,106,255,0.852589)"/><stop id="et1WKm7C65s26-fill-5" offset="33.3333%" stop-color="rgba(155,106,255,0.768225)"/><stop id="et1WKm7C65s26-fill-6" offset="40%" stop-color="rgba(155,106,255,0.668116)"/><stop id="et1WKm7C65s26-fill-7" offset="46.6667%" stop-color="rgba(155,106,255,0.557309)"/><stop id="et1WKm7C65s26-fill-8" offset="53.3333%" stop-color="rgba(155,106,255,0.442691)"/><stop id="et1WKm7C65s26-fill-9" offset="60%" stop-color="rgba(155,106,255,0.331884)"/><stop id="et1WKm7C65s26-fill-10" offset="66.6667%" stop-color="rgba(155,106,255,0.231775)"/><stop id="et1WKm7C65s26-fill-11" offset="73.3333%" stop-color="rgba(155,106,255,0.147411)"/><stop id="et1WKm7C65s26-fill-12" offset="80%" stop-color="rgba(155,106,255,0.0816599)"/><stop id="et1WKm7C65s26-fill-13" offset="86.6667%" stop-color="rgba(155,106,255,0.03551)"/><stop id="et1WKm7C65s26-fill-14" offset="93.3333%" stop-color="rgba(155,106,255,0.01)"/><stop id="et1WKm7C65s26-fill-15" offset="100%" stop-color="rgba(155,106,255,0)"/></linearGradient><linearGradient id="et1WKm7C65s29-fill" x1="1614.44" y1="885" x2="637.777" y2="885" spreadMethod="pad" gradientUnits="userSpaceOnUse" gradientTransform="translate(0 0)"><stop id="et1WKm7C65s29-fill-0" offset="0%" stop-color="#21064e"/><stop id="et1WKm7C65s29-fill-1" offset="100%" stop-color="rgba(33,6,78,0)"/></linearGradient><linearGradient id="et1WKm7C65s34-fill" x1="-1.1098" y1="1418.33" x2="956.668" y2="1418.33" spreadMethod="pad" gradientUnits="userSpaceOnUse" gradientTransform="translate(0 0)"><stop id="et1WKm7C65s34-fill-0" offset="0%" stop-color="#21064e"/><stop id="et1WKm7C65s34-fill-1" offset="100%" stop-color="rgba(33,6,78,0)"/></linearGradient><linearGradient id="et1WKm7C65s38-fill" x1="1918.89" y1="1647.22" x2="1066.67" y2="1647.22" spreadMethod="pad" gradientUnits="userSpaceOnUse" gradientTransform="translate(0 0)"><stop id="et1WKm7C65s38-fill-0" offset="0%" stop-color="#21064e"/><stop id="et1WKm7C65s38-fill-1" offset="100%" stop-color="rgba(33,6,78,0)"/></linearGradient><linearGradient id="et1WKm7C65s40-fill" x1="1614.44" y1="1185.56" x2="637.777" y2="1185.56" spreadMethod="pad" gradientUnits="userSpaceOnUse" gradientTransform="translate(0 0)"><stop id="et1WKm7C65s40-fill-0" offset="64.5833%" stop-color="#21064e"/><stop id="et1WKm7C65s40-fill-1" offset="100%" stop-color="rgba(33,6,78,0)"/></linearGradient></defs><rect width="1600" height="2461.11" rx="0" ry="0" fill="url(#et1WKm7C65s2-fill)"/><g mask="url(#et1WKm7C65s41)"><g><path d="M-200.557,-342.222c-409.612,0-741.667,333.29891-741.667,744.444h1483.333c0-411.14522-332.055-744.444-741.666-744.444Z" fill="#36147d" fill-opacity="0.27"/><path d="M1600,208.889h-286.67c-73.63,0-133.33,59.695-133.33,133.333v373.334h420v-506.667Z" fill="#4c249f"/><path d="M1180,342.222c0-73.638,59.7-133.333,133.33-133.333h286.67v506.667h-420v-373.334Z" fill="url(#et1WKm7C65s7-fill)" fill-opacity="0.37"/><circle r="133.333" transform="translate(1600 454.444)" fill="none" stroke="#24095b" stroke-width="16"/><path d="M1733.33,454.444c0,73.638-59.69,133.334-133.33,133.334s-133.33-59.696-133.33-133.334c0-46.308,23.61-87.102,59.44-111.004" fill="none" stroke="url(#et1WKm7C65s9-stroke)" stroke-width="16" stroke-opacity="0.46"/><path d="M1733.33,454.444c0,73.638-59.69,133.334-133.33,133.334s-133.33-59.696-133.33-133.334c0-7.571.63-14.995,1.84-22.222" fill="none" stroke="url(#et1WKm7C65s10-stroke)" stroke-width="16" stroke-opacity="0.46"/><circle r="72.2222" transform="translate(1600 454.444)" fill="none" stroke="#24095b" stroke-width="16"/><path d="M1600,382.222c39.88,0,72.22,32.335,72.22,72.222c0,39.888-32.34,72.223-72.22,72.223-25.33,0-47.62-13.042-60.51-32.778" fill="none" stroke="url(#et1WKm7C65s12-stroke)" stroke-width="16" stroke-opacity="0.46"/><circle r="8" transform="translate(1538 492.444)" fill="#35f0d0"/><circle r="8" transform="translate(1525.78 342.444)" fill="#ffb636"/><circle r="8" transform="translate(1468 431.333)" fill="#9b6aff"/><g clip-path="url(#et1WKm7C65s20)"><g><path d="M1.10938,402.222h1188.89062c73.64,0,133.33,59.696,133.33,133.333v1536.665h-1322.22062v-1669.998Z" fill="#36147d"/><path d="M1323.33,535.556c0-73.638-59.69-133.334-133.33-133.334h-1188.89014v1669.998h1322.22014v-1536.664Z" fill="url(#et1WKm7C65s19-fill)" fill-opacity="0.51"/></g><clipPath id="et1WKm7C65s20"><path d="M1.10938,402.222h1233.33062c49.09,0,88.89,39.797,88.89,88.889v1492.219c0,49.1-39.8,88.89-88.89,88.89h-1144.4417c-49.092,0-88.88892-39.79-88.88892-88.89v-1581.108Z" fill="#fff"/></clipPath></g><path d="M943.332,865.555c0-73.638,59.698-133.333,133.338-133.333h522.22v511.108h-655.558v-377.775Z" fill="url(#et1WKm7C65s22-fill)" fill-opacity="0.51"/><path d="M668.332,1051.11h-290.556c-49.092,0-88.888-39.8-88.888-88.888v-46.667c0-73.637-59.696-133.333-133.334-133.333h-366.666" fill="none" stroke="#21064e" stroke-width="40"/><rect width="55.5556" height="16" rx="0" ry="0" transform="matrix(0 1-1 0 296.777 883.333)" fill="url(#et1WKm7C65s24-fill)" fill-opacity="0.46"/><circle r="8" transform="matrix(0 1-1 0 288.78 938)" fill="#35f0d0"/><rect width="31.1111" height="16" rx="0" ry="0" transform="matrix(0 1-1 0 296.776 934.444)" fill="url(#et1WKm7C65s26-fill)" fill-opacity="0.46"/><circle r="8" transform="matrix(0 1-1 0 288.773 964.667)" fill="#ffb636"/><path d="M637.777,826.667c0-73.638,59.696-133.334,133.334-133.334h843.329v383.337h-976.663v-250.003Z" fill="#4c249f"/><path d="M637.777,826.667c0-73.638,59.696-133.334,133.334-133.334h843.329v383.337h-976.663v-250.003Z" fill="url(#et1WKm7C65s29-fill)" fill-opacity="0.51"/><g clip-path="url(#et1WKm7C65s35)"><g><path d="M-1.10938,1761.11h824.44438c73.638,0,133.333-59.69,133.333-133.33v-551.11h-957.77738v684.44Z" fill="#36147d"/><path d="M198.891,1562.22c0,109.85-89.543,198.89-200.00037,198.89l-.00001-397.78c110.45738,0,200.00038,89.05,200.00038,198.89Z" fill="#4c249f"/><path d="M956.668,1627.78c0,73.64-59.695,133.33-133.333,133.33h-824.4448v-685.55h957.7778v552.22Z" fill="url(#et1WKm7C65s34-fill)" fill-opacity="0.51"/></g><clipPath id="et1WKm7C65s35"><rect width="1054.44" height="685.556" rx="0" ry="0" transform="matrix(1 0 0-1-1.10938 1761.11)" fill="#fff"/></clipPath></g><path d="M1918.89,1342.22h-718.89c-73.64,0-133.33,59.7-133.33,133.34v476.66h852.22v-610Z" fill="#4c249f"/><path d="M1066.67,1475.56c0-73.64,59.69-133.34,133.33-133.34h718.89v610h-852.22v-476.66Z" fill="url(#et1WKm7C65s38-fill)" fill-opacity="0.51"/><path d="M637.777,1208.89c0,73.64,59.696,133.33,133.334,133.33h843.329v-313.33h-976.663v180Z" fill="#8050e3"/><path d="M637.777,1208.89c0,73.64,59.696,133.33,133.334,133.33h843.329v-313.33h-976.663v180Z" fill="url(#et1WKm7C65s40-fill)" fill-opacity="0.51"/></g><mask id="et1WKm7C65s41" mask-type="alpha" x="-150%" y="-150%" height="400%" width="400%"><rect width="1600" height="1950" rx="0" ry="0" fill="#d9d9d9"/></mask></g><line x1="275.577" y1="345.434" x2="275.577" y2="402.413" fill="none" stroke="#fff" stroke-width="2.76259"/><path d="M275.586,339.219v24.863" fill="none" stroke="#fff" stroke-width="2.76259" stroke-linecap="round"/><path d="M275.586,264.629v24.863" fill="none" stroke="#fff" stroke-width="2.76259" stroke-linecap="round"/><path d="M300.59,314.355h24.999" fill="none" stroke="#fff" stroke-width="2.76259" stroke-linecap="round"/><path d="M225.586,314.355h24.999" fill="none" stroke="#fff" stroke-width="2.76259" stroke-linecap="round"/><path d="M293.258,331.937l17.677,17.581" fill="none" stroke="#fff" stroke-width="2.76259" stroke-linecap="round"/><path d="M240.23,279.193l17.678,17.581" fill="none" stroke="#fff" stroke-width="2.76259" stroke-linecap="round"/><path d="M293.258,296.774l17.677-17.581" fill="none" stroke="#fff" stroke-width="2.76259" stroke-linecap="round"/><path d="M240.23,349.518l17.678-17.581" fill="none" stroke="#fff" stroke-width="2.76259" stroke-linecap="round"/><ellipse rx="14.583" ry="14.5036" transform="translate(275.583 314.355)" fill="#ffb636"/><ellipse rx="3.12492" ry="3.10791" transform="translate(261.004 279.132)" fill="#35f0d0"/><ellipse rx="3.12492" ry="3.10791" transform="translate(290.172 279.132)" fill="#9b6aff"/><ellipse rx="3.12492" ry="3.10791" transform="translate(311.004 299.852)" fill="#35f0d0"/><ellipse rx="3.12492" ry="3.10791" transform="translate(240.172 299.852)" fill="#9b6aff"/><ellipse rx="3.12492" ry="3.10791" transform="translate(311.004 327.823)" fill="#9b6aff"/><ellipse rx="3.12492" ry="3.10791" transform="translate(240.172 327.823)" fill="#35f0d0"/><ellipse rx="3.12492" ry="3.10791" transform="translate(290.172 348.542)" fill="#35f0d0"/><ellipse rx="3.12492" ry="3.10791" transform="translate(261.004 348.542)" fill="#9b6aff"/></svg>
