<svg id="eljN8WVTBAQ1" xmlns="http://www.w3.org/2000/svg" xmlns:xlink="http://www.w3.org/1999/xlink" viewBox="0 0 1600 1150" shape-rendering="geometricPrecision" text-rendering="geometricPrecision"><defs><linearGradient id="eljN8WVTBAQ4-fill" x1="800" y1="0" x2="800" y2="1727.78" spreadMethod="pad" gradientUnits="userSpaceOnUse" gradientTransform="translate(0 0)"><stop id="eljN8WVTBAQ4-fill-0" offset="19.7917%" stop-color="#21064e"/><stop id="eljN8WVTBAQ4-fill-1" offset="100%" stop-color="#36147d"/></linearGradient><linearGradient id="eljN8WVTBAQ8-fill" x1="1843.33" y1="926.166" x2="954.445" y2="926.166" spreadMethod="pad" gradientUnits="userSpaceOnUse" gradientTransform="translate(0 0)"><stop id="eljN8WVTBAQ8-fill-0" offset="0%" stop-color="#21064e"/><stop id="eljN8WVTBAQ8-fill-1" offset="6.66667%" stop-color="rgba(33,6,78,0.991353)"/><stop id="eljN8WVTBAQ8-fill-2" offset="13.3333%" stop-color="rgba(33,6,78,0.96449)"/><stop id="eljN8WVTBAQ8-fill-3" offset="20%" stop-color="rgba(33,6,78,0.91834)"/><stop id="eljN8WVTBAQ8-fill-4" offset="26.6667%" stop-color="rgba(33,6,78,0.852589)"/><stop id="eljN8WVTBAQ8-fill-5" offset="33.3333%" stop-color="rgba(33,6,78,0.768225)"/><stop id="eljN8WVTBAQ8-fill-6" offset="40%" stop-color="rgba(33,6,78,0.668116)"/><stop id="eljN8WVTBAQ8-fill-7" offset="46.6667%" stop-color="rgba(33,6,78,0.557309)"/><stop id="eljN8WVTBAQ8-fill-8" offset="53.3333%" stop-color="rgba(33,6,78,0.442691)"/><stop id="eljN8WVTBAQ8-fill-9" offset="60%" stop-color="rgba(33,6,78,0.331884)"/><stop id="eljN8WVTBAQ8-fill-10" offset="66.6667%" stop-color="rgba(33,6,78,0.231775)"/><stop id="eljN8WVTBAQ8-fill-11" offset="73.3333%" stop-color="rgba(33,6,78,0.147411)"/><stop id="eljN8WVTBAQ8-fill-12" offset="80%" stop-color="rgba(33,6,78,0.0816599)"/><stop id="eljN8WVTBAQ8-fill-13" offset="86.6667%" stop-color="rgba(33,6,78,0.03551)"/><stop id="eljN8WVTBAQ8-fill-14" offset="93.3333%" stop-color="rgba(33,6,78,0.01)"/><stop id="eljN8WVTBAQ8-fill-15" offset="100%" stop-color="rgba(33,6,78,0)"/></linearGradient><linearGradient id="eljN8WVTBAQ11-fill" x1="321.106" y1="1154.5" x2="1375.55" y2="1154.5" spreadMethod="pad" gradientUnits="userSpaceOnUse" gradientTransform="translate(0 0)"><stop id="eljN8WVTBAQ11-fill-0" offset="0%" stop-color="#21064e"/><stop id="eljN8WVTBAQ11-fill-1" offset="100%" stop-color="rgba(33,6,78,0)"/></linearGradient><linearGradient id="eljN8WVTBAQ12-stroke" x1="81.1093" y1="1107.28" x2="81.1093" y2="487.278" spreadMethod="pad" gradientUnits="userSpaceOnUse" gradientTransform="translate(0 0)"><stop id="eljN8WVTBAQ12-stroke-0" offset="0%" stop-color="#21064e"/><stop id="eljN8WVTBAQ12-stroke-1" offset="100%" stop-color="rgba(33,6,78,0)"/></linearGradient><linearGradient id="eljN8WVTBAQ13-fill" x1="70" y1="6" x2="0" y2="6" spreadMethod="pad" gradientUnits="userSpaceOnUse" gradientTransform="translate(0 0)"><stop id="eljN8WVTBAQ13-fill-0" offset="0%" stop-color="#9b6aff"/><stop id="eljN8WVTBAQ13-fill-1" offset="6.66667%" stop-color="rgba(155,106,255,0.991353)"/><stop id="eljN8WVTBAQ13-fill-2" offset="13.3333%" stop-color="rgba(155,106,255,0.96449)"/><stop id="eljN8WVTBAQ13-fill-3" offset="20%" stop-color="rgba(155,106,255,0.91834)"/><stop id="eljN8WVTBAQ13-fill-4" offset="26.6667%" stop-color="rgba(155,106,255,0.852589)"/><stop id="eljN8WVTBAQ13-fill-5" offset="33.3333%" stop-color="rgba(155,106,255,0.768225)"/><stop id="eljN8WVTBAQ13-fill-6" offset="40%" stop-color="rgba(155,106,255,0.668116)"/><stop id="eljN8WVTBAQ13-fill-7" offset="46.6667%" stop-color="rgba(155,106,255,0.557309)"/><stop id="eljN8WVTBAQ13-fill-8" offset="53.3333%" stop-color="rgba(155,106,255,0.442691)"/><stop id="eljN8WVTBAQ13-fill-9" offset="60%" stop-color="rgba(155,106,255,0.331884)"/><stop id="eljN8WVTBAQ13-fill-10" offset="66.6667%" stop-color="rgba(155,106,255,0.231775)"/><stop id="eljN8WVTBAQ13-fill-11" offset="73.3333%" stop-color="rgba(155,106,255,0.147411)"/><stop id="eljN8WVTBAQ13-fill-12" offset="80%" stop-color="rgba(155,106,255,0.0816599)"/><stop id="eljN8WVTBAQ13-fill-13" offset="86.6667%" stop-color="rgba(155,106,255,0.03551)"/><stop id="eljN8WVTBAQ13-fill-14" offset="93.3333%" stop-color="rgba(155,106,255,0.01)"/><stop id="eljN8WVTBAQ13-fill-15" offset="100%" stop-color="rgba(155,106,255,0)"/></linearGradient><linearGradient id="eljN8WVTBAQ16-fill" x1="142.222" y1="6" x2="0" y2="5.99999" spreadMethod="pad" gradientUnits="userSpaceOnUse" gradientTransform="translate(0 0)"><stop id="eljN8WVTBAQ16-fill-0" offset="0%" stop-color="#9b6aff"/><stop id="eljN8WVTBAQ16-fill-1" offset="6.66667%" stop-color="rgba(155,106,255,0.991353)"/><stop id="eljN8WVTBAQ16-fill-2" offset="13.3333%" stop-color="rgba(155,106,255,0.96449)"/><stop id="eljN8WVTBAQ16-fill-3" offset="20%" stop-color="rgba(155,106,255,0.91834)"/><stop id="eljN8WVTBAQ16-fill-4" offset="26.6667%" stop-color="rgba(155,106,255,0.852589)"/><stop id="eljN8WVTBAQ16-fill-5" offset="33.3333%" stop-color="rgba(155,106,255,0.768225)"/><stop id="eljN8WVTBAQ16-fill-6" offset="40%" stop-color="rgba(155,106,255,0.668116)"/><stop id="eljN8WVTBAQ16-fill-7" offset="46.6667%" stop-color="rgba(155,106,255,0.557309)"/><stop id="eljN8WVTBAQ16-fill-8" offset="53.3333%" stop-color="rgba(155,106,255,0.442691)"/><stop id="eljN8WVTBAQ16-fill-9" offset="60%" stop-color="rgba(155,106,255,0.331884)"/><stop id="eljN8WVTBAQ16-fill-10" offset="66.6667%" stop-color="rgba(155,106,255,0.231775)"/><stop id="eljN8WVTBAQ16-fill-11" offset="73.3333%" stop-color="rgba(155,106,255,0.147411)"/><stop id="eljN8WVTBAQ16-fill-12" offset="80%" stop-color="rgba(155,106,255,0.0816599)"/><stop id="eljN8WVTBAQ16-fill-13" offset="86.6667%" stop-color="rgba(155,106,255,0.03551)"/><stop id="eljN8WVTBAQ16-fill-14" offset="93.3333%" stop-color="rgba(155,106,255,0.01)"/><stop id="eljN8WVTBAQ16-fill-15" offset="100%" stop-color="rgba(155,106,255,0)"/></linearGradient><linearGradient id="eljN8WVTBAQ18-fill" x1="108.889" y1="6" x2="0" y2="6" spreadMethod="pad" gradientUnits="userSpaceOnUse" gradientTransform="translate(0 0)"><stop id="eljN8WVTBAQ18-fill-0" offset="0%" stop-color="#9b6aff"/><stop id="eljN8WVTBAQ18-fill-1" offset="6.66667%" stop-color="rgba(155,106,255,0.991353)"/><stop id="eljN8WVTBAQ18-fill-2" offset="13.3333%" stop-color="rgba(155,106,255,0.96449)"/><stop id="eljN8WVTBAQ18-fill-3" offset="20%" stop-color="rgba(155,106,255,0.91834)"/><stop id="eljN8WVTBAQ18-fill-4" offset="26.6667%" stop-color="rgba(155,106,255,0.852589)"/><stop id="eljN8WVTBAQ18-fill-5" offset="33.3333%" stop-color="rgba(155,106,255,0.768225)"/><stop id="eljN8WVTBAQ18-fill-6" offset="40%" stop-color="rgba(155,106,255,0.668116)"/><stop id="eljN8WVTBAQ18-fill-7" offset="46.6667%" stop-color="rgba(155,106,255,0.557309)"/><stop id="eljN8WVTBAQ18-fill-8" offset="53.3333%" stop-color="rgba(155,106,255,0.442691)"/><stop id="eljN8WVTBAQ18-fill-9" offset="60%" stop-color="rgba(155,106,255,0.331884)"/><stop id="eljN8WVTBAQ18-fill-10" offset="66.6667%" stop-color="rgba(155,106,255,0.231775)"/><stop id="eljN8WVTBAQ18-fill-11" offset="73.3333%" stop-color="rgba(155,106,255,0.147411)"/><stop id="eljN8WVTBAQ18-fill-12" offset="80%" stop-color="rgba(155,106,255,0.0816599)"/><stop id="eljN8WVTBAQ18-fill-13" offset="86.6667%" stop-color="rgba(155,106,255,0.03551)"/><stop id="eljN8WVTBAQ18-fill-14" offset="93.3333%" stop-color="rgba(155,106,255,0.01)"/><stop id="eljN8WVTBAQ18-fill-15" offset="100%" stop-color="rgba(155,106,255,0)"/></linearGradient><linearGradient id="eljN8WVTBAQ39-fill" x1="1918.88" y1="1220.61" x2="1066.66" y2="1220.61" spreadMethod="pad" gradientUnits="userSpaceOnUse" gradientTransform="translate(0 0)"><stop id="eljN8WVTBAQ39-fill-0" offset="0%" stop-color="#21064e"/><stop id="eljN8WVTBAQ39-fill-1" offset="100%" stop-color="rgba(33,6,78,0)"/></linearGradient></defs><g clip-path="url(#eljN8WVTBAQ52)"><g><rect width="1600" height="1727.78" rx="0" ry="0" transform="translate(0 0.611084)" fill="url(#eljN8WVTBAQ4-fill)"/><path d="M409.439,65.0552c-409.611428,0-741.667,333.2988-741.667,744.4448h1483.338c0-411.146-332.06-744.4449-741.671-744.4448Z" fill="#36147d" fill-opacity="0.27"/><path d="M1644.44,-99.3891c-250.37,0-453.33,203.9591-453.33,455.5561h906.67c0-251.597-202.97-455.5561-453.34-455.5561Z" fill="#36147d" fill-opacity="0.27"/><path d="M1843.33,356.167h-754.44c-73.64,0-133.336,59.695-133.336,133.333v1006.67h887.776v-1140.003Z" fill="#4c249f"/><path d="M954.445,489.5c0-73.638,59.695-133.333,133.335-133.333h755.55v1140.003h-888.885v-1006.67Z" fill="url(#eljN8WVTBAQ8-fill)" fill-opacity="0.5"/><path d="M1905.55,627.278c-174.89,0-316.66,142.274-316.66,317.778h633.33c0-175.504-141.78-317.778-316.67-317.778Z" fill="#36147d"/><path d="M321.105,811.722h921.115c73.63,0,133.33,59.696,133.33,133.333v551.115h-1054.445v-684.448Z" fill="#36147d"/><path d="M1375.55,945.056c0-73.638-59.69-133.334-133.33-133.334h-921.114v685.558h1054.444v-552.224Z" fill="url(#eljN8WVTBAQ11-fill)" fill-opacity="0.51"/><path d="M81.1094,487.278v486.98c0,9.818,7.9594,17.777,17.7778,17.777h77.7778c9.818,0,17.778,7.96,17.778,17.775v97.47" fill="none" stroke="url(#eljN8WVTBAQ12-stroke)" stroke-width="16"/><rect width="70" height="16" rx="0" ry="0" transform="matrix(0 1-1 0 89 785.056)" fill="url(#eljN8WVTBAQ13-fill)" fill-opacity="0.46"/><circle r="8" transform="matrix(0 1-1 0 81 854.167)" fill="#35f0d0"/><path d="M0,1130h1600" fill="none" stroke="#21064e" stroke-width="40"/><rect width="142.222" height="16" rx="0" ry="0" transform="matrix(1 0 0-1 380 1138.39)" fill="url(#eljN8WVTBAQ16-fill)" fill-opacity="0.46"/><circle r="8" transform="matrix(1 0 0-1 521.332 1130.39)" fill="#ffb636"/><rect width="108.889" height="16" rx="0" ry="0" transform="matrix(1 0 0-1 2.22266 1138.39)" fill="url(#eljN8WVTBAQ18-fill)" fill-opacity="0.46"/><circle r="8" transform="matrix(1 0 0-1 110.223 1130.39)" fill="#9b6aff"/><line x1="1235.58" y1="889.061" x2="1235.58" y2="946.351" fill="none" stroke="#fff" stroke-width="2.83945"/><path d="M1235.55,882.811v24.999" fill="none" stroke="#fff" stroke-width="2.83945" stroke-linecap="round"/><path d="M1235.55,807.813v24.999" fill="none" stroke="#fff" stroke-width="2.83945" stroke-linecap="round"/><path d="M1260.55,857.812h25" fill="none" stroke="#fff" stroke-width="2.83945" stroke-linecap="round"/><path d="M1185.55,857.812h25" fill="none" stroke="#fff" stroke-width="2.83945" stroke-linecap="round"/><path d="M1253.23,875.489l17.67,17.677" fill="none" stroke="#fff" stroke-width="2.83945" stroke-linecap="round"/><path d="M1200.2,822.457l17.68,17.677" fill="none" stroke="#fff" stroke-width="2.83945" stroke-linecap="round"/><path d="M1253.23,840.134l17.67-17.677" fill="none" stroke="#fff" stroke-width="2.83945" stroke-linecap="round"/><path d="M1200.2,893.167l17.68-17.678" fill="none" stroke="#fff" stroke-width="2.83945" stroke-linecap="round"/><ellipse rx="14.583" ry="14.583" transform="translate(1235.56 857.811)" fill="#ffb636"/><circle r="3.12492" transform="translate(1220.97 822.396)" fill="#35f0d0"/><circle r="3.12492" transform="translate(1250.13 822.396)" fill="#9b6aff"/><circle r="3.12492" transform="translate(1270.97 843.229)" fill="#35f0d0"/><circle r="3.12492" transform="translate(1200.14 843.229)" fill="#9b6aff"/><circle r="3.12492" transform="translate(1270.97 871.353)" fill="#9b6aff"/><circle r="3.12492" transform="translate(1200.14 871.353)" fill="#35f0d0"/><circle r="3.12492" transform="translate(1250.13 892.186)" fill="#35f0d0"/><circle r="3.12492" transform="translate(1220.97 892.186)" fill="#9b6aff"/><path d="M1918.88,945.055h-718.89c-73.63,0-133.33,59.695-133.33,133.335v417.78h852.22v-551.115Z" fill="#6538c1"/><path d="M1066.66,1078.39c0-73.64,59.7-133.335,133.33-133.335h718.89v551.115h-852.22v-417.78Z" fill="url(#eljN8WVTBAQ39-fill)" fill-opacity="0.51"/><path d="M271.041,310.385c-.003-.026-.007-.053-.01-.079-.891-7.492,4.461-14.288,11.953-15.179c7.493-.891,14.289,4.46,15.18,11.953.003.026.006.052.009.078l-27.132,3.227Z" clip-rule="evenodd" fill="#ffb636" fill-rule="evenodd"/><circle r="3.20574" transform="matrix(-.796767 0.604287 0.604287 0.796767 267.468959 305.687414)" fill="#36147d"/><path d="M259.429,292.34c.074.016.148.033.222.05c21.423,4.837,34.869,26.125,30.032,47.548s-26.125,34.869-47.548,30.032c-.074-.017-.148-.034-.222-.051l17.516-77.579Z" clip-rule="evenodd" fill="#9b6aff" fill-rule="evenodd"/><circle r="3.96902" transform="matrix(-.796767 0.604287 0.604287 0.796767 267.322043 306.75681)" fill="#36147d"/><rect width="6.86945" height="24.4247" rx="0" ry="0" transform="matrix(-.99995 0.010001 0.010001 0.99995 260.574 356.647)" fill="#9b6aff"/><path d="M253.327,381.157c-.001-.047-.001-.093-.001-.14-.021-4.783,3.452-8.675,7.757-8.693c4.304-.019,7.809,3.844,7.83,8.627c0,.047,0,.094-.001.14l-15.585.066Z" clip-rule="evenodd" fill="#ffb636" fill-rule="evenodd"/><path d="M238.112,351.436c.028.022.056.044.084.066c8.239,6.395,20.102,4.901,26.497-3.337c6.396-8.239,4.902-20.102-3.336-26.497-.029-.022-.057-.044-.085-.066l-23.16,29.834Z" clip-rule="evenodd" fill="#8050e3" fill-rule="evenodd"/><path d="M1705.55,356.167c0-67.502-54.72-122.223-122.22-122.223s-122.22,54.721-122.22,122.223" fill="none" stroke="#fff" stroke-width="2.22222"/><path d="M1647.78,356.167c0-35.592-28.85-64.445-64.44-64.445-35.6,0-64.45,28.853-64.45,64.445" fill="none" stroke="#fff" stroke-width="2.22222"/><circle r="13.3333" transform="matrix(0 1-1 0 1583.326 233.94)" fill="#ffb636" stroke="#270a5b" stroke-width="8.88889"/><circle r="13.3333" transform="matrix(0 1-1 0 1494.444 275.06)" fill="#35f0d0" stroke="#270a5b" stroke-width="8.88889"/><circle r="13.3333" transform="matrix(0 1-1 0 1536.674 315.06)" fill="#9b6aff" stroke="#270a5b" stroke-width="8.88889"/></g><clipPath id="eljN8WVTBAQ52"><rect width="1600" height="1727.78" rx="0" ry="0" transform="translate(0 0.611084)" fill="#fff"/></clipPath></g></svg>
