<svg id="eYr6BWHu3Gs1" xmlns="http://www.w3.org/2000/svg" xmlns:xlink="http://www.w3.org/1999/xlink" viewBox="0 0 1600 1430" shape-rendering="geometricPrecision" text-rendering="geometricPrecision" style="background-color:#21064e"><defs><linearGradient id="eYr6BWHu3Gs6-fill" x1="1444" y1="931.5" x2="891" y2="931.5" spreadMethod="pad" gradientUnits="userSpaceOnUse" gradientTransform="translate(0 0)"><stop id="eYr6BWHu3Gs6-fill-0" offset="0%" stop-color="#21064e"/><stop id="eYr6BWHu3Gs6-fill-1" offset="6.66667%" stop-color="rgba(33,6,78,0.991353)"/><stop id="eYr6BWHu3Gs6-fill-2" offset="13.3333%" stop-color="rgba(33,6,78,0.96449)"/><stop id="eYr6BWHu3Gs6-fill-3" offset="20%" stop-color="rgba(33,6,78,0.91834)"/><stop id="eYr6BWHu3Gs6-fill-4" offset="26.6667%" stop-color="rgba(33,6,78,0.852589)"/><stop id="eYr6BWHu3Gs6-fill-5" offset="33.3333%" stop-color="rgba(33,6,78,0.768225)"/><stop id="eYr6BWHu3Gs6-fill-6" offset="40%" stop-color="rgba(33,6,78,0.668116)"/><stop id="eYr6BWHu3Gs6-fill-7" offset="46.6667%" stop-color="rgba(33,6,78,0.557309)"/><stop id="eYr6BWHu3Gs6-fill-8" offset="53.3333%" stop-color="rgba(33,6,78,0.442691)"/><stop id="eYr6BWHu3Gs6-fill-9" offset="60%" stop-color="rgba(33,6,78,0.331884)"/><stop id="eYr6BWHu3Gs6-fill-10" offset="66.6667%" stop-color="rgba(33,6,78,0.231775)"/><stop id="eYr6BWHu3Gs6-fill-11" offset="73.3333%" stop-color="rgba(33,6,78,0.147411)"/><stop id="eYr6BWHu3Gs6-fill-12" offset="80%" stop-color="rgba(33,6,78,0.0816599)"/><stop id="eYr6BWHu3Gs6-fill-13" offset="86.6667%" stop-color="rgba(33,6,78,0.03551)"/><stop id="eYr6BWHu3Gs6-fill-14" offset="93.3333%" stop-color="rgba(33,6,78,0.01)"/><stop id="eYr6BWHu3Gs6-fill-15" offset="100%" stop-color="rgba(33,6,78,0)"/></linearGradient><linearGradient id="eYr6BWHu3Gs30-fill" x1="3" y1="978.5" x2="952" y2="978.5" spreadMethod="pad" gradientUnits="userSpaceOnUse" gradientTransform="translate(0 0)"><stop id="eYr6BWHu3Gs30-fill-0" offset="0%" stop-color="#21064e"/><stop id="eYr6BWHu3Gs30-fill-1" offset="100%" stop-color="rgba(33,6,78,0)"/></linearGradient><linearGradient id="eYr6BWHu3Gs37-stroke" x1="-501.506673" y1="923.299541" x2="-352.003334" y2="922.394778" spreadMethod="pad" gradientUnits="userSpaceOnUse" gradientTransform="translate(0 0)"><stop id="eYr6BWHu3Gs37-stroke-0" offset="0%" stop-color="rgba(155,106,255,0)"/><stop id="eYr6BWHu3Gs37-stroke-1" offset="100%" stop-color="#9b6aff"/></linearGradient><linearGradient id="eYr6BWHu3Gs40-fill" x1="1441" y1="1038" x2="576" y2="1038" spreadMethod="pad" gradientUnits="userSpaceOnUse" gradientTransform="translate(0 0)"><stop id="eYr6BWHu3Gs40-fill-0" offset="0%" stop-color="#21064e"/><stop id="eYr6BWHu3Gs40-fill-1" offset="100%" stop-color="rgba(33,6,78,0)"/></linearGradient><linearGradient id="eYr6BWHu3Gs42-fill" x1="576" y1="1228.5" x2="283" y2="1228.5" spreadMethod="pad" gradientUnits="userSpaceOnUse" gradientTransform="translate(0 0)"><stop id="eYr6BWHu3Gs42-fill-0" offset="0%" stop-color="#21064e"/><stop id="eYr6BWHu3Gs42-fill-1" offset="100%" stop-color="rgba(33,6,78,0)"/></linearGradient><linearGradient id="eYr6BWHu3Gs44-stroke" x1="768.671" y1="1171" x2="1028.09" y2="1286.98" spreadMethod="pad" gradientUnits="userSpaceOnUse" gradientTransform="translate(0 0)"><stop id="eYr6BWHu3Gs44-stroke-0" offset="0%" stop-color="#21064e"/><stop id="eYr6BWHu3Gs44-stroke-1" offset="100%" stop-color="rgba(33,6,78,0)"/></linearGradient><linearGradient id="eYr6BWHu3Gs45-fill" x1="63" y1="6" x2="0" y2="6" spreadMethod="pad" gradientUnits="userSpaceOnUse" gradientTransform="translate(0 0)"><stop id="eYr6BWHu3Gs45-fill-0" offset="0%" stop-color="#9b6aff"/><stop id="eYr6BWHu3Gs45-fill-1" offset="6.66667%" stop-color="rgba(155,106,255,0.991353)"/><stop id="eYr6BWHu3Gs45-fill-2" offset="13.3333%" stop-color="rgba(155,106,255,0.96449)"/><stop id="eYr6BWHu3Gs45-fill-3" offset="20%" stop-color="rgba(155,106,255,0.91834)"/><stop id="eYr6BWHu3Gs45-fill-4" offset="26.6667%" stop-color="rgba(155,106,255,0.852589)"/><stop id="eYr6BWHu3Gs45-fill-5" offset="33.3333%" stop-color="rgba(155,106,255,0.768225)"/><stop id="eYr6BWHu3Gs45-fill-6" offset="40%" stop-color="rgba(155,106,255,0.668116)"/><stop id="eYr6BWHu3Gs45-fill-7" offset="46.6667%" stop-color="rgba(155,106,255,0.557309)"/><stop id="eYr6BWHu3Gs45-fill-8" offset="53.3333%" stop-color="rgba(155,106,255,0.442691)"/><stop id="eYr6BWHu3Gs45-fill-9" offset="60%" stop-color="rgba(155,106,255,0.331884)"/><stop id="eYr6BWHu3Gs45-fill-10" offset="66.6667%" stop-color="rgba(155,106,255,0.231775)"/><stop id="eYr6BWHu3Gs45-fill-11" offset="73.3333%" stop-color="rgba(155,106,255,0.147411)"/><stop id="eYr6BWHu3Gs45-fill-12" offset="80%" stop-color="rgba(155,106,255,0.0816599)"/><stop id="eYr6BWHu3Gs45-fill-13" offset="86.6667%" stop-color="rgba(155,106,255,0.03551)"/><stop id="eYr6BWHu3Gs45-fill-14" offset="93.3333%" stop-color="rgba(155,106,255,0.01)"/><stop id="eYr6BWHu3Gs45-fill-15" offset="100%" stop-color="rgba(155,106,255,0)"/></linearGradient><linearGradient id="eYr6BWHu3Gs48-fill" x1="63" y1="6" x2="0" y2="6" spreadMethod="pad" gradientUnits="userSpaceOnUse" gradientTransform="translate(0 0)"><stop id="eYr6BWHu3Gs48-fill-0" offset="0%" stop-color="#9b6aff"/><stop id="eYr6BWHu3Gs48-fill-1" offset="6.66667%" stop-color="rgba(155,106,255,0.991353)"/><stop id="eYr6BWHu3Gs48-fill-2" offset="13.3333%" stop-color="rgba(155,106,255,0.96449)"/><stop id="eYr6BWHu3Gs48-fill-3" offset="20%" stop-color="rgba(155,106,255,0.91834)"/><stop id="eYr6BWHu3Gs48-fill-4" offset="26.6667%" stop-color="rgba(155,106,255,0.852589)"/><stop id="eYr6BWHu3Gs48-fill-5" offset="33.3333%" stop-color="rgba(155,106,255,0.768225)"/><stop id="eYr6BWHu3Gs48-fill-6" offset="40%" stop-color="rgba(155,106,255,0.668116)"/><stop id="eYr6BWHu3Gs48-fill-7" offset="46.6667%" stop-color="rgba(155,106,255,0.557309)"/><stop id="eYr6BWHu3Gs48-fill-8" offset="53.3333%" stop-color="rgba(155,106,255,0.442691)"/><stop id="eYr6BWHu3Gs48-fill-9" offset="60%" stop-color="rgba(155,106,255,0.331884)"/><stop id="eYr6BWHu3Gs48-fill-10" offset="66.6667%" stop-color="rgba(155,106,255,0.231775)"/><stop id="eYr6BWHu3Gs48-fill-11" offset="73.3333%" stop-color="rgba(155,106,255,0.147411)"/><stop id="eYr6BWHu3Gs48-fill-12" offset="80%" stop-color="rgba(155,106,255,0.0816599)"/><stop id="eYr6BWHu3Gs48-fill-13" offset="86.6667%" stop-color="rgba(155,106,255,0.03551)"/><stop id="eYr6BWHu3Gs48-fill-14" offset="93.3333%" stop-color="rgba(155,106,255,0.01)"/><stop id="eYr6BWHu3Gs48-fill-15" offset="100%" stop-color="rgba(155,106,255,0)"/></linearGradient><linearGradient id="eYr6BWHu3Gs49-stroke" x1="1240.36" y1="939" x2="963.507" y2="843.224" spreadMethod="pad" gradientUnits="userSpaceOnUse" gradientTransform="translate(0 0)"><stop id="eYr6BWHu3Gs49-stroke-0" offset="0%" stop-color="#21064e"/><stop id="eYr6BWHu3Gs49-stroke-1" offset="100%" stop-color="rgba(33,6,78,0)"/></linearGradient><linearGradient id="eYr6BWHu3Gs51-stroke" x1="0" y1="0.5" x2="1" y2="0.5" spreadMethod="pad" gradientUnits="objectBoundingBox" gradientTransform="translate(0 0)"><stop id="eYr6BWHu3Gs51-stroke-0" offset="0%" stop-color="#3f5787"/><stop id="eYr6BWHu3Gs51-stroke-1" offset="100%" stop-color="#c0a878"/></linearGradient></defs><g transform="translate(80 52.000003)"><path d="M-80.5001,-0.000064C-449.15,-0.000031,-748,299.969,-748,670h1335C587,299.969,288.15,-0.000096,-80.5001,-0.000064Z" transform="translate(0 15.000061)" fill="#36147d" fill-opacity="0.27"/><path d="M1320,294c-155.74,0-282,126.703-282,283h564c0-156.297-126.26-283-282-283Z" fill="#36147d" fill-opacity="0.27"/><path d="M1444,577h-432.05c-66.276,0-120.001,53.726-120.001,120v589h552.051v-709Z" fill="#9b6aff"/><path d="M891,697c0-66.274,53.726-120,120-120h433v709h-553v-589Z" fill="url(#eYr6BWHu3Gs6-fill)" fill-opacity="0.5"/><g transform="translate(130.003182 556.584509)"><g><path d="M221,126c0-60.7513-49.249-110-110-110C50.2487,16,1,65.2487,1,126" fill="none" stroke="#fff" stroke-width="2"/><path d="M169,126c0-32.0325-25.967-58-58-58-32.0325,0-58,25.9675-58,58" fill="none" stroke="#fff" stroke-width="2"/><circle r="12" transform="matrix(0 1-1 0 111 16)" fill="#ffb636" stroke="#270a5b" stroke-width="8"/><circle r="12" transform="matrix(0 1-1 0 31 53)" fill="#35f0d0" stroke="#270a5b" stroke-width="8"/><circle r="12" transform="matrix(0 1-1 0 155 89)" fill="#35f0d0" stroke="#270a5b" stroke-width="8"/><circle r="12" transform="matrix(0 1-1 0 191 53)" fill="#9b6aff" stroke="#270a5b" stroke-width="8"/><circle r="12" transform="matrix(0 1-1 0 69 89)" fill="#9b6aff" stroke="#270a5b" stroke-width="8"/><path d="M221,126c0,60.751-49.249,110-110,110C50.2487,236,1,186.751,1,126" fill="none" stroke="#fff" stroke-width="2"/><path d="M169,126c0,32.033-25.967,58-58,58-32.0325,0-58-25.967-58-58" fill="none" stroke="#fff" stroke-width="2"/><circle r="12" transform="matrix(0-1-1 0 111 236)" fill="#ffb636" stroke="#270a5b" stroke-width="8"/><circle r="12" transform="matrix(0-1-1 0 31 199)" fill="#35f0d0" stroke="#270a5b" stroke-width="8"/><circle r="12" transform="matrix(0-1-1 0 155 163)" fill="#35f0d0" stroke="#270a5b" stroke-width="8"/><circle r="12" transform="matrix(0-1-1 0 191 199)" fill="#9b6aff" stroke="#270a5b" stroke-width="8"/><circle r="12" transform="matrix(0-1-1 0 69 163)" fill="#9b6aff" stroke="#270a5b" stroke-width="8"/></g></g><path d="M1429,504c-157.4,0-285,128.047-285,286h570c0-157.953-127.6-286-285-286Z" fill="#36147d"/><g transform="translate(-3 14.999997)" clip-path="url(#eYr6BWHu3Gs31)"><g><g transform="translate(-80 0)"><path d="M3,670h898.884089C973.744938,670,1032,731.750013,1032,807.922078L1032,1378h-1029v-708Z" fill="#36147d"/></g><path d="M183,849c0-98.859-80.589-179-180-179v358c99.411,0,180-80.141,180-179Z" transform="translate(-82 0)" fill="#4c249f"/><path d="M737.5,894C585.346,894,462,1018.02,462,1171h551c0-152.98-123.346-277-275.5-277Z" transform="matrix(1.337546 0 0 1.337546-207.940175-298.516245)" fill="#4c249f"/><path d="M1032,807.698542C1032,731.649932,973.744938,670,901.884089,670L3,670v708h1029v-570.301458Z" transform="translate(-80 0)" fill="url(#eYr6BWHu3Gs30-fill)" fill-opacity="0.51"/></g><clipPath id="eYr6BWHu3Gs31" transform="translate(-80 0)"><rect width="949" height="708" rx="0" ry="0" transform="matrix(1.084355 0 0 1 3 670)" fill="#fff"/></clipPath></g><g transform="translate(0 40)"><path d="M576,1024h-44c-44.183,0-80-35.817-80-80v-42c0-66.274-53.726-120-120-120h-412.313447" transform="translate(-.186653 0)" fill="none" stroke="#21064e" stroke-width="40"/><g transform="matrix(0-1 1 0-900 1234)"><path d="M-501.506673,922.394778c4.66007,0,39.270764,0,103.832082,0" transform="matrix(0 0.475496-1 0 1374.304163 1111.855638)" fill="none" fill-rule="evenodd" stroke="url(#eYr6BWHu3Gs37-stroke)" stroke-width="16"/><circle r="8" transform="matrix(0 1-1 0 452 923)" fill="#35f0d0"/></g></g><path d="M1536,790h-826.820809C635.626543,790,576,854.774492,576,934.677419L576,1388h960v-598Z" transform="translate(-15-9.000003)" fill="#6438c1"/><path d="M576,934.677419C576,854.774492,635.626543,790,709.179191,790L1536,790v598h-960v-453.322581Z" transform="translate(-15-9.000003)" fill="url(#eYr6BWHu3Gs40-fill)" fill-opacity="0.51"/><path d="M596,1171h-190.150171C338.001471,1171,283,1224.280957,283,1290v0h313v-119Z" transform="translate(-35 87.999997)" fill="#9b6aff"/><path d="M283,1290c0-65.719043,55.001471-119,122.849829-119L596,1171v119h-313v0Z" transform="translate(-35 87.999997)" fill="url(#eYr6BWHu3Gs42-fill)" fill-opacity="0.51"/><g transform="translate(0 76.997795)"><path d="M1005,1286v-53c0-8.84-7.163-16-16-16h-211c-8.837,0-16-7.16-16-16v-95.367839" fill="none" stroke="url(#eYr6BWHu3Gs44-stroke)" stroke-width="16"/><rect width="63" height="16" rx="0" ry="0" transform="translate(836 1209)" fill="url(#eYr6BWHu3Gs45-fill)" fill-opacity="0.46"/><circle r="8" transform="translate(899 1217)" fill="#ffb636"/></g><g transform="translate(38-10.000003)"><rect width="63" height="16" rx="0" ry="0" transform="translate(1115 872)" fill="url(#eYr6BWHu3Gs48-fill)" fill-opacity="0.46"/><path d="M1005,791v73.062c0,8.836,7.16,16,16,16h210c8.84,0,16,7.163,16,16v126.938" fill="none" stroke="url(#eYr6BWHu3Gs49-stroke)" stroke-width="16"/><circle r="8" transform="translate(1178 880)" fill="#35f0d0"/></g><path d="M300.700719,451.791847h77.638874-77.638874Z" fill="none" stroke="url(#eYr6BWHu3Gs51-stroke)" stroke-width="16"/></g></svg>
