<svg id="e8nM9s0XgAp1" xmlns="http://www.w3.org/2000/svg" xmlns:xlink="http://www.w3.org/1999/xlink" viewBox="0 0 375 667" shape-rendering="geometricPrecision" text-rendering="geometricPrecision"><defs><linearGradient id="e8nM9s0XgAp8-fill" x1="477.125" y1="256.811" x2="102.125" y2="256.811" spreadMethod="pad" gradientUnits="userSpaceOnUse" gradientTransform="translate(0 0)"><stop id="e8nM9s0XgAp8-fill-0" offset="0%" stop-color="#21064e"/><stop id="e8nM9s0XgAp8-fill-1" offset="6.66667%" stop-color="rgba(33,6,78,0.991353)"/><stop id="e8nM9s0XgAp8-fill-2" offset="13.3333%" stop-color="rgba(33,6,78,0.96449)"/><stop id="e8nM9s0XgAp8-fill-3" offset="20%" stop-color="rgba(33,6,78,0.91834)"/><stop id="e8nM9s0XgAp8-fill-4" offset="26.6667%" stop-color="rgba(33,6,78,0.852589)"/><stop id="e8nM9s0XgAp8-fill-5" offset="33.3333%" stop-color="rgba(33,6,78,0.768225)"/><stop id="e8nM9s0XgAp8-fill-6" offset="40%" stop-color="rgba(33,6,78,0.668116)"/><stop id="e8nM9s0XgAp8-fill-7" offset="46.6667%" stop-color="rgba(33,6,78,0.557309)"/><stop id="e8nM9s0XgAp8-fill-8" offset="53.3333%" stop-color="rgba(33,6,78,0.442691)"/><stop id="e8nM9s0XgAp8-fill-9" offset="60%" stop-color="rgba(33,6,78,0.331884)"/><stop id="e8nM9s0XgAp8-fill-10" offset="66.6667%" stop-color="rgba(33,6,78,0.231775)"/><stop id="e8nM9s0XgAp8-fill-11" offset="73.3333%" stop-color="rgba(33,6,78,0.147411)"/><stop id="e8nM9s0XgAp8-fill-12" offset="80%" stop-color="rgba(33,6,78,0.0816599)"/><stop id="e8nM9s0XgAp8-fill-13" offset="86.6667%" stop-color="rgba(33,6,78,0.03551)"/><stop id="e8nM9s0XgAp8-fill-14" offset="93.3333%" stop-color="rgba(33,6,78,0.01)"/><stop id="e8nM9s0XgAp8-fill-15" offset="100%" stop-color="rgba(33,6,78,0)"/></linearGradient><linearGradient id="e8nM9s0XgAp10-fill" x1="18.75" y1="2.25" x2="0" y2="2.25" spreadMethod="pad" gradientUnits="userSpaceOnUse" gradientTransform="translate(0 0)"><stop id="e8nM9s0XgAp10-fill-0" offset="0%" stop-color="#9b6aff"/><stop id="e8nM9s0XgAp10-fill-1" offset="6.66667%" stop-color="rgba(155,106,255,0.991353)"/><stop id="e8nM9s0XgAp10-fill-2" offset="13.3333%" stop-color="rgba(155,106,255,0.96449)"/><stop id="e8nM9s0XgAp10-fill-3" offset="20%" stop-color="rgba(155,106,255,0.91834)"/><stop id="e8nM9s0XgAp10-fill-4" offset="26.6667%" stop-color="rgba(155,106,255,0.852589)"/><stop id="e8nM9s0XgAp10-fill-5" offset="33.3333%" stop-color="rgba(155,106,255,0.768225)"/><stop id="e8nM9s0XgAp10-fill-6" offset="40%" stop-color="rgba(155,106,255,0.668116)"/><stop id="e8nM9s0XgAp10-fill-7" offset="46.6667%" stop-color="rgba(155,106,255,0.557309)"/><stop id="e8nM9s0XgAp10-fill-8" offset="53.3333%" stop-color="rgba(155,106,255,0.442691)"/><stop id="e8nM9s0XgAp10-fill-9" offset="60%" stop-color="rgba(155,106,255,0.331884)"/><stop id="e8nM9s0XgAp10-fill-10" offset="66.6667%" stop-color="rgba(155,106,255,0.231775)"/><stop id="e8nM9s0XgAp10-fill-11" offset="73.3333%" stop-color="rgba(155,106,255,0.147411)"/><stop id="e8nM9s0XgAp10-fill-12" offset="80%" stop-color="rgba(155,106,255,0.0816599)"/><stop id="e8nM9s0XgAp10-fill-13" offset="86.6667%" stop-color="rgba(155,106,255,0.03551)"/><stop id="e8nM9s0XgAp10-fill-14" offset="93.3333%" stop-color="rgba(155,106,255,0.01)"/><stop id="e8nM9s0XgAp10-fill-15" offset="100%" stop-color="rgba(155,106,255,0)"/></linearGradient><linearGradient id="e8nM9s0XgAp12-fill" x1="10.5" y1="2.25" x2="0" y2="2.25" spreadMethod="pad" gradientUnits="userSpaceOnUse" gradientTransform="translate(0 0)"><stop id="e8nM9s0XgAp12-fill-0" offset="0%" stop-color="#9b6aff"/><stop id="e8nM9s0XgAp12-fill-1" offset="6.66667%" stop-color="rgba(155,106,255,0.991353)"/><stop id="e8nM9s0XgAp12-fill-2" offset="13.3333%" stop-color="rgba(155,106,255,0.96449)"/><stop id="e8nM9s0XgAp12-fill-3" offset="20%" stop-color="rgba(155,106,255,0.91834)"/><stop id="e8nM9s0XgAp12-fill-4" offset="26.6667%" stop-color="rgba(155,106,255,0.852589)"/><stop id="e8nM9s0XgAp12-fill-5" offset="33.3333%" stop-color="rgba(155,106,255,0.768225)"/><stop id="e8nM9s0XgAp12-fill-6" offset="40%" stop-color="rgba(155,106,255,0.668116)"/><stop id="e8nM9s0XgAp12-fill-7" offset="46.6667%" stop-color="rgba(155,106,255,0.557309)"/><stop id="e8nM9s0XgAp12-fill-8" offset="53.3333%" stop-color="rgba(155,106,255,0.442691)"/><stop id="e8nM9s0XgAp12-fill-9" offset="60%" stop-color="rgba(155,106,255,0.331884)"/><stop id="e8nM9s0XgAp12-fill-10" offset="66.6667%" stop-color="rgba(155,106,255,0.231775)"/><stop id="e8nM9s0XgAp12-fill-11" offset="73.3333%" stop-color="rgba(155,106,255,0.147411)"/><stop id="e8nM9s0XgAp12-fill-12" offset="80%" stop-color="rgba(155,106,255,0.0816599)"/><stop id="e8nM9s0XgAp12-fill-13" offset="86.6667%" stop-color="rgba(155,106,255,0.03551)"/><stop id="e8nM9s0XgAp12-fill-14" offset="93.3333%" stop-color="rgba(155,106,255,0.01)"/><stop id="e8nM9s0XgAp12-fill-15" offset="100%" stop-color="rgba(155,106,255,0)"/></linearGradient><linearGradient id="e8nM9s0XgAp73-fill" x1="426.125" y1="239.811" x2="153.125" y2="236.811" spreadMethod="pad" gradientUnits="userSpaceOnUse" gradientTransform="translate(0 0)"><stop id="e8nM9s0XgAp73-fill-0" offset="1.98198%" stop-color="#4c249f"/><stop id="e8nM9s0XgAp73-fill-1" offset="100%" stop-color="rgba(76,36,159,0)"/></linearGradient><linearGradient id="e8nM9s0XgAp75-fill" x1="0" y1="407.376" x2="316.433" y2="407.376" spreadMethod="pad" gradientUnits="userSpaceOnUse" gradientTransform="translate(0 0)"><stop id="e8nM9s0XgAp75-fill-0" offset="0%" stop-color="#21064e"/><stop id="e8nM9s0XgAp75-fill-1" offset="6.66667%" stop-color="rgba(33,6,78,0.991353)"/><stop id="e8nM9s0XgAp75-fill-2" offset="13.3333%" stop-color="rgba(33,6,78,0.96449)"/><stop id="e8nM9s0XgAp75-fill-3" offset="20%" stop-color="rgba(33,6,78,0.91834)"/><stop id="e8nM9s0XgAp75-fill-4" offset="26.6667%" stop-color="rgba(33,6,78,0.852589)"/><stop id="e8nM9s0XgAp75-fill-5" offset="33.3333%" stop-color="rgba(33,6,78,0.768225)"/><stop id="e8nM9s0XgAp75-fill-6" offset="40%" stop-color="rgba(33,6,78,0.668116)"/><stop id="e8nM9s0XgAp75-fill-7" offset="46.6667%" stop-color="rgba(33,6,78,0.557309)"/><stop id="e8nM9s0XgAp75-fill-8" offset="53.3333%" stop-color="rgba(33,6,78,0.442691)"/><stop id="e8nM9s0XgAp75-fill-9" offset="60%" stop-color="rgba(33,6,78,0.331884)"/><stop id="e8nM9s0XgAp75-fill-10" offset="66.6667%" stop-color="rgba(33,6,78,0.231775)"/><stop id="e8nM9s0XgAp75-fill-11" offset="73.3333%" stop-color="rgba(33,6,78,0.147411)"/><stop id="e8nM9s0XgAp75-fill-12" offset="80%" stop-color="rgba(33,6,78,0.0816599)"/><stop id="e8nM9s0XgAp75-fill-13" offset="86.6667%" stop-color="rgba(33,6,78,0.03551)"/><stop id="e8nM9s0XgAp75-fill-14" offset="93.3333%" stop-color="rgba(33,6,78,0.01)"/><stop id="e8nM9s0XgAp75-fill-15" offset="100%" stop-color="rgba(33,6,78,0)"/></linearGradient><linearGradient id="e8nM9s0XgAp77-fill" x1="575.694" y1="439.077" x2="234.001" y2="439.077" spreadMethod="pad" gradientUnits="userSpaceOnUse" gradientTransform="translate(0 0)"><stop id="e8nM9s0XgAp77-fill-0" offset="0%" stop-color="#21064e"/><stop id="e8nM9s0XgAp77-fill-1" offset="100%" stop-color="rgba(33,6,78,0)"/></linearGradient><linearGradient id="e8nM9s0XgAp79-fill" x1="477" y1="449.5" x2="222.776" y2="448.37" spreadMethod="pad" gradientUnits="userSpaceOnUse" gradientTransform="translate(0 0)"><stop id="e8nM9s0XgAp79-fill-0" offset="25.5208%" stop-color="rgba(33,6,78,0)"/><stop id="e8nM9s0XgAp79-fill-1" offset="100%" stop-color="#21064e"/></linearGradient></defs><rect width="375" height="667" rx="0" ry="0" fill="#2d0c66"/><g transform="translate(-102 0)" clip-path="url(#e8nM9s0XgAp84)"><g><g mask="url(#e8nM9s0XgAp82)"><g><path d="M102.125,185.311h37c5.523,0,10,4.477,10,10v35h281v-35c0-5.523,4.477-10,10-10h37v143h-35-12-281-7-40v-143Z" clip-rule="evenodd" fill="#6538c1" fill-rule="evenodd"/><path d="M102.125,185.311h37c5.523,0,10,4.477,10,10v35h281v-35c0-5.523,4.477-10,10-10h37v143h-35-12-281-7-40v-143Z" clip-rule="evenodd" fill="url(#e8nM9s0XgAp8-fill)" fill-opacity="0.5" fill-rule="evenodd"/><path d="M-143.125,327.436h176.625c16.5685,0,30-13.431,30-30v-15.75c0-24.853,20.1472-45,45-45h44.625" fill="none" stroke="#21064e" stroke-width="14"/><rect width="18.75" height="6" rx="0" ry="0" transform="matrix(-1 0 0 1 146.375 233.686)" fill="url(#e8nM9s0XgAp10-fill)" fill-opacity="0.46"/><circle r="3" transform="matrix(-1 0 0 1 127.625 236.686)" fill="#35f0d0"/><rect width="10.5" height="6" rx="0" ry="0" transform="matrix(-1 0 0 1 129.125 233.686)" fill="url(#e8nM9s0XgAp12-fill)" fill-opacity="0.46"/><circle r="3" transform="matrix(-1 0 0 1 118.625 236.686)" fill="#ffb636"/><path d="M149.125,199.311h281v30c0,22.091-17.909,40-40,40h-201c-22.091,0-40-17.909-40-40v-30Z" fill="#4c249f"/><path d="M458.289,183.349l.306-.655.621.371-.247-.68.702-.176-.656-.306.372-.621-.68.247-.176-.702-.306.656-.621-.372.247.68-.702.176.655.307-.371.62.68-.247.176.702Z" fill="#b18cff"/><path d="M455.194,178.471l.429-.917.869.52-.345-.952.982-.246-.918-.429.521-.869-.952.345-.247-.982-.429.917-.869-.52.346.952-.982.247.917.429-.52.869.952-.346.246.982Z" fill="#b18cff"/><path d="M450.587,173.449l.674-1.442l1.365.817-.543-1.496l1.544-.387-1.442-.674.817-1.365-1.495.542-.388-1.543-.674,1.442-1.365-.818.543,1.496-1.544.388l1.442.674-.818,1.365l1.496-.543.388,1.544Z" fill="#b18cff"/><path d="M420.756,144.002c-.005-.01-.011-.02-.017-.029-1.621-2.764-5.176-3.691-7.94-2.069-2.764,1.621-3.69,5.176-2.069,7.94.006.01.012.019.017.029l10.009-5.871Z" clip-rule="evenodd" fill="#ffb636" fill-rule="evenodd"/><circle r="1.36148" transform="translate(420.759 141.496)" fill="#36147d"/><path d="M420.055,134.916c-.021.024-.042.049-.063.074-6.008,7.135-5.094,17.789,2.04,23.797c7.135,6.008,17.79,5.094,23.798-2.041.02-.024.041-.049.062-.074l-25.837-21.756Z" clip-rule="evenodd" fill="#9b6aff" fill-rule="evenodd"/><circle r="1.68564" transform="translate(421.083 141.82)" fill="#36147d"/><rect width="2.91745" height="10.3732" rx="0" ry="0" transform="matrix(.802771-.596288 0.596288 0.802771 436.171022 156.970477)" fill="#9b6aff"/><path d="M444.913,163.405c-.011-.016-.023-.032-.035-.048-1.221-1.624-3.395-2.05-4.856-.951-1.461,1.098-1.656,3.305-.435,4.929.012.016.024.031.036.047l5.29-3.977Z" clip-rule="evenodd" fill="#ffb636" fill-rule="evenodd"/><path d="M442.434,149.442c-.004.015-.008.03-.012.045-1.147,4.279-5.544,6.818-9.823,5.671-4.278-1.146-6.817-5.544-5.671-9.822.004-.015.008-.03.012-.045l15.494,4.151Z" clip-rule="evenodd" fill="#8050e3" fill-rule="evenodd"/><rect width="33.8746" height="9.56458" rx="4.78229" ry="4.78229" transform="translate(168.25 195.196)" fill="#fa48e8"/><rect width="27.1241" height="3.78599" rx="1.89299" ry="1.89299" transform="matrix(-.5 0.866025-.866025-.5 184.436497 178.728076)" fill="#fa48e8"/><path d="M184.582,177.12c0-.963-.19-1.917-.561-2.806-.37-.89-.914-1.698-1.599-2.379-.684-.681-1.497-1.222-2.392-1.59-.895-.369-1.854-.558-2.822-.558-.969,0-1.928.189-2.822.558-.895.368-1.708.909-2.393,1.59s-1.228,1.489-1.599,2.379c-.37.889-.561,1.843-.561,2.806h7.375h7.374Z" fill="#fa48e8"/><path d="M180.285,182.422c.732-.196,1.418-.534,2.019-.995s1.105-1.036,1.484-1.692c.378-.656.624-1.38.723-2.131s.049-1.514-.147-2.246-.534-1.417-.995-2.018c-.462-.601-1.037-1.106-1.692-1.484-.656-.379-1.381-.625-2.132-.724s-1.514-.049-2.245.147l1.493,5.572l1.492,5.571Z" fill="#fa48e8"/><circle r="2.30718" transform="translate(176.507 171.6)" fill="#f5f0ff"/><circle r="0.741594" transform="translate(177.249 171.6)"/><g mask="url(#e8nM9s0XgAp34)"><g><path d="M184.582,177.12c0-.963-.19-1.917-.561-2.806-.37-.89-.914-1.698-1.599-2.379-.684-.681-1.497-1.222-2.392-1.59-.895-.369-1.854-.558-2.822-.558-.969,0-1.928.189-2.822.558-.895.368-1.708.909-2.393,1.59s-1.228,1.489-1.599,2.379c-.37.889-.561,1.843-.561,2.806h7.375h7.374Z" fill="#770f6d"/></g><mask id="e8nM9s0XgAp34" mask-type="alpha" x="-150%" y="-150%" height="400%" width="400%"><path d="M170.616,172.341l3.889,6.18h-7.778l3.889-6.18Z" fill="#d9d9d9"/></mask></g><path d="M379.625,190.311l1.626,4.842l4.384-2.206-2.084,4.642l4.574,1.722-4.574,1.722l2.084,4.642-4.384-2.207-1.626,4.843-1.626-4.843-4.384,2.207l2.084-4.642-4.574-1.722l4.574-1.722-2.084-4.642l4.384,2.206l1.626-4.842Z" fill="#8050e3"/><circle r="3.02741" transform="translate(183.135 266.284)" fill="#9b6aff"/><circle r="3.02741" transform="translate(189.19 266.284)" fill="#35f0d0"/><circle r="3.02741" transform="translate(195.244 266.284)" fill="#ffb636"/><circle r="3.02741" transform="translate(201.299 266.284)" fill="#9b6aff"/><circle r="3.02741" transform="translate(207.354 266.284)" fill="#35f0d0"/><circle r="3.02741" transform="translate(213.409 266.284)" fill="#ffb636"/><circle r="3.02741" transform="translate(219.464 266.284)" fill="#9b6aff"/><circle r="3.02741" transform="translate(225.519 266.284)" fill="#35f0d0"/><circle r="3.02741" transform="translate(231.574 266.284)" fill="#ffb636"/><circle r="3.02741" transform="translate(237.628 266.284)" fill="#9b6aff"/><circle r="3.02741" transform="translate(243.683 266.284)" fill="#35f0d0"/><circle r="3.02741" transform="translate(249.738 266.284)" fill="#ffb636"/><circle r="3.02741" transform="translate(255.793 266.284)" fill="#9b6aff"/><circle r="3.02741" transform="translate(261.847 266.284)" fill="#35f0d0"/><circle r="3.02741" transform="translate(267.902 266.284)" fill="#ffb636"/><circle r="3.02741" transform="translate(273.957 266.284)" fill="#9b6aff"/><circle r="3.02741" transform="translate(280.012 266.284)" fill="#35f0d0"/><circle r="3.02741" transform="translate(286.066 266.284)" fill="#ffb636"/><circle r="3.02741" transform="translate(292.121 266.284)" fill="#9b6aff"/><circle r="3.02741" transform="translate(298.176 266.284)" fill="#35f0d0"/><circle r="3.02741" transform="translate(304.231 266.284)" fill="#ffb636"/><circle r="3.02741" transform="translate(310.286 266.284)" fill="#9b6aff"/><circle r="3.02741" transform="translate(316.341 266.284)" fill="#35f0d0"/><circle r="3.02741" transform="translate(322.395 266.284)" fill="#ffb636"/><circle r="3.02741" transform="translate(328.451 266.284)" fill="#9b6aff"/><circle r="3.02741" transform="translate(334.505 266.284)" fill="#35f0d0"/><circle r="3.02741" transform="translate(340.56 266.284)" fill="#ffb636"/><circle r="3.02741" transform="translate(346.615 266.284)" fill="#9b6aff"/><circle r="3.02741" transform="translate(352.67 266.284)" fill="#35f0d0"/><circle r="3.02741" transform="translate(358.724 266.284)" fill="#ffb636"/><circle r="3.02741" transform="translate(364.779 266.284)" fill="#9b6aff"/><circle r="3.02741" transform="translate(370.834 266.284)" fill="#35f0d0"/><circle r="3.02741" transform="translate(376.889 266.284)" fill="#ffb636"/><circle r="3.02741" transform="translate(382.944 266.284)" fill="#9b6aff"/><circle r="3.02741" transform="translate(388.999 266.284)" fill="#35f0d0"/><circle r="3.02741" transform="translate(395.053 266.284)" fill="#ffb636"/><path d="M149.125,199.311h281v30c0,22.091-17.909,40-40,40h-201c-22.091,0-40-17.909-40-40v-30Z" fill="url(#e8nM9s0XgAp73-fill)" fill-opacity="0.5"/><path d="M158.216,486.751C70.8359,486.751,0.000084,415.676,0.000092,328h316.432908c0,87.676-70.836,158.751-158.217,158.751Z" fill="#4c249f"/><path d="M158.216,486.751C70.8359,486.751,0.000084,415.676,0.000092,328h316.432908c0,87.676-70.836,158.751-158.217,158.751Z" fill="url(#e8nM9s0XgAp75-fill)" fill-opacity="0.5"/><path d="M575.693,550.154h-298.486c-23.863,0-43.207-19.344-43.207-43.206v-178.588h341.693v221.794Z" fill="#6538c1"/><path d="M234.001,506.948c0,23.862,19.344,43.206,43.206,43.206h298.487v-222.154h-341.693v178.948Z" fill="url(#e8nM9s0XgAp77-fill)" fill-opacity="0.51"/><path d="M234,511c0,33.137,26.863,60,60,60h183v-243h-243v183Z" fill="#4c249f"/><path d="M234,511c0,33.137,26.863,60,60,60h183v-243h-243v183Z" fill="url(#e8nM9s0XgAp79-fill)"/><circle r="3.02741" transform="translate(401.027 264.027)" fill="#9b6aff"/><circle r="3.02741" transform="translate(177.027 264.027)" fill="#ffb636"/></g><mask id="e8nM9s0XgAp82" mask-type="alpha" x="-150%" y="-150%" height="400%" width="400%"><rect width="375" height="667" rx="0" ry="0" transform="translate(102 0)" fill="#d9d9d9"/></mask></g></g><clipPath id="e8nM9s0XgAp84"><rect width="575.693" height="446" rx="0" ry="0" transform="translate(0 125)" fill="#fff"/></clipPath></g></svg>
