<svg width="375" height="1233" viewBox="0 0 375 1233" fill="none" xmlns="http://www.w3.org/2000/svg">
<g clip-path="url(#clip0_1156_7027)">
<path d="M54.8281 -0.000183168C-41.1745 -0.000174775 -119 78.1168 -119 174.479L228.656 174.479C228.656 78.1168 150.831 -0.000191561 54.8281 -0.000183168Z" fill="#36147D" fill-opacity="0.27"/>
<path d="M331.437 46.9998C290.879 46.9998 258 79.9955 258 120.698L404.875 120.698C404.875 79.9955 371.996 46.9998 331.437 46.9998Z" fill="#36147D" fill-opacity="0.27"/>
<path d="M375 121H202.25C184.991 121 171 134.991 171 152.25V576H375V121Z" fill="#9B6AFF"/>
<path d="M171 152.25C171 134.991 184.991 121 202.25 121L375 121L375 576H171L171 152.25Z" fill="url(#paint0_linear_1156_7027)" fill-opacity="0.5"/>
<path d="M0 164H293.75C311.009 164 325 177.991 325 195.25V960H0V164Z" fill="#36147D"/>
<path d="M148.537 163.48C148.537 127.709 119.539 98.7109 83.7687 98.7109C47.9979 98.7109 19 127.709 19 163.48" stroke="white"/>
<path d="M117.919 163.479C117.919 144.618 102.629 129.329 83.768 129.329C64.907 129.329 49.6172 144.618 49.6172 163.479" stroke="white"/>
<circle cx="83.7681" cy="98.7104" r="7.06568" transform="rotate(90 83.7681 98.7104)" fill="#FFB636" stroke="#270A5B" stroke-width="4.71045"/>
<circle cx="36.6645" cy="120.496" r="7.06568" transform="rotate(90 36.6645 120.496)" fill="#35F0D0" stroke="#270A5B" stroke-width="4.71045"/>
<circle cx="109.676" cy="141.693" r="7.06568" transform="rotate(90 109.676 141.693)" fill="#35F0D0" stroke="#270A5B" stroke-width="4.71045"/>
<circle cx="130.874" cy="120.496" r="7.06568" transform="rotate(90 130.874 120.496)" fill="#9B6AFF" stroke="#270A5B" stroke-width="4.71045"/>
<circle cx="59.0386" cy="141.693" r="7.06568" transform="rotate(90 59.0386 141.693)" fill="#9B6AFF" stroke="#270A5B" stroke-width="4.71045"/>
<rect x="78.0029" y="654.001" width="220" height="226" rx="24" fill="#21064E"/>
<rect x="101.263" y="816.82" width="174.449" height="39.3833" rx="19.6916" fill="#35F0D0"/>
<path d="M129.934 831.643L132.68 839.68H132.791L135.538 831.643H137.147L133.596 841.511H131.876L128.325 831.643H129.934ZM141.694 841.646C141.09 841.646 140.547 841.531 140.066 841.299C139.587 841.065 139.205 840.744 138.919 840.336C138.633 839.928 138.48 839.462 138.461 838.938H139.907C139.942 839.362 140.13 839.711 140.47 839.984C140.811 840.257 141.219 840.393 141.694 840.393C142.073 840.393 142.409 840.307 142.701 840.133C142.997 839.957 143.228 839.714 143.395 839.406C143.565 839.097 143.65 838.746 143.65 838.35C143.65 837.949 143.564 837.591 143.39 837.276C143.217 836.961 142.977 836.714 142.672 836.534C142.37 836.354 142.023 836.263 141.631 836.259C141.333 836.259 141.032 836.311 140.73 836.413C140.429 836.516 140.184 836.651 139.998 836.818L138.635 836.616L139.189 831.643H144.614V832.92H140.427L140.114 835.681H140.172C140.364 835.495 140.62 835.339 140.938 835.214C141.259 835.088 141.603 835.026 141.969 835.026C142.569 835.026 143.104 835.169 143.573 835.455C144.045 835.741 144.416 836.131 144.686 836.625C144.959 837.117 145.094 837.682 145.091 838.322C145.094 838.961 144.95 839.531 144.657 840.032C144.368 840.533 143.967 840.928 143.453 841.217C142.942 841.503 142.356 841.646 141.694 841.646ZM153.771 841.511H150.577V831.643H153.872C154.839 831.643 155.67 831.841 156.363 832.236C157.057 832.628 157.589 833.192 157.958 833.927C158.331 834.66 158.517 835.538 158.517 836.563C158.517 837.591 158.329 838.474 157.953 839.213C157.581 839.952 157.041 840.52 156.334 840.919C155.628 841.314 154.773 841.511 153.771 841.511ZM152.065 840.21H153.689C154.441 840.21 155.066 840.069 155.564 839.786C156.061 839.5 156.434 839.088 156.681 838.548C156.929 838.005 157.052 837.343 157.052 836.563C157.052 835.789 156.929 835.132 156.681 834.592C156.437 834.053 156.073 833.643 155.588 833.364C155.103 833.084 154.5 832.944 153.781 832.944H152.065V840.21ZM163.37 841.661C162.677 841.661 162.071 841.502 161.554 841.184C161.037 840.866 160.635 840.421 160.349 839.849C160.063 839.277 159.92 838.609 159.92 837.845C159.92 837.077 160.063 836.405 160.349 835.83C160.635 835.255 161.037 834.809 161.554 834.491C162.071 834.173 162.677 834.014 163.37 834.014C164.064 834.014 164.67 834.173 165.187 834.491C165.704 834.809 166.106 835.255 166.391 835.83C166.677 836.405 166.82 837.077 166.82 837.845C166.82 838.609 166.677 839.277 166.391 839.849C166.106 840.421 165.704 840.866 165.187 841.184C164.67 841.502 164.064 841.661 163.37 841.661ZM163.375 840.451C163.825 840.451 164.198 840.332 164.493 840.095C164.789 839.857 165.007 839.541 165.148 839.145C165.293 838.75 165.365 838.315 165.365 837.84C165.365 837.368 165.293 836.934 165.148 836.539C165.007 836.14 164.789 835.821 164.493 835.58C164.198 835.339 163.825 835.219 163.375 835.219C162.922 835.219 162.546 835.339 162.248 835.58C161.952 835.821 161.732 836.14 161.588 836.539C161.446 836.934 161.376 837.368 161.376 837.84C161.376 838.315 161.446 838.75 161.588 839.145C161.732 839.541 161.952 839.857 162.248 840.095C162.546 840.332 162.922 840.451 163.375 840.451ZM171.546 841.661C170.829 841.661 170.213 841.498 169.696 841.174C169.182 840.846 168.787 840.395 168.51 839.82C168.234 839.245 168.096 838.587 168.096 837.845C168.096 837.093 168.237 836.43 168.52 835.855C168.803 835.276 169.201 834.825 169.715 834.501C170.229 834.176 170.834 834.014 171.531 834.014C172.093 834.014 172.595 834.118 173.035 834.327C173.475 834.533 173.83 834.822 174.099 835.194C174.373 835.567 174.535 836.002 174.586 836.5H173.184C173.107 836.153 172.93 835.855 172.654 835.604C172.381 835.353 172.015 835.228 171.555 835.228C171.154 835.228 170.802 835.334 170.5 835.546C170.201 835.755 169.969 836.054 169.802 836.442C169.635 836.828 169.551 837.284 169.551 837.811C169.551 838.35 169.633 838.816 169.797 839.208C169.961 839.6 170.192 839.904 170.491 840.119C170.793 840.334 171.147 840.442 171.555 840.442C171.828 840.442 172.076 840.392 172.297 840.292C172.522 840.189 172.71 840.043 172.861 839.854C173.015 839.664 173.123 839.436 173.184 839.17H174.586C174.535 839.648 174.379 840.075 174.119 840.451C173.859 840.827 173.51 841.123 173.073 841.338C172.64 841.553 172.13 841.661 171.546 841.661ZM180.815 838.442V834.11H182.26V841.511H180.844V840.23H180.767C180.597 840.625 180.323 840.954 179.948 841.217C179.575 841.478 179.111 841.608 178.555 841.608C178.08 841.608 177.659 841.503 177.293 841.294C176.93 841.082 176.644 840.769 176.435 840.355C176.23 839.94 176.127 839.428 176.127 838.818V834.11H177.567V838.644C177.567 839.149 177.707 839.55 177.987 839.849C178.266 840.148 178.629 840.297 179.076 840.297C179.345 840.297 179.614 840.23 179.88 840.095C180.15 839.96 180.373 839.756 180.55 839.483C180.73 839.21 180.818 838.863 180.815 838.442ZM184.196 841.511V834.11H185.579V835.315H185.671C185.825 834.907 186.077 834.589 186.427 834.361C186.777 834.13 187.196 834.014 187.685 834.014C188.179 834.014 188.594 834.13 188.928 834.361C189.265 834.592 189.514 834.91 189.675 835.315H189.752C189.928 834.92 190.209 834.605 190.595 834.371C190.98 834.133 191.44 834.014 191.973 834.014C192.644 834.014 193.192 834.224 193.616 834.645C194.043 835.066 194.257 835.7 194.257 836.548V841.511H192.816V836.683C192.816 836.182 192.68 835.819 192.407 835.594C192.134 835.37 191.807 835.257 191.428 835.257C190.959 835.257 190.595 835.402 190.335 835.691C190.074 835.977 189.944 836.344 189.944 836.794V841.511H188.509V836.592C188.509 836.19 188.383 835.867 188.133 835.623C187.882 835.379 187.556 835.257 187.155 835.257C186.882 835.257 186.629 835.329 186.398 835.474C186.17 835.615 185.985 835.813 185.844 836.067C185.706 836.32 185.637 836.614 185.637 836.948V841.511H184.196ZM199.377 841.661C198.648 841.661 198.02 841.505 197.493 841.193C196.97 840.878 196.565 840.437 196.279 839.868C195.997 839.296 195.855 838.627 195.855 837.859C195.855 837.101 195.997 836.433 196.279 835.855C196.565 835.276 196.963 834.825 197.474 834.501C197.988 834.176 198.589 834.014 199.276 834.014C199.694 834.014 200.099 834.083 200.49 834.221C200.882 834.359 201.234 834.576 201.546 834.872C201.857 835.167 202.103 835.551 202.283 836.023C202.463 836.492 202.553 837.062 202.553 837.734V838.244H196.67V837.165H201.141C201.141 836.786 201.064 836.45 200.91 836.158C200.755 835.863 200.539 835.63 200.259 835.459C199.983 835.289 199.658 835.204 199.286 835.204C198.881 835.204 198.528 835.304 198.226 835.503C197.927 835.699 197.696 835.956 197.532 836.274C197.371 836.589 197.291 836.931 197.291 837.3V838.143C197.291 838.638 197.378 839.059 197.551 839.406C197.728 839.753 197.974 840.018 198.288 840.201C198.603 840.381 198.971 840.47 199.392 840.47C199.665 840.47 199.914 840.432 200.139 840.355C200.364 840.275 200.558 840.156 200.722 839.998C200.886 839.841 201.011 839.647 201.098 839.415L202.461 839.661C202.352 840.063 202.156 840.414 201.873 840.716C201.594 841.015 201.242 841.248 200.818 841.415C200.397 841.579 199.917 841.661 199.377 841.661ZM205.592 837.117V841.511H204.151V834.11H205.534V835.315H205.626C205.796 834.923 206.062 834.608 206.425 834.371C206.792 834.133 207.252 834.014 207.808 834.014C208.313 834.014 208.754 834.12 209.133 834.332C209.512 834.541 209.806 834.852 210.015 835.267C210.224 835.681 210.328 836.193 210.328 836.804V841.511H208.887V836.977C208.887 836.441 208.748 836.022 208.468 835.72C208.189 835.414 207.805 835.262 207.317 835.262C206.983 835.262 206.686 835.334 206.425 835.479C206.168 835.623 205.964 835.835 205.813 836.115C205.666 836.391 205.592 836.725 205.592 837.117ZM215.715 834.11V835.267H211.672V834.11H215.715ZM212.757 832.337H214.197V839.338C214.197 839.618 214.239 839.828 214.323 839.969C214.406 840.108 214.514 840.202 214.645 840.254C214.78 840.302 214.926 840.326 215.084 840.326C215.199 840.326 215.301 840.318 215.387 840.302C215.474 840.286 215.542 840.273 215.59 840.263L215.85 841.453C215.766 841.486 215.648 841.518 215.493 841.55C215.339 841.585 215.146 841.604 214.915 841.608C214.536 841.614 214.183 841.547 213.855 841.405C213.527 841.264 213.262 841.045 213.06 840.75C212.858 840.454 212.757 840.083 212.757 839.637V832.337ZM219.462 841.675C218.993 841.675 218.569 841.588 218.19 841.415C217.811 841.238 217.511 840.983 217.289 840.649C217.071 840.315 216.962 839.905 216.962 839.42C216.962 839.003 217.042 838.659 217.203 838.389C217.363 838.119 217.58 837.906 217.853 837.748C218.126 837.591 218.431 837.472 218.769 837.392C219.106 837.311 219.45 837.25 219.8 837.209C220.243 837.157 220.603 837.115 220.879 837.083C221.155 837.048 221.356 836.992 221.481 836.915C221.607 836.837 221.669 836.712 221.669 836.539V836.505C221.669 836.084 221.55 835.758 221.313 835.527C221.078 835.296 220.728 835.18 220.262 835.18C219.777 835.18 219.395 835.288 219.115 835.503C218.839 835.715 218.648 835.951 218.542 836.211L217.188 835.903C217.349 835.453 217.583 835.09 217.892 834.814C218.203 834.534 218.561 834.332 218.966 834.207C219.371 834.078 219.796 834.014 220.243 834.014C220.538 834.014 220.852 834.049 221.183 834.12C221.517 834.187 221.828 834.313 222.117 834.496C222.41 834.679 222.649 834.941 222.835 835.281C223.022 835.618 223.115 836.057 223.115 836.597V841.511H221.708V840.499H221.65C221.557 840.686 221.417 840.869 221.231 841.049C221.044 841.229 220.805 841.378 220.513 841.497C220.22 841.616 219.87 841.675 219.462 841.675ZM219.776 840.519C220.174 840.519 220.514 840.44 220.797 840.283C221.083 840.125 221.3 839.92 221.448 839.666C221.599 839.409 221.674 839.134 221.674 838.842V837.888C221.623 837.939 221.523 837.987 221.375 838.032C221.231 838.074 221.065 838.111 220.879 838.143C220.693 838.172 220.511 838.199 220.335 838.225C220.158 838.248 220.01 838.267 219.891 838.283C219.612 838.318 219.356 838.378 219.125 838.461C218.897 838.545 218.714 838.665 218.576 838.823C218.441 838.977 218.373 839.182 218.373 839.439C218.373 839.796 218.505 840.066 218.769 840.249C219.032 840.429 219.368 840.519 219.776 840.519ZM228.488 834.11V835.267H224.446V834.11H228.488ZM225.53 832.337H226.971V839.338C226.971 839.618 227.012 839.828 227.096 839.969C227.179 840.108 227.287 840.202 227.419 840.254C227.554 840.302 227.7 840.326 227.857 840.326C227.973 840.326 228.074 840.318 228.161 840.302C228.247 840.286 228.315 840.273 228.363 840.263L228.623 841.453C228.54 841.486 228.421 841.518 228.267 841.55C228.112 841.585 227.92 841.604 227.688 841.608C227.309 841.614 226.956 841.547 226.628 841.405C226.301 841.264 226.036 841.045 225.833 840.75C225.631 840.454 225.53 840.083 225.53 839.637V832.337ZM230.082 841.511V834.11H231.523V841.511H230.082ZM230.809 832.968C230.559 832.968 230.344 832.885 230.164 832.718C229.987 832.548 229.899 832.345 229.899 832.111C229.899 831.873 229.987 831.671 230.164 831.504C230.344 831.333 230.559 831.248 230.809 831.248C231.06 831.248 231.274 831.333 231.45 831.504C231.63 831.671 231.72 831.873 231.72 832.111C231.72 832.345 231.63 832.548 231.45 832.718C231.274 832.885 231.06 832.968 230.809 832.968ZM236.578 841.661C235.884 841.661 235.279 841.502 234.762 841.184C234.245 840.866 233.843 840.421 233.557 839.849C233.271 839.277 233.128 838.609 233.128 837.845C233.128 837.077 233.271 836.405 233.557 835.83C233.843 835.255 234.245 834.809 234.762 834.491C235.279 834.173 235.884 834.014 236.578 834.014C237.272 834.014 237.877 834.173 238.395 834.491C238.912 834.809 239.313 835.255 239.599 835.83C239.885 836.405 240.028 837.077 240.028 837.845C240.028 838.609 239.885 839.277 239.599 839.849C239.313 840.421 238.912 840.866 238.395 841.184C237.877 841.502 237.272 841.661 236.578 841.661ZM236.583 840.451C237.033 840.451 237.405 840.332 237.701 840.095C237.996 839.857 238.215 839.541 238.356 839.145C238.501 838.75 238.573 838.315 238.573 837.84C238.573 837.368 238.501 836.934 238.356 836.539C238.215 836.14 237.996 835.821 237.701 835.58C237.405 835.339 237.033 835.219 236.583 835.219C236.13 835.219 235.754 835.339 235.456 835.58C235.16 835.821 234.94 836.14 234.795 836.539C234.654 836.934 234.583 837.368 234.583 837.84C234.583 838.315 234.654 838.75 234.795 839.145C234.94 839.541 235.16 839.857 235.456 840.095C235.754 840.332 236.13 840.451 236.583 840.451ZM243.077 837.117V841.511H241.636V834.11H243.019V835.315H243.111C243.281 834.923 243.547 834.608 243.91 834.371C244.277 834.133 244.738 834.014 245.293 834.014C245.798 834.014 246.239 834.12 246.618 834.332C246.997 834.541 247.291 834.852 247.5 835.267C247.709 835.681 247.813 836.193 247.813 836.804V841.511H246.373V836.977C246.373 836.441 246.233 836.022 245.953 835.72C245.674 835.414 245.29 835.262 244.802 835.262C244.468 835.262 244.171 835.334 243.91 835.479C243.653 835.623 243.449 835.835 243.298 836.115C243.151 836.391 243.077 836.725 243.077 837.117Z" fill="#36147D"/>
<path d="M97.4347 676.535L94.7737 679.199L97.4378 681.863C97.6797 682.105 97.6797 682.499 97.4378 682.741C97.3137 682.859 97.1556 682.921 96.9974 682.921C96.8392 682.921 96.6811 682.859 96.5601 682.738L93.4588 679.636C93.2169 679.395 93.2169 679.001 93.4588 678.759L96.5601 675.657C96.802 675.416 97.1959 675.416 97.4378 675.657C97.6797 675.899 97.6797 676.293 97.4348 676.535L97.4347 676.535ZM112.941 678.762L109.84 675.66C109.598 675.418 109.204 675.418 108.962 675.66C108.72 675.902 108.72 676.296 108.962 676.538L111.626 679.199L108.962 681.863C108.72 682.105 108.72 682.499 108.962 682.741C109.086 682.859 109.244 682.921 109.403 682.921C109.561 682.921 109.719 682.859 109.84 682.738L112.941 679.636C113.186 679.394 113.186 679.004 112.941 678.762ZM106.602 673.074C106.301 672.906 105.923 673.015 105.759 673.316L99.556 684.481C99.3885 684.781 99.497 685.157 99.7978 685.324C99.894 685.377 99.9963 685.402 100.099 685.402C100.316 685.402 100.527 685.287 100.641 685.082L106.844 673.917C107.012 673.62 106.903 673.241 106.602 673.074Z" fill="#9B6AFF"/>
<path d="M141.887 778.286H224.266C232.83 778.286 239.773 771.343 239.773 762.779V711.199C239.773 696.998 214.575 685.735 201.976 705.812C189.376 725.889 176.293 736.662 152.064 729.807C132.68 724.322 126.865 738.948 126.381 746.946V762.779C126.381 771.343 133.323 778.286 141.887 778.286Z" stroke="white" stroke-width="1.93833" stroke-linecap="round"/>
<path d="M205.853 732.735L205.853 740.488" stroke="white" stroke-width="1.93833" stroke-linecap="round"/>
<path d="M205.853 717.229L205.853 724.982" stroke="white" stroke-width="1.93833" stroke-linecap="round"/>
<path d="M205.853 748.241L205.853 755.995" stroke="white" stroke-width="1.93833" stroke-linecap="round"/>
<path d="M205.853 763.748L205.853 771.501" stroke="white" stroke-width="1.93833" stroke-linecap="round"/>
<path d="M194.222 703.661C194.222 710.084 199.429 715.29 205.852 715.29C212.275 715.29 217.482 710.084 217.482 703.661C217.482 697.237 212.275 692.031 205.852 692.031C199.429 692.031 194.222 697.237 194.222 703.661Z" fill="#9B6AFF" stroke="#21064E" stroke-width="7.75331"/>
<path d="M325 260L266.693 260C255.187 260 245.86 250.673 245.86 239.167L245.86 226.25C245.86 208.991 231.869 195 214.61 195L0 195" stroke="#21064E" stroke-width="10.5"/>
<rect x="248.167" y="218" width="13.0208" height="4.16667" transform="rotate(90 248.167 218)" fill="url(#paint1_linear_1156_7027)" fill-opacity="0.46"/>
<circle cx="246.084" cy="231.021" r="2.08333" transform="rotate(90 246.084 231.021)" fill="#35F0D0"/>
<rect x="248.167" y="229.979" width="7.29167" height="4.16667" transform="rotate(90 248.167 229.979)" fill="url(#paint2_linear_1156_7027)" fill-opacity="0.46"/>
<circle cx="246.084" cy="237.271" r="2.08333" transform="rotate(90 246.084 237.271)" fill="#FFB636"/>
<path d="M243 495C197.713 495 161 531.713 161 577L325 577C325 531.713 288.287 495 243 495Z" fill="#4C249F"/>
<path d="M375 576H47.25C29.9911 576 16 589.991 16 607.25V1233H375V576Z" fill="#6438C1"/>
<path d="M16 607.25C16 589.991 29.9911 576 47.25 576H375V1233H16V607.25Z" fill="url(#paint3_linear_1156_7027)" fill-opacity="0.51"/>
<path d="M191.016 533.48C197.1 533.48 202.032 538.315 202.032 544.28L180 544.28C180 538.315 184.932 533.48 191.016 533.48Z" fill="#FFB636"/>
<path d="M199.739 561.261C190.279 551.8 190.279 536.461 199.739 527L234 561.261C224.539 570.722 209.2 570.722 199.739 561.261Z" fill="#9B6AFF"/>
<path d="M219.744 541.255C226.186 541.255 231.408 546.478 231.408 552.919L208.08 552.919C208.08 546.478 213.302 541.255 219.744 541.255Z" fill="#9B6AFF"/>
<circle cx="3.23999" cy="3.23999" r="3.23999" transform="matrix(-1 0 0 1 204.625 536.503)" fill="#21064E"/>
<rect width="3.45599" height="8.20798" transform="matrix(-1 0 0 1 223.201 567.607)" fill="#9B6AFF"/>
<path d="M218.882 571.495C221.267 571.495 223.201 573.43 223.201 575.815L214.562 575.815C214.562 573.43 216.496 571.495 218.882 571.495Z" fill="#FFB636"/>
<path d="M219 960L219 928C219 925.791 217.209 924 215 924L160 924C157.791 924 156 922.209 156 920L156 880" stroke="url(#paint4_linear_1156_7027)" stroke-width="4"/>
<rect x="181" y="922" width="16" height="4" fill="url(#paint5_linear_1156_7027)" fill-opacity="0.46"/>
<circle cx="197" cy="924" r="2" fill="#FFB636"/>
<path d="M147 576L147 616C147 618.209 148.791 620 151 620L206 620C208.209 620 210 621.791 210 624L210 656" stroke="url(#paint6_linear_1156_7027)" stroke-width="4"/>
<rect x="175" y="618" width="16" height="4" fill="url(#paint7_linear_1156_7027)" fill-opacity="0.46"/>
<circle cx="191" cy="620" r="2" fill="#35F0D0"/>
</g>
<defs>
<linearGradient id="paint0_linear_1156_7027" x1="375" y1="348.5" x2="171" y2="348.5" gradientUnits="userSpaceOnUse">
<stop stop-color="#21064E"/>
<stop offset="0.0666667" stop-color="#21064E" stop-opacity="0.991353"/>
<stop offset="0.133333" stop-color="#21064E" stop-opacity="0.96449"/>
<stop offset="0.2" stop-color="#21064E" stop-opacity="0.91834"/>
<stop offset="0.266667" stop-color="#21064E" stop-opacity="0.852589"/>
<stop offset="0.333333" stop-color="#21064E" stop-opacity="0.768225"/>
<stop offset="0.4" stop-color="#21064E" stop-opacity="0.668116"/>
<stop offset="0.466667" stop-color="#21064E" stop-opacity="0.557309"/>
<stop offset="0.533333" stop-color="#21064E" stop-opacity="0.442691"/>
<stop offset="0.6" stop-color="#21064E" stop-opacity="0.331884"/>
<stop offset="0.666667" stop-color="#21064E" stop-opacity="0.231775"/>
<stop offset="0.733333" stop-color="#21064E" stop-opacity="0.147411"/>
<stop offset="0.8" stop-color="#21064E" stop-opacity="0.0816599"/>
<stop offset="0.866667" stop-color="#21064E" stop-opacity="0.03551"/>
<stop offset="0.933333" stop-color="#21064E" stop-opacity="0.01"/>
<stop offset="1" stop-color="#21064E" stop-opacity="0"/>
</linearGradient>
<linearGradient id="paint1_linear_1156_7027" x1="261.188" y1="219.562" x2="248.167" y2="219.562" gradientUnits="userSpaceOnUse">
<stop stop-color="#9B6AFF"/>
<stop offset="0.0666667" stop-color="#9B6AFF" stop-opacity="0.991353"/>
<stop offset="0.133333" stop-color="#9B6AFF" stop-opacity="0.96449"/>
<stop offset="0.2" stop-color="#9B6AFF" stop-opacity="0.91834"/>
<stop offset="0.266667" stop-color="#9B6AFF" stop-opacity="0.852589"/>
<stop offset="0.333333" stop-color="#9B6AFF" stop-opacity="0.768225"/>
<stop offset="0.4" stop-color="#9B6AFF" stop-opacity="0.668116"/>
<stop offset="0.466667" stop-color="#9B6AFF" stop-opacity="0.557309"/>
<stop offset="0.533333" stop-color="#9B6AFF" stop-opacity="0.442691"/>
<stop offset="0.6" stop-color="#9B6AFF" stop-opacity="0.331884"/>
<stop offset="0.666667" stop-color="#9B6AFF" stop-opacity="0.231775"/>
<stop offset="0.733333" stop-color="#9B6AFF" stop-opacity="0.147411"/>
<stop offset="0.8" stop-color="#9B6AFF" stop-opacity="0.0816599"/>
<stop offset="0.866667" stop-color="#9B6AFF" stop-opacity="0.03551"/>
<stop offset="0.933333" stop-color="#9B6AFF" stop-opacity="0.01"/>
<stop offset="1" stop-color="#9B6AFF" stop-opacity="0"/>
</linearGradient>
<linearGradient id="paint2_linear_1156_7027" x1="255.459" y1="231.542" x2="248.167" y2="231.542" gradientUnits="userSpaceOnUse">
<stop stop-color="#9B6AFF"/>
<stop offset="0.0666667" stop-color="#9B6AFF" stop-opacity="0.991353"/>
<stop offset="0.133333" stop-color="#9B6AFF" stop-opacity="0.96449"/>
<stop offset="0.2" stop-color="#9B6AFF" stop-opacity="0.91834"/>
<stop offset="0.266667" stop-color="#9B6AFF" stop-opacity="0.852589"/>
<stop offset="0.333333" stop-color="#9B6AFF" stop-opacity="0.768225"/>
<stop offset="0.4" stop-color="#9B6AFF" stop-opacity="0.668116"/>
<stop offset="0.466667" stop-color="#9B6AFF" stop-opacity="0.557309"/>
<stop offset="0.533333" stop-color="#9B6AFF" stop-opacity="0.442691"/>
<stop offset="0.6" stop-color="#9B6AFF" stop-opacity="0.331884"/>
<stop offset="0.666667" stop-color="#9B6AFF" stop-opacity="0.231775"/>
<stop offset="0.733333" stop-color="#9B6AFF" stop-opacity="0.147411"/>
<stop offset="0.8" stop-color="#9B6AFF" stop-opacity="0.0816599"/>
<stop offset="0.866667" stop-color="#9B6AFF" stop-opacity="0.03551"/>
<stop offset="0.933333" stop-color="#9B6AFF" stop-opacity="0.01"/>
<stop offset="1" stop-color="#9B6AFF" stop-opacity="0"/>
</linearGradient>
<linearGradient id="paint3_linear_1156_7027" x1="375" y1="904.5" x2="16" y2="904.5" gradientUnits="userSpaceOnUse">
<stop stop-color="#21064E"/>
<stop offset="1" stop-color="#21064E" stop-opacity="0"/>
</linearGradient>
<linearGradient id="paint4_linear_1156_7027" x1="157.729" y1="900.767" x2="234.538" y2="918.051" gradientUnits="userSpaceOnUse">
<stop stop-color="#21064E"/>
<stop offset="1" stop-color="#21064E" stop-opacity="0"/>
</linearGradient>
<linearGradient id="paint5_linear_1156_7027" x1="197" y1="923.5" x2="181" y2="923.5" gradientUnits="userSpaceOnUse">
<stop stop-color="#9B6AFF"/>
<stop offset="0.0666667" stop-color="#9B6AFF" stop-opacity="0.991353"/>
<stop offset="0.133333" stop-color="#9B6AFF" stop-opacity="0.96449"/>
<stop offset="0.2" stop-color="#9B6AFF" stop-opacity="0.91834"/>
<stop offset="0.266667" stop-color="#9B6AFF" stop-opacity="0.852589"/>
<stop offset="0.333333" stop-color="#9B6AFF" stop-opacity="0.768225"/>
<stop offset="0.4" stop-color="#9B6AFF" stop-opacity="0.668116"/>
<stop offset="0.466667" stop-color="#9B6AFF" stop-opacity="0.557309"/>
<stop offset="0.533333" stop-color="#9B6AFF" stop-opacity="0.442691"/>
<stop offset="0.6" stop-color="#9B6AFF" stop-opacity="0.331884"/>
<stop offset="0.666667" stop-color="#9B6AFF" stop-opacity="0.231775"/>
<stop offset="0.733333" stop-color="#9B6AFF" stop-opacity="0.147411"/>
<stop offset="0.8" stop-color="#9B6AFF" stop-opacity="0.0816599"/>
<stop offset="0.866667" stop-color="#9B6AFF" stop-opacity="0.03551"/>
<stop offset="0.933333" stop-color="#9B6AFF" stop-opacity="0.01"/>
<stop offset="1" stop-color="#9B6AFF" stop-opacity="0"/>
</linearGradient>
<linearGradient id="paint6_linear_1156_7027" x1="208.271" y1="650.223" x2="130.094" y2="636.183" gradientUnits="userSpaceOnUse">
<stop stop-color="#21064E"/>
<stop offset="1" stop-color="#21064E" stop-opacity="0"/>
</linearGradient>
<linearGradient id="paint7_linear_1156_7027" x1="191" y1="619.5" x2="175" y2="619.5" gradientUnits="userSpaceOnUse">
<stop stop-color="#9B6AFF"/>
<stop offset="0.0666667" stop-color="#9B6AFF" stop-opacity="0.991353"/>
<stop offset="0.133333" stop-color="#9B6AFF" stop-opacity="0.96449"/>
<stop offset="0.2" stop-color="#9B6AFF" stop-opacity="0.91834"/>
<stop offset="0.266667" stop-color="#9B6AFF" stop-opacity="0.852589"/>
<stop offset="0.333333" stop-color="#9B6AFF" stop-opacity="0.768225"/>
<stop offset="0.4" stop-color="#9B6AFF" stop-opacity="0.668116"/>
<stop offset="0.466667" stop-color="#9B6AFF" stop-opacity="0.557309"/>
<stop offset="0.533333" stop-color="#9B6AFF" stop-opacity="0.442691"/>
<stop offset="0.6" stop-color="#9B6AFF" stop-opacity="0.331884"/>
<stop offset="0.666667" stop-color="#9B6AFF" stop-opacity="0.231775"/>
<stop offset="0.733333" stop-color="#9B6AFF" stop-opacity="0.147411"/>
<stop offset="0.8" stop-color="#9B6AFF" stop-opacity="0.0816599"/>
<stop offset="0.866667" stop-color="#9B6AFF" stop-opacity="0.03551"/>
<stop offset="0.933333" stop-color="#9B6AFF" stop-opacity="0.01"/>
<stop offset="1" stop-color="#9B6AFF" stop-opacity="0"/>
</linearGradient>
<clipPath id="clip0_1156_7027">
<rect width="375" height="1233" fill="white"/>
</clipPath>
</defs>
</svg>
