<svg id="eop1mfZyzHS1" xmlns="http://www.w3.org/2000/svg" xmlns:xlink="http://www.w3.org/1999/xlink" viewBox="0 0 375 1494" shape-rendering="geometricPrecision" text-rendering="geometricPrecision"><defs><linearGradient id="eop1mfZyzHS5-fill" x1="494" y1="348.5" x2="290" y2="348.5" spreadMethod="pad" gradientUnits="userSpaceOnUse" gradientTransform="translate(0 0)"><stop id="eop1mfZyzHS5-fill-0" offset="0%" stop-color="#21064e"/><stop id="eop1mfZyzHS5-fill-1" offset="6.66667%" stop-color="rgba(33,6,78,0.991353)"/><stop id="eop1mfZyzHS5-fill-2" offset="13.3333%" stop-color="rgba(33,6,78,0.96449)"/><stop id="eop1mfZyzHS5-fill-3" offset="20%" stop-color="rgba(33,6,78,0.91834)"/><stop id="eop1mfZyzHS5-fill-4" offset="26.6667%" stop-color="rgba(33,6,78,0.852589)"/><stop id="eop1mfZyzHS5-fill-5" offset="33.3333%" stop-color="rgba(33,6,78,0.768225)"/><stop id="eop1mfZyzHS5-fill-6" offset="40%" stop-color="rgba(33,6,78,0.668116)"/><stop id="eop1mfZyzHS5-fill-7" offset="46.6667%" stop-color="rgba(33,6,78,0.557309)"/><stop id="eop1mfZyzHS5-fill-8" offset="53.3333%" stop-color="rgba(33,6,78,0.442691)"/><stop id="eop1mfZyzHS5-fill-9" offset="60%" stop-color="rgba(33,6,78,0.331884)"/><stop id="eop1mfZyzHS5-fill-10" offset="66.6667%" stop-color="rgba(33,6,78,0.231775)"/><stop id="eop1mfZyzHS5-fill-11" offset="73.3333%" stop-color="rgba(33,6,78,0.147411)"/><stop id="eop1mfZyzHS5-fill-12" offset="80%" stop-color="rgba(33,6,78,0.0816599)"/><stop id="eop1mfZyzHS5-fill-13" offset="86.6667%" stop-color="rgba(33,6,78,0.03551)"/><stop id="eop1mfZyzHS5-fill-14" offset="93.3333%" stop-color="rgba(33,6,78,0.01)"/><stop id="eop1mfZyzHS5-fill-15" offset="100%" stop-color="rgba(33,6,78,0)"/></linearGradient><linearGradient id="eop1mfZyzHS9-fill" x1="494" y1="1035" x2="135" y2="1035" spreadMethod="pad" gradientUnits="userSpaceOnUse" gradientTransform="translate(0 0)"><stop id="eop1mfZyzHS9-fill-0" offset="0%" stop-color="#21064e"/><stop id="eop1mfZyzHS9-fill-1" offset="100%" stop-color="rgba(33,6,78,0)"/></linearGradient><linearGradient id="eop1mfZyzHS23-stroke" x1="276.729" y1="1434.77" x2="353.538" y2="1452.05" spreadMethod="pad" gradientUnits="userSpaceOnUse" gradientTransform="translate(0 0)"><stop id="eop1mfZyzHS23-stroke-0" offset="0%" stop-color="#21064e"/><stop id="eop1mfZyzHS23-stroke-1" offset="100%" stop-color="rgba(33,6,78,0)"/></linearGradient><linearGradient id="eop1mfZyzHS24-fill" x1="16" y1="1.5" x2="0" y2="1.5" spreadMethod="pad" gradientUnits="userSpaceOnUse" gradientTransform="translate(0 0)"><stop id="eop1mfZyzHS24-fill-0" offset="0%" stop-color="#9b6aff"/><stop id="eop1mfZyzHS24-fill-1" offset="6.66667%" stop-color="rgba(155,106,255,0.991353)"/><stop id="eop1mfZyzHS24-fill-2" offset="13.3333%" stop-color="rgba(155,106,255,0.96449)"/><stop id="eop1mfZyzHS24-fill-3" offset="20%" stop-color="rgba(155,106,255,0.91834)"/><stop id="eop1mfZyzHS24-fill-4" offset="26.6667%" stop-color="rgba(155,106,255,0.852589)"/><stop id="eop1mfZyzHS24-fill-5" offset="33.3333%" stop-color="rgba(155,106,255,0.768225)"/><stop id="eop1mfZyzHS24-fill-6" offset="40%" stop-color="rgba(155,106,255,0.668116)"/><stop id="eop1mfZyzHS24-fill-7" offset="46.6667%" stop-color="rgba(155,106,255,0.557309)"/><stop id="eop1mfZyzHS24-fill-8" offset="53.3333%" stop-color="rgba(155,106,255,0.442691)"/><stop id="eop1mfZyzHS24-fill-9" offset="60%" stop-color="rgba(155,106,255,0.331884)"/><stop id="eop1mfZyzHS24-fill-10" offset="66.6667%" stop-color="rgba(155,106,255,0.231775)"/><stop id="eop1mfZyzHS24-fill-11" offset="73.3333%" stop-color="rgba(155,106,255,0.147411)"/><stop id="eop1mfZyzHS24-fill-12" offset="80%" stop-color="rgba(155,106,255,0.0816599)"/><stop id="eop1mfZyzHS24-fill-13" offset="86.6667%" stop-color="rgba(155,106,255,0.03551)"/><stop id="eop1mfZyzHS24-fill-14" offset="93.3333%" stop-color="rgba(155,106,255,0.01)"/><stop id="eop1mfZyzHS24-fill-15" offset="100%" stop-color="rgba(155,106,255,0)"/></linearGradient><linearGradient id="eop1mfZyzHS27-fill" x1="13.021" y1="1.562" x2="0" y2="1.562" spreadMethod="pad" gradientUnits="userSpaceOnUse" gradientTransform="translate(0 0)"><stop id="eop1mfZyzHS27-fill-0" offset="0%" stop-color="#9b6aff"/><stop id="eop1mfZyzHS27-fill-1" offset="6.66667%" stop-color="rgba(155,106,255,0.991353)"/><stop id="eop1mfZyzHS27-fill-2" offset="13.3333%" stop-color="rgba(155,106,255,0.96449)"/><stop id="eop1mfZyzHS27-fill-3" offset="20%" stop-color="rgba(155,106,255,0.91834)"/><stop id="eop1mfZyzHS27-fill-4" offset="26.6667%" stop-color="rgba(155,106,255,0.852589)"/><stop id="eop1mfZyzHS27-fill-5" offset="33.3333%" stop-color="rgba(155,106,255,0.768225)"/><stop id="eop1mfZyzHS27-fill-6" offset="40%" stop-color="rgba(155,106,255,0.668116)"/><stop id="eop1mfZyzHS27-fill-7" offset="46.6667%" stop-color="rgba(155,106,255,0.557309)"/><stop id="eop1mfZyzHS27-fill-8" offset="53.3333%" stop-color="rgba(155,106,255,0.442691)"/><stop id="eop1mfZyzHS27-fill-9" offset="60%" stop-color="rgba(155,106,255,0.331884)"/><stop id="eop1mfZyzHS27-fill-10" offset="66.6667%" stop-color="rgba(155,106,255,0.231775)"/><stop id="eop1mfZyzHS27-fill-11" offset="73.3333%" stop-color="rgba(155,106,255,0.147411)"/><stop id="eop1mfZyzHS27-fill-12" offset="80%" stop-color="rgba(155,106,255,0.0816599)"/><stop id="eop1mfZyzHS27-fill-13" offset="86.6667%" stop-color="rgba(155,106,255,0.03551)"/><stop id="eop1mfZyzHS27-fill-14" offset="93.3333%" stop-color="rgba(155,106,255,0.01)"/><stop id="eop1mfZyzHS27-fill-15" offset="100%" stop-color="rgba(155,106,255,0)"/></linearGradient><linearGradient id="eop1mfZyzHS29-fill" x1="7.292" y1="1.563" x2="0" y2="1.563" spreadMethod="pad" gradientUnits="userSpaceOnUse" gradientTransform="translate(0 0)"><stop id="eop1mfZyzHS29-fill-0" offset="0%" stop-color="#9b6aff"/><stop id="eop1mfZyzHS29-fill-1" offset="6.66667%" stop-color="rgba(155,106,255,0.991353)"/><stop id="eop1mfZyzHS29-fill-2" offset="13.3333%" stop-color="rgba(155,106,255,0.96449)"/><stop id="eop1mfZyzHS29-fill-3" offset="20%" stop-color="rgba(155,106,255,0.91834)"/><stop id="eop1mfZyzHS29-fill-4" offset="26.6667%" stop-color="rgba(155,106,255,0.852589)"/><stop id="eop1mfZyzHS29-fill-5" offset="33.3333%" stop-color="rgba(155,106,255,0.768225)"/><stop id="eop1mfZyzHS29-fill-6" offset="40%" stop-color="rgba(155,106,255,0.668116)"/><stop id="eop1mfZyzHS29-fill-7" offset="46.6667%" stop-color="rgba(155,106,255,0.557309)"/><stop id="eop1mfZyzHS29-fill-8" offset="53.3333%" stop-color="rgba(155,106,255,0.442691)"/><stop id="eop1mfZyzHS29-fill-9" offset="60%" stop-color="rgba(155,106,255,0.331884)"/><stop id="eop1mfZyzHS29-fill-10" offset="66.6667%" stop-color="rgba(155,106,255,0.231775)"/><stop id="eop1mfZyzHS29-fill-11" offset="73.3333%" stop-color="rgba(155,106,255,0.147411)"/><stop id="eop1mfZyzHS29-fill-12" offset="80%" stop-color="rgba(155,106,255,0.0816599)"/><stop id="eop1mfZyzHS29-fill-13" offset="86.6667%" stop-color="rgba(155,106,255,0.03551)"/><stop id="eop1mfZyzHS29-fill-14" offset="93.3333%" stop-color="rgba(155,106,255,0.01)"/><stop id="eop1mfZyzHS29-fill-15" offset="100%" stop-color="rgba(155,106,255,0)"/></linearGradient><linearGradient id="eop1mfZyzHS31-stroke" x1="327.271" y1="650.223" x2="249.094" y2="636.183" spreadMethod="pad" gradientUnits="userSpaceOnUse" gradientTransform="translate(0 0)"><stop id="eop1mfZyzHS31-stroke-0" offset="0%" stop-color="#21064e"/><stop id="eop1mfZyzHS31-stroke-1" offset="100%" stop-color="rgba(33,6,78,0)"/></linearGradient><linearGradient id="eop1mfZyzHS32-fill" x1="16" y1="1.5" x2="0" y2="1.5" spreadMethod="pad" gradientUnits="userSpaceOnUse" gradientTransform="translate(0 0)"><stop id="eop1mfZyzHS32-fill-0" offset="0%" stop-color="#9b6aff"/><stop id="eop1mfZyzHS32-fill-1" offset="6.66667%" stop-color="rgba(155,106,255,0.991353)"/><stop id="eop1mfZyzHS32-fill-2" offset="13.3333%" stop-color="rgba(155,106,255,0.96449)"/><stop id="eop1mfZyzHS32-fill-3" offset="20%" stop-color="rgba(155,106,255,0.91834)"/><stop id="eop1mfZyzHS32-fill-4" offset="26.6667%" stop-color="rgba(155,106,255,0.852589)"/><stop id="eop1mfZyzHS32-fill-5" offset="33.3333%" stop-color="rgba(155,106,255,0.768225)"/><stop id="eop1mfZyzHS32-fill-6" offset="40%" stop-color="rgba(155,106,255,0.668116)"/><stop id="eop1mfZyzHS32-fill-7" offset="46.6667%" stop-color="rgba(155,106,255,0.557309)"/><stop id="eop1mfZyzHS32-fill-8" offset="53.3333%" stop-color="rgba(155,106,255,0.442691)"/><stop id="eop1mfZyzHS32-fill-9" offset="60%" stop-color="rgba(155,106,255,0.331884)"/><stop id="eop1mfZyzHS32-fill-10" offset="66.6667%" stop-color="rgba(155,106,255,0.231775)"/><stop id="eop1mfZyzHS32-fill-11" offset="73.3333%" stop-color="rgba(155,106,255,0.147411)"/><stop id="eop1mfZyzHS32-fill-12" offset="80%" stop-color="rgba(155,106,255,0.0816599)"/><stop id="eop1mfZyzHS32-fill-13" offset="86.6667%" stop-color="rgba(155,106,255,0.03551)"/><stop id="eop1mfZyzHS32-fill-14" offset="93.3333%" stop-color="rgba(155,106,255,0.01)"/><stop id="eop1mfZyzHS32-fill-15" offset="100%" stop-color="rgba(155,106,255,0)"/></linearGradient></defs><path d="M173.828,-0.000183C77.8255,-0.000175,-0.000008,78.1168,0,174.479h347.656c0-96.3622-77.825-174.479192-173.828-174.479183Z" transform="translate(-119 0)" fill="#36147d" fill-opacity="0.27"/><path d="M450.437,46.9998C409.879,46.9998,377,79.9955,377,120.698h146.875c0-40.7025-32.879-73.6982-73.438-73.6982Z" transform="translate(-119 0)" fill="#36147d" fill-opacity="0.27"/><path d="M494,121h-172.75C303.991,121,290,134.991,290,152.25v423.75h204v-455Z" transform="translate(-119 0)" fill="#9b6aff"/><path d="M290,152.25c0-17.259,13.991-31.25,31.25-31.25h172.75v455h-204v-423.75Z" transform="translate(-119 0)" fill="url(#eop1mfZyzHS5-fill)" fill-opacity="0.5"/><path d="M119,164h293.75c17.259,0,31.25,13.991,31.25,31.25v1298.75h-325v-1330Z" transform="translate(-119 0)" fill="#36147d"/><path d="M362,495c-45.287,0-82,36.713-82,82h164c0-45.287-36.713-82-82-82Z" transform="translate(-119 0)" fill="#4c249f"/><path d="M494,576h-327.75C148.991,576,135,589.991,135,607.25v886.75h359v-918Z" transform="translate(-119 0)" fill="#6438c1"/><path d="M135,607.25c0-17.259,13.991-31.25,31.25-31.25h327.75v918h-359v-886.75Z" transform="translate(-119 0)" fill="url(#eop1mfZyzHS9-fill)" fill-opacity="0.51"/><path d="M267.537,163.48c0-35.771-28.998-64.7691-64.768-64.7691C166.998,98.7109,138,127.709,138,163.48" transform="translate(-119 0)" fill="none" stroke="#fff"/><path d="M236.919,163.479c0-18.861-15.29-34.15-34.151-34.15s-34.151,15.289-34.151,34.15" transform="translate(-119 0)" fill="none" stroke="#fff"/><circle r="7.06568" transform="matrix(0 1-1 0 83.7676 98.71)" fill="#ffb636" stroke="#270a5b" stroke-width="4.71045"/><circle r="7.06568" transform="matrix(0 1-1 0 36.665 120.496)" fill="#35f0d0" stroke="#270a5b" stroke-width="4.71045"/><circle r="7.06568" transform="matrix(0 1-1 0 109.676 141.693)" fill="#35f0d0" stroke="#270a5b" stroke-width="4.71045"/><circle r="7.06568" transform="matrix(0 1-1 0 130.874 120.496)" fill="#9b6aff" stroke="#270a5b" stroke-width="4.71045"/><circle r="7.06568" transform="matrix(0 1-1 0 59.039 141.693)" fill="#9b6aff" stroke="#270a5b" stroke-width="4.71045"/><path d="M310.016,533.48c6.084,0,11.016,4.835,11.016,10.8h-22.032c0-5.965,4.932-10.8,11.016-10.8Z" transform="translate(-119 0)" fill="#ffb636"/><path d="M318.739,561.261c-9.46-9.461-9.46-24.8,0-34.261L353,561.261c-9.461,9.461-24.8,9.461-34.261,0Z" transform="translate(-119 0)" fill="#9b6aff"/><path d="M338.744,541.255c6.442,0,11.664,5.223,11.664,11.664h-23.328c0-6.441,5.222-11.664,11.664-11.664Z" transform="translate(-119 0)" fill="#9b6aff"/><circle r="3.23999" transform="matrix(-1 0 0 1 201.38501 539.74299)" fill="#21064e"/><rect width="3.45599" height="8.20798" rx="0" ry="0" transform="matrix(-1 0 0 1 223.201 567.607)" fill="#9b6aff"/><path d="M337.882,571.495c2.385,0,4.319,1.935,4.319,4.32h-8.639c0-2.385,1.934-4.32,4.32-4.32Z" transform="translate(-119 0)" fill="#ffb636"/><path d="M338,1494v-32c0-2.21-1.791-4-4-4h-55c-2.209,0-4-1.79-4-4v-40" transform="translate(-119 0)" fill="none" stroke="url(#eop1mfZyzHS23-stroke)" stroke-width="4"/><rect width="16" height="4" rx="0" ry="0" transform="translate(181 1456)" fill="url(#eop1mfZyzHS24-fill)" fill-opacity="0.46"/><circle r="2" transform="translate(197 1458)" fill="#ffb636"/><path d="M444,260h-58.307c-11.506,0-20.833-9.327-20.833-20.833v-12.917c0-17.259-13.991-31.25-31.25-31.25L119,195" transform="translate(-119 0)" fill="none" stroke="#21064e" stroke-width="10.5"/><rect width="13.0208" height="4.16667" rx="0" ry="0" transform="matrix(0 1-1 0 248.167 218)" fill="url(#eop1mfZyzHS27-fill)" fill-opacity="0.46"/><circle r="2.08333" transform="matrix(0 1-1 0 246.084 231.021)" fill="#35f0d0"/><rect width="7.29167" height="4.16667" rx="0" ry="0" transform="matrix(0 1-1 0 248.167 229.979)" fill="url(#eop1mfZyzHS29-fill)" fill-opacity="0.46"/><circle r="2.08333" transform="matrix(0 1-1 0 246.084 237.271)" fill="#ffb636"/><path d="M266,576v40c0,2.209,1.791,4,4,4h55c2.209,0,4,1.791,4,4v32" transform="translate(-119 0)" fill="none" stroke="url(#eop1mfZyzHS31-stroke)" stroke-width="4"/><rect width="16" height="4" rx="0" ry="0" transform="translate(175 618)" fill="url(#eop1mfZyzHS32-fill)" fill-opacity="0.46"/><circle r="2" transform="translate(191 620)" fill="#35f0d0"/></svg>
