<svg width="375" height="667" viewBox="0 0 375 667" fill="none" xmlns="http://www.w3.org/2000/svg">
<rect width="375" height="667" fill="#2D0C66"/>
<mask id="mask0_3306_63612" style="mask-type:alpha" maskUnits="userSpaceOnUse" x="0" y="0" width="375" height="834">
<rect width="375" height="834" fill="#D9D9D9"/>
</mask>
<g mask="url(#mask0_3306_63612)">
<g opacity="0.8">
<path d="M155.591 80.0001C242.972 80.0001 313.808 151.076 313.808 238.751L-2.625 238.751C-2.62499 151.075 68.2109 80.0001 155.591 80.0001Z" fill="#4C249F"/>
<path d="M155.591 80.0001C242.972 80.0001 313.808 151.076 313.808 238.751L-2.625 238.751C-2.62499 151.075 68.2109 80.0001 155.591 80.0001Z" fill="url(#paint0_linear_3306_63612)" fill-opacity="0.5"/>
<g clip-path="url(#clip0_3306_63612)">
<path d="M591.5 118.25H220.5C187.363 118.25 160.5 145.113 160.5 178.25V426.75H591.5V118.25Z" fill="#36147D"/>
<path d="M160.5 178.25C160.5 145.113 187.363 118.25 220.5 118.25H591.5V426.75H160.5V178.25Z" fill="url(#paint1_linear_3306_63612)" fill-opacity="0.51"/>
</g>
<path d="M67.5 223.75C67.5 190.613 40.6371 163.75 7.5 163.75H-227.5V393.75H67.5V223.75Z" fill="url(#paint2_linear_3306_63612)" fill-opacity="0.51"/>
</g>
<path d="M-8.5 472.25L227 472.25C249.091 472.25 267 454.341 267 432.25L267 411.25C267 378.113 293.863 351.25 327 351.25L492 351.25" stroke="#21064E" stroke-width="14"/>
<rect width="18.75" height="6" transform="matrix(-1 0 0 1 372.375 348.25)" fill="url(#paint3_linear_3306_63612)" fill-opacity="0.46"/>
<ellipse cx="3" cy="3" rx="3" ry="3" transform="matrix(-1 0 0 1 356.625 348.25)" fill="#35F0D0"/>
<rect width="10.5" height="6" transform="matrix(-1 0 0 1 355.125 348.25)" fill="url(#paint4_linear_3306_63612)" fill-opacity="0.46"/>
<ellipse cx="3" cy="3" rx="3" ry="3" transform="matrix(-1 0 0 1 347.625 348.25)" fill="#FFB636"/>
<path d="M239 289C239 255.863 212.137 229 179 229H-465V505H239V289Z" fill="#4C249F"/>
<path d="M239 289C239 255.863 212.137 229 179 229H-465V505H239V289Z" fill="url(#paint5_linear_3306_63612)"/>
<path d="M566.5 598.75H369.5C273.955 598.75 196.5 521.295 196.5 425.75H566.5V598.75Z" fill="#4E289D"/>
<path d="M196.5 425.75C196.5 521.295 273.955 598.75 369.5 598.75H566.5V425.75H196.5Z" fill="url(#paint6_linear_3306_63612)" fill-opacity="0.51"/>
</g>
<defs>
<linearGradient id="paint0_linear_3306_63612" x1="313.808" y1="159.376" x2="-2.62499" y2="159.376" gradientUnits="userSpaceOnUse">
<stop stop-color="#21064E"/>
<stop offset="0.0666667" stop-color="#21064E" stop-opacity="0.991353"/>
<stop offset="0.133333" stop-color="#21064E" stop-opacity="0.96449"/>
<stop offset="0.2" stop-color="#21064E" stop-opacity="0.91834"/>
<stop offset="0.266667" stop-color="#21064E" stop-opacity="0.852589"/>
<stop offset="0.333333" stop-color="#21064E" stop-opacity="0.768225"/>
<stop offset="0.4" stop-color="#21064E" stop-opacity="0.668116"/>
<stop offset="0.466667" stop-color="#21064E" stop-opacity="0.557309"/>
<stop offset="0.533333" stop-color="#21064E" stop-opacity="0.442691"/>
<stop offset="0.6" stop-color="#21064E" stop-opacity="0.331884"/>
<stop offset="0.666667" stop-color="#21064E" stop-opacity="0.231775"/>
<stop offset="0.733333" stop-color="#21064E" stop-opacity="0.147411"/>
<stop offset="0.8" stop-color="#21064E" stop-opacity="0.0816599"/>
<stop offset="0.866667" stop-color="#21064E" stop-opacity="0.03551"/>
<stop offset="0.933333" stop-color="#21064E" stop-opacity="0.01"/>
<stop offset="1" stop-color="#21064E" stop-opacity="0"/>
</linearGradient>
<linearGradient id="paint1_linear_3306_63612" x1="591.5" y1="272.5" x2="160.5" y2="272.5" gradientUnits="userSpaceOnUse">
<stop stop-color="#21064E"/>
<stop offset="1" stop-color="#21064E" stop-opacity="0"/>
</linearGradient>
<linearGradient id="paint2_linear_3306_63612" x1="-227.5" y1="278.75" x2="67.5" y2="278.75" gradientUnits="userSpaceOnUse">
<stop stop-color="#21064E"/>
<stop offset="1" stop-color="#21064E" stop-opacity="0"/>
</linearGradient>
<linearGradient id="paint3_linear_3306_63612" x1="18.75" y1="2.25" x2="-3.20608e-08" y2="2.25" gradientUnits="userSpaceOnUse">
<stop stop-color="#9B6AFF"/>
<stop offset="0.0666667" stop-color="#9B6AFF" stop-opacity="0.991353"/>
<stop offset="0.133333" stop-color="#9B6AFF" stop-opacity="0.96449"/>
<stop offset="0.2" stop-color="#9B6AFF" stop-opacity="0.91834"/>
<stop offset="0.266667" stop-color="#9B6AFF" stop-opacity="0.852589"/>
<stop offset="0.333333" stop-color="#9B6AFF" stop-opacity="0.768225"/>
<stop offset="0.4" stop-color="#9B6AFF" stop-opacity="0.668116"/>
<stop offset="0.466667" stop-color="#9B6AFF" stop-opacity="0.557309"/>
<stop offset="0.533333" stop-color="#9B6AFF" stop-opacity="0.442691"/>
<stop offset="0.6" stop-color="#9B6AFF" stop-opacity="0.331884"/>
<stop offset="0.666667" stop-color="#9B6AFF" stop-opacity="0.231775"/>
<stop offset="0.733333" stop-color="#9B6AFF" stop-opacity="0.147411"/>
<stop offset="0.8" stop-color="#9B6AFF" stop-opacity="0.0816599"/>
<stop offset="0.866667" stop-color="#9B6AFF" stop-opacity="0.03551"/>
<stop offset="0.933333" stop-color="#9B6AFF" stop-opacity="0.01"/>
<stop offset="1" stop-color="#9B6AFF" stop-opacity="0"/>
</linearGradient>
<linearGradient id="paint4_linear_3306_63612" x1="10.5" y1="2.25" x2="-1.7954e-08" y2="2.25" gradientUnits="userSpaceOnUse">
<stop stop-color="#9B6AFF"/>
<stop offset="0.0666667" stop-color="#9B6AFF" stop-opacity="0.991353"/>
<stop offset="0.133333" stop-color="#9B6AFF" stop-opacity="0.96449"/>
<stop offset="0.2" stop-color="#9B6AFF" stop-opacity="0.91834"/>
<stop offset="0.266667" stop-color="#9B6AFF" stop-opacity="0.852589"/>
<stop offset="0.333333" stop-color="#9B6AFF" stop-opacity="0.768225"/>
<stop offset="0.4" stop-color="#9B6AFF" stop-opacity="0.668116"/>
<stop offset="0.466667" stop-color="#9B6AFF" stop-opacity="0.557309"/>
<stop offset="0.533333" stop-color="#9B6AFF" stop-opacity="0.442691"/>
<stop offset="0.6" stop-color="#9B6AFF" stop-opacity="0.331884"/>
<stop offset="0.666667" stop-color="#9B6AFF" stop-opacity="0.231775"/>
<stop offset="0.733333" stop-color="#9B6AFF" stop-opacity="0.147411"/>
<stop offset="0.8" stop-color="#9B6AFF" stop-opacity="0.0816599"/>
<stop offset="0.866667" stop-color="#9B6AFF" stop-opacity="0.03551"/>
<stop offset="0.933333" stop-color="#9B6AFF" stop-opacity="0.01"/>
<stop offset="1" stop-color="#9B6AFF" stop-opacity="0"/>
</linearGradient>
<linearGradient id="paint5_linear_3306_63612" x1="-163.858" y1="366.6" x2="271.436" y2="375.42" gradientUnits="userSpaceOnUse">
<stop stop-color="#21064E"/>
<stop offset="1" stop-color="#21064E" stop-opacity="0"/>
</linearGradient>
<linearGradient id="paint6_linear_3306_63612" x1="566.5" y1="512.25" x2="196.5" y2="512.25" gradientUnits="userSpaceOnUse">
<stop stop-color="#21064E"/>
<stop offset="1" stop-color="#21064E" stop-opacity="0"/>
</linearGradient>
<clipPath id="clip0_3306_63612">
<rect width="474.5" height="308.5" fill="white" transform="matrix(-1 0 0 1 591.5 118.25)"/>
</clipPath>
</defs>
</svg>
