<svg width="375" height="667" viewBox="0 0 375 667" fill="none" xmlns="http://www.w3.org/2000/svg">
<rect width="375" height="667" fill="#2D0C66"/>
<mask id="mask0_3420_36447" style="mask-type:alpha" maskUnits="userSpaceOnUse" x="0" y="0" width="375" height="423">
<rect width="375" height="423" fill="#D9D9D9"/>
</mask>
<g mask="url(#mask0_3420_36447)">
<path d="M-65.6628 -30.4119C-198.397 -30.4118 -306 77.5938 -306 210.825L174.674 210.825C174.674 77.5938 67.0717 -30.4119 -65.6628 -30.4119Z" fill="#36147D" fill-opacity="0.27"/>
<path d="M334.54 -83.7C253.408 -83.6999 187.638 -17.6069 187.638 63.9229L481.443 63.9229C481.443 -17.607 415.672 -83.7 334.54 -83.7Z" fill="#36147D" fill-opacity="0.27"/>
<path d="M398.99 53.9229H154.512C130.65 53.9229 111.306 73.2671 111.306 97.1295V423.34H398.99V53.9229Z" fill="#36147D"/>
<path d="M110.946 97.1295C110.946 73.2671 130.29 53.9229 154.152 53.9229L398.99 53.9229L398.99 423.34H110.946L110.946 97.1295Z" fill="url(#paint0_linear_3420_36447)" fill-opacity="0.5"/>
<path d="M419.152 151.777C362.479 151.777 316.536 197.88 316.536 254.752L521.768 254.752C521.768 197.88 475.825 151.777 419.152 151.777Z" fill="#36147D"/>
<path d="M-94.2866 211.546H204.199C228.062 211.546 247.406 230.89 247.406 254.752V433.34H-94.2866V211.546Z" fill="#4C249F"/>
<path d="M247.406 254.752C247.406 230.89 228.061 211.546 204.199 211.546H-94.2873V433.7H247.406V254.752Z" fill="url(#paint1_linear_3420_36447)" fill-opacity="0.51"/>
<path d="M423.473 254.752H190.517C166.654 254.752 147.31 274.096 147.31 297.959V433.34H423.473V254.752Z" fill="#6538C1"/>
<path d="M147.31 297.959C147.31 274.097 166.655 254.752 190.517 254.752H423.473V433.34H147.31V297.959Z" fill="url(#paint2_linear_3420_36447)" fill-opacity="0.51"/>
</g>
<line x1="274.623" y1="233.3" x2="274.624" y2="254.498" stroke="white" stroke-width="1.27775"/>
<path d="M274.5 230.988L274.5 240.238" stroke="white" stroke-width="1.27775" stroke-linecap="round"/>
<path d="M274.5 203.238L274.5 212.488" stroke="white" stroke-width="1.27775" stroke-linecap="round"/>
<path d="M283.75 221.738L293 221.738" stroke="white" stroke-width="1.27775" stroke-linecap="round"/>
<path d="M256 221.738L265.249 221.738" stroke="white" stroke-width="1.27775" stroke-linecap="round"/>
<path d="M281.038 228.278L287.579 234.819" stroke="white" stroke-width="1.27775" stroke-linecap="round"/>
<path d="M261.418 208.656L267.959 215.197" stroke="white" stroke-width="1.27775" stroke-linecap="round"/>
<path d="M281.038 215.197L287.579 208.656" stroke="white" stroke-width="1.27775" stroke-linecap="round"/>
<path d="M261.418 234.819L267.959 228.278" stroke="white" stroke-width="1.27775" stroke-linecap="round"/>
<ellipse cx="274.499" cy="221.738" rx="5.39582" ry="5.39582" fill="#FFB636"/>
<circle cx="269.103" cy="208.634" r="1.15625" fill="#35F0D0"/>
<circle cx="279.895" cy="208.634" r="1.15625" fill="#9B6AFF"/>
<circle cx="287.604" cy="216.342" r="1.15625" fill="#35F0D0"/>
<circle cx="261.396" cy="216.342" r="1.15625" fill="#9B6AFF"/>
<circle cx="287.604" cy="226.748" r="1.15625" fill="#9B6AFF"/>
<circle cx="261.396" cy="226.748" r="1.15625" fill="#35F0D0"/>
<circle cx="279.895" cy="234.456" r="1.15625" fill="#35F0D0"/>
<circle cx="269.103" cy="234.456" r="1.15625" fill="#9B6AFF"/>
<path d="M375 511C375 544.137 348.137 571 315 571H0V423H375V511Z" fill="#4C249F"/>
<path d="M375 511C375 544.137 348.137 571 315 571H0V423H375V511Z" fill="url(#paint3_linear_3420_36447)"/>
<defs>
<linearGradient id="paint0_linear_3420_36447" x1="398.99" y1="238.631" x2="110.946" y2="238.631" gradientUnits="userSpaceOnUse">
<stop stop-color="#21064E"/>
<stop offset="0.0666667" stop-color="#21064E" stop-opacity="0.991353"/>
<stop offset="0.133333" stop-color="#21064E" stop-opacity="0.96449"/>
<stop offset="0.2" stop-color="#21064E" stop-opacity="0.91834"/>
<stop offset="0.266667" stop-color="#21064E" stop-opacity="0.852589"/>
<stop offset="0.333333" stop-color="#21064E" stop-opacity="0.768225"/>
<stop offset="0.4" stop-color="#21064E" stop-opacity="0.668116"/>
<stop offset="0.466667" stop-color="#21064E" stop-opacity="0.557309"/>
<stop offset="0.533333" stop-color="#21064E" stop-opacity="0.442691"/>
<stop offset="0.6" stop-color="#21064E" stop-opacity="0.331884"/>
<stop offset="0.666667" stop-color="#21064E" stop-opacity="0.231775"/>
<stop offset="0.733333" stop-color="#21064E" stop-opacity="0.147411"/>
<stop offset="0.8" stop-color="#21064E" stop-opacity="0.0816599"/>
<stop offset="0.866667" stop-color="#21064E" stop-opacity="0.03551"/>
<stop offset="0.933333" stop-color="#21064E" stop-opacity="0.01"/>
<stop offset="1" stop-color="#21064E" stop-opacity="0"/>
</linearGradient>
<linearGradient id="paint1_linear_3420_36447" x1="-94.2873" y1="322.623" x2="247.406" y2="322.623" gradientUnits="userSpaceOnUse">
<stop stop-color="#21064E"/>
<stop offset="1" stop-color="#21064E" stop-opacity="0"/>
</linearGradient>
<linearGradient id="paint2_linear_3420_36447" x1="423.473" y1="344.046" x2="147.31" y2="344.046" gradientUnits="userSpaceOnUse">
<stop stop-color="#21064E"/>
<stop offset="1" stop-color="#21064E" stop-opacity="0"/>
</linearGradient>
<linearGradient id="paint3_linear_3420_36447" x1="1.44338e-05" y1="497" x2="392.279" y2="492.583" gradientUnits="userSpaceOnUse">
<stop stop-color="#21064E"/>
<stop offset="1" stop-color="#21064E" stop-opacity="0"/>
</linearGradient>
</defs>
</svg>
