<svg width="265" height="60" viewBox="0 0 265 60" fill="none" xmlns="http://www.w3.org/2000/svg">
<g clip-path="url(#clip0)">
<path d="M27.2647 59.5588C27.2206 59.5588 27.1765 59.6029 27.1765 59.647C27.1765 59.6912 27.2206 59.7353 27.2647 59.7353C27.3088 59.7353 27.3529 59.6912 27.3529 59.647C27.3529 59.6029 27.3088 59.5588 27.2647 59.5588Z" fill="white"/>
<path d="M24.4412 58.5441C24.3088 58.5441 24.2206 58.6323 24.2206 58.7647C24.2206 58.897 24.3088 58.9853 24.4412 58.9853C24.5735 58.9853 24.6618 58.897 24.6618 58.7647C24.6176 58.6765 24.5294 58.5441 24.4412 58.5441Z" fill="white"/>
<path d="M21.7059 57.3088C21.5294 57.3088 21.3971 57.4412 21.3971 57.6177C21.3971 57.7941 21.5294 57.8824 21.7059 57.9265C21.8824 57.9265 22.0147 57.7941 22.0147 57.6177C22.0147 57.4412 21.9265 57.3088 21.7059 57.3088C21.7059 57.3088 21.75 57.3088 21.7059 57.3088Z" fill="white"/>
<path d="M19.1471 55.7206C18.9265 55.7206 18.75 55.897 18.75 56.1176C18.75 56.3382 18.9265 56.5147 19.1471 56.5147C19.3676 56.5147 19.5441 56.3382 19.5441 56.1176C19.5441 55.897 19.3676 55.7206 19.1471 55.7206Z" fill="white"/>
<path d="M16.7206 53.9118C16.4559 53.9118 16.1912 54.1324 16.1912 54.4412C16.1912 54.75 16.4118 54.9706 16.7206 54.9706C16.9853 54.9706 17.25 54.75 17.25 54.4412C17.25 54.1324 16.9853 53.9118 16.7206 53.9118Z" fill="white"/>
<path d="M14.5147 51.8382C14.1618 51.8382 13.8971 52.1029 13.8971 52.4559C13.8971 52.8088 14.1618 53.0735 14.5147 53.0735C14.8677 53.0735 15.1324 52.8088 15.1324 52.4559C15.1324 52.1471 14.8235 51.8382 14.5147 51.8382Z" fill="white"/>
<path d="M12.4853 49.5882C12.0882 49.5882 11.7794 49.8971 11.7794 50.2941C11.7794 50.6912 12.0882 51 12.4853 51C12.8824 51 13.1912 50.6912 13.1912 50.2941C13.1912 49.8971 12.8824 49.5882 12.4853 49.5882Z" fill="white"/>
<path d="M10.7206 47.0735C10.2794 47.0735 9.88235 47.4265 9.88235 47.9118C9.88235 48.3529 10.2353 48.75 10.7206 48.75C11.1618 48.75 11.5588 48.3971 11.5588 47.9118C11.5588 47.4265 11.2059 47.0735 10.7206 47.0735Z" fill="white"/>
<path d="M10.2353 45.3088C10.2353 44.7794 9.83824 44.3824 9.30883 44.3824C8.77941 44.3824 8.38235 44.7794 8.38235 45.3088C8.38235 45.7941 8.77941 46.2353 9.30883 46.2353C9.79412 46.2353 10.1912 45.8382 10.2353 45.3088Z" fill="white"/>
<path d="M9.2206 42.5735C9.2206 42 8.77943 41.5588 8.2059 41.5588C7.63237 41.5588 7.19119 42 7.19119 42.5735C7.19119 43.1471 7.63237 43.5882 8.2059 43.5882C8.77943 43.5882 9.2206 43.1029 9.2206 42.5735Z" fill="white"/>
<path d="M8.60295 39.6618C8.60295 39.0441 8.11765 38.5588 7.50001 38.5588C6.88236 38.5588 6.39706 39.0441 6.39706 39.6618C6.39706 40.2794 6.88236 40.7647 7.50001 40.7647C8.11765 40.8088 8.60295 40.2794 8.60295 39.6618Z" fill="white"/>
<path d="M8.38236 36.75C8.38236 36.0882 7.85295 35.5147 7.14707 35.5147C6.4853 35.5147 5.91177 36.0441 5.91177 36.75C5.91177 37.4118 6.44119 37.9853 7.14707 37.9853C7.85295 37.9853 8.38236 37.4118 8.38236 36.75Z" fill="white"/>
<path d="M7.19117 35.1177C7.94117 35.1177 8.5147 34.5441 8.5147 33.7941C8.5147 33.0441 7.94117 32.4706 7.19117 32.4706C6.44117 32.4706 5.86765 33.0441 5.86765 33.7941C5.86765 34.5441 6.48529 35.1177 7.19117 35.1177Z" fill="white"/>
<path d="M6.22058 30.8382C6.22058 31.6323 6.88234 32.25 7.63235 32.25C8.42646 32.25 9.04411 31.5882 9.04411 30.8382C9.04411 30.0441 8.38235 29.4265 7.63235 29.4265C6.88234 29.4265 6.22058 30.0441 6.22058 30.8382Z" fill="white"/>
<path d="M49.1029 52.7206C49.0588 52.7206 49.0147 52.7647 49.0147 52.8088C49.0147 52.8529 49.0588 52.8971 49.1029 52.8971C49.1471 52.8971 49.1912 52.8529 49.1912 52.8088C49.1912 52.7647 49.1471 52.7206 49.1029 52.7206Z" fill="white"/>
<path d="M46.4559 54C46.3677 54 46.2794 54.0882 46.2794 54.1765C46.2794 54.2647 46.3677 54.3529 46.4559 54.3529C46.5441 54.3529 46.6324 54.2647 46.6324 54.1765C46.6765 54.0882 46.5882 54 46.4559 54Z" fill="white"/>
<path d="M43.7206 55.0147C43.5882 55.0147 43.4559 55.1471 43.4559 55.2794C43.4559 55.4118 43.5882 55.5441 43.7206 55.5441C43.8529 55.5441 43.9853 55.4118 43.9853 55.2794C43.9853 55.1471 43.8529 55.0147 43.7206 55.0147Z" fill="white"/>
<path d="M40.8529 55.7206C40.6324 55.7206 40.5 55.8971 40.5 56.0735C40.5 56.25 40.6765 56.4265 40.8529 56.4265C41.0735 56.4265 41.2059 56.2941 41.2059 56.0735C41.25 55.8971 41.1176 55.7206 40.8529 55.7206C40.8971 55.7206 40.8971 55.7206 40.8529 55.7206Z" fill="white"/>
<path d="M37.9412 56.1176C37.6765 56.1176 37.5 56.2941 37.5 56.5588C37.5 56.8235 37.6765 57 37.9412 57C38.2059 57 38.3824 56.8235 38.3824 56.5588C38.3824 56.3382 38.2059 56.1176 37.9412 56.1176Z" fill="white"/>
<path d="M34.9853 56.2059C34.6765 56.2059 34.4559 56.4265 34.4559 56.7353C34.4559 57.0441 34.6765 57.2647 34.9853 57.2647C35.2941 57.2647 35.5147 57.0441 35.5147 56.7353C35.5147 56.4706 35.2941 56.2059 34.9853 56.2059Z" fill="white"/>
<path d="M32.0294 55.9853C31.6764 55.9853 31.4117 56.25 31.4117 56.6029C31.4117 56.9559 31.6764 57.2206 32.0294 57.2206C32.3823 57.2206 32.647 56.9559 32.647 56.6029C32.647 56.2941 32.3823 55.9853 32.0294 55.9853Z" fill="white"/>
<path d="M29.1177 55.4559C28.7206 55.4559 28.4118 55.7647 28.4118 56.1618C28.4118 56.5588 28.7206 56.8676 29.1177 56.8676C29.5147 56.8676 29.8235 56.5588 29.8235 56.1618C29.8235 55.8088 29.5147 55.4559 29.1177 55.4559Z" fill="white"/>
<path d="M26.25 54.5735C25.8088 54.5735 25.4559 54.9265 25.4559 55.3676C25.4559 55.8088 25.8088 56.1618 26.25 56.1618C26.6912 56.1618 27.0441 55.8088 27.0441 55.3676C27.0441 54.9265 26.6912 54.5735 26.25 54.5735Z" fill="white"/>
<path d="M23.5588 53.2941C23.0735 53.2941 22.6765 53.6912 22.6765 54.1765C22.6765 54.6618 23.0735 55.0588 23.5588 55.0588C24.0441 55.0588 24.4412 54.6618 24.4412 54.1765C24.4412 53.6912 24.0441 53.2941 23.5588 53.2941Z" fill="white"/>
<path d="M21.9706 52.6765C21.9706 52.1471 21.5294 51.6618 20.9559 51.6618C20.3823 51.6618 19.9412 52.1029 19.9412 52.6765C19.9412 53.2059 20.3823 53.6912 20.9559 53.6912C21.5294 53.6912 21.9706 53.25 21.9706 52.6765Z" fill="white"/>
<path d="M18.6618 49.7647C18.0441 49.7647 17.5588 50.25 17.5588 50.8235C17.5588 51.4412 18.0441 51.9265 18.6177 51.9265C19.2353 51.9265 19.7206 51.4412 19.7206 50.8676C19.7647 50.25 19.2794 49.7647 18.6618 49.7647Z" fill="white"/>
<path d="M16.6323 47.5147C15.9706 47.5147 15.4412 48.0441 15.4412 48.7059C15.4412 49.3676 15.9706 49.8971 16.6323 49.8971C17.2941 49.8971 17.8235 49.3676 17.8235 48.7059C17.7794 48.0441 17.2941 47.5147 16.6323 47.5147Z" fill="white"/>
<path d="M14.8676 47.5588C15.5735 47.5588 16.1471 46.9853 16.1471 46.2794C16.1471 45.5735 15.5735 45 14.8676 45C14.1618 45 13.5882 45.5735 13.5882 46.2794C13.5882 47.0294 14.1618 47.5588 14.8676 47.5588Z" fill="white"/>
<path d="M14.7794 43.7206C14.7794 42.9706 14.1618 42.3529 13.4118 42.3529C12.6618 42.3529 12.0441 42.9706 12.0441 43.7206C12.0441 44.4706 12.6618 45.0882 13.4118 45.0882C14.1618 45.0882 14.7794 44.4706 14.7794 43.7206Z" fill="white"/>
<path d="M59.6912 32.4706C59.6471 32.4706 59.6029 32.5147 59.6029 32.5588C59.6029 32.6029 59.6471 32.6471 59.6912 32.6471C59.7353 32.6471 59.7794 32.6029 59.7794 32.5588C59.7794 32.5147 59.7353 32.4706 59.6912 32.4706Z" fill="white"/>
<path d="M58.8088 35.2059C58.7206 35.2059 58.6324 35.2941 58.6324 35.3823C58.6324 35.4706 58.7206 35.5588 58.8088 35.5588C58.8971 35.5588 58.9853 35.4706 58.9853 35.3823C58.9853 35.2941 58.8971 35.2059 58.8088 35.2059Z" fill="white"/>
<path d="M57.6617 37.8529C57.5294 37.8529 57.4412 37.9853 57.4412 38.1176C57.4412 38.25 57.5735 38.3382 57.7059 38.3382C57.8382 38.3382 57.9265 38.25 57.9265 38.0735C57.8823 37.9412 57.7941 37.8529 57.6617 37.8529Z" fill="white"/>
<path d="M56.2059 40.3676C56.0294 40.3676 55.8971 40.5 55.8971 40.6765C55.8971 40.8529 56.0294 40.9853 56.2059 40.9853C56.3824 40.9853 56.5147 40.8529 56.5147 40.6765C56.5147 40.5 56.3824 40.3676 56.2059 40.3676Z" fill="white"/>
<path d="M54.4853 42.7059C54.2647 42.7059 54.0882 42.8823 54.0882 43.1029C54.0882 43.3235 54.2647 43.5 54.4853 43.5C54.7059 43.5 54.8823 43.3235 54.8823 43.1029C54.8823 42.8823 54.7059 42.7059 54.4853 42.7059Z" fill="white"/>
<path d="M52.5441 44.8235C52.2794 44.8235 52.0588 45.0441 52.0588 45.3088C52.0588 45.5735 52.2794 45.7941 52.5441 45.7941C52.8088 45.7941 53.0294 45.5735 53.0294 45.3088C53.0294 45.0441 52.8088 44.8235 52.5441 44.8235Z" fill="white"/>
<path d="M50.3382 46.7647C50.0294 46.7647 49.7647 47.0294 49.7647 47.3382C49.7647 47.6471 50.0294 47.9118 50.3382 47.9118C50.6471 47.9118 50.9118 47.6471 50.9118 47.3382C50.9118 46.9853 50.6471 46.7647 50.3382 46.7647Z" fill="white"/>
<path d="M47.9559 48.4412C47.6029 48.4412 47.2941 48.7059 47.2941 49.1029C47.2941 49.4559 47.5588 49.7647 47.9559 49.7647C48.3088 49.7647 48.6176 49.5 48.6176 49.1029C48.6176 48.7059 48.3088 48.4412 47.9559 48.4412Z" fill="white"/>
<path d="M45.3529 49.7647C44.9559 49.7647 44.6029 50.0735 44.6029 50.4706C44.6029 50.8676 44.9118 51.2206 45.3088 51.2206C45.7059 51.2206 46.0588 50.9118 46.0588 50.5147C46.1029 50.1176 45.75 49.8088 45.3529 49.7647Z" fill="white"/>
<path d="M42.6177 50.7794C42.1765 50.7794 41.8235 51.1323 41.8235 51.5735C41.8235 52.0147 42.1765 52.3676 42.6177 52.3676C43.0588 52.3676 43.4118 52.0147 43.4118 51.5735C43.4118 51.1323 43.0588 50.7794 42.6177 50.7794Z" fill="white"/>
<path d="M39.75 51.4412C39.2647 51.4412 38.8676 51.8382 38.8676 52.3235C38.8676 52.8088 39.2647 53.2059 39.75 53.2059C40.2353 53.2059 40.6323 52.8088 40.6323 52.3235C40.6323 51.8382 40.2353 51.4412 39.75 51.4412Z" fill="white"/>
<path d="M36.7941 51.6618C36.2647 51.6618 35.8235 52.1029 35.8235 52.6323C35.8235 53.1618 36.2647 53.6029 36.7941 53.6029C37.3235 53.6029 37.7647 53.1618 37.7647 52.6323C37.7647 52.1029 37.3235 51.6618 36.7941 51.6618Z" fill="white"/>
<path d="M34.8971 52.5882C34.8971 52.0147 34.4118 51.5294 33.8382 51.5294C33.2647 51.5294 32.7794 52.0147 32.7794 52.5882C32.7794 53.1618 33.2647 53.6471 33.8382 53.6471C34.4118 53.6471 34.8971 53.1618 34.8971 52.5882Z" fill="white"/>
<path d="M32.0294 52.147C32.0294 51.5294 31.5441 51 30.8824 51C30.2647 51 29.7353 51.4853 29.7353 52.147C29.7353 52.7647 30.2206 53.2941 30.8824 53.2941C31.5441 53.2941 32.0294 52.7647 32.0294 52.147Z" fill="white"/>
<path d="M29.25 51.3529C29.25 50.6912 28.7206 50.1177 28.0147 50.1177C27.3529 50.1177 26.7794 50.6471 26.7794 51.3529C26.7794 52.0588 27.3088 52.5882 28.0147 52.5882C28.7206 52.5441 29.25 52.0147 29.25 51.3529Z" fill="white"/>
<path d="M26.647 50.1618C26.647 49.4559 26.0735 48.8823 25.3676 48.8823C24.6618 48.8823 24.0882 49.4559 24.0882 50.1618C24.0882 50.8676 24.6618 51.4412 25.3676 51.4412C26.0735 51.4412 26.647 50.8676 26.647 50.1618Z" fill="white"/>
<path d="M52.8529 10.8088C52.8971 10.8088 52.9412 10.7647 52.9412 10.7206C52.9412 10.6765 52.8971 10.6324 52.8529 10.6324C52.8088 10.6324 52.7647 10.6765 52.7647 10.7206C52.8088 10.7647 52.8529 10.7647 52.8529 10.8088Z" fill="white"/>
<path d="M54.2647 13.5C54.3529 13.5 54.4412 13.4118 54.4412 13.3235C54.4412 13.2353 54.3529 13.147 54.2647 13.147C54.1765 13.147 54.0882 13.2353 54.0882 13.3235C54.0882 13.4118 54.1765 13.5 54.2647 13.5Z" fill="white"/>
<path d="M55.3235 16.3235C55.4559 16.3235 55.5441 16.2353 55.5441 16.1029C55.5441 15.9706 55.4559 15.8824 55.3235 15.8824C55.1912 15.8824 55.1029 15.9706 55.1029 16.1029C55.1029 16.2353 55.1912 16.3235 55.3235 16.3235Z" fill="white"/>
<path d="M56.1618 19.2794C56.3382 19.2794 56.4706 19.1471 56.4706 18.9706C56.4706 18.7941 56.3382 18.6618 56.1618 18.6618C55.9853 18.6618 55.8529 18.7941 55.8529 18.9706C55.8088 19.1029 55.9853 19.2794 56.1618 19.2794Z" fill="white"/>
<path d="M56.25 21.8382C56.25 22.0588 56.4265 22.2353 56.6471 22.2353C56.8676 22.2353 57.0441 22.0588 57.0441 21.8382C57.0441 21.6176 56.8676 21.4412 56.6471 21.4412C56.4265 21.4412 56.25 21.6176 56.25 21.8382Z" fill="white"/>
<path d="M56.8235 24.3088C56.5588 24.3088 56.3382 24.5294 56.3382 24.7941C56.3382 25.0588 56.5588 25.2794 56.8235 25.2794C57.0882 25.2794 57.3088 25.0588 57.3088 24.7941C57.3088 24.5294 57.0882 24.3088 56.8235 24.3088Z" fill="white"/>
<path d="M56.6911 27.2206C56.3823 27.2206 56.1176 27.4853 56.1176 27.7941C56.1176 28.1029 56.3823 28.3676 56.6911 28.3676C57 28.3676 57.2647 28.1029 57.2647 27.7941C57.2647 27.4853 57 27.2206 56.6911 27.2206Z" fill="white"/>
<path d="M56.25 30.0441C55.897 30.0441 55.5882 30.3529 55.5882 30.7059C55.5882 31.0588 55.897 31.3677 56.25 31.3677C56.6029 31.3677 56.9118 31.0588 56.9118 30.7059C56.9118 30.3529 56.6029 30.0441 56.25 30.0441Z" fill="white"/>
<path d="M56.1618 33.5735C56.1618 33.1765 55.8529 32.8676 55.4559 32.8676C55.0588 32.8676 54.75 33.1765 54.75 33.5735C54.75 33.9706 55.0588 34.2794 55.4559 34.2794C55.8529 34.2794 56.1618 33.9706 56.1618 33.5735Z" fill="white"/>
<path d="M54.2647 35.4706C53.8235 35.4706 53.4706 35.8235 53.4706 36.2647C53.4706 36.7059 53.8235 37.0588 54.2647 37.0588C54.7059 37.0588 55.0588 36.7059 55.0588 36.2647C55.0588 35.8235 54.7059 35.4706 54.2647 35.4706Z" fill="white"/>
<path d="M52.7206 37.9412C52.2353 37.9412 51.8382 38.3382 51.8382 38.8235C51.8382 39.3088 52.2353 39.7059 52.7206 39.7059C53.2059 39.7059 53.6029 39.3088 53.6029 38.8235C53.6029 38.3382 53.2059 37.9412 52.7206 37.9412Z" fill="white"/>
<path d="M50.8677 40.1471C50.3382 40.1471 49.8971 40.5882 49.8971 41.1176C49.8971 41.6471 50.3382 42.0882 50.8677 42.0882C51.3971 42.0882 51.8382 41.6471 51.8382 41.1176C51.8382 40.5882 51.4412 40.1471 50.8677 40.1471Z" fill="white"/>
<path d="M48.75 42.1324C48.1765 42.1324 47.6912 42.6176 47.6912 43.1912C47.6912 43.7647 48.1765 44.25 48.75 44.25C49.3235 44.25 49.8088 43.7647 49.8088 43.1912C49.8088 42.6176 49.3235 42.1324 48.75 42.1324Z" fill="white"/>
<path d="M46.3676 43.8088C45.75 43.8088 45.2206 44.2941 45.2206 44.9559C45.2206 45.5735 45.7059 46.1029 46.3676 46.1029C46.9853 46.1029 47.5147 45.6176 47.5147 44.9559C47.5147 44.3382 46.9853 43.8088 46.3676 43.8088Z" fill="white"/>
<path d="M43.7647 45.1765C43.1029 45.1765 42.5735 45.7059 42.5735 46.3676C42.5735 47.0294 43.1029 47.5588 43.7647 47.5588C44.4265 47.5588 44.9559 47.0294 44.9559 46.3676C45 45.7059 44.4706 45.1765 43.7647 45.1765Z" fill="white"/>
<path d="M41.0294 46.1912C40.3235 46.1912 39.75 46.7647 39.75 47.4706C39.75 48.1765 40.3235 48.75 41.0294 48.75C41.7353 48.75 42.3088 48.1765 42.3088 47.4706C42.3088 46.7647 41.7353 46.1912 41.0294 46.1912Z" fill="white"/>
<path d="M32.6029 0.176468C32.6471 0.176468 32.6912 0.132352 32.6912 0.0882339C32.6912 0.0441163 32.6471 0 32.6029 0C32.5588 0 32.5147 0.0441163 32.5147 0.0882339C32.5147 0.132352 32.5588 0.176468 32.6029 0.176468Z" fill="white"/>
<path d="M35.4265 1.14706C35.5147 1.14706 35.6029 1.05882 35.6029 0.970581C35.6029 0.882346 35.5147 0.794113 35.4265 0.794113C35.3382 0.794113 35.25 0.882346 35.25 0.970581C35.25 1.05882 35.3382 1.14706 35.4265 1.14706Z" fill="white"/>
<path d="M38.1618 2.38235C38.2941 2.38235 38.3824 2.29412 38.3824 2.11764C38.3824 1.98529 38.2941 1.89706 38.1177 1.89706C37.9853 1.89706 37.8971 1.98529 37.8971 2.16177C37.8971 2.29412 38.0294 2.38235 38.1618 2.38235Z" fill="white"/>
<path d="M40.7206 3.92647C40.8971 3.92647 41.0294 3.79411 41.0294 3.61764C41.0294 3.44117 40.8971 3.30882 40.7206 3.30882C40.5441 3.30882 40.4118 3.44117 40.4118 3.61764C40.4118 3.79411 40.5441 3.92647 40.7206 3.92647Z" fill="white"/>
<path d="M43.1471 5.7353C43.3676 5.7353 43.5441 5.55883 43.5441 5.33824C43.5441 5.11765 43.3676 4.94117 43.1471 4.94117C42.9265 4.94117 42.75 5.11765 42.75 5.33824C42.75 5.55883 42.9265 5.7353 43.1471 5.7353Z" fill="white"/>
<path d="M45.3529 7.76471C45.6176 7.76471 45.8382 7.54412 45.8382 7.27941C45.8382 7.0147 45.6176 6.79411 45.3529 6.79411C45.0882 6.79411 44.8676 7.0147 44.8676 7.27941C44.8676 7.54412 45.0882 7.76471 45.3529 7.76471Z" fill="white"/>
<path d="M47.3824 10.0147C47.6912 10.0147 47.9559 9.74999 47.9559 9.44117C47.9559 9.13235 47.6912 8.86765 47.3824 8.86765C47.0735 8.86765 46.8088 9.13235 46.8088 9.44117C46.8088 9.79411 47.0735 10.0147 47.3824 10.0147Z" fill="white"/>
<path d="M49.1471 12.4853C49.5 12.4853 49.8088 12.1765 49.8088 11.8235C49.8088 11.4706 49.5 11.1618 49.1471 11.1618C48.7941 11.1618 48.4853 11.4706 48.4853 11.8235C48.4853 12.2206 48.75 12.4853 49.1471 12.4853Z" fill="white"/>
<path d="M50.5588 15.1765C50.9559 15.1765 51.2647 14.8676 51.2647 14.4265C51.2647 14.0294 50.9559 13.7206 50.5147 13.7206C50.1176 13.7206 49.8088 14.0294 49.8088 14.4265C49.8529 14.8235 50.1617 15.1765 50.5588 15.1765Z" fill="white"/>
<path d="M50.8676 17.2059C50.8676 17.6471 51.2206 18 51.6618 18C52.1029 18 52.4559 17.6471 52.4559 17.2059C52.4559 16.7647 52.1029 16.4117 51.6618 16.4117C51.2206 16.3676 50.8676 16.7647 50.8676 17.2059Z" fill="white"/>
<path d="M51.4853 20.0735C51.4853 20.5588 51.8824 20.9559 52.3676 20.9559C52.8529 20.9559 53.25 20.5588 53.25 20.0735C53.25 19.5882 52.8529 19.1912 52.3676 19.1912C51.8824 19.1912 51.4853 19.5882 51.4853 20.0735Z" fill="white"/>
<path d="M51.75 23.0294C51.75 23.5588 52.1912 24 52.7206 24C53.25 24 53.6912 23.5588 53.6912 23.0294C53.6912 22.5 53.25 22.0588 52.7206 22.0588C52.1912 22.0588 51.75 22.4559 51.75 23.0294Z" fill="white"/>
<path d="M53.6912 25.9853C53.6912 25.4118 53.2059 24.9265 52.6323 24.9265C52.0588 24.9265 51.5735 25.4118 51.5735 25.9853C51.5735 26.5588 52.0588 27.0441 52.6323 27.0441C53.25 27.0441 53.6912 26.5588 53.6912 25.9853Z" fill="white"/>
<path d="M53.3382 28.8971C53.3382 28.2794 52.8529 27.75 52.1912 27.75C51.5735 27.75 51.0441 28.2353 51.0441 28.8971C51.0441 29.5147 51.5294 30.0441 52.1912 30.0441C52.8529 30.0441 53.3382 29.5147 53.3382 28.8971Z" fill="white"/>
<path d="M52.5882 31.7647C52.5882 31.1029 52.0588 30.5735 51.3971 30.5735C50.7353 30.5735 50.2059 31.1029 50.2059 31.7647C50.2059 32.4265 50.7353 32.9559 51.3971 32.9559C52.0588 32.9559 52.5882 32.4265 52.5882 31.7647Z" fill="white"/>
<path d="M50.2059 33.1765C49.5 33.1765 48.9265 33.75 48.9265 34.4559C48.9265 35.1618 49.5 35.7353 50.2059 35.7353C50.9118 35.7353 51.4853 35.1618 51.4853 34.4559C51.4853 33.75 50.9118 33.1765 50.2059 33.1765Z" fill="white"/>
<path d="M10.7647 7.0147C10.8088 7.0147 10.8529 6.97058 10.8529 6.92646C10.8529 6.88234 10.8088 6.83823 10.7647 6.83823C10.7206 6.83823 10.6765 6.88234 10.6765 6.92646C10.6765 6.97058 10.7206 7.0147 10.7647 7.0147Z" fill="white"/>
<path d="M13.3677 5.7353C13.4559 5.7353 13.5441 5.64706 13.5441 5.55883C13.5441 5.47059 13.4559 5.38235 13.3677 5.38235C13.2794 5.38235 13.1912 5.47059 13.1912 5.55883C13.1912 5.64706 13.2794 5.7353 13.3677 5.7353Z" fill="white"/>
<path d="M16.1471 4.72058C16.2794 4.72058 16.4118 4.63235 16.4118 4.49999C16.4118 4.36764 16.3235 4.2353 16.1912 4.2353C16.0588 4.2353 15.9265 4.32353 15.9265 4.45589C15.8824 4.58824 16.0147 4.72058 16.1471 4.72058Z" fill="white"/>
<path d="M19.0147 3.97059C19.1912 3.97059 19.3235 3.83823 19.3235 3.66176C19.3235 3.48529 19.1912 3.35294 19.0147 3.35294C18.8383 3.35294 18.7059 3.48529 18.7059 3.66176C18.6618 3.83823 18.7941 3.97059 19.0147 3.97059C18.9706 3.97059 18.9706 3.97059 19.0147 3.97059Z" fill="white"/>
<path d="M21.9265 3.57353C22.1471 3.57353 22.3235 3.39705 22.3235 3.17646C22.3235 2.95587 22.1471 2.7794 21.9265 2.7794C21.7059 2.7794 21.5294 2.95587 21.5294 3.17646C21.5294 3.39705 21.7059 3.57353 21.9265 3.57353Z" fill="white"/>
<path d="M24.8824 3.48529C25.1471 3.48529 25.3677 3.2647 25.3677 2.99999C25.3677 2.73529 25.1471 2.51469 24.8824 2.51469C24.6177 2.51469 24.3971 2.73529 24.3971 2.99999C24.3971 3.2647 24.6177 3.48529 24.8824 3.48529Z" fill="white"/>
<path d="M27.8382 3.66176C28.1471 3.66176 28.4118 3.39706 28.4118 3.08823C28.4118 2.77941 28.1471 2.51469 27.8382 2.51469C27.5294 2.51469 27.2647 2.77941 27.2647 3.08823C27.2647 3.44117 27.5294 3.66176 27.8382 3.66176Z" fill="white"/>
<path d="M30.75 4.19117C31.1029 4.19117 31.4118 3.88235 31.4118 3.52941C31.4118 3.17647 31.1029 2.86765 30.75 2.86765C30.3971 2.86765 30.0882 3.17647 30.0882 3.52941C30.1323 3.92647 30.3971 4.19117 30.75 4.19117Z" fill="white"/>
<path d="M33.6176 5.11765C34.0147 5.11765 34.3235 4.80882 34.3235 4.41176C34.3235 4.01471 34.0147 3.70588 33.6176 3.70588C33.2206 3.70588 32.9118 4.01471 32.9118 4.41176C32.8676 4.76471 33.2206 5.07353 33.6176 5.11765Z" fill="white"/>
<path d="M36.3088 6.35294C36.75 6.35294 37.1029 6 37.1029 5.55883C37.1029 5.11765 36.75 4.7647 36.3088 4.7647C35.8676 4.7647 35.5147 5.11765 35.5147 5.55883C35.5147 6 35.8676 6.35294 36.3088 6.35294Z" fill="white"/>
<path d="M37.9853 7.05882C37.9853 7.54412 38.3823 7.94117 38.8676 7.94117C39.3529 7.94117 39.75 7.54412 39.75 7.05882C39.75 6.57353 39.3529 6.17647 38.8676 6.17647C38.3823 6.17647 37.9853 6.57353 37.9853 7.05882Z" fill="white"/>
<path d="M41.1617 9.88235C41.6912 9.88235 42.1323 9.44117 42.1323 8.91176C42.1323 8.38235 41.6912 7.94118 41.1617 7.94118C40.6323 7.94118 40.1912 8.38235 40.1912 8.91176C40.1912 9.44117 40.6323 9.88235 41.1617 9.88235Z" fill="white"/>
<path d="M43.2353 12.0882C43.8088 12.0882 44.2941 11.6029 44.2941 11.0294C44.2941 10.4559 43.8088 9.97059 43.2353 9.97059C42.6618 9.97059 42.1765 10.4559 42.1765 11.0294C42.1765 11.6471 42.6618 12.0882 43.2353 12.0882Z" fill="white"/>
<path d="M45 12.3088C44.3824 12.3088 43.8529 12.7941 43.8529 13.4559C43.8529 14.0735 44.3382 14.6029 45 14.6029C45.6176 14.6029 46.1471 14.1176 46.1471 13.4559C46.1471 12.7941 45.6176 12.3088 45 12.3088Z" fill="white"/>
<path d="M45.2206 16.0147C45.2206 16.6765 45.75 17.2059 46.4118 17.2059C47.0735 17.2059 47.6029 16.6765 47.6029 16.0147C47.6029 15.3529 47.0735 14.8235 46.4118 14.8235C45.75 14.8235 45.2206 15.3529 45.2206 16.0147Z" fill="white"/>
<path d="M46.2353 18.7941C46.2353 19.5 46.8088 20.0735 47.5147 20.0735C48.2206 20.0735 48.7941 19.5 48.7941 18.7941C48.7941 18.0882 48.2206 17.5147 47.5147 17.5147C46.8088 17.4706 46.2353 18.0882 46.2353 18.7941Z" fill="white"/>
<path d="M48.2206 20.2941C47.4706 20.2941 46.8529 20.9118 46.8529 21.6618C46.8529 22.4118 47.4706 23.0294 48.2206 23.0294C48.9706 23.0294 49.5882 22.4118 49.5882 21.6618C49.5882 20.9118 48.9706 20.2941 48.2206 20.2941Z" fill="white"/>
<path d="M0.176471 27.0441C0.088236 27.0441 0 27.0882 0 27.1765C0 27.2647 0.0441181 27.3529 0.132353 27.3529C0.220589 27.3529 0.308824 27.3088 0.308824 27.2206C0.308824 27.1323 0.264707 27.0441 0.176471 27.0441Z" fill="white"/>
<path d="M1.05882 24.0882C0.882353 24.0882 0.75 24.2206 0.75 24.3971C0.75 24.5735 0.882353 24.7059 1.05882 24.7059C1.23529 24.7059 1.36765 24.5735 1.36765 24.3971C1.32353 24.2206 1.19118 24.0882 1.05882 24.0882Z" fill="white"/>
<path d="M2.69116 21.6618C2.69116 21.3971 2.47057 21.2206 2.24998 21.2206C2.0294 21.2206 1.80881 21.4412 1.80881 21.6618C1.80881 21.8824 2.0294 22.1029 2.24998 22.1029C2.47057 22.1029 2.64704 21.9265 2.69116 21.6618Z" fill="white"/>
<path d="M3.66178 19.6765C4.01472 19.6765 4.27942 19.4118 4.27942 19.0588C4.27942 18.7059 4.01472 18.4412 3.66178 18.4412C3.30883 18.4412 3.04413 18.7059 3.04413 19.0588C3.04413 19.4118 3.30883 19.6765 3.66178 19.6765Z" fill="white"/>
<path d="M5.38235 17.4265C5.82353 17.4265 6.13236 17.0735 6.13236 16.6765C6.13236 16.2353 5.77941 15.9265 5.38235 15.9265C4.94118 15.9265 4.63235 16.2794 4.63235 16.6765C4.63235 17.0735 4.94118 17.4265 5.38235 17.4265Z" fill="white"/>
<path d="M7.32354 15.3529C7.80883 15.3529 8.25001 14.9559 8.25001 14.4265C8.25001 13.897 7.85295 13.5 7.32354 13.5C6.79412 13.5 6.39706 13.897 6.39706 14.4265C6.44118 14.9559 6.83824 15.3529 7.32354 15.3529Z" fill="white"/>
<path d="M9.5294 13.5C10.1029 13.5 10.5882 13.0147 10.5882 12.4412C10.5882 11.8676 10.1029 11.3823 9.5294 11.3823C8.95588 11.3823 8.47058 11.8676 8.47058 12.4412C8.47058 13.0147 8.95588 13.5 9.5294 13.5Z" fill="white"/>
<path d="M11.9117 11.9118C12.5735 11.9118 13.147 11.3823 13.147 10.6765C13.147 9.97058 12.6176 9.44118 11.9117 9.44118C11.25 9.44118 10.6765 9.97058 10.6765 10.6765C10.6765 11.3382 11.25 11.9118 11.9117 11.9118Z" fill="white"/>
<path d="M14.4706 10.5882C15.2206 10.5882 15.8382 9.97059 15.8382 9.22059C15.8382 8.47059 15.2206 7.85294 14.4706 7.85294C13.7206 7.85294 13.1029 8.47059 13.1029 9.22059C13.1029 9.97059 13.7206 10.5882 14.4706 10.5882Z" fill="white"/>
<path d="M17.2059 9.61764C17.9559 9.61764 18.5735 9.04412 18.7059 8.33823C19.2353 9.08823 20.2941 9.2647 21.0441 8.73529C21.2647 8.55882 21.4412 8.38235 21.5735 8.11765C22.1912 8.91176 23.3382 9.08823 24.1323 8.47058C24.2206 8.38235 24.3088 8.33823 24.397 8.24999C25.0147 9.13235 26.25 9.35294 27.1323 8.73529C27.2206 8.86764 27.3088 8.95589 27.397 9.08824C26.9117 9.13236 26.4706 9.35294 26.1176 9.70588C25.2353 8.91177 23.9117 8.95588 23.1176 9.83823C23.0735 9.88235 23.0294 9.97058 22.9853 10.0147C22.6323 9.74999 22.1912 9.57352 21.75 9.57352C20.9559 9.57352 20.25 10.0147 19.9412 10.7206C19.0588 10.1471 17.9117 10.3676 17.3382 11.2059C17.2059 11.3824 17.1176 11.6029 17.0735 11.8235C16.2353 11.2941 15.1323 11.5588 14.647 12.3971C14.4706 12.6618 14.3823 12.9706 14.3823 13.3235C13.5882 12.8823 12.5735 13.1471 12.1323 13.9412C12 14.2059 11.9117 14.4706 11.9117 14.7794C11.9117 14.9559 11.9559 15.0882 11.9559 15.2206C11.7353 15.0882 11.4265 15 11.1617 15C10.3235 15 9.61763 15.7059 9.61763 16.5441C9.61763 17.3824 10.3235 18.0882 11.1617 18.0882C12 18.0882 12.7059 17.3824 12.7059 16.5441C12.7059 16.4118 12.7059 16.2794 12.6617 16.1471C13.4117 16.6324 14.4265 16.4118 14.9559 15.6618C15.1323 15.3971 15.2206 15.1324 15.2206 14.8235C15.4853 15 15.8382 15.0882 16.147 15.0882C16.1912 15.0882 16.1912 15.0882 16.2353 15.0882C15.8382 15.4412 15.6176 15.9265 15.5735 16.4118C14.5147 16.1912 13.5 16.8971 13.3235 17.9559C13.2794 18.0882 13.2794 18.1765 13.2794 18.3088C13.2794 18.3971 13.2794 18.4412 13.2794 18.5294C13.1912 18.5294 13.147 18.5294 13.0588 18.5294C12.0441 18.5294 11.2059 19.3676 11.2059 20.3823C11.2059 20.6029 11.25 20.7794 11.2941 20.9559C11.25 20.9559 11.2059 20.9559 11.1617 20.9559C10.1912 20.9559 9.44116 21.75 9.44116 22.6765C9.44116 22.9853 9.52939 23.2941 9.70586 23.6029H9.66175C8.77939 23.6029 8.02939 24.3529 8.02939 25.2353C8.02939 25.6765 8.20586 26.1176 8.55881 26.4265C8.51469 26.4265 8.51469 26.4265 8.47057 26.4265C7.63234 26.4265 6.92645 27.1324 6.92645 27.9706C6.92645 28.8088 7.63234 29.5147 8.47057 29.5147C9.30881 29.5147 10.0147 28.8088 10.0147 27.9706C10.0147 27.5735 9.83822 27.1765 9.57351 26.8676C9.61763 26.8676 9.66175 26.8676 9.66175 26.8676C10.1029 26.8676 10.5441 26.6912 10.8529 26.3382V26.3823C10.8529 26.7794 10.9853 27.1765 11.2059 27.4853C10.2794 27.8382 9.7941 28.8529 10.1029 29.7794C10.1912 30.0882 10.4117 30.3529 10.6323 30.5294C9.7941 30.9265 9.39704 31.9412 9.7941 32.7794C9.97057 33.1324 10.2353 33.3971 10.5441 33.5735C9.74998 33.9706 9.44116 34.9412 9.83822 35.7353C10.0588 36.1765 10.4559 36.4853 10.9412 36.5735C10.1912 36.9706 9.88233 37.8529 10.2794 38.6471C10.5441 39.1765 11.0735 39.4853 11.647 39.4853C11.7353 39.4853 11.8235 39.4853 11.9117 39.4412C11.1617 39.7059 10.7647 40.5 11.0294 41.25C11.2941 42 12.0882 42.3971 12.8382 42.1324C13.5882 41.8677 13.9853 41.0735 13.7206 40.3235C13.5441 39.75 12.9706 39.3529 12.3529 39.3529C12.2647 39.3529 12.1765 39.3529 12.0882 39.3971C12.75 39.2206 13.147 38.6029 13.1912 37.9412C13.1912 37.8971 13.1912 37.8529 13.1912 37.8088C13.4117 38.0735 13.7647 38.25 14.1176 38.3382C13.5 39.0441 13.5882 40.1029 14.2941 40.7206C14.6029 40.9853 15 41.1176 15.397 41.1176H15.4412C14.9117 41.8235 15.0882 42.8382 15.7941 43.3676C16.0588 43.5882 16.4117 43.6765 16.7647 43.6765C16.9412 43.6765 17.0735 43.6324 17.25 43.5882C16.7647 44.2941 16.9853 45.2647 17.6912 45.7059C17.9559 45.8824 18.2206 45.9706 18.5294 45.9706C18.8823 45.9706 19.2353 45.8382 19.5 45.6176C18.9706 46.2353 19.0588 47.1618 19.6323 47.6471C20.25 48.1765 21.1765 48.0882 21.6617 47.5147C22.147 46.9412 22.147 46.1029 21.6176 45.5735C21.7941 45.5735 22.0147 45.5294 22.1912 45.4853C22.1912 46.1471 22.5441 46.7647 23.1617 47.0735C23.0735 47.0735 22.9853 47.0294 22.897 47.0294C22.147 47.0294 21.4853 47.6471 21.4853 48.3971C21.4853 49.1471 22.1029 49.8088 22.8529 49.8088C23.6029 49.8088 24.2647 49.1912 24.2647 48.4412C24.2647 47.9118 24 47.4706 23.5147 47.2059C23.647 47.25 23.7794 47.25 23.9559 47.25C24.3088 47.25 24.6176 47.1618 24.8823 46.9853C24.9706 47.9118 25.7647 48.6177 26.6912 48.5294C27.0882 48.4853 27.4853 48.3088 27.7941 48C27.9265 48.8824 28.7647 49.5 29.647 49.3235C30.1323 49.2353 30.5735 48.9265 30.8382 48.4853C31.0147 49.3235 31.8088 49.8529 32.647 49.6765C33.3088 49.5441 33.7941 49.0147 33.8823 48.3529C33.9265 49.1471 34.6323 49.7647 35.4265 49.7206C36.2206 49.6765 36.8382 48.9706 36.7941 48.1765C36.75 47.4265 36.1323 46.8529 35.3823 46.8088C35.5147 46.6765 35.6029 46.5 35.6912 46.3235C36.1765 46.8088 36.8823 46.9853 37.5 46.7647C36.8823 47.2059 36.7059 48.0441 37.147 48.6618C37.5882 49.2794 38.4265 49.4559 39.0441 49.0147C39.6617 48.5735 39.8382 47.7353 39.397 47.1176C39.1323 46.7206 38.7353 46.5 38.25 46.5C38.1176 46.5 37.9853 46.5441 37.8529 46.5441C38.25 46.2794 38.5588 45.8824 38.647 45.4412C38.9559 45.7059 39.3529 45.8382 39.75 45.8382C40.6765 45.8382 41.4265 45.0882 41.4265 44.1618V44.1177C41.6912 44.3382 42.0441 44.4265 42.3529 44.4265C43.2353 44.4265 43.9853 43.7206 43.9853 42.7941C43.9853 42.6177 43.9412 42.4853 43.897 42.3088C44.6029 42.7941 45.5294 42.6177 46.0147 41.9118C46.4117 41.3382 46.3676 40.6324 45.9265 40.1029C46.1912 40.3235 46.5441 40.4559 46.8529 40.4559C47.647 40.4559 48.3088 39.7941 48.3088 39C48.3088 38.2059 47.647 37.5441 46.8529 37.5441C46.5 37.5441 46.1029 37.6765 45.8382 37.9412C45.8382 37.7647 45.7941 37.5441 45.75 37.3676C46.4117 37.3676 47.0294 37.0147 47.3382 36.3971C47.3382 36.4853 47.2941 36.5735 47.2941 36.6618C47.2941 37.4118 47.9117 38.0735 48.6617 38.0735C49.4117 38.0735 50.0735 37.4559 50.0735 36.7059C50.0735 35.9559 49.4559 35.2941 48.7059 35.2941C48.1765 35.2941 47.7353 35.5588 47.4706 36C47.5147 35.8677 47.5147 35.7353 47.5147 35.5588C47.5147 35.2059 47.4265 34.8971 47.25 34.6324C48.1765 34.5441 48.8823 33.75 48.7941 32.8235C48.75 32.4265 48.5735 32.0294 48.2647 31.7206C49.147 31.5882 49.7647 30.75 49.5882 29.8676C49.5 29.3823 49.1912 28.9412 48.75 28.7206C49.5882 28.5441 50.1176 27.75 49.9412 26.9118C49.8088 26.25 49.2794 25.7647 48.6176 25.6765C49.4117 25.6323 50.0294 24.9265 49.9853 24.1323C49.9412 23.3382 49.2353 22.7206 48.4412 22.7647C47.647 22.8088 47.0294 23.5147 47.0735 24.3088C47.1176 25.0147 47.647 25.5882 48.3529 25.6765C47.5147 25.7206 46.8529 26.4265 46.9412 27.3088C46.9853 27.8382 47.2941 28.3235 47.7353 28.5441C46.8529 28.6765 46.2794 29.5147 46.4117 30.3971C46.4559 30.7059 46.6323 31.0147 46.8529 31.2794C45.9265 31.4118 45.2647 32.25 45.397 33.1765C45.4412 33.3971 45.4853 33.6177 45.6176 33.7941C44.6912 33.8382 43.9412 34.6324 43.9412 35.5588C43.9412 35.7353 43.9853 35.9118 44.0294 36.0882C43.9853 36.0882 43.9853 36.0882 43.9412 36.0882C42.9265 36.0882 42.0882 36.9265 42.0882 37.9412C42.0882 37.9853 42.0882 38.0294 42.0882 38.0735C42 38.0735 41.9117 38.0294 41.7794 38.0294C40.8088 38.0294 40.0147 38.7353 39.8823 39.7059C39.7059 39.6618 39.5294 39.6176 39.3529 39.6176C38.5588 39.6176 37.8529 40.0588 37.5441 40.7647C36.7941 40.1471 35.6912 40.2794 35.0735 41.0294C34.9853 41.1618 34.897 41.2941 34.8088 41.4265C34.147 40.7206 33 40.6765 32.2941 41.3382C32.1617 41.4706 32.0294 41.6471 31.9412 41.8235C31.3235 41.0735 30.2206 40.9412 29.4265 41.5588C29.3823 41.6029 29.2941 41.6471 29.25 41.7353C28.8529 40.8529 27.7941 40.4559 26.9117 40.8529C26.8235 40.8971 26.6912 40.9412 26.6029 41.0294C26.3823 40.0588 25.4117 39.4853 24.4853 39.7059C24.3529 39.75 24.2647 39.75 24.1323 39.8382C24.0882 38.8676 23.2941 38.0735 22.3235 38.1176C22.2353 38.1176 22.147 38.1177 22.1029 38.1618C22.3235 37.1912 21.75 36.2647 20.7794 36.0441C20.647 36 20.5147 36 20.3823 36C20.7794 35.1177 20.3823 34.0588 19.4559 33.6618C19.3676 33.6176 19.2794 33.6177 19.2353 33.5735C19.8529 32.7794 19.6765 31.6765 18.9265 31.0588C18.8823 31.0147 18.7941 30.9706 18.75 30.9265C19.5441 30.3088 19.6765 29.2059 19.0588 28.4118C18.9706 28.3235 18.9265 28.2353 18.8382 28.1471C19.3235 27.9265 19.6323 27.4853 19.7647 27C19.897 26.5147 19.8088 25.9853 19.5 25.5441C20.4706 25.3235 21.0441 24.3971 20.8235 23.4265C20.8235 23.3382 20.7794 23.2941 20.7794 23.2059C21.75 23.25 22.5882 22.5 22.6323 21.5294C22.6323 21.3971 22.6323 21.3088 22.6323 21.1765C23.6029 21.3971 24.5735 20.8235 24.7941 19.8529C24.7941 19.7647 24.8382 19.6765 24.8382 19.5882C25.7206 20.0294 26.7794 19.7206 27.2206 18.8382C27.2647 18.75 27.3088 18.7059 27.3088 18.6176C27.6617 18.9706 28.1912 19.1029 28.6765 19.0588C29.2059 19.0147 29.6912 18.7059 30 18.2206C30.5735 19.0147 31.6765 19.2353 32.4706 18.6618C32.5588 18.6176 32.647 18.5294 32.6912 18.4853C33.0441 19.4118 34.1029 19.8529 34.9853 19.4559C35.1176 19.4118 35.2059 19.3676 35.2941 19.2794C35.3823 19.8088 35.7353 20.25 36.1765 20.5147C36.5735 20.7353 37.0147 20.7794 37.4559 20.6912C37.5 20.7794 37.5441 20.8235 37.5882 20.8676C37.6323 21.2647 37.7647 21.6176 38.0294 21.9265L38.0735 21.9706C39 22.9412 41.0735 25.2353 40.6765 28.3235C40.5882 29.0735 41.0294 29.4706 41.5588 28.8971C44.9117 25.2794 44.3823 20.8677 44.2941 20.3382C44.2941 20.0294 44.2059 19.6765 44.0735 19.3676C44.1176 19.1912 44.1176 18.9706 44.1176 18.7941C44.1176 17.9118 43.7206 17.0735 42.9706 16.5C43.0147 16.3235 43.0147 16.1471 43.0147 15.9706C43.0147 14.8676 42.3529 13.8529 41.2941 13.4118C41.25 12.1324 40.3235 11.0735 39.0882 10.8529C38.8676 9.66177 37.8529 8.82353 36.6176 8.82353C36.5735 8.82353 36.5294 8.82353 36.4853 8.82353C36.1765 7.85294 35.25 7.19117 34.2353 7.19117C34.0147 7.19117 33.8382 7.2353 33.6617 7.27941C33.1323 6.13235 31.8088 5.64706 30.7059 6.17647C30.7059 6.17647 30.6617 6.17647 30.6617 6.22059C30.0882 5.20589 28.7647 4.89706 27.75 5.47059C27.6617 5.5147 27.5735 5.55882 27.5294 5.64705C26.9117 4.7647 25.6765 4.54411 24.7941 5.20588C24.6617 5.29411 24.5294 5.42647 24.397 5.55883C23.7794 4.76471 22.6323 4.63235 21.8382 5.29412C21.6176 5.47059 21.4412 5.69118 21.3088 5.95588C20.6912 5.25 19.6765 5.16177 18.9706 5.73529C18.6617 6 18.4412 6.39706 18.397 6.83824C17.8676 6.17647 16.9412 6.04412 16.2794 6.57353C15.6176 7.10294 15.4853 8.0294 16.0147 8.69117C16.3235 9.39705 16.7647 9.61764 17.2059 9.61764Z" fill="white"/>
<path d="M6.97058 48.9265C6.92646 48.9265 6.83823 48.9706 6.83823 49.0588C6.83823 49.1029 6.88234 49.1912 6.97058 49.1912C7.0147 49.1912 7.10293 49.1471 7.10293 49.0588C7.10293 48.9706 7.05881 48.9265 6.97058 48.9265Z" fill="white"/>
<path d="M5.60294 46.1912C5.47059 46.1912 5.38235 46.2794 5.38235 46.4118C5.38235 46.5441 5.47059 46.6323 5.60294 46.6323C5.7353 46.6323 5.82353 46.5441 5.82353 46.4118C5.86765 46.2794 5.7353 46.1912 5.60294 46.1912Z" fill="white"/>
<path d="M4.5 43.3235C4.32353 43.3235 4.14706 43.5 4.14706 43.6765C4.14706 43.8529 4.32353 44.0294 4.5 44.0294C4.67648 44.0294 4.85295 43.8529 4.85295 43.6765C4.89706 43.4559 4.72059 43.3235 4.5 43.3235Z" fill="white"/>
<path d="M3.70588 40.3235C3.44117 40.3235 3.22058 40.5441 3.22058 40.8088C3.22058 41.0735 3.44117 41.2941 3.70588 41.2941C3.97058 41.2941 4.19117 41.0735 4.19117 40.8088C4.19117 40.5441 3.97058 40.3235 3.70588 40.3235Z" fill="white"/>
<path d="M3.79412 37.8971C3.79412 37.5882 3.52942 37.3235 3.22059 37.3235C2.91177 37.3235 2.64706 37.5882 2.64706 37.8971C2.64706 38.2059 2.91177 38.4706 3.22059 38.4706C3.57354 38.4706 3.79412 38.2059 3.79412 37.8971Z" fill="white"/>
<path d="M3.75002 34.9412C3.75002 34.5441 3.4412 34.2353 3.04414 34.2353C2.64708 34.2353 2.33826 34.5441 2.33826 34.9412C2.33826 35.3382 2.64708 35.6471 3.04414 35.6471C3.4412 35.6471 3.75002 35.3382 3.75002 34.9412Z" fill="white"/>
<path d="M2.33826 31.9853C2.33826 32.4265 2.6912 32.8235 3.17649 32.8235C3.61767 32.8235 4.01473 32.4706 4.01473 31.9853C4.01473 31.5441 3.66179 31.1471 3.17649 31.1471C2.73532 31.1471 2.33826 31.5 2.33826 31.9853Z" fill="white"/>
<path d="M3.61763 30C4.14704 30 4.5441 29.5588 4.5441 29.0735C4.5441 28.5441 4.10293 28.1471 3.61763 28.1471C3.08822 28.1471 2.69116 28.5882 2.69116 29.0735C2.69116 29.5588 3.08822 30 3.61763 30Z" fill="white"/>
<path d="M4.41176 25.1471C3.83823 25.1471 3.35294 25.6324 3.35294 26.2059C3.35294 26.7794 3.83823 27.2647 4.41176 27.2647C4.98529 27.2647 5.47058 26.7794 5.47058 26.2059C5.47058 25.6324 5.02941 25.1471 4.41176 25.1471Z" fill="white"/>
<path d="M5.60295 24.6618C6.26472 24.6618 6.79413 24.1323 6.79413 23.4706C6.79413 22.8088 6.26472 22.2794 5.60295 22.2794C4.94119 22.2794 4.41177 22.8088 4.41177 23.4706C4.41177 24.1323 4.94119 24.6618 5.60295 24.6618Z" fill="white"/>
<path d="M7.14706 22.2353C7.85294 22.2353 8.42647 21.6618 8.42647 20.9559C8.42647 20.25 7.85294 19.6765 7.14706 19.6765C6.44118 19.6765 5.86765 20.25 5.86765 20.9559C5.82353 21.6618 6.39706 22.2353 7.14706 22.2353Z" fill="white"/>
<path d="M10.4118 18.6176C10.4118 17.8235 9.79411 17.2059 8.99999 17.2059C8.20587 17.2059 7.58823 17.8235 7.58823 18.6176C7.58823 19.4118 8.20587 20.0294 8.99999 20.0294C9.74999 20.0294 10.4118 19.4118 10.4118 18.6176Z" fill="white"/>
<path d="M83.1176 41.1618C81.6176 41.1618 80.1176 40.8529 78.75 40.2794C77.4265 39.7059 76.1912 38.9118 75.1765 37.8529C74.1618 36.8382 73.3676 35.6029 72.7941 34.2794C71.6029 31.4559 71.6029 28.3235 72.7941 25.5C73.9412 22.8088 76.0588 20.6471 78.75 19.5C81.5735 18.3088 84.75 18.3088 87.5735 19.5C88.9412 20.1176 90.1323 20.9559 91.1912 22.0147C91.4118 22.2353 91.5882 22.5441 91.6765 22.8529C91.8088 23.2059 91.7647 23.6471 91.5441 23.9559C91.2794 24.3529 90.9265 24.5294 90.4412 24.5735C89.9118 24.5735 89.5588 24.4412 89.25 24.1323C88.4118 23.4265 87.4853 22.8088 86.4706 22.2794C85.4559 21.75 84.3088 21.4853 83.1618 21.4853C82.0588 21.4853 80.9559 21.7059 79.897 22.1471C78.9265 22.5882 78 23.2059 77.25 23.9559C76.5 24.75 75.8823 25.6324 75.4853 26.6471C74.6029 28.7206 74.6029 31.0588 75.4853 33.1324C76.3235 35.1618 77.9118 36.75 79.897 37.5882C80.9117 38.0294 82.0147 38.25 83.1618 38.25C84.3088 38.25 85.5 38.0294 86.5588 37.5441C87.5735 37.103 88.5 36.4412 89.2941 35.6029C89.5147 35.3382 89.8235 35.1618 90.1765 35.0735C90.2647 35.0294 90.397 35.0294 90.5294 35.0294C90.7941 35.0294 91.0588 35.1177 91.2794 35.25C91.6323 35.5147 91.8529 35.9559 91.8088 36.3971C91.8088 36.8382 91.6765 37.2353 91.4118 37.5441C90.397 38.6471 89.1176 39.5735 87.75 40.1912C86.25 40.853 84.7059 41.2059 83.1176 41.1618Z" fill="white"/>
<path d="M106.588 41.1618C105.088 41.1618 103.588 40.8529 102.221 40.2794C100.897 39.7059 99.7059 38.9118 98.647 37.8971C97.6323 36.8824 96.8382 35.6912 96.2647 34.3676C95.0735 31.5882 95.0735 28.4118 96.2647 25.6324C96.8382 24.3088 97.6323 23.0735 98.647 22.0588C99.6617 21.0441 100.853 20.2059 102.221 19.6324C105 18.4412 108.176 18.4412 110.956 19.6324C113.647 20.7794 115.809 22.9412 116.956 25.6324C118.147 28.4118 118.147 31.5882 116.956 34.3676C116.382 35.6912 115.588 36.9265 114.529 37.9412C113.515 38.9559 112.279 39.75 110.956 40.3235C109.588 40.8529 108.088 41.1618 106.588 41.1618ZM106.588 21.5735C105.485 21.5735 104.382 21.7941 103.324 22.2353C102.353 22.6324 101.426 23.25 100.676 24C99.9265 24.75 99.3088 25.6765 98.9117 26.6912C98.0735 28.7647 98.0735 31.1029 98.9117 33.1765C100.721 37.4118 105.574 39.3529 109.809 37.5882C110.824 37.1912 111.706 36.5735 112.5 35.8235C114.882 33.3971 115.588 29.8235 114.309 26.6912C113.868 25.6765 113.294 24.7941 112.5 24C111.75 23.25 110.824 22.6324 109.853 22.2353C108.794 21.7941 107.691 21.5735 106.588 21.5735Z" fill="white"/>
<path d="M137.691 41.2059C136.897 41.2059 136.235 40.5441 136.235 39.75V26.9118C136.235 26.2059 136.103 25.5 135.794 24.8382C135.221 23.5147 134.206 22.5 132.882 21.9265C131.559 21.3529 130.059 21.3529 128.691 21.9265C128.029 22.1912 127.456 22.5882 126.971 23.1176C126.485 23.6029 126.088 24.2206 125.824 24.8382C125.559 25.5 125.382 26.2059 125.382 26.9118V39.75C125.382 40.1471 125.25 40.5 124.941 40.7647C124.676 41.0294 124.324 41.2059 123.926 41.1618C123.132 41.1618 122.471 40.5441 122.471 39.75V26.9118C122.471 25.8088 122.691 24.7059 123.132 23.6912C123.529 22.7206 124.147 21.7941 124.897 21.0441C125.647 20.2941 126.529 19.6765 127.544 19.2794C129.618 18.397 131.956 18.397 133.985 19.2794C135.971 20.1176 137.559 21.7059 138.397 23.6912C138.838 24.7059 139.059 25.8088 139.059 26.9118V39.75C139.059 40.1471 138.926 40.5 138.662 40.7647C138.441 41.0735 138.044 41.2059 137.691 41.2059Z" fill="white"/>
<path d="M151.853 41.2059C150.794 41.2059 149.735 41.0294 148.721 40.6765C147.794 40.3235 146.912 39.8382 146.162 39.1765C145.456 38.5588 144.838 37.8088 144.397 36.9706C143.956 36.1323 143.735 35.2059 143.779 34.2353C143.779 33.4853 144.397 32.8676 145.147 32.8676C145.897 32.8676 146.515 33.4853 146.515 34.2353C146.515 34.8088 146.647 35.3382 146.912 35.8235C147.176 36.3529 147.574 36.7941 148.015 37.147C148.544 37.5441 149.074 37.8529 149.691 38.0735C150.353 38.2941 151.059 38.4265 151.809 38.4265C152.515 38.4265 153.265 38.2941 153.926 38.0735C154.544 37.8529 155.118 37.5441 155.647 37.147C156.132 36.7941 156.529 36.3529 156.794 35.8235C157.059 35.3382 157.147 34.8088 157.147 34.2353C157.103 33.7059 156.926 33.2206 156.662 32.7794C156.353 32.2941 155.956 31.8529 155.515 31.5C155.029 31.1029 154.456 30.7941 153.882 30.5735C153.265 30.3088 152.603 30.1324 151.941 30.0441C150.971 29.9559 150.044 29.7794 149.118 29.4706C148.279 29.2059 147.441 28.8088 146.735 28.2794C146.074 27.8382 145.5 27.2206 145.059 26.5588C144.618 25.897 144.397 25.1029 144.397 24.3088C144.397 23.5147 144.618 22.7206 145.015 22.0147C145.456 21.3088 145.985 20.6912 146.647 20.2059C147.309 19.6765 148.147 19.2794 149.074 18.9706C150.971 18.3971 153 18.3971 154.941 18.9706C155.868 19.2794 156.662 19.6765 157.368 20.2059C158.074 20.7353 158.603 21.3529 159 22.0147C159.397 22.7206 159.618 23.5147 159.618 24.3088C159.618 25.1029 158.956 25.7647 158.162 25.7647C157.765 25.7647 157.412 25.5882 157.147 25.3235C156.882 25.0588 156.75 24.6618 156.706 24.2206C156.662 23.8676 156.574 23.5147 156.353 23.25C156.088 22.897 155.735 22.5882 155.338 22.3676C154.853 22.0588 154.368 21.8382 153.838 21.7059C153.221 21.5294 152.603 21.4412 151.985 21.4853C151.368 21.4853 150.706 21.5735 150.088 21.7059C149.559 21.8382 149.029 22.0588 148.588 22.3676C148.191 22.6323 147.882 22.9412 147.618 23.2941C147.397 23.6029 147.265 24 147.265 24.3529C147.265 24.7059 147.397 25.0147 147.662 25.3235C148.015 25.6765 148.368 25.9853 148.809 26.2059C149.294 26.4706 149.824 26.6912 150.397 26.8676C150.926 27.0441 151.456 27.1323 151.985 27.2206C153.044 27.3529 154.059 27.5735 155.029 27.9706C156 28.3676 156.838 28.8529 157.544 29.4265C158.25 30 158.824 30.7059 159.221 31.5441C159.618 32.3824 159.838 33.2647 159.838 34.1912C159.838 35.1618 159.618 36.0882 159.176 36.9265C158.779 37.7647 158.162 38.5588 157.412 39.1323C155.956 40.5 153.971 41.2059 151.853 41.2059Z" fill="white"/>
<path d="M166.456 41.2059C165.662 41.2059 165 40.5882 165 39.7941V20.0735C165 19.6765 165.132 19.3235 165.441 19.0588C165.706 18.7941 166.059 18.6176 166.456 18.6176H178.5C179.294 18.6176 179.956 19.2353 179.956 20.0294C179.956 20.4265 179.823 20.7794 179.559 21.0441C179.294 21.3088 178.941 21.4853 178.544 21.4853H167.956V28.4118H175.456C176.25 28.4118 176.912 29.0735 176.912 29.8676C176.912 30.6618 176.25 31.3235 175.456 31.3235H167.956V38.3824H178.544C179.338 38.3824 180 39 180 39.7941C180 39.7941 180 39.7941 180 39.8382C180 40.2353 179.868 40.5882 179.603 40.8529C179.338 41.1177 178.985 41.2941 178.588 41.2941L166.456 41.2059Z" fill="white"/>
<path d="M198.971 41.2059C198.176 41.2059 197.515 40.5441 197.515 39.75V26.9118C197.515 26.2059 197.382 25.5 197.074 24.8382C196.5 23.5147 195.485 22.5 194.162 21.9265C192.838 21.3529 191.338 21.3529 189.971 21.9265C189.309 22.1912 188.735 22.5882 188.25 23.1176C187.765 23.6029 187.368 24.2206 187.103 24.8382C186.838 25.5 186.662 26.2059 186.662 26.9118V39.75C186.662 40.5441 186 41.2059 185.206 41.2059C184.412 41.2059 183.75 40.5441 183.75 39.75V26.9118C183.75 23.5588 185.735 20.5588 188.779 19.2794C190.853 18.397 193.191 18.397 195.265 19.2794C196.235 19.6765 197.162 20.2941 197.912 21.0441C198.662 21.7941 199.279 22.6765 199.676 23.6912C200.118 24.7059 200.338 25.8088 200.338 26.9118V39.75C200.426 40.5441 199.765 41.2059 198.971 41.2059Z" fill="white"/>
<path d="M213.132 41.2059C212.074 41.2059 211.015 41.0294 210 40.6765C209.074 40.3235 208.191 39.8382 207.441 39.1765C206.735 38.5588 206.118 37.8088 205.676 36.9706C205.235 36.1323 205.059 35.2059 205.059 34.2353C205.059 33.8824 205.191 33.5294 205.456 33.2647C205.985 32.7353 206.868 32.7353 207.397 33.2647C207.662 33.5294 207.794 33.8824 207.794 34.2353C207.794 34.8088 207.926 35.3382 208.191 35.8235C208.456 36.3529 208.853 36.7941 209.294 37.147C209.779 37.5441 210.353 37.8529 210.971 38.0735C211.632 38.2941 212.338 38.4265 213.088 38.4265C213.794 38.4265 214.544 38.2941 215.206 38.0735C215.824 37.8529 216.397 37.5441 216.926 37.147C217.412 36.7941 217.765 36.3529 218.073 35.8235C218.338 35.3382 218.426 34.8088 218.426 34.2353C218.382 33.7059 218.206 33.2206 217.941 32.7794C217.632 32.2941 217.235 31.8529 216.794 31.5C216.309 31.1029 215.735 30.7941 215.162 30.5735C214.544 30.3088 213.882 30.1324 213.221 30.0441C212.25 30 211.324 29.7794 210.441 29.4706C209.603 29.2059 208.765 28.8088 208.059 28.2794C207.397 27.8382 206.824 27.2206 206.382 26.5588C205.941 25.897 205.721 25.1029 205.721 24.3088C205.721 23.5147 205.941 22.7206 206.338 22.0147C206.779 21.3088 207.309 20.6912 208.015 20.2059C208.721 19.6765 209.515 19.2794 210.441 18.9706C212.338 18.3971 214.368 18.3971 216.309 18.9706C217.235 19.2794 218.029 19.6765 218.735 20.2059C219.397 20.6912 219.971 21.3088 220.368 22.0147C220.765 22.7206 220.985 23.5147 220.985 24.3088C220.985 24.7059 220.853 25.0588 220.544 25.3235C220.279 25.5882 219.926 25.7647 219.529 25.7206C219.132 25.7206 218.779 25.5441 218.515 25.2794C218.25 25.0147 218.118 24.6176 218.118 24.1765C218.074 23.8235 217.985 23.4706 217.765 23.2059C217.5 22.8529 217.147 22.5441 216.75 22.3235C216.265 22.0147 215.779 21.7941 215.25 21.6618C214.632 21.4853 214.015 21.3971 213.397 21.4412C212.779 21.4412 212.118 21.5294 211.5 21.6618C210.971 21.7941 210.441 22.0147 210 22.3235C209.603 22.5882 209.294 22.897 209.029 23.25C208.809 23.5588 208.676 23.9559 208.676 24.3088C208.676 24.6618 208.809 24.9706 209.074 25.2794C209.426 25.6323 209.824 25.9412 210.221 26.1618C210.706 26.4265 211.279 26.6471 211.809 26.8235C212.338 27 212.868 27.0882 213.397 27.1765C214.456 27.3088 215.471 27.5294 216.441 27.9265C217.368 28.2794 218.206 28.7647 218.956 29.3824C219.662 29.9559 220.235 30.6618 220.632 31.5C221.029 32.3382 221.25 33.2206 221.25 34.1471C221.25 35.1176 221.029 36.0441 220.632 36.8824C220.191 37.7206 219.618 38.4706 218.868 39.0882C217.235 40.5 215.25 41.2059 213.132 41.2059Z" fill="white"/>
<path d="M234.926 41.2059C234.132 41.2059 233.471 40.5882 233.471 39.7941V32.4265L224.559 20.9559C224.338 20.6471 224.206 20.2941 224.25 19.8971C224.294 19.5 224.471 19.1471 224.779 18.9265C225.044 18.7059 225.353 18.5735 225.706 18.5735C226.191 18.6176 226.544 18.7941 226.809 19.1029L234.926 29.5588L243.221 19.1029C243.441 18.7941 243.794 18.6176 244.191 18.5735H244.235C244.676 18.5735 244.985 18.7059 245.25 18.8823C245.559 19.1029 245.735 19.4559 245.779 19.8529C245.824 20.25 245.691 20.6029 245.471 20.9118L236.382 32.3824V39.75C236.382 40.1471 236.25 40.5 235.941 40.7647C235.676 41.0735 235.279 41.2059 234.926 41.2059Z" fill="white"/>
<path d="M256.632 41.2059C255.573 41.2059 254.515 41.0294 253.5 40.6765C252.573 40.3235 251.691 39.8382 250.941 39.1765C250.235 38.5588 249.618 37.8088 249.176 36.9706C248.735 36.1323 248.515 35.2059 248.559 34.2353C248.559 33.4853 249.176 32.8676 249.926 32.8676C250.279 32.8676 250.632 33 250.897 33.2647C251.162 33.5294 251.294 33.8824 251.294 34.2353C251.294 34.8088 251.426 35.3382 251.691 35.8235C251.956 36.3529 252.353 36.7941 252.794 37.147C253.279 37.5441 253.853 37.8529 254.47 38.0735C255.132 38.2941 255.838 38.4265 256.588 38.4265C257.294 38.4265 258.044 38.2941 258.706 38.0735C259.323 37.8529 259.897 37.5441 260.426 37.147C260.912 36.7941 261.265 36.3529 261.573 35.8235C261.838 35.3382 261.926 34.8088 261.926 34.2353C261.882 33.7059 261.706 33.2206 261.441 32.7794C261.132 32.2941 260.735 31.8529 260.294 31.5C259.809 31.1029 259.235 30.7941 258.662 30.5735C258.044 30.3088 257.382 30.1324 256.721 30.0441C255.75 30 254.823 29.7794 253.897 29.4706C253.059 29.2059 252.221 28.8088 251.515 28.2794C250.853 27.8382 250.279 27.2206 249.838 26.5588C249.397 25.897 249.176 25.1029 249.176 24.3088C249.176 23.5147 249.397 22.7206 249.794 22.0147C250.235 21.3088 250.765 20.6912 251.471 20.2059C252.176 19.6765 252.971 19.2794 253.897 18.9706C255.794 18.3971 257.868 18.3971 259.765 18.9706C260.647 19.2353 261.441 19.6323 262.147 20.2059C262.809 20.6912 263.382 21.3088 263.823 22.0147C264.22 22.7206 264.441 23.5147 264.441 24.3088C264.441 25.1029 263.779 25.7647 262.985 25.7647C262.588 25.7647 262.235 25.5882 261.97 25.3235C261.706 25.0588 261.573 24.6618 261.529 24.2206C261.529 23.8676 261.397 23.5147 261.176 23.25C260.912 22.897 260.559 22.5882 260.162 22.3676C259.676 22.0588 259.191 21.8382 258.662 21.7059C258.044 21.5294 257.426 21.4412 256.809 21.4853C256.191 21.4853 255.529 21.5735 254.912 21.7059C254.382 21.8382 253.853 22.0588 253.412 22.3676C253.015 22.6323 252.706 22.9412 252.441 23.2941C252.221 23.6029 252.088 24 252.088 24.3529C252.088 24.7059 252.221 25.0147 252.485 25.3235C252.838 25.6765 253.235 25.9853 253.632 26.2059C254.118 26.4706 254.647 26.6912 255.22 26.8676C255.75 27.0441 256.279 27.1323 256.809 27.2206C257.868 27.3529 258.882 27.5735 259.853 27.9706C260.823 28.3676 261.662 28.8529 262.368 29.4265C263.073 30 263.647 30.7059 264.044 31.5441C264.441 32.3824 264.662 33.2647 264.662 34.1912C264.662 35.1618 264.441 36.0882 264.044 36.9265C263.603 37.7647 263.029 38.5147 262.279 39.1323C260.735 40.5 258.706 41.2059 256.632 41.2059Z" fill="white"/>
</g>
<defs>
<clipPath id="clip0">
<rect width="264.706" height="60" fill="white"/>
</clipPath>
</defs>
</svg>
