<svg xmlns="http://www.w3.org/2000/svg" xmlns:xlink="http://www.w3.org/1999/xlink" viewBox="0 0 102 102" width="74" height="74" alt="EBO logo" class="c-header__logo"><defs><linearGradient id="a" x1="14.6221%" x2="85.3517%" y1="14.6366%" y2="85.3663%"><stop offset="0%" stop-color="#0CFC0A"></stop> <stop offset="37%" stop-color="#07F16F"></stop> <stop offset="67%" stop-color="#03E9BC"></stop> <stop offset="89%" stop-color="#01E4EC"></stop> <stop offset="100%" stop-color="#00E2FF"></stop></linearGradient> <linearGradient id="b" x1="50%" x2="50%" y1="-4.4778%" y2="104.4783%"><stop offset="0%" stop-color="#0CFC0A"></stop> <stop offset="37%" stop-color="#07F16F"></stop> <stop offset="67%" stop-color="#03E9BC"></stop> <stop offset="89%" stop-color="#01E4EC"></stop> <stop offset="100%" stop-color="#00E2FF"></stop></linearGradient></defs> <g fill="none" fill-rule="evenodd" transform="translate(-14 -14)"><path fill="url(#a)" fill-rule="nonzero" d="M97.829 65.0915c0 18.1072-14.6788 32.786-32.786 32.786-18.1071 0-32.7859-14.6788-32.7859-32.786s14.6788-32.786 32.786-32.786c18.105.0053 32.7806 14.681 32.7859 32.786zm-23.7222 6.7154v-13.303a2.4494 2.4494 0 00-2.4494-2.4495H58.3353c-1.3528 0-2.4494 1.0966-2.4494 2.4494v13.303c0 1.3529 1.0966 2.4495 2.4494 2.4495h13.3221a2.4494 2.4494 0 002.4494-2.4494z"></path> <circle cx="65" cy="65" r="45.9384" stroke="url(#b)" stroke-width="8.227" transform="rotate(-45 65 65)"></circle></g></svg>