<svg width="51" height="40" viewBox="0 0 51 40" fill="none" xmlns="http://www.w3.org/2000/svg">
<path fill-rule="evenodd" clip-rule="evenodd" d="M6.04775 8.16039C6.1115 7.54107 5.87138 6.93014 5.40387 6.51446L0.643875 0.846061V0H15.4296L26.8579 24.7625L36.9049 0H51V0.846061L46.9285 4.70267C46.5779 4.9672 46.4036 5.40177 46.4759 5.83215V34.1699C46.4036 34.5982 46.5779 35.0328 46.9285 35.2973L50.9044 39.1539V40H30.9039V39.1539L35.0243 35.2029C35.428 34.804 35.428 34.6864 35.428 34.0755V11.1709L23.9764 39.9076H22.4294L9.095 11.1709V30.4309C8.9845 31.2392 9.2565 32.0558 9.83237 32.6395L15.1895 39.0595V39.9076H0V39.0595L5.35712 32.6395C5.93087 32.0537 6.18587 31.2329 6.04775 30.4309V8.16039Z" fill="white"/>
</svg>
