<svg width="43" height="48" viewBox="0 0 43 48" fill="none" xmlns="http://www.w3.org/2000/svg">
<path d="M25.6339 20.1394C24.2542 20.1394 23.1649 21.3255 23.1649 22.802C23.1649 24.2786 24.2784 25.4647 25.6339 25.4647C27.0136 25.4647 28.1029 24.2786 28.1029 22.802C28.1029 21.3255 26.9894 20.1394 25.6339 20.1394ZM16.7988 20.1394C15.4191 20.1394 14.3298 21.3255 14.3298 22.802C14.3298 24.2786 15.4433 25.4647 16.7988 25.4647C18.1785 25.4647 19.2678 24.2786 19.2678 22.802C19.292 21.3255 18.1785 20.1394 16.7988 20.1394Z" fill="white"/>
<path d="M37.3979 0H4.96218C2.22693 0 0 2.22693 0 4.96218V37.3979C0 40.1331 2.22693 42.3601 4.96218 42.3601H32.4115L31.1286 37.9304L34.2269 40.7867L37.1558 43.4735L42.3843 48V4.96218C42.3601 2.22693 40.1331 0 37.3979 0ZM28.0545 31.3464C28.0545 31.3464 27.1831 30.3056 26.4569 29.41C29.6278 28.5144 30.8381 26.5537 30.8381 26.5537C29.8457 27.2073 28.9017 27.6672 28.0545 27.9818C26.8442 28.4902 25.6823 28.8048 24.5446 29.0227C22.2209 29.4584 20.0908 29.3374 18.2753 28.9985C16.8956 28.7322 15.7095 28.3691 14.7171 27.9576C14.1604 27.7398 13.5552 27.4735 12.9501 27.1346C12.8775 27.0862 12.8048 27.062 12.7322 27.0136C12.6838 26.9894 12.6596 26.9652 12.6354 26.9652C12.1997 26.7231 11.9576 26.5537 11.9576 26.5537C11.9576 26.5537 13.1195 28.466 16.1936 29.3858C15.4675 30.3056 14.5719 31.3707 14.5719 31.3707C9.22239 31.2012 7.18911 27.7156 7.18911 27.7156C7.18911 19.9939 10.6747 13.7247 10.6747 13.7247C14.1604 11.1346 17.4523 11.2073 17.4523 11.2073L17.6944 11.4977C13.3374 12.7322 11.3525 14.6445 11.3525 14.6445C11.3525 14.6445 11.885 14.354 12.7806 13.9667C15.3707 12.829 17.4281 12.5386 18.2753 12.4418C18.4206 12.4176 18.5416 12.3933 18.6868 12.3933C20.1634 12.1997 21.8336 12.1513 23.5764 12.3449C25.8759 12.6112 28.3449 13.289 30.8623 14.6445C30.8623 14.6445 28.9501 12.829 24.8351 11.5946L25.174 11.2073C25.174 11.2073 28.4902 11.1346 31.9516 13.7247C31.9516 13.7247 35.4372 19.9939 35.4372 27.7156C35.4372 27.6914 33.4039 31.177 28.0545 31.3464Z" fill="white"/>
</svg>
