<svg width="50" height="41" viewBox="0 0 50 41" fill="none" xmlns="http://www.w3.org/2000/svg">
<path d="M15.5274 40.1198C34.1596 40.1198 44.3506 24.6832 44.3506 11.2966C44.3506 10.8582 44.3506 10.4217 44.321 9.98718C46.3035 8.55315 48.0149 6.77757 49.375 4.74356C47.5262 5.56279 45.5649 6.10004 43.5567 6.33738C45.6714 5.07137 47.2541 3.08015 48.0103 0.734305C46.0218 1.91428 43.8463 2.74587 41.5777 3.19318C40.0504 1.56911 38.0303 0.493688 35.8302 0.133339C33.6301 -0.22701 31.3725 0.147802 29.4069 1.19977C27.4412 2.25175 25.8771 3.92223 24.9565 5.95272C24.0359 7.98322 23.8102 10.2605 24.3142 12.4322C20.2867 12.2303 16.3467 11.1837 12.7499 9.3603C9.1531 7.53689 5.97998 4.97748 3.4365 1.84821C2.14108 4.0783 1.74432 6.71828 2.327 9.23063C2.90968 11.743 4.42799 13.9388 6.5728 15.371C4.96069 15.3232 3.38373 14.8884 1.975 14.1031C1.975 14.1446 1.975 14.188 1.975 14.2315C1.97564 16.5703 2.78527 18.8369 4.26656 20.6468C5.74785 22.4568 7.8096 23.6986 10.1021 24.1618C8.61074 24.5685 7.04597 24.6279 5.52802 24.3356C6.17535 26.3484 7.43561 28.1086 9.13254 29.37C10.8295 30.6313 12.8782 31.3308 14.9922 31.3705C11.4051 34.1897 6.97384 35.7201 2.41147 35.7155C1.60548 35.714 0.800278 35.6651 0 35.5693C4.63263 38.5423 10.023 40.1192 15.5274 40.1118" fill="white"/>
</svg>
