<svg width="3200" height="800" viewBox="0 0 3200 800" fill="none" xmlns="http://www.w3.org/2000/svg">
<g clip-path="url(#clip0)">
<path fill-rule="evenodd" clip-rule="evenodd" d="M340 85V178H176C146 178 139 183 121 202C106.6 217.2 103.667 241 104 251V333H50V36C50 31 47.3999 21 36.9999 21C26.5999 21 26.6666 31 27.9999 36V544C27.9999 560 38.6666 566.667 43.9999 568H104V766C104 788.4 131.333 800 145 803H690C720.4 803 728.667 778.333 729 766V568C740.667 568.333 768.8 568.8 788 568C807.2 567.2 808.667 551.667 807 544V36C806 31 802 21 794 21C786 21 782.667 31 782 36V333H729V262C728.667 250 724 221.2 708 202C692 182.8 664 178 652 178H495V85C485 63.6667 455.2 21 416 21C376.8 21 349 63.6667 340 85ZM258 530C323.17 530 376 477.17 376 412C376 346.83 323.17 294 258 294C192.83 294 140 346.83 140 412C140 477.17 192.83 530 258 530ZM258 493C302.735 493 339 456.735 339 412C339 367.265 302.735 331 258 331C213.265 331 177 367.265 177 412C177 456.735 213.265 493 258 493ZM693 412C693 477.17 640.17 530 575 530C509.83 530 457 477.17 457 412C457 346.83 509.83 294 575 294C640.17 294 693 346.83 693 412ZM656 412C656 456.735 619.735 493 575 493C530.265 493 494 456.735 494 412C494 367.265 530.265 331 575 331C619.735 331 656 367.265 656 412ZM367 511L417.354 419L469 511H367ZM626 566H204C191.2 566 184 580.667 182 588V656C182 697.6 222 724 258 724H564C658.245 724 655.7 654.05 654.293 615.381L654.293 615.377C654.14 611.171 654 607.335 654 604C654 576.8 635.333 567.333 626 566ZM305 607H369V686H305V607ZM450 607H386V686H450V607ZM467 607H531V686H467V607ZM545 606V684H577C589 686 613 681.6 613 648C613 614.4 589 606 577 606H545ZM292 685V607H260C248 607 224 615.4 224 649C224 682.6 248 687 260 685H292Z" fill="#FEFFFF"/>
<path d="M1218.74 442.927H1204.99V484.626H1149V323.133H1217.05C1241.99 323.133 1259.85 327.311 1270.63 335.667C1281.41 343.862 1286.8 359.208 1286.8 381.704C1286.8 404.04 1280.84 420.029 1268.94 429.67L1284.87 484.626H1227.91L1218.74 442.927ZM1218.5 398.818C1226.39 398.818 1230.33 393.595 1230.33 383.151C1230.33 372.545 1225.9 367.242 1217.05 367.242H1204.75V398.818H1218.5Z" fill="#FEFFFF"/>
<path d="M1351.64 403.879C1351.64 417.538 1352.93 427.42 1355.5 433.527C1358.24 439.472 1363.79 442.445 1372.15 442.445C1380.68 442.445 1386.23 439.472 1388.8 433.527C1391.38 427.581 1392.66 417.699 1392.66 403.879C1392.66 389.9 1391.38 380.017 1388.8 374.232C1386.39 368.287 1380.92 365.314 1372.39 365.314C1363.87 365.314 1358.24 368.367 1355.5 374.473C1352.93 380.419 1351.64 390.221 1351.64 403.879ZM1449.13 403.879C1449.13 433.286 1443.02 454.657 1430.79 467.994C1418.57 481.171 1399.02 487.759 1372.15 487.759C1345.44 487.759 1325.9 481.09 1313.51 467.753C1301.28 454.416 1295.17 433.125 1295.17 403.879C1295.17 374.473 1301.28 353.182 1313.51 340.006C1325.74 326.669 1345.28 320 1372.15 320C1399.02 320 1418.57 326.669 1430.79 340.006C1443.02 353.182 1449.13 374.473 1449.13 403.879Z" fill="#FEFFFF"/>
<path d="M1460.82 323.133H1533.94C1573.36 323.133 1593.07 336.471 1593.07 363.145C1593.07 373.268 1591.94 381.062 1589.69 386.525C1587.6 391.989 1583.17 397.131 1576.42 401.951C1584.3 405.326 1589.69 409.504 1592.58 414.485C1595.64 419.306 1597.17 427.42 1597.17 438.829C1597.17 469.36 1576.42 484.626 1534.91 484.626H1460.82V323.133ZM1529.84 420.752H1516.81V447.265H1529.84C1535.47 447.265 1539.25 446.382 1541.18 444.614C1543.11 442.686 1544.08 439.231 1544.08 434.25C1544.08 429.108 1543.03 425.572 1540.94 423.644C1538.85 421.716 1535.15 420.752 1529.84 420.752ZM1529.12 360.011H1516.81V385.802H1529.36C1534.18 385.802 1537.56 384.758 1539.49 382.669C1541.42 380.58 1542.39 377.286 1542.39 372.786C1542.39 368.126 1541.34 364.832 1539.25 362.904C1537.16 360.976 1533.78 360.011 1529.12 360.011Z" fill="#FEFFFF"/>
<path d="M1661.1 403.879C1661.1 417.538 1662.39 427.42 1664.96 433.527C1667.7 439.472 1673.25 442.445 1681.62 442.445C1690.14 442.445 1695.69 439.472 1698.27 433.527C1700.84 427.581 1702.13 417.699 1702.13 403.879C1702.13 389.9 1700.84 380.017 1698.27 374.232C1695.85 368.287 1690.38 365.314 1681.86 365.314C1673.33 365.314 1667.7 368.367 1664.96 374.473C1662.39 380.419 1661.1 390.221 1661.1 403.879ZM1758.6 403.879C1758.6 433.286 1752.49 454.657 1740.26 467.994C1728.03 481.171 1708.48 487.759 1681.62 487.759C1654.91 487.759 1635.36 481.09 1622.97 467.753C1610.75 454.416 1604.63 433.125 1604.63 403.879C1604.63 374.473 1610.75 353.182 1622.97 340.006C1635.2 326.669 1654.75 320 1681.62 320C1708.48 320 1728.03 326.669 1740.26 340.006C1752.49 353.182 1758.6 374.473 1758.6 403.879Z" fill="#FEFFFF"/>
<path d="M1762.39 368.689V323.133H1883.05V368.689H1851.68V484.626H1795.69V368.689H1762.39Z" fill="#FEFFFF"/>
<path d="M2183.03 323.133L2151.41 484.626H2068.88L2036.06 323.133H2095.42L2107.97 428.224H2112.32L2123.66 323.133H2183.03Z" fill="#FEFFFF"/>
<path d="M2189.82 484.626V323.133H2310.97V367.725H2245.81V381.463H2296.49V425.572H2245.81V440.034H2310.97V484.626H2189.82Z" fill="#FEFFFF"/>
<path d="M2322.87 484.626V323.133H2377.89L2415.06 384.356H2418.44V323.133H2474.42V484.626H2419.16L2382.48 418.824H2378.86V484.626H2322.87Z" fill="#FEFFFF"/>
<path d="M2484.55 368.689V323.133H2605.22V368.689H2573.84V484.626H2517.86V368.689H2484.55Z" fill="#FEFFFF"/>
<path d="M2670.39 323.133V428.947C2670.39 433.607 2671.51 436.901 2673.77 438.829C2676.18 440.758 2680.12 441.722 2685.59 441.722C2691.06 441.722 2694.92 440.758 2697.18 438.829C2699.43 436.901 2700.55 433.607 2700.55 428.947V323.133H2756.54V425.813C2756.54 448.631 2750.83 464.7 2739.41 474.02C2727.99 483.179 2709.97 487.759 2685.35 487.759C2660.9 487.759 2642.96 483.26 2631.53 474.261C2620.11 465.263 2614.4 449.435 2614.4 426.778V323.133H2670.39Z" fill="#FEFFFF"/>
<path d="M2840.31 442.927H2826.56V484.626H2770.57V323.133H2838.62C2863.56 323.133 2881.42 327.311 2892.2 335.667C2902.98 343.862 2908.37 359.208 2908.37 381.704C2908.37 404.04 2902.41 420.029 2890.51 429.67L2906.44 484.626H2849.48L2840.31 442.927ZM2840.07 398.818C2847.95 398.818 2851.9 393.595 2851.9 383.151C2851.9 372.545 2847.47 367.242 2838.62 367.242H2826.32V398.818H2840.07Z" fill="#FEFFFF"/>
<path d="M2920.12 484.626V323.133H3041.26V367.725H2976.1V381.463H3026.78V425.572H2976.1V440.034H3041.26V484.626H2920.12Z" fill="#FEFFFF"/>
<path d="M3176.24 369.653C3153.56 367.242 3137.07 366.037 3126.77 366.037C3116.47 366.037 3110.44 366.359 3108.67 367.001C3107.06 367.484 3106.26 368.608 3106.26 370.376C3106.26 372.143 3107.22 373.509 3109.15 374.473C3111.08 375.438 3117.12 377.044 3127.25 379.294C3137.55 381.544 3145.92 383.793 3152.35 386.043C3158.95 388.132 3164.82 391.185 3169.97 395.202C3175.28 399.059 3178.74 403.879 3180.35 409.664C3182.12 415.288 3183 422.921 3183 432.562C3183 452.488 3177.69 466.709 3167.07 475.225C3156.45 483.742 3140.45 488 3119.05 488C3108.75 488 3097.89 487.277 3086.47 485.831C3075.21 484.385 3066.52 482.938 3060.41 481.492L3050.99 479.323L3053.41 436.66C3078.02 440.195 3098.21 441.963 3113.98 441.963C3122.35 441.963 3126.53 440.115 3126.53 436.419C3126.53 434.812 3125.56 433.687 3123.63 433.044C3121.7 432.241 3116.47 431.197 3107.95 429.911C3085.42 426.376 3070.06 420.912 3061.85 413.521C3053.81 405.968 3049.79 393.676 3049.79 376.643C3049.79 354.95 3055.02 340.086 3065.47 332.052C3075.93 324.017 3092.02 320 3113.74 320C3129.02 320 3146.96 321.527 3167.56 324.58L3177.69 326.267L3176.24 369.653Z" fill="#FEFFFF"/>
</g>
<defs>
<clipPath id="clip0">
<rect width="3200" height="800" fill="white"/>
</clipPath>
</defs>
</svg>
