<svg width="288" height="9" viewBox="0 0 288 9" fill="none" xmlns="http://www.w3.org/2000/svg">
<path d="M138.275 3.4C137.15 4.8 136.435 5.6 135.003 5.6C133.572 5.6 132.856 4.8 131.731 3.4C130.505 1.9 129.073 0 126.006 0C123.041 0 121.507 1.9 120.28 3.4C119.156 4.8 118.44 5.6 117.009 5.6C115.577 5.6 114.862 4.8 113.737 3.4C112.51 1.9 111.079 0 108.011 0C105.046 0 103.513 1.9 102.286 3.4C101.161 4.8 100.446 5.6 99.0142 5.6C97.5828 5.6 96.8671 4.8 95.7425 3.4C94.5156 1.9 93.0842 0 90.0169 0C86.9497 0 85.5183 1.9 84.2914 3.4C83.1668 4.8 82.4511 5.6 81.0197 5.6C79.5883 5.6 78.8726 4.8 77.748 3.4C76.5211 1.9 75.0897 0 72.0225 0V3C73.4538 3 74.1695 3.8 75.2942 5.2C76.5211 6.7 77.9525 8.6 81.0197 8.6C84.0869 8.6 85.5183 6.7 86.7452 5.2C87.8699 3.8 88.5856 3 90.0169 3C91.4483 3 92.164 3.8 93.2887 5.2C94.5156 6.7 95.9469 8.6 99.0142 8.6C101.979 8.6 103.513 6.7 104.74 5.2C105.864 3.8 106.58 3 108.011 3C109.443 3 110.159 3.8 111.283 5.2C112.51 6.7 113.941 8.6 117.009 8.6C119.974 8.6 121.507 6.7 122.734 5.2C123.859 3.8 124.575 3 126.006 3C127.437 3 128.153 3.8 129.278 5.2C130.505 6.7 131.936 8.6 135.003 8.6C138.07 8.6 139.502 6.7 140.729 5.2C141.853 3.8 142.569 3 144 3V0C141.035 0 139.502 1.9 138.275 3.4Z" fill="#35F0D0"/>
<path d="M66.2973 3.4C65.1727 4.8 64.457 5.6 63.0256 5.6C61.5942 5.6 60.8785 4.8 59.7539 3.4C58.527 1.9 57.0956 0 54.0284 0C51.0634 0 49.5298 1.9 48.3029 3.4C47.1782 4.8 46.4625 5.6 45.0311 5.6C43.5998 5.6 42.8841 4.8 41.7594 3.4C40.5325 1.9 39.1011 0 36.0339 0C33.0689 0 31.5353 1.9 30.3084 3.4C29.1837 4.8 28.468 5.6 27.0366 5.6C25.6053 5.6 24.8896 4.8 23.7649 3.4C22.538 1.9 21.1066 0 18.0394 0C14.9722 0 13.5408 1.9 12.3139 3.4C11.1892 4.8 10.4735 5.6 9.04216 5.6C7.61078 5.6 6.89509 4.8 5.77044 3.4C4.54354 1.9 3.11216 0 0.0449219 0V3C1.4763 3 2.19199 3.8 3.31664 5.2C4.54354 6.7 5.97492 8.6 9.04216 8.6C12.1094 8.6 13.5408 6.7 14.7677 5.2C15.8923 3.8 16.608 3 18.0394 3C19.4708 3 20.1865 3.8 21.3111 5.2C22.538 6.7 23.9694 8.6 27.0366 8.6C30.0016 8.6 31.5353 6.7 32.7622 5.2C33.8868 3.8 34.6025 3 36.0339 3C37.4653 3 38.181 3.8 39.3056 5.2C40.5325 6.7 41.9639 8.6 45.0311 8.6C47.9961 8.6 49.5298 6.7 50.7566 5.2C51.8813 3.8 52.597 3 54.0284 3C55.4598 3 56.1754 3.8 57.3001 5.2C58.527 6.7 59.9584 8.6 63.0256 8.6C66.0929 8.6 67.5242 6.7 68.7511 5.2C69.8758 3.8 70.5915 3 72.0229 3V0C69.0579 0 67.5242 1.9 66.2973 3.4Z" fill="#35F0D0"/>
<path d="M282.23 3.4C281.105 4.8 280.39 5.6 278.958 5.6C277.527 5.6 276.811 4.8 275.687 3.4C274.46 1.9 273.028 0 269.961 0C266.996 0 265.462 1.9 264.235 3.4C263.111 4.8 262.395 5.6 260.964 5.6C259.532 5.6 258.817 4.8 257.692 3.4C256.465 1.9 255.034 0 251.967 0C249.002 0 247.468 1.9 246.241 3.4C245.116 4.8 244.401 5.6 242.969 5.6C241.538 5.6 240.822 4.8 239.698 3.4C238.471 1.9 237.039 0 233.972 0C230.905 0 229.473 1.9 228.247 3.4C227.122 4.8 226.406 5.6 224.975 5.6C223.543 5.6 222.828 4.8 221.703 3.4C220.476 1.9 219.045 0 215.978 0V3C217.409 3 218.125 3.8 219.249 5.2C220.476 6.7 221.908 8.6 224.975 8.6C228.042 8.6 229.473 6.7 230.7 5.2C231.825 3.8 232.541 3 233.972 3C235.403 3 236.119 3.8 237.244 5.2C238.471 6.7 239.902 8.6 242.969 8.6C245.934 8.6 247.468 6.7 248.695 5.2C249.819 3.8 250.535 3 251.967 3C253.398 3 254.114 3.8 255.238 5.2C256.465 6.7 257.897 8.6 260.964 8.6C263.929 8.6 265.462 6.7 266.689 5.2C267.814 3.8 268.53 3 269.961 3C271.392 3 272.108 3.8 273.233 5.2C274.46 6.7 275.891 8.6 278.958 8.6C282.025 8.6 283.457 6.7 284.684 5.2C285.808 3.8 286.524 3 287.955 3V0C284.99 0 283.457 1.9 282.23 3.4Z" fill="#35F0D0"/>
<path d="M210.252 3.4C209.128 4.8 208.412 5.6 206.981 5.6C205.549 5.6 204.834 4.8 203.709 3.4C202.482 1.9 201.051 0 197.983 0C195.018 0 193.485 1.9 192.258 3.4C191.133 4.8 190.418 5.6 188.986 5.6C187.555 5.6 186.839 4.8 185.714 3.4C184.488 1.9 183.056 0 179.989 0C177.024 0 175.49 1.9 174.263 3.4C173.139 4.8 172.423 5.6 170.992 5.6C169.56 5.6 168.845 4.8 167.72 3.4C166.493 1.9 165.062 0 161.994 0C158.927 0 157.496 1.9 156.269 3.4C155.144 4.8 154.429 5.6 152.997 5.6C151.566 5.6 150.85 4.8 149.726 3.4C148.499 1.9 147.067 0 144 0V3C145.431 3 146.147 3.8 147.272 5.2C148.499 6.7 149.93 8.6 152.997 8.6C156.064 8.6 157.496 6.7 158.723 5.2C159.847 3.8 160.563 3 161.994 3C163.426 3 164.142 3.8 165.266 5.2C166.493 6.7 167.924 8.6 170.992 8.6C173.957 8.6 175.49 6.7 176.717 5.2C177.842 3.8 178.558 3 179.989 3C181.42 3 182.136 3.8 183.261 5.2C184.488 6.7 185.919 8.6 188.986 8.6C191.951 8.6 193.485 6.7 194.712 5.2C195.836 3.8 196.552 3 197.983 3C199.415 3 200.131 3.8 201.255 5.2C202.482 6.7 203.913 8.6 206.981 8.6C210.048 8.6 211.479 6.7 212.706 5.2C213.831 3.8 214.547 3 215.978 3V0C213.013 0 211.479 1.9 210.252 3.4Z" fill="#35F0D0"/>
</svg>
