<svg width="788" height="225" viewBox="0 0 788 225" fill="none" xmlns="http://www.w3.org/2000/svg">
<path d="M225 112.5C225 50.368 174.632 0 112.5 0C50.368 0 0 50.368 0 112.5C0 174.632 50.368 225 112.5 225C174.632 225 225 174.632 225 112.5Z" fill="#784FFE"/>
<path fill-rule="evenodd" clip-rule="evenodd" d="M69.4506 84.5409L148.771 84.1499L129.78 112.77L174.598 112.553L155.605 140.693L75.7703 141.204L95.0609 112.785L50.3984 112.768L69.4506 84.5409Z" fill="white"/>
<path d="M303.46 157V136.28L350.64 78.18H304.58V57.88H380.6V77.06L332.3 136.28H381.58V157H303.46ZM435.347 126.62H432.407C429.887 126.62 427.32 126.76 424.707 127.04C422.187 127.227 419.9 127.647 417.847 128.3C415.887 128.953 414.253 129.933 412.947 131.24C411.64 132.453 410.987 134.087 410.987 136.14C410.987 137.447 411.267 138.567 411.827 139.5C412.48 140.433 413.273 141.18 414.207 141.74C415.14 142.3 416.213 142.72 417.427 143C418.64 143.187 419.807 143.28 420.927 143.28C425.593 143.28 429.14 142.02 431.567 139.5C434.087 136.887 435.347 133.387 435.347 129V126.62ZM393.207 96.8C397.313 92.88 402.073 89.94 407.487 87.98C412.993 86.02 418.593 85.04 424.287 85.04C430.167 85.04 435.113 85.7867 439.127 87.28C443.233 88.68 446.547 90.92 449.067 94C451.587 96.9867 453.407 100.813 454.527 105.48C455.74 110.053 456.347 115.513 456.347 121.86V157H435.347V149.58H434.927C433.153 152.473 430.447 154.713 426.807 156.3C423.26 157.887 419.387 158.68 415.187 158.68C412.387 158.68 409.493 158.307 406.507 157.56C403.52 156.813 400.767 155.6 398.247 153.92C395.82 152.24 393.813 150 392.227 147.2C390.64 144.4 389.847 140.947 389.847 136.84C389.847 131.8 391.2 127.74 393.907 124.66C396.707 121.58 400.253 119.2 404.547 117.52C408.933 115.84 413.787 114.72 419.107 114.16C424.427 113.6 429.607 113.32 434.647 113.32V112.2C434.647 108.747 433.433 106.227 431.007 104.64C428.58 102.96 425.593 102.12 422.047 102.12C418.78 102.12 415.607 102.82 412.527 104.22C409.54 105.62 406.973 107.3 404.827 109.26L393.207 96.8ZM551.043 121.86C551.043 126.713 550.297 131.38 548.803 135.86C547.31 140.34 545.117 144.307 542.223 147.76C539.423 151.12 535.97 153.827 531.863 155.88C527.757 157.933 523.09 158.96 517.863 158.96C513.57 158.96 509.51 158.12 505.683 156.44C501.857 154.667 498.87 152.287 496.723 149.3H496.443V190.6H473.483V87.28H495.323V95.82H495.743C497.89 93.02 500.83 90.5933 504.563 88.54C508.39 86.3933 512.87 85.32 518.003 85.32C523.043 85.32 527.617 86.3 531.723 88.26C535.83 90.22 539.283 92.88 542.083 96.24C544.977 99.6 547.17 103.52 548.663 108C550.25 112.387 551.043 117.007 551.043 121.86ZM528.783 121.86C528.783 119.62 528.41 117.427 527.663 115.28C527.01 113.133 525.983 111.267 524.583 109.68C523.277 108 521.597 106.647 519.543 105.62C517.49 104.593 515.11 104.08 512.403 104.08C509.79 104.08 507.457 104.593 505.403 105.62C503.35 106.647 501.577 108 500.083 109.68C498.683 111.36 497.563 113.273 496.723 115.42C495.977 117.567 495.603 119.76 495.603 122C495.603 124.24 495.977 126.433 496.723 128.58C497.563 130.727 498.683 132.64 500.083 134.32C501.577 136 503.35 137.353 505.403 138.38C507.457 139.407 509.79 139.92 512.403 139.92C515.11 139.92 517.49 139.407 519.543 138.38C521.597 137.353 523.277 136 524.583 134.32C525.983 132.64 527.01 130.727 527.663 128.58C528.41 126.34 528.783 124.1 528.783 121.86ZM643.055 121.86C643.055 126.713 642.308 131.38 640.815 135.86C639.322 140.34 637.128 144.307 634.235 147.76C631.435 151.12 627.982 153.827 623.875 155.88C619.768 157.933 615.102 158.96 609.875 158.96C605.582 158.96 601.522 158.12 597.695 156.44C593.868 154.667 590.882 152.287 588.735 149.3H588.455V190.6H565.495V87.28H587.335V95.82H587.755C589.902 93.02 592.842 90.5933 596.575 88.54C600.402 86.3933 604.882 85.32 610.015 85.32C615.055 85.32 619.628 86.3 623.735 88.26C627.842 90.22 631.295 92.88 634.095 96.24C636.988 99.6 639.182 103.52 640.675 108C642.262 112.387 643.055 117.007 643.055 121.86ZM620.795 121.86C620.795 119.62 620.422 117.427 619.675 115.28C619.022 113.133 617.995 111.267 616.595 109.68C615.288 108 613.608 106.647 611.555 105.62C609.502 104.593 607.122 104.08 604.415 104.08C601.802 104.08 599.468 104.593 597.415 105.62C595.362 106.647 593.588 108 592.095 109.68C590.695 111.36 589.575 113.273 588.735 115.42C587.988 117.567 587.615 119.76 587.615 122C587.615 124.24 587.988 126.433 588.735 128.58C589.575 130.727 590.695 132.64 592.095 134.32C593.588 136 595.362 137.353 597.415 138.38C599.468 139.407 601.802 139.92 604.415 139.92C607.122 139.92 609.502 139.407 611.555 138.38C613.608 137.353 615.288 136 616.595 134.32C617.995 132.64 619.022 130.727 619.675 128.58C620.422 126.34 620.795 124.1 620.795 121.86ZM705.527 114.16C705.527 110.52 704.36 107.393 702.027 104.78C699.787 102.167 696.38 100.86 691.807 100.86C689.567 100.86 687.514 101.233 685.647 101.98C683.78 102.633 682.147 103.567 680.747 104.78C679.347 105.993 678.227 107.44 677.387 109.12C676.547 110.707 676.08 112.387 675.987 114.16H705.527ZM726.667 122.98C726.667 123.913 726.667 124.847 726.667 125.78C726.667 126.713 726.62 127.6 726.527 128.44H675.987C676.174 130.4 676.734 132.173 677.667 133.76C678.694 135.347 679.954 136.747 681.447 137.96C683.034 139.08 684.76 139.967 686.627 140.62C688.587 141.273 690.594 141.6 692.647 141.6C696.287 141.6 699.367 140.947 701.887 139.64C704.407 138.24 706.46 136.467 708.047 134.32L724.007 144.4C720.74 149.16 716.4 152.847 710.987 155.46C705.667 157.98 699.46 159.24 692.367 159.24C687.14 159.24 682.194 158.447 677.527 156.86C672.86 155.18 668.754 152.8 665.207 149.72C661.754 146.547 659 142.673 656.947 138.1C654.987 133.527 654.007 128.3 654.007 122.42C654.007 116.727 654.987 111.593 656.947 107.02C658.907 102.353 661.567 98.4333 664.927 95.26C668.287 91.9933 672.254 89.4733 676.827 87.7C681.4 85.9267 686.347 85.04 691.667 85.04C696.8 85.04 701.514 85.9267 705.807 87.7C710.1 89.38 713.787 91.8533 716.867 95.12C719.947 98.3867 722.327 102.353 724.007 107.02C725.78 111.687 726.667 117.007 726.667 122.98ZM786.125 106.04C785.099 105.76 784.072 105.573 783.045 105.48C782.112 105.387 781.179 105.34 780.245 105.34C777.165 105.34 774.552 105.9 772.405 107.02C770.352 108.14 768.672 109.493 767.365 111.08C766.152 112.667 765.265 114.393 764.705 116.26C764.145 118.127 763.865 119.76 763.865 121.16V157H740.905V87.28H763.025V97.36H763.305C765.079 93.8133 767.599 90.92 770.865 88.68C774.132 86.44 777.912 85.32 782.205 85.32C783.139 85.32 784.025 85.3667 784.865 85.46C785.799 85.5533 786.545 85.6933 787.105 85.88L786.125 106.04Z" fill="white"/>
</svg>
