<svg width="100" height="100" viewBox="0 0 100 100" fill="none" xmlns="http://www.w3.org/2000/svg">
<rect width="100" height="100" rx="20" fill="white"/>
<g clip-path="url(#clip0)">
<path d="M71 15H29C21.268 15 15 21.268 15 29V71C15 78.732 21.268 85 29 85H71C78.732 85 85 78.732 85 71V29C85 21.268 78.732 15 71 15Z" fill="#2962EF"/>
<g filter="url(#filter0_d)">
<path d="M45.2082 63.4771C45.2382 63.4356 47.1785 60.6544 49.9052 56.7441L40.0789 56.7818C35.9332 62.6095 32.493 67.4441 32.3868 67.5908C31.8612 68.4169 32.0772 69.3961 32.0772 69.3961C32.0772 69.9884 32.6372 70.521 33.2588 70.521H67.4382C67.6672 70.521 67.8532 70.344 67.8532 70.1255C67.8532 70.0155 67.8052 69.9103 67.7203 69.8361L60.7544 63.7013C60.678 63.6334 60.5769 63.596 60.4723 63.596L45.2082 63.595C45.2082 63.595 45.106 63.6151 45.2082 63.4771Z" fill="white"/>
<path d="M54.6425 36.6881C54.5893 36.7617 52.6171 39.4952 49.8665 43.3086L59.4392 43.3602C63.7381 37.2761 67.384 32.1137 67.5598 31.8515C67.9383 31.2906 67.8422 30.6929 67.8422 30.6929C67.8422 30.1087 67.2818 29.5834 66.6596 29.5834H32.4493C32.0803 29.5834 31.8941 30.0015 32.155 30.2472L38.5548 36.3012C38.633 36.3752 38.7393 36.4169 38.8501 36.4169H45.2465L54.6425 36.4546C54.6425 36.4546 54.8211 36.4407 54.6425 36.6881Z" fill="white"/>
</g>
</g>
<defs>
<filter id="filter0_d" x="-42.6334" y="-26.4165" width="185.153" height="190.271" filterUnits="userSpaceOnUse" color-interpolation-filters="sRGB">
<feFlood flood-opacity="0" result="BackgroundImageFix"/>
<feColorMatrix in="SourceAlpha" type="matrix" values="0 0 0 0 0 0 0 0 0 0 0 0 0 0 0 0 0 0 127 0" result="hardAlpha"/>
<feOffset dy="18.6667"/>
<feGaussianBlur stdDeviation="37.3333"/>
<feColorMatrix type="matrix" values="0 0 0 0 0.0223611 0 0 0 0 0.0618016 0 0 0 0 0.191667 0 0 0 0.12 0"/>
<feBlend mode="normal" in2="BackgroundImageFix" result="effect1_dropShadow"/>
<feBlend mode="normal" in="SourceGraphic" in2="effect1_dropShadow" result="shape"/>
</filter>
<clipPath id="clip0">
<rect width="70" height="70" fill="white" transform="translate(15 15)"/>
</clipPath>
</defs>
</svg>
