<svg width="36" height="36" viewBox="0 0 36 36" fill="none" xmlns="http://www.w3.org/2000/svg">
<path d="M28 22V34M22 28H34M6 14H10C11.0609 14 12.0783 13.5786 12.8284 12.8284C13.5786 12.0783 14 11.0609 14 10V6C14 4.93913 13.5786 3.92172 12.8284 3.17157C12.0783 2.42143 11.0609 2 10 2H6C4.93913 2 3.92172 2.42143 3.17157 3.17157C2.42143 3.92172 2 4.93913 2 6V10C2 11.0609 2.42143 12.0783 3.17157 12.8284C3.92172 13.5786 4.93913 14 6 14ZM26 14H30C31.0609 14 32.0783 13.5786 32.8284 12.8284C33.5786 12.0783 34 11.0609 34 10V6C34 4.93913 33.5786 3.92172 32.8284 3.17157C32.0783 2.42143 31.0609 2 30 2H26C24.9391 2 23.9217 2.42143 23.1716 3.17157C22.4214 3.92172 22 4.93913 22 6V10C22 11.0609 22.4214 12.0783 23.1716 12.8284C23.9217 13.5786 24.9391 14 26 14ZM6 34H10C11.0609 34 12.0783 33.5786 12.8284 32.8284C13.5786 32.0783 14 31.0609 14 30V26C14 24.9391 13.5786 23.9217 12.8284 23.1716C12.0783 22.4214 11.0609 22 10 22H6C4.93913 22 3.92172 22.4214 3.17157 23.1716C2.42143 23.9217 2 24.9391 2 26V30C2 31.0609 2.42143 32.0783 3.17157 32.8284C3.92172 33.5786 4.93913 34 6 34Z" stroke="#B18CFF" stroke-width="3" stroke-linecap="round" stroke-linejoin="round"/>
</svg>
