<svg width="41" height="40" viewBox="0 0 41 40" fill="none" xmlns="http://www.w3.org/2000/svg">
<path d="M11.9987 9.58333V1.25M28.6654 9.58333V1.25M9.91536 17.9167H30.7487M5.7487 38.75H34.9154C36.0204 38.75 37.0802 38.311 37.8616 37.5296C38.643 36.7482 39.082 35.6884 39.082 34.5833V9.58333C39.082 8.47826 38.643 7.41846 37.8616 6.63705C37.0802 5.85565 36.0204 5.41667 34.9154 5.41667H5.7487C4.64363 5.41667 3.58382 5.85565 2.80242 6.63705C2.02102 7.41846 1.58203 8.47826 1.58203 9.58333V34.5833C1.58203 35.6884 2.02102 36.7482 2.80242 37.5296C3.58382 38.311 4.64363 38.75 5.7487 38.75Z" stroke="#0DC5A5" stroke-width="2" stroke-linecap="round" stroke-linejoin="round"/>
</svg>
