<svg width="39" height="38" viewBox="0 0 39 38" fill="none" xmlns="http://www.w3.org/2000/svg">
<path d="M29.332 9H33.332C34.3929 9 35.4103 9.42143 36.1605 10.1716C36.9106 10.9217 37.332 11.9391 37.332 13V25C37.332 26.0609 36.9106 27.0783 36.1605 27.8284C35.4103 28.5786 34.3929 29 33.332 29H29.332V37L21.332 29H13.332C12.8067 29.0005 12.2864 28.8973 11.8011 28.6962C11.3158 28.495 10.875 28.2 10.504 27.828M10.504 27.828L17.332 21H25.332C26.3929 21 27.4103 20.5786 28.1605 19.8284C28.9106 19.0783 29.332 18.0609 29.332 17V5C29.332 3.93913 28.9106 2.92172 28.1605 2.17157C27.4103 1.42143 26.3929 1 25.332 1H5.33203C4.27117 1 3.25375 1.42143 2.5036 2.17157C1.75346 2.92172 1.33203 3.93913 1.33203 5V17C1.33203 18.0609 1.75346 19.0783 2.5036 19.8284C3.25375 20.5786 4.27117 21 5.33203 21H9.33203V29L10.504 27.828Z" stroke="#0DC5A5" stroke-width="2" stroke-linecap="round" stroke-linejoin="round"/>
</svg>
