<svg width="48" height="48" viewBox="0 0 48 48" fill="none" xmlns="http://www.w3.org/2000/svg">
<circle cx="24" cy="24" r="24" fill="#F5F0FF" fill-opacity="0.1"/>
<path fill-rule="evenodd" clip-rule="evenodd" d="M9.125 18.5625C9.125 15.6286 11.5034 13.25 14.4375 13.25H33.5625C36.4964 13.25 38.875 15.6284 38.875 18.5625V22.8125C38.875 23.3993 38.3993 23.875 37.8125 23.875C37.2257 23.875 36.75 23.3993 36.75 22.8125V21.75H11.25V33.4375C11.25 35.1979 12.6771 36.625 14.4375 36.625H18.6875C19.2743 36.625 19.75 37.1007 19.75 37.6875C19.75 38.2743 19.2743 38.75 18.6875 38.75H14.4375C11.5036 38.75 9.125 36.3714 9.125 33.4375V18.5625ZM36.75 18.5625V19.625H11.25V18.5625C11.25 16.8021 12.6771 15.375 14.4375 15.375H33.5625C35.3229 15.375 36.75 16.8021 36.75 18.5625ZM14.4375 18.5625C15.0243 18.5625 15.5 18.0868 15.5 17.5C15.5 16.9132 15.0243 16.4375 14.4375 16.4375C13.8507 16.4375 13.375 16.9132 13.375 17.5C13.375 18.0868 13.8507 18.5625 14.4375 18.5625ZM18.6875 17.5C18.6875 18.0868 18.2118 18.5625 17.625 18.5625C17.0382 18.5625 16.5625 18.0868 16.5625 17.5C16.5625 16.9132 17.0382 16.4375 17.625 16.4375C18.2118 16.4375 18.6875 16.9132 18.6875 17.5ZM20.8125 18.5625C21.3993 18.5625 21.875 18.0868 21.875 17.5C21.875 16.9132 21.3993 16.4375 20.8125 16.4375C20.2257 16.4375 19.75 16.9132 19.75 17.5C19.75 18.0868 20.2257 18.5625 20.8125 18.5625Z" fill="#9B6AFF"/>
<mask id="mask0_3698_18884" style="mask-type:alpha" maskUnits="userSpaceOnUse" x="13" y="16" width="10" height="3">
<rect x="13" y="16" width="10" height="3" fill="#D9D9D9"/>
</mask>
<g mask="url(#mask0_3698_18884)">
<path fill-rule="evenodd" clip-rule="evenodd" d="M9.125 18.5625C9.125 15.6286 11.5034 13.25 14.4375 13.25H33.5625C36.4964 13.25 38.875 15.6284 38.875 18.5625V22.8125C38.875 23.3993 38.3993 23.875 37.8125 23.875C37.2257 23.875 36.75 23.3993 36.75 22.8125V21.75H11.25V33.4375C11.25 35.1979 12.6771 36.625 14.4375 36.625H18.6875C19.2743 36.625 19.75 37.1007 19.75 37.6875C19.75 38.2743 19.2743 38.75 18.6875 38.75H14.4375C11.5036 38.75 9.125 36.3714 9.125 33.4375V18.5625ZM36.75 18.5625V19.625H11.25V18.5625C11.25 16.8021 12.6771 15.375 14.4375 15.375H33.5625C35.3229 15.375 36.75 16.8021 36.75 18.5625ZM14.4375 18.5625C15.0243 18.5625 15.5 18.0868 15.5 17.5C15.5 16.9132 15.0243 16.4375 14.4375 16.4375C13.8507 16.4375 13.375 16.9132 13.375 17.5C13.375 18.0868 13.8507 18.5625 14.4375 18.5625ZM18.6875 17.5C18.6875 18.0868 18.2118 18.5625 17.625 18.5625C17.0382 18.5625 16.5625 18.0868 16.5625 17.5C16.5625 16.9132 17.0382 16.4375 17.625 16.4375C18.2118 16.4375 18.6875 16.9132 18.6875 17.5ZM20.8125 18.5625C21.3993 18.5625 21.875 18.0868 21.875 17.5C21.875 16.9132 21.3993 16.4375 20.8125 16.4375C20.2257 16.4375 19.75 16.9132 19.75 17.5C19.75 18.0868 20.2257 18.5625 20.8125 18.5625Z" fill="#F4B951"/>
</g>
<path fill-rule="evenodd" clip-rule="evenodd" d="M34.0625 29.6875C34.0625 29.1007 33.5868 28.625 33 28.625C32.4132 28.625 31.9375 29.1007 31.9375 29.6875V30.9314C31.8308 30.9691 31.7268 31.0122 31.6257 31.0607L30.7462 30.1809C30.3311 29.7659 29.6584 29.7659 29.2434 30.1809C28.8284 30.5959 28.8284 31.2686 29.2434 31.6837L30.1232 32.5632C30.0747 32.6643 30.0316 32.7683 29.9939 32.875H28.75C28.1632 32.875 27.6875 33.3507 27.6875 33.9375C27.6875 34.5243 28.1632 35 28.75 35H29.9939C30.0316 35.1067 30.0747 35.2107 30.1232 35.3118L29.2435 36.1913C28.8286 36.6063 28.8286 37.2791 29.2435 37.694C29.6584 38.109 30.3312 38.109 30.7462 37.694L31.6257 36.8143C31.7268 36.8628 31.8308 36.9058 31.9375 36.9436V38.1875C31.9375 38.7743 32.4132 39.25 33 39.25C33.5868 39.25 34.0625 38.7743 34.0625 38.1875V36.9436C34.1692 36.9058 34.2732 36.8628 34.3743 36.8143L35.2538 37.694C35.6688 38.109 36.3416 38.109 36.7565 37.694C37.1715 37.279 37.1715 36.6062 36.7565 36.1913L35.8768 35.3118C35.9253 35.2107 35.9683 35.1067 36.0061 35H37.25C37.8368 35 38.3125 34.5243 38.3125 33.9375C38.3125 33.3507 37.8368 32.875 37.25 32.875H36.0061C35.9683 32.7683 35.9253 32.6643 35.8768 32.5632L36.7565 31.6837C37.1714 31.2687 37.1714 30.5959 36.7565 30.181C36.3415 29.766 35.6687 29.766 35.2538 30.181L34.3743 31.0607C34.2732 31.0122 34.1692 30.9691 34.0625 30.9314V29.6875ZM32.2436 33.1912C32.0544 33.3831 31.9375 33.6465 31.9375 33.9374C31.9375 34.5242 32.4132 34.9999 33 34.9999C33.2835 34.9999 33.5412 34.8888 33.7318 34.7077C33.738 34.7011 33.7444 34.6947 33.7507 34.6882C33.7572 34.6818 33.7637 34.6754 33.7703 34.6692C33.9514 34.4786 34.0625 34.221 34.0625 33.9374C34.0625 33.6641 33.9593 33.4149 33.7898 33.2267C33.776 33.2142 33.7624 33.2014 33.7493 33.1881C33.736 33.1748 33.7231 33.1613 33.7106 33.1476C33.5224 32.9781 33.2732 32.8749 33 32.8749C32.7091 32.8749 32.4456 32.9918 32.2537 33.1812L32.2487 33.1861C32.2469 33.1878 32.2453 33.1896 32.2436 33.1912L32.2436 33.1912Z" fill="#35F0D0"/>
</svg>
