<svg width="62" height="78" viewBox="0 0 62 78" fill="none" xmlns="http://www.w3.org/2000/svg">
<path d="M18.4987 39H43.4987M18.4987 55.6667H43.4987M51.832 76.5H10.1654C7.95523 76.5 5.83561 75.622 4.27281 74.0592C2.71 72.4964 1.83203 70.3768 1.83203 68.1667V9.83333C1.83203 7.6232 2.71 5.50358 4.27281 3.94078C5.83561 2.37797 7.95523 1.5 10.1654 1.5H33.4404C34.5453 1.50024 35.605 1.93938 36.3862 2.72083L58.9445 25.2792C59.726 26.0604 60.1651 27.12 60.1654 28.225V68.1667C60.1654 70.3768 59.2874 72.4964 57.7246 74.0592C56.1618 75.622 54.0422 76.5 51.832 76.5Z" stroke="#0DC5A5" stroke-width="2" stroke-linecap="round" stroke-linejoin="round"/>
</svg>
