<svg width="48" height="48" viewBox="0 0 48 48" fill="none" xmlns="http://www.w3.org/2000/svg">
<circle cx="24" cy="24" r="24" fill="#F5F0FF" fill-opacity="0.1"/>
<path fill-rule="evenodd" clip-rule="evenodd" d="M9.125 18.5625C9.125 15.6286 11.5034 13.25 14.4375 13.25H33.5625C36.4964 13.25 38.875 15.6284 38.875 18.5625V22.8125C38.875 23.3993 38.3993 23.875 37.8125 23.875C37.2257 23.875 36.75 23.3993 36.75 22.8125V21.75H11.25V33.4375C11.25 35.1979 12.6771 36.625 14.4375 36.625H18.6875C19.2743 36.625 19.75 37.1007 19.75 37.6875C19.75 38.2743 19.2743 38.75 18.6875 38.75H14.4375C11.5036 38.75 9.125 36.3714 9.125 33.4375V18.5625ZM36.75 18.5625V19.625H11.25V18.5625C11.25 16.8021 12.6771 15.375 14.4375 15.375H33.5625C35.3229 15.375 36.75 16.8021 36.75 18.5625ZM14.4375 18.5625C15.0243 18.5625 15.5 18.0868 15.5 17.5C15.5 16.9132 15.0243 16.4375 14.4375 16.4375C13.8507 16.4375 13.375 16.9132 13.375 17.5C13.375 18.0868 13.8507 18.5625 14.4375 18.5625ZM18.6875 17.5C18.6875 18.0868 18.2118 18.5625 17.625 18.5625C17.0382 18.5625 16.5625 18.0868 16.5625 17.5C16.5625 16.9132 17.0382 16.4375 17.625 16.4375C18.2118 16.4375 18.6875 16.9132 18.6875 17.5ZM20.8125 18.5625C21.3993 18.5625 21.875 18.0868 21.875 17.5C21.875 16.9132 21.3993 16.4375 20.8125 16.4375C20.2257 16.4375 19.75 16.9132 19.75 17.5C19.75 18.0868 20.2257 18.5625 20.8125 18.5625Z" fill="#9B6AFF"/>
<mask id="mask0_3688_7810" style="mask-type:alpha" maskUnits="userSpaceOnUse" x="13" y="16" width="10" height="3">
<rect x="13" y="16" width="10" height="3" fill="#D9D9D9"/>
</mask>
<g mask="url(#mask0_3688_7810)">
<path fill-rule="evenodd" clip-rule="evenodd" d="M9.125 18.5625C9.125 15.6286 11.5034 13.25 14.4375 13.25H33.5625C36.4964 13.25 38.875 15.6284 38.875 18.5625V22.8125C38.875 23.3993 38.3993 23.875 37.8125 23.875C37.2257 23.875 36.75 23.3993 36.75 22.8125V21.75H11.25V33.4375C11.25 35.1979 12.6771 36.625 14.4375 36.625H18.6875C19.2743 36.625 19.75 37.1007 19.75 37.6875C19.75 38.2743 19.2743 38.75 18.6875 38.75H14.4375C11.5036 38.75 9.125 36.3714 9.125 33.4375V18.5625ZM36.75 18.5625V19.625H11.25V18.5625C11.25 16.8021 12.6771 15.375 14.4375 15.375H33.5625C35.3229 15.375 36.75 16.8021 36.75 18.5625ZM14.4375 18.5625C15.0243 18.5625 15.5 18.0868 15.5 17.5C15.5 16.9132 15.0243 16.4375 14.4375 16.4375C13.8507 16.4375 13.375 16.9132 13.375 17.5C13.375 18.0868 13.8507 18.5625 14.4375 18.5625ZM18.6875 17.5C18.6875 18.0868 18.2118 18.5625 17.625 18.5625C17.0382 18.5625 16.5625 18.0868 16.5625 17.5C16.5625 16.9132 17.0382 16.4375 17.625 16.4375C18.2118 16.4375 18.6875 16.9132 18.6875 17.5ZM20.8125 18.5625C21.3993 18.5625 21.875 18.0868 21.875 17.5C21.875 16.9132 21.3993 16.4375 20.8125 16.4375C20.2257 16.4375 19.75 16.9132 19.75 17.5C19.75 18.0868 20.2257 18.5625 20.8125 18.5625Z" fill="#F4B951"/>
</g>
<path fill-rule="evenodd" clip-rule="evenodd" d="M24 36.625C22.2396 36.625 20.8125 35.1979 20.8125 33.4375C20.8125 31.6771 22.2396 30.25 24 30.25V29.1875C24 27.4271 25.4271 26 27.1875 26H28.25C29.4236 26 30.375 26.9514 30.375 28.125C30.375 28.7118 30.8507 29.1875 31.4375 29.1875C32.0243 29.1875 32.5 28.7118 32.5 28.125C32.5 26.9514 33.4514 26 34.625 26H35.6875C37.4479 26 38.875 27.4271 38.875 29.1875V37.6875C38.875 39.4479 37.4479 40.875 35.6875 40.875H27.1875C25.4271 40.875 24 39.4479 24 37.6875V36.625ZM22.9375 33.4375C22.9375 34.0243 23.4132 34.5 24 34.5C25.1736 34.5 26.125 35.4514 26.125 36.625V37.6875C26.125 38.2743 26.6007 38.75 27.1875 38.75H35.6875C36.2743 38.75 36.75 38.2743 36.75 37.6875V29.1875C36.75 28.6007 36.2743 28.125 35.6875 28.125H34.625C34.625 29.8854 33.1979 31.3125 31.4375 31.3125C29.6771 31.3125 28.25 29.8854 28.25 28.125H27.1875C26.6007 28.125 26.125 28.6007 26.125 29.1875V30.25C26.125 31.4236 25.1736 32.375 24 32.375C23.4132 32.375 22.9375 32.8507 22.9375 33.4375Z" fill="#35F0D0"/>
</svg>
