<svg width="41" height="40" viewBox="0 0 41 40" fill="none" xmlns="http://www.w3.org/2000/svg">
<path d="M1.58203 7.5L7.83203 9.58333M7.83203 9.58333L1.58203 28.3333C3.38558 29.6855 5.57894 30.4164 7.83307 30.4164C10.0872 30.4164 12.2806 29.6855 14.0841 28.3333L7.83203 9.58333ZM7.83203 9.58333L14.082 28.3333M7.83203 9.58333L20.332 5.41667M20.332 5.41667L32.832 9.58333M20.332 5.41667V1.25M20.332 5.41667V38.75M32.832 9.58333L39.082 7.5M32.832 9.58333L26.582 28.3333C28.3856 29.6855 30.5789 30.4164 32.8331 30.4164C35.0872 30.4164 37.2806 29.6855 39.0841 28.3333L32.832 9.58333ZM20.332 38.75H14.082M20.332 38.75H26.582" stroke="#0DC5A5" stroke-width="2" stroke-linecap="round" stroke-linejoin="round"/>
</svg>
