<svg width="50" height="50" viewBox="0 0 50 50" fill="none" xmlns="http://www.w3.org/2000/svg">
<path d="M16.6667 43.7499L25 35.4166L33.3333 43.7499M6.25 8.33325H43.75M19.4805 27.5974V22.0779H31.9805V15.422M31.9805 15.422L29.5455 17.8571M31.9805 15.422L34.4156 17.8571M8.33333 8.33325H41.6667V33.3333C41.6667 33.8858 41.4472 34.4157 41.0565 34.8064C40.6658 35.1971 40.1359 35.4166 39.5833 35.4166H10.4167C9.86413 35.4166 9.33423 35.1971 8.94353 34.8064C8.55283 34.4157 8.33333 33.8858 8.33333 33.3333V8.33325Z" stroke="#0DC5A5" stroke-width="2" stroke-linecap="round" stroke-linejoin="round"/>
<path d="M24.5 17.5C24.5 18.6046 23.6046 19.5 22.5 19.5C21.3954 19.5 20.5 18.6046 20.5 17.5C20.5 16.3954 21.3954 15.5 22.5 15.5C23.6046 15.5 24.5 16.3954 24.5 17.5Z" stroke="#35F0D0"/>
<path d="M24.4414 25L28.4924 29.051" stroke="#35F0D0" stroke-linecap="round"/>
<path d="M28.2852 25L24.2341 29.051" stroke="#35F0D0" stroke-linecap="round"/>
</svg>
