<svg width="39" height="40" viewBox="0 0 39 40" fill="none" xmlns="http://www.w3.org/2000/svg">
<path d="M1.5 29L11.8185 18.6815C12.6624 17.8379 13.8068 17.364 15 17.364C16.1932 17.364 17.3376 17.8379 18.1815 18.6815L28.5 29M24 24.5L27.5685 20.9315C28.4124 20.0879 29.5568 19.614 30.75 19.614C31.9432 19.614 33.0876 20.0879 33.9315 20.9315L37.5 24.5M24 11H24.0225M6 38H33C34.1935 38 35.3381 37.5259 36.182 36.682C37.0259 35.8381 37.5 34.6935 37.5 33.5V6.5C37.5 5.30653 37.0259 4.16193 36.182 3.31802C35.3381 2.47411 34.1935 2 33 2H6C4.80653 2 3.66193 2.47411 2.81802 3.31802C1.97411 4.16193 1.5 5.30653 1.5 6.5V33.5C1.5 34.6935 1.97411 35.8381 2.81802 36.682C3.66193 37.5259 4.80653 38 6 38Z" stroke="#B18CFF" stroke-width="3" stroke-linecap="round" stroke-linejoin="round"/>
</svg>
