<svg width="50" height="50" viewBox="0 0 50 50" fill="none" xmlns="http://www.w3.org/2000/svg">
<path d="M24.9996 32.1881C24.5045 32.1881 12.7522 32.0854 3.76545 23.0969C3.57514 22.9066 3.38988 22.7163 3.20799 22.5226C1.32676 20.5353 0.432455 18.174 0.622768 15.6932C0.789502 13.5055 1.79664 11.3834 3.46061 9.71945C5.12459 8.05548 7.24497 7.04834 9.43441 6.8816C11.7266 6.70645 13.9177 7.4576 15.8057 9.05757C16.0095 6.59193 17.0284 4.51196 18.7715 3.01472C20.4372 1.58485 22.6502 0.79834 25.0013 0.79834C27.3524 0.79834 29.5671 1.58485 31.2311 3.01472C32.9759 4.51196 33.9932 6.59193 34.1986 9.05757C36.0866 7.4576 38.2777 6.70645 40.5699 6.8816C42.7576 7.04834 44.8797 8.05548 46.542 9.71945C48.206 11.3834 49.2131 13.5038 49.3798 15.6932C49.5685 18.174 48.6742 20.5353 46.7946 22.5226C46.6127 22.7146 46.4258 22.9066 46.2371 23.0969C37.247 32.0854 25.4965 32.1881 24.9996 32.1881ZM10.0811 8.72578C8.04327 8.72578 6.13004 9.67229 4.76922 11.0331C2.32211 13.4802 1.21223 17.721 4.55365 21.2527C4.72375 21.4329 4.89722 21.6115 5.07574 21.79C13.527 30.2412 24.8868 30.3389 25.0013 30.3389C25.1141 30.3389 36.4958 30.2193 44.9269 21.79C45.1054 21.6115 45.2789 21.4329 45.449 21.2527C48.7904 17.7227 47.6788 13.4802 45.2317 11.0348C42.7846 8.58768 38.5438 7.47781 35.0138 10.8175C34.8336 10.9876 34.655 11.1611 34.4765 11.3396C34.3384 11.4777 34.207 11.6175 34.0757 11.7573L32.3107 13.6183L32.3797 11.0617C32.3848 10.8681 32.3915 10.6727 32.3915 10.4756C32.3915 10.2247 32.3881 9.97545 32.3814 9.72619C32.2467 4.86732 28.4623 2.65262 25.003 2.65262C21.5437 2.65262 17.7576 4.86564 17.6246 9.72619C17.6178 9.97376 17.6145 10.223 17.6145 10.4756C17.6145 10.6676 17.6195 10.858 17.6246 11.0466L17.692 13.6183L15.9337 11.7624C15.8006 11.6209 15.6659 11.4794 15.5278 11.3396C15.3493 11.1611 15.1707 10.9876 14.9905 10.8175C13.4192 9.33041 11.7097 8.72578 10.0811 8.72578Z" fill="#ABFE2C"/>
<path d="M49.072 45.8265C45.7592 47.349 41.9749 47.7464 38.3943 46.9414C34.9215 46.1599 31.8765 44.3511 29.5372 41.6952C29.7662 41.8535 30.002 42.0067 30.2445 42.1533C32.2453 43.3591 34.4685 43.9654 36.6916 43.9654C38.6671 43.9654 40.6444 43.4871 42.4667 42.5238C42.5963 42.4564 42.7243 42.3857 42.8523 42.3133L41.9361 40.7032C41.825 40.7672 41.7138 40.8278 41.601 40.8868C38.3084 42.6265 34.4213 42.5086 31.2012 40.5684C27.9052 38.5828 25.9364 35.1083 25.9364 31.2751V30.561H25.9196H24.0838H24.067V31.2751C24.067 35.1083 22.0982 38.5828 18.8022 40.5684C15.5821 42.5086 11.695 42.6282 8.40238 40.8868C8.28954 40.8278 8.17839 40.7672 8.06723 40.7032L7.15104 42.3133C7.27904 42.3857 7.40703 42.4564 7.53672 42.5238C9.359 43.4871 11.3345 43.9654 13.3118 43.9654C15.5349 43.9654 17.7563 43.3591 19.7588 42.1533C20.0013 42.0084 20.2371 41.8552 20.4662 41.6952C18.1269 44.3511 15.0819 46.1599 11.6091 46.9414C8.0285 47.7481 4.24414 47.3506 0.931353 45.8265L0 47.4399C2.47575 48.6054 5.19402 49.2016 7.92408 49.2016C9.295 49.2016 10.6676 49.0517 12.015 48.7485C16.1681 47.8138 19.774 45.557 22.4384 42.2257C23.0615 41.4476 23.6038 40.6122 24.0653 39.7381V49.2016H25.9179V39.7061C26.3844 40.592 26.9318 41.4392 27.5616 42.2257C30.2277 45.557 33.8319 47.8121 37.985 48.7485C39.3324 49.0517 40.705 49.2016 42.0759 49.2016C44.806 49.2016 47.5243 48.6054 50 47.4399L49.072 45.8265Z" fill="#ABFE2C"/>
<path d="M23.797 22.376H22.4496C22.4496 20.3702 20.4977 18.7365 18.0977 18.7365C15.6978 18.7365 13.7458 20.3685 13.7458 22.376H12.3984C12.3984 19.6274 14.955 17.3892 18.0977 17.3892C21.2404 17.3892 23.797 19.6258 23.797 22.376Z" fill="#ABFE2C"/>
<path d="M19.6455 22.4043C20.7161 22.4043 21.584 21.5364 21.584 20.4658C21.584 19.3952 20.7161 18.5273 19.6455 18.5273C18.5749 18.5273 17.707 19.3952 17.707 20.4658C17.707 21.5364 18.5749 22.4043 19.6455 22.4043Z" fill="#ABFE2C"/>
<path d="M37.6173 22.376H36.2699C36.2699 20.3702 34.318 18.7365 31.918 18.7365C29.5181 18.7365 27.5661 20.3685 27.5661 22.376H26.2188C26.2188 19.6274 28.7753 17.3892 31.918 17.3892C35.0607 17.3892 37.6173 19.6258 37.6173 22.376Z" fill="#ABFE2C"/>
<path d="M33.4697 22.4043C34.5403 22.4043 35.4082 21.5364 35.4082 20.4658C35.4082 19.3952 34.5403 18.5273 33.4697 18.5273C32.3991 18.5273 31.5312 19.3952 31.5312 20.4658C31.5312 21.5364 32.3991 22.4043 33.4697 22.4043Z" fill="#ABFE2C"/>
<path d="M24.9817 27.3293C23.3935 27.3293 21.9215 26.5125 21.2344 25.251L22.4184 24.606C22.8748 25.4413 23.8802 25.9819 24.9834 25.9819C26.0865 25.9819 27.092 25.4413 27.5484 24.606L28.7307 25.251C28.0418 26.5125 26.5699 27.3293 24.9817 27.3293Z" fill="#ABFE2C"/>
</svg>
