<svg width="76" height="44" viewBox="0 0 76 44" fill="none" xmlns="http://www.w3.org/2000/svg">
<path d="M42.8042 22C42.8042 33.7621 33.334 43.2971 21.6521 43.2971C9.97013 43.2971 0.5 33.7621 0.5 22C0.5 10.2378 9.97013 0.702766 21.6521 0.702766C33.334 0.702766 42.8042 10.2378 42.8042 22Z" fill="white"/>
<path d="M66.0078 22C66.0078 33.072 61.2726 42.0476 55.4315 42.0476C49.5906 42.0476 44.8555 33.072 44.8555 22C44.8555 10.9279 49.5906 1.95228 55.4315 1.95228C61.2726 1.95228 66.0078 10.9279 66.0078 22Z" fill="white"/>
<path d="M75.498 21.9998C75.498 31.9199 73.8329 39.9617 71.7783 39.9617C69.7244 39.9617 68.0586 31.9199 68.0586 21.9998C68.0586 12.0797 69.7244 4.03795 71.7783 4.03795C73.8329 4.03795 75.498 12.0797 75.498 21.9998Z" fill="white"/>
</svg>
