<svg width="50" height="50" viewBox="0 0 50 50" fill="none" xmlns="http://www.w3.org/2000/svg">
<g clip-path="url(#clip0_3306_58874)">
<path fill-rule="evenodd" clip-rule="evenodd" d="M30.675 0.113608L3.0085 2.15711C0.7765 2.35011 0 3.80861 0 5.55661V35.8866C0 37.2481 0.4835 38.4131 1.65 39.9701L8.1535 48.4266C9.222 49.7881 10.1935 50.0801 12.2335 49.9831L44.362 48.0381C47.0785 47.8446 47.857 46.5796 47.857 44.4416V10.3201C47.857 9.21511 47.4205 8.89661 46.1355 7.95361L37.0835 1.57161C34.947 0.018108 34.0735 -0.178392 30.675 0.113108V0.113608ZM12.96 9.76161C10.3365 9.93811 9.7415 9.97811 8.2515 8.76661L4.4635 5.75361C4.0785 5.36361 4.272 4.87711 5.242 4.78011L31.8385 2.83661C34.072 2.64161 35.235 3.42011 36.1085 4.10011L40.67 7.40511C40.865 7.50361 41.35 8.08511 40.7665 8.08511L13.3 9.73861L12.96 9.76161ZM9.9015 44.1501V15.1836C9.9015 13.9186 10.29 13.3351 11.453 13.2371L43 11.3901C44.07 11.2936 44.5535 11.9736 44.5535 13.2366V42.0101C44.5535 43.2751 44.3585 44.3451 42.612 44.4416L12.4235 46.1916C10.677 46.2881 9.902 45.7066 9.902 44.1501H9.9015ZM39.7015 16.7366C39.895 17.6116 39.7015 18.4866 38.8265 18.5866L37.3715 18.8751V40.2616C36.108 40.9416 34.945 41.3301 33.973 41.3301C32.4195 41.3301 32.0315 40.8436 30.868 39.3866L21.353 24.4166V38.9001L24.363 39.5816C24.363 39.5816 24.363 41.3316 21.9345 41.3316L15.2395 41.7201C15.0445 41.3301 15.2395 40.3586 15.918 40.1651L17.6665 39.6801V20.5301L15.24 20.3336C15.045 19.4586 15.53 18.1951 16.89 18.0971L24.0735 17.6136L33.9735 32.7771V19.3621L31.45 19.0721C31.255 18.0006 32.0315 17.2221 33.0015 17.1271L39.7015 16.7366Z" fill="white"/>
</g>
<defs>
<clipPath id="clip0_3306_58874">
<rect width="50" height="50" fill="white"/>
</clipPath>
</defs>
</svg>
