<?xml version="1.0" encoding="UTF-8" standalone="no"?>
<!-- Created with Inkscape (http://www.inkscape.org/) -->

<svg
   width="94.616241mm"
   height="94.616241mm"
   viewBox="0 0 94.616241 94.616241"
   version="1.1"
   id="svg1"
   xml:space="preserve"
   xmlns="http://www.w3.org/2000/svg"
   xmlns:svg="http://www.w3.org/2000/svg"><defs
     id="defs1" /><g
     id="layer2"
     transform="translate(-56.623615,-104.1144)"><rect
       style="fill:#4c249f;fill-opacity:1;stroke:none;stroke-width:5.48148;stroke-linecap:round;stroke-linejoin:round;stroke-dasharray:none;stroke-opacity:1"
       id="rect16"
       width="94.616241"
       height="94.616241"
       x="56.623615"
       y="104.1144"
       ry="24.530136" /></g><g
     id="layer1"
     transform="translate(-56.623615,-104.1144)"><path
       style="fill:#ffffff;fill-opacity:1"
       d="m 87.442081,182.91531 c -1.446608,-0.53498 -2.698771,-1.58024 -3.26952,-2.72928 -0.400279,-0.80585 -0.517412,-1.7308 -0.586104,-4.62823 l -0.08585,-3.62111 -1.501651,-1.12737 c -2.054586,-1.54249 -4.407878,-3.80901 -5.501054,-5.29821 l -0.909797,-1.2394 -3.366233,-0.087 c -2.591464,-0.067 -3.588483,-0.19764 -4.331872,-0.5676 -1.320024,-0.65694 -2.741938,-2.13319 -3.46176,-3.59405 -0.582818,-1.18282 -0.599684,-1.44029 -0.599684,-9.15455 0,-7.53272 0.02864,-7.99942 0.561638,-9.15178 0.723672,-1.5646 2.245114,-3.07651 3.780335,-3.75665 0.925614,-0.41007 1.97082,-0.56726 4.396722,-0.66124 l 3.182445,-0.12329 0.786305,-1.04985 c 1.24011,-1.65575 4.591626,-4.74172 6.5433,-6.02488 l 1.783629,-1.17267 v -5.01013 -5.01013 l 2.315104,0.15019 c 3.788371,0.24577 6.89582,1.73393 8.763686,4.19694 0.807269,1.06449 1.068677,1.2444 1.645349,1.13241 2.020498,-0.39237 6.793301,-0.5691 9.605101,-0.35567 6.988,0.53043 13.68081,2.9578 18.97358,6.88138 3.13753,2.32588 6.68706,6.41903 8.05608,9.2899 l 0.45276,0.94944 2.54469,0.10664 c 2.05917,0.0863 2.84057,0.24311 4.09547,0.82195 1.4938,0.68904 1.60074,0.70163 2.91041,0.34265 0.7478,-0.20497 1.85509,-0.44229 2.46065,-0.52738 l 1.10101,-0.1547 0.0896,1.58109 0.0896,1.58109 -1.12448,0.16812 c -1.20691,0.18044 -1.3178,0.39852 -0.72761,1.43095 0.46875,0.81999 0.50039,2.82272 0.0584,3.69622 -1.19292,2.35753 -5.23746,2.4743 -6.85833,0.19801 -0.85317,-1.19818 -0.96217,-3.34285 -0.23271,-4.57919 0.31453,-0.53308 0.50292,-1.03818 0.41867,-1.12243 -0.0843,-0.0843 -0.90961,-0.20137 -1.83412,-0.26024 l -1.68091,-0.10703 0.4121,1.68264 c 0.64469,2.63229 0.56464,7.51307 -0.16835,10.26392 -1.25831,4.72237 -3.29969,8.11306 -7.21864,11.98999 l -2.60755,2.57961 v 3.29435 c 0,4.59146 -0.29089,5.75314 -1.82462,7.28687 -0.87764,0.87765 -1.5883,1.32228 -2.46706,1.54355 -1.75386,0.44163 -6.185,0.39253 -7.79774,-0.0864 -1.81371,-0.53862 -3.32201,-2.16837 -3.78224,-4.08681 l -0.33643,-1.40241 -1.35481,0.16279 c -0.74514,0.0895 -3.15529,0.16382 -5.35588,0.16509 l -4.001083,0.002 -0.16198,1.01293 c -0.21983,1.37474 -1.5112,3.07977 -2.87867,3.8008 -0.972628,0.51284 -1.601865,0.60512 -4.567609,0.66989 -2.442819,0.0533 -3.727267,-0.0313 -4.432308,-0.29201 z m 7.151562,-4.28057 c 0.544625,-0.38147 0.588038,-0.61845 0.588038,-3.20984 v -2.79796 l 0.992187,0.14848 c 4.601032,0.68856 5.810592,0.76966 9.450182,0.63365 2.59179,-0.0969 4.80232,-0.33902 6.34527,-0.69513 1.30232,-0.30057 2.40364,-0.54649 2.4474,-0.54649 0.0438,0 0.0795,1.30969 0.0795,2.91041 0,3.90678 0.0596,3.96875 3.81724,3.96875 2.66537,0 2.77752,-0.0236 3.30729,-0.69714 0.5068,-0.64428 0.54837,-1.04431 0.54837,-5.2762 v -4.57906 l 1.54594,-1.18957 c 2.04629,-1.57459 4.98473,-4.76222 6.08851,-6.60484 6.03081,-10.06769 2.16307,-21.8774 -9.31596,-28.4452 -6.94757,-3.9751 -15.95657,-5.07565 -25.194575,-3.07779 -0.777458,0.16814 -0.839251,0.11695 -1.353958,-1.12157 -0.296626,-0.71376 -0.930797,-1.74361 -1.40927,-2.28856 -0.809185,-0.92162 -2.525179,-2.01798 -3.158469,-2.01798 -0.177755,0 -0.275124,1.35363 -0.275124,3.82479 v 3.82478 l -1.785937,1.05052 c -0.982266,0.57779 -2.202656,1.36058 -2.711979,1.73954 -1.589956,1.18301 -4.244362,3.90986 -5.460616,5.60966 l -1.165955,1.6295 -3.94398,0.0903 c -6.098474,0.13962 -6.062019,0.0844 -6.081789,9.21842 -0.0076,3.49859 0.105665,6.64662 0.258937,7.19849 0.501048,1.80407 1.215845,2.06186 5.718622,2.0624 l 3.927906,4.7e-4 0.79133,1.2563 c 1.261399,2.00257 4.509902,5.22451 6.914277,6.85773 l 2.216268,1.50546 v 4.3029 c 0,5.27733 -0.108861,5.12666 3.704166,5.12666 1.8599,0 2.683513,-0.10886 3.116129,-0.41187 z m 48.742197,-30.25048 c 0,-0.27492 -0.23571,-0.78094 -0.52379,-1.12448 -0.44703,-0.53308 -0.56277,-0.56646 -0.7897,-0.22775 -0.3037,0.45329 -0.35965,1.41367 -0.0976,1.6757 0.097,0.097 0.4542,0.17639 0.79375,0.17639 0.4289,0 0.61736,-0.15259 0.61736,-0.49986 z"
       id="path1" /><g
       id="path2"
       transform="matrix(1.2166027,0,0,1.2166027,-22.650448,-32.623262)"><path
         style="color:#000000;fill:#ffffff;stroke-linecap:round;stroke-linejoin:round;-inkscape-stroke:none"
         d="m 93.79428,141.19373 h 21.5535"
         id="path8" /><path
         id="path9"
         style="color:#000000;fill:#ffffff;stroke-linecap:round;stroke-linejoin:round;-inkscape-stroke:none"
         d="m 93.794792,139.19357 a 2,2 0 0 0 -1.999878,1.99988 2,2 0 0 0 1.999878,1.99988 h 2.017964 v -3.99976 z m 6.01772,0 v 3.99976 h 15.534968 a 2,2 0 0 0 2.0004,-1.99988 2,2 0 0 0 -2.0004,-1.99988 z" /></g><g
       id="path3"
       transform="matrix(1.2166027,0,0,1.2166027,-22.650448,-32.623262)"><path
         style="color:#000000;fill:#ffffff;stroke-linecap:round;stroke-linejoin:round;-inkscape-stroke:none"
         d="m 93.79428,150.05259 h 21.5535"
         id="path10" /><path
         id="path11"
         style="color:#000000;fill:#ffffff;stroke-linecap:round;stroke-linejoin:round;-inkscape-stroke:none"
         d="m 93.794792,148.05298 a 2,2 0 0 0 -1.999878,1.99988 2,2 0 0 0 1.999878,1.99987 h 2.017964 v -3.99975 z m 6.01772,0 v 3.99975 h 15.534968 a 2,2 0 0 0 2.0004,-1.99987 2,2 0 0 0 -2.0004,-1.99988 z" /></g><g
       id="path4"
       transform="matrix(1.2166027,0,0,1.2166027,-22.650448,-32.623262)"><path
         style="color:#000000;fill:#ffffff;stroke-linecap:round;stroke-linejoin:round;-inkscape-stroke:none"
         d="m 93.79428,159.55074 h 21.5535"
         id="path12" /><path
         id="path13"
         style="color:#000000;fill:#ffffff;stroke-linecap:round;stroke-linejoin:round;-inkscape-stroke:none"
         d="m 93.794792,157.55059 a 2,2 0 0 0 -1.999878,2.00039 2,2 0 0 0 1.999878,1.99988 h 2.017964 v -4.00027 z m 6.01772,0 v 4.00027 h 15.534968 a 2,2 0 0 0 2.0004,-1.99988 2,2 0 0 0 -2.0004,-2.00039 z" /></g><g
       id="g15"
       transform="matrix(1.2859266,0,0,1.2859266,-29.899745,-43.047651)"><path
         style="color:#000000;fill:#ffffff;stroke-linecap:round;stroke-linejoin:round;-inkscape-stroke:none"
         d="m 97.812727,137.44927 v 26.21125"
         id="path14" /></g></g></svg>
