<svg width="40" height="40" viewBox="0 0 40 40" fill="none" xmlns="http://www.w3.org/2000/svg">
<path d="M21.1716 3.17157C20.4214 3.92172 20 4.93913 20 6V8C20 8.53043 19.7893 9.03914 19.4142 9.41421C19.0391 9.78929 18.5304 10 18 10H12C11.4696 10 10.9609 10.2107 10.5858 10.5858C10.2107 10.9609 10 11.4696 10 12V18C10 18.5304 9.78929 19.0391 9.41421 19.4142C9.03914 19.7893 8.53043 20 8 20H6C4.93913 20 3.92172 20.4214 3.17157 21.1716C2.42143 21.9217 2 22.9391 2 24C2 25.0609 2.42143 26.0783 3.17157 26.8284C3.92172 27.5786 4.93913 28 6 28H8C8.53043 28 9.03914 28.2107 9.41421 28.5858C9.78929 28.9609 10 29.4696 10 30V36C10 36.5304 10.2107 37.0391 10.5858 37.4142C10.9609 37.7893 11.4696 38 12 38H18C18.5304 38 19.0391 37.7893 19.4142 37.4142C19.7893 37.0391 20 36.5304 20 36V34C20 32.9391 20.4214 31.9217 21.1716 31.1716C21.9217 30.4214 22.9391 30 24 30C25.0609 30 26.0783 30.4214 26.8284 31.1716C27.5786 31.9217 28 32.9391 28 34V36C28 36.5304 28.2107 37.0391 28.5858 37.4142C28.9609 37.7893 29.4696 38 30 38H36C36.5304 38 37.0391 37.7893 37.4142 37.4142C37.7893 37.0391 38 36.5304 38 36V30C38 29.4696 37.7893 28.9609 37.4142 28.5858C37.0391 28.2107 36.5304 28 36 28H34C32.9391 28 31.9217 27.5786 31.1716 26.8284C30.4214 26.0783 30 25.0609 30 24C30 22.9391 30.4214 21.9217 31.1716 21.1716C31.9217 20.4214 32.9391 20 34 20H36C36.5304 20 37.0391 19.7893 37.4142 19.4142C37.7893 19.0391 38 18.5304 38 18V12C38 11.4696 37.7893 10.9609 37.4142 10.5858C37.0391 10.2107 36.5304 10 36 10H30C29.4696 10 28.9609 9.78929 28.5858 9.41421C28.2107 9.03914 28 8.53043 28 8V6C28 4.93913 27.5786 3.92172 26.8284 3.17157C26.0783 2.42143 25.0609 2 24 2C22.9391 2 21.9217 2.42143 21.1716 3.17157Z" stroke="#B18CFF" stroke-width="3" stroke-linecap="round" stroke-linejoin="round"/>
</svg>
