<svg width="39" height="38" viewBox="0 0 39 38" fill="none" xmlns="http://www.w3.org/2000/svg">
<path d="M12.124 13C13.222 10.67 16.184 9 19.668 9C24.088 9 27.668 11.686 27.668 15C27.668 17.8 25.112 20.15 21.656 20.814C20.572 21.022 19.668 21.894 19.668 23M19.668 29H19.688M37.668 19C37.668 21.3638 37.2024 23.7044 36.2978 25.8883C35.3932 28.0722 34.0673 30.0565 32.3959 31.7279C30.7244 33.3994 28.7401 34.7252 26.5563 35.6298C24.3724 36.5344 22.0318 37 19.668 37C17.3042 37 14.9635 36.5344 12.7797 35.6298C10.5958 34.7252 8.6115 33.3994 6.94005 31.7279C5.26859 30.0565 3.94272 28.0722 3.03814 25.8883C2.13355 23.7044 1.66797 21.3638 1.66797 19C1.66797 14.2261 3.56439 9.64773 6.94005 6.27208C10.3157 2.89642 14.8941 1 19.668 1C24.4419 1 29.0202 2.89642 32.3959 6.27208C35.7715 9.64773 37.668 14.2261 37.668 19Z" stroke="#0DC5A5" stroke-width="2" stroke-linecap="round" stroke-linejoin="round"/>
</svg>
