<svg width="50" height="42" viewBox="0 0 50 42" fill="none" xmlns="http://www.w3.org/2000/svg">
<g clip-path="url(#clip0_3306_58864)">
<path d="M44.7495 10.8174C44.7797 11.2531 44.7797 11.6889 44.7797 12.1286C44.7797 25.5282 34.5378 40.982 15.81 40.982V40.974C10.2777 40.982 4.86038 39.4037 0.203125 36.4278C1.00756 36.5242 1.81603 36.5724 2.62651 36.5744C7.21119 36.5784 11.6648 35.0463 15.2717 32.225C10.9148 32.1427 7.09425 29.3134 5.75958 25.1828C7.28579 25.476 8.85837 25.4158 10.3564 25.0081C5.60635 24.0523 2.18901 19.8957 2.18901 15.0684C2.18901 15.0242 2.18901 14.982 2.18901 14.9399C3.60433 15.725 5.18901 16.1607 6.80998 16.2089C2.33619 13.231 0.957157 7.30331 3.65877 2.66877C8.82812 9.00411 16.4551 12.8555 24.6426 13.2631C23.8221 9.74106 24.943 6.0503 27.5882 3.57439C31.689 -0.264963 38.1386 -0.0681755 41.9934 4.01415C44.2737 3.56636 46.4592 2.73303 48.4592 1.55231C47.6991 3.8997 46.1084 5.89367 43.9834 7.16074C46.0015 6.92379 47.9733 6.38564 49.8301 5.56435C48.4632 7.60451 46.7414 9.38162 44.7495 10.8174Z" fill="#00A3FF"/>
</g>
<defs>
<clipPath id="clip0_3306_58864">
<rect width="50" height="40.9639" fill="white" transform="translate(0 0.518066)"/>
</clipPath>
</defs>
</svg>
