<svg width="518" height="348" viewBox="0 0 518 348" fill="none" xmlns="http://www.w3.org/2000/svg">
<g clip-path="url(#clip0)">
<path d="M516.766 0H1.6084V347.687H516.766V0Z" fill="#03E9BC"/>
<path d="M1.6084 219.48C1.6084 219.48 113.916 183.109 156.888 125.308C199.86 67.507 223.167 107.712 240.022 119.913C244.227 122.961 247.922 128.313 253.533 130.766C260.513 133.894 267.895 136.038 275.467 137.138C278.182 137.531 280.63 143.382 282.92 144.709C289.787 148.702 294.823 150.125 298.294 146.122C322.048 118.618 318.354 89.096 282.92 84.7846C271.059 83.3298 282.291 71.8609 275.871 69.0999C274.245 68.406 272.847 67.2707 271.836 65.8232C270.825 64.3757 270.242 62.6742 270.154 60.9124L269.685 51.2806C269.685 51.2806 213.659 -20.283 121.869 53.5638C33.4969 124.713 1.60865 110.979 1.60865 110.979L1.6084 219.48Z" fill="#FEFDFF"/>
<path d="M516.766 278.725C391.65 313.875 402.617 342.176 312.828 320.916C241.864 304.116 266.449 283.387 246.901 283.95C211.126 285.012 210.998 241.951 195.996 250.074C181.771 257.784 191.663 269.848 191.663 269.848C191.663 269.848 231.185 347.687 259.188 347.687H516.766V278.725Z" fill="white"/>
<path d="M215.297 347.687C215.297 347.687 152.063 293.306 127.734 285.033C107.695 278.173 70.4407 278.322 53.0111 285.033L2.77734 304.35V347.687H215.297Z" fill="white"/>
<path d="M241.222 127.23C241.729 126.631 242.391 126.183 243.136 125.932C243.88 125.681 244.68 125.638 245.447 125.808C246.214 125.977 246.92 126.353 247.489 126.893C248.058 127.434 248.468 128.12 248.675 128.876C249.74 132.508 246.663 135.619 243.681 137.095L246.876 141.258C249.09 139.134 251.401 136.809 254.222 135.471C257.629 133.856 265.04 134.812 263.358 140.281L268.49 141.693C270.236 135.991 277.423 142.66 278.796 144.731C280.926 147.916 282.501 151.293 285.184 154.139L288.954 150.391C288.71 150.243 288.502 150.042 288.347 149.803C288.191 149.565 288.091 149.294 288.054 149.012C288.017 148.729 288.045 148.442 288.134 148.172C288.223 147.901 288.372 147.654 288.57 147.449C289.422 145.941 290.487 145.701 291.764 146.727C294.565 147.407 295.353 149.913 295.832 152.493C296.385 155.467 301.102 154.734 301.06 151.782C301.026 150.193 301.331 148.614 301.954 147.151C302.578 145.688 303.505 144.374 304.676 143.295C305.846 142.216 307.233 141.397 308.744 140.892C310.255 140.387 311.856 140.208 313.442 140.366C315.987 140.568 316.637 137.435 315.316 135.832C308.704 127.623 313.506 116.632 323.483 114.593C326.677 113.956 325.495 109.719 322.78 109.379C314.411 108.317 308.875 98.3879 312.314 90.742C312.558 90.2829 312.665 89.7634 312.622 89.2454C312.578 88.7274 312.386 88.2328 312.068 87.8207C311.751 87.4087 311.321 87.0965 310.83 86.9216C310.339 86.7466 309.808 86.7162 309.301 86.8341C303.056 88.3777 296.461 87.5724 290.774 84.5722C288.336 83.3085 275.304 73.2626 281.564 70.0025C283.438 69.0255 283.236 65.468 280.926 65.1494C276.667 64.5654 276.667 59.6274 275.74 56.208C274.696 52.5765 272.881 49.2118 270.417 46.3426C265.002 39.4715 258.058 33.9524 250.134 30.2225C233.609 22.5341 213.741 18.2439 195.588 20.0386C173.58 22.1624 153.297 31.518 134.643 42.902C114.211 55.369 94.7475 69.5352 75.0181 83.0324C64.4667 90.2429 54.075 98.0799 42.6717 103.942C31.013 109.942 16.7031 114.784 4.07541 109.071C0.977057 107.669 -1.73799 112.257 1.38165 113.648C20.6745 122.377 41.7774 111.641 58.0145 101C78.4465 87.6093 98.3463 73.39 118.565 59.7017C137.731 46.6931 157.769 33.9286 180.479 28.0986C201.774 22.6403 222.621 25.3801 242.979 32.9623C253.168 36.764 263.208 43.5816 268.83 53.139C272.333 59.0221 270.768 69.1211 279.541 70.321L278.903 65.468C270.193 70.0131 277.582 81.1634 282.565 85.4111C286.402 88.66 290.959 90.9531 295.859 92.1015C300.759 93.2498 305.862 93.2207 310.749 92.0163L307.746 88.1084C306.551 90.8253 306.006 93.7824 306.155 96.7457C306.304 99.7089 307.143 102.597 308.605 105.181C310.066 107.765 312.111 109.974 314.577 111.633C317.043 113.293 319.862 114.357 322.812 114.742L322.099 109.528C307.789 112.374 302.689 128.536 311.59 139.591L313.474 135.056C311.188 134.899 308.893 135.216 306.736 135.989C304.578 136.761 302.605 137.972 300.941 139.544C299.277 141.116 297.958 143.015 297.067 145.122C296.177 147.228 295.734 149.496 295.768 151.782L300.996 151.081C299.931 145.166 294.075 138.338 287.442 141.524C282.778 143.775 280.915 150.667 285.174 154.15C287.782 156.274 291.317 152.95 288.943 150.401C284.216 145.336 282.555 137.148 275.165 135.003C270.268 133.58 264.944 135.152 263.368 140.313C262.367 143.594 267.499 144.985 268.5 141.725C270.182 136.246 266.371 131.032 260.994 129.566C253.967 127.655 247.781 133.06 243.117 137.541C240.849 139.718 243.724 143 246.311 141.704C252.306 138.752 256.873 130.872 252.593 124.649C249.186 119.69 241.307 118.703 237.389 123.513C235.259 126.136 238.997 129.885 241.158 127.262L241.222 127.23Z" fill="#050505"/>
<path d="M237.047 123.014C215.284 136.15 214.88 164.43 224.494 185.265C230.34 197.944 239.283 209.625 248.759 219.809C258.501 230.269 270.139 237.862 282.596 244.68C307.213 258.241 331.829 269.911 359.8 274.531C384.615 278.606 409.972 278.08 434.597 272.98C463.307 267.115 490.329 254.888 513.663 237.204C516.346 235.154 513.663 230.535 510.969 232.616C472.948 261.66 424.418 275.157 376.814 271.313C352.088 269.26 328.003 262.406 305.914 251.136C293.936 245.083 281.766 238.807 270.554 231.406C258.672 223.579 249.111 213.077 240.742 201.671C232.171 189.99 224.313 176.461 223.6 161.668C222.95 148.447 228.104 134.685 239.794 127.612C242.722 125.85 240.05 121.241 237.111 123.035L237.047 123.014Z" fill="#050505"/>
<path d="M14.7976 208.946C11.6779 214.797 17.5659 218.917 22.5701 220.691C31.4073 223.813 41.7352 223.685 50.8918 221.986C56.7265 220.924 66.7988 218.556 68.9921 212.047C71.0684 206.036 64.1051 202.553 59.2818 201.863C57.2908 201.576 56.4284 204.624 58.4407 204.91C60.8789 205.261 64.4777 205.898 65.6702 208.436C67.2992 211.877 63.5407 214.086 61.1558 215.381C57.0717 217.4 52.6712 218.708 48.1448 219.247C43.1856 219.982 38.1552 220.114 33.1641 219.639C30.2042 219.353 13.999 217.208 17.502 210.549C18.4602 208.755 15.7239 207.151 14.755 208.946H14.7976Z" fill="#050505"/>
<path d="M20.9313 174.645C18.9935 191.838 42.4388 203.317 56.9403 200.132C63.9888 198.592 71.0799 193.813 73.8269 186.942C75.5304 182.695 72.4002 175.463 67.4918 179.934C65.9692 181.325 68.2371 183.566 69.749 182.185C70.9628 184.55 70.8599 186.613 69.4402 188.376C68.6733 189.533 67.7806 190.601 66.7784 191.562C65.0281 193.223 63.0085 194.577 60.8053 195.565C55.6717 197.801 49.9232 198.206 44.5256 196.712C34.9431 194.238 22.8691 185.785 24.1255 174.677C24.3491 172.638 21.1549 172.66 20.9313 174.677V174.645Z" fill="#050505"/>
<path d="M39.5328 154.702C42.4395 163.591 51.873 168.89 60.8273 169.994C65.4528 170.502 70.1332 169.917 74.4906 168.289C78.8481 166.66 82.7606 164.032 85.9123 160.617C87.339 159.141 85.0818 156.879 83.6551 158.366C81.1264 161.135 78.0376 163.337 74.5926 164.827C71.1476 166.317 67.4248 167.061 63.6701 167.01C55.3227 166.798 45.3888 162.274 42.6311 153.853C41.9923 151.909 38.9046 152.791 39.5541 154.702H39.5328Z" fill="#050505"/>
<path d="M80.1594 136.033C78.6155 149.308 93.1491 158.769 103.86 163.038C115.849 167.807 130.021 166.851 139.22 157.102L136.547 156.401C139.582 167.254 156.958 164.515 165.029 163.113C167.052 162.762 166.189 159.693 164.177 160.044C158.172 161.106 141.956 163.877 139.624 155.552C139.547 155.287 139.401 155.046 139.203 154.854C139.005 154.661 138.76 154.523 138.492 154.452C138.224 154.382 137.943 154.381 137.675 154.451C137.407 154.521 137.161 154.659 136.963 154.851C129.02 163.251 116.892 164.408 106.373 160.596C96.4071 156.975 81.8843 148.309 83.3536 136.033C83.5985 134.005 80.4043 134.016 80.1594 136.033Z" fill="#050505"/>
<path d="M129.426 125.648C135.176 134.143 142.405 142.373 152.478 145.612C161.187 148.405 171.078 146.812 177.52 140.111L175.007 139.782C177.97 145.088 182.561 149.306 188.105 151.816C193.65 154.325 199.855 154.995 205.81 153.725C207.822 153.301 206.97 150.232 204.969 150.656C199.686 151.751 194.191 151.126 189.292 148.872C184.392 146.618 180.348 142.855 177.754 138.136C177.629 137.929 177.458 137.752 177.255 137.62C177.052 137.488 176.821 137.403 176.58 137.373C176.34 137.342 176.095 137.366 175.865 137.443C175.635 137.52 175.425 137.648 175.252 137.818C169.034 144.285 159.441 145.113 151.381 141.757C143.087 138.306 137.103 131.244 132.216 124.002C131.066 122.313 128.298 123.906 129.458 125.605L129.426 125.648Z" fill="#050505"/>
<path d="M136.496 74.5477C142.991 79.645 151.935 80.2396 158.376 74.6008C159.441 73.6875 161.379 69.8964 162.337 69.4823C164.094 68.7283 167.341 71.9353 168.938 72.6681C173.71 74.8907 178.978 75.8419 184.228 75.4291C186.272 75.291 186.283 72.1053 184.228 72.2433C178.665 72.7236 173.089 71.4853 168.257 68.6964C166.351 67.5708 163.998 64.7673 161.453 65.808C159.079 66.7744 158.078 70.6929 156.13 72.3283C151.008 76.6609 143.906 76.3105 138.775 72.2752C137.167 71.0221 134.899 73.2628 136.507 74.5265L136.496 74.5477Z" fill="#050505"/>
<path d="M177.883 61.3372C183.973 70.0238 195.184 77.1069 205.629 70.8946C205.938 70.7141 207.897 69.0787 208.185 68.9513C208.983 67.4433 210.165 67.3902 211.709 68.7708L212.507 69.9495C214.637 71.8079 215.883 73.7406 218.395 75.1848C222.95 77.7701 228.335 78.4825 233.408 77.1706C235.41 76.6927 234.558 73.6132 232.567 74.1016C229.6 74.865 226.48 74.8044 223.545 73.9266C220.61 73.0487 217.971 71.387 215.915 69.1212C214.19 67.1566 212.561 62.9195 209.132 63.8753C207.716 64.2788 206.928 65.7761 205.938 66.7C203.568 68.7851 200.527 69.9531 197.367 69.992C190.201 70.1831 184.516 65.2345 180.651 59.7125C179.49 58.0453 176.711 59.6382 177.893 61.3266L177.883 61.3372Z" fill="#050505"/>
<path d="M223.663 89.0855C223.44 93.45 226.623 96.2429 230.52 97.6871C236.994 100.098 242.722 98.3455 249.142 97.3367C253.763 96.6146 253.401 99.4606 255.893 102.073C257.448 103.631 259.322 104.838 261.387 105.609C267.775 108.105 275.228 107.032 281.851 106.544C283.895 106.384 283.906 103.199 281.851 103.358C276.644 103.74 271.15 104.42 265.976 103.507C262.547 102.922 259.066 101.499 257.064 98.4836C256.17 97.1349 255.903 95.404 254.615 94.3314C251.932 92.1332 248.674 94.3314 245.778 95.0323C240.987 96.2217 226.432 97.1562 226.858 89.0855C226.964 87.0359 223.77 87.0466 223.663 89.0855Z" fill="#050505"/>
<path d="M225.87 101.903C222.676 114.423 235.25 120.742 245.035 123.959C248.293 125.021 249.698 119.913 246.451 118.841C239.733 116.621 228.67 112.469 231.034 103.315C231.886 100.002 226.775 98.5897 225.902 101.903H225.87Z" fill="#050505"/>
<path d="M17.7564 229.218C9.85617 242.492 14.69 259.281 26.6363 268.372C40.7758 279.14 59.7279 278.364 75.8053 272.864C84.6216 269.803 93.0479 265.722 100.912 260.704C108.716 255.766 115.232 249.607 122.419 243.883C126.63 240.355 132.038 238.572 137.528 238.903C142.297 239.094 147.036 239.965 151.795 239.147C159.163 237.937 165.264 233.328 169.895 227.689C172.538 224.423 174.862 220.913 176.837 217.208C177.987 215.084 178.86 212.556 180.447 210.677C182.97 207.661 186.005 207.767 189.582 207.841C196.268 207.979 203.945 206.779 204.914 198.879C205.329 195.491 200.006 195.523 199.59 198.879C198.834 205.017 184.61 201.735 180.425 203.774C174.782 206.525 172.919 213.682 169.778 218.641C165.892 224.875 160.579 231.183 153.275 233.36C145.971 235.537 138.039 232.5 130.49 233.965C123.824 235.261 118.842 239.837 113.923 244.191C107.59 249.826 100.69 254.79 93.3307 259.005C78.9143 267.246 61.0802 274.329 44.2362 270.633C27.3922 266.938 11.943 249.225 22.2709 231.894C24.0277 228.953 19.4281 226.277 17.6713 229.218H17.7564Z" fill="#050505"/>
<path d="M200.452 198.125C203.71 223.154 224.791 243.225 250.089 245.062L247.523 243.119C254.593 261.49 272.097 274.786 291.965 275.848C298.502 276.198 304.412 275.571 310.768 277.748C316.549 279.734 322.192 282.06 328.112 283.642C339.462 286.7 351.025 287.454 361.971 282.58L358.063 280.987C359.011 286.541 364.366 288.814 369.392 289.78C378.623 291.554 388.163 292.35 397.49 293.614C406.114 294.782 414.802 296.396 423.491 297.022C429.985 297.479 436.108 296.651 441.112 292.233L436.927 291.702C439.728 295.95 444.221 297.362 449.182 296.704C455.347 295.897 459.659 291.66 465.036 289.005C472.628 285.246 481.529 289.366 489.589 289.642C497.307 289.878 505.008 288.8 512.363 286.456C515.621 285.394 514.227 280.308 510.947 281.338C504.643 283.375 498.058 284.414 491.431 284.417C484.808 284.417 478.484 282.187 471.936 282.06C466.612 281.964 462.353 284.29 457.977 287.062C453.803 289.727 445.445 295.015 441.506 289.058C441.294 288.714 441.008 288.421 440.668 288.202C440.328 287.983 439.943 287.843 439.541 287.792C439.14 287.741 438.732 287.78 438.347 287.908C437.963 288.035 437.613 288.247 437.321 288.527C432.647 292.647 426.11 292.116 420.286 291.437C413.12 290.587 405.986 289.504 398.831 288.538L379.251 285.883C374.843 285.288 364.132 285.5 363.131 279.617C362.812 277.759 360.629 277.419 359.224 278.035C337.652 287.593 318.466 270.251 297.214 270.548C277.783 270.814 259.714 260.227 252.591 241.706C252.415 241.158 252.075 240.677 251.616 240.327C251.157 239.978 250.602 239.777 250.025 239.752C227.911 238.149 208.575 220.128 205.711 198.125C205.275 194.79 199.951 194.748 200.388 198.125H200.452Z" fill="#050505"/>
<path d="M185.676 252.283C195.599 291.256 216.851 331.992 258.525 343.716C258.928 343.814 259.354 343.752 259.712 343.543C260.071 343.333 260.333 342.993 260.444 342.593C260.555 342.194 260.505 341.767 260.306 341.404C260.107 341.041 259.773 340.769 259.376 340.647C218.81 329.231 198.4 289.292 188.753 251.444C188.253 249.458 185.165 250.297 185.676 252.294V252.283Z" fill="#050505"/>
<path d="M162.166 267.044C162 268.43 162.113 269.836 162.499 271.178C162.885 272.52 163.535 273.772 164.412 274.86C165.485 276.211 166.884 277.267 168.48 277.929C170.077 278.587 171.812 278.428 173.175 279.554C174.538 280.679 174.517 282.644 175.305 284.428C175.987 285.872 176.924 287.181 178.073 288.293C180.356 290.459 183.321 291.768 186.463 291.999C188.507 292.212 188.497 289.026 186.463 288.814C184.517 288.636 182.663 287.902 181.124 286.7C179.585 285.499 178.426 283.88 177.785 282.039C177.168 280.159 177.274 278.163 175.656 276.825C174.25 275.688 172.515 275.763 170.865 275.359C169.08 274.897 167.53 273.791 166.515 272.255C165.501 270.719 165.093 268.862 165.371 267.044C165.573 265.005 162.379 265.026 162.176 267.044H162.166Z" fill="#050505"/>
<path d="M140.349 274.648C142.755 280.191 146.876 282.612 152.487 284.078C156.362 285.086 158.981 287.752 162.623 289.334C165.39 290.496 168.314 291.24 171.3 291.543C173.345 291.787 173.323 288.601 171.3 288.357C168.064 287.993 164.925 287.024 162.048 285.501C159.833 284.322 158.002 282.315 155.66 281.423C153.626 280.605 151.315 280.881 149.271 279.883C146.446 278.424 144.245 275.995 143.074 273.044C142.265 271.164 139.518 272.789 140.317 274.648H140.349Z" fill="#050505"/>
<path d="M124.444 275.391C124.129 278.404 124.588 281.448 125.778 284.236C126.968 287.024 128.849 289.464 131.246 291.326C133.642 293.188 136.474 294.411 139.475 294.88C142.477 295.349 145.548 295.048 148.401 294.007L146.463 292.891C147.4 296.139 149.29 299.032 151.889 301.199C154.489 303.366 157.679 304.708 161.05 305.051C162.689 305.199 164.436 304.636 166.033 304.944C168.226 305.369 170.004 307.493 171.921 308.725C173.436 309.834 175.159 310.63 176.987 311.066C178.816 311.502 180.713 311.569 182.568 311.263C184.591 310.923 183.728 307.854 181.716 308.194C174.572 309.394 172.016 301.822 165.862 301.578C162.987 301.472 160.911 302.205 158.005 301.132C155.993 300.373 154.187 299.158 152.729 297.582C151.271 296.006 150.201 294.113 149.604 292.053C149.485 291.648 149.213 291.306 148.845 291.098C148.478 290.89 148.043 290.832 147.634 290.938C136.817 294.665 126.712 286.743 127.724 275.391C127.905 273.352 124.711 273.363 124.53 275.391H124.444Z" fill="#050505"/>
<path d="M198.208 54.371C202.4 56.9077 207.346 57.9101 212.199 57.2063C214.243 56.91 216.229 56.3011 218.087 55.401C218.63 55.1462 220.802 53.2772 221.334 53.4259C222.782 53.6807 222.133 54.3073 222.782 55.3586C225.38 59.6063 227.658 62.6009 232.524 64.5443C238.231 66.8168 244.492 66.4982 250.497 66.1584L248.953 64.9903C249.911 69.0894 246.877 72.9972 248.304 77.0432C249.207 79.177 250.878 80.8967 252.988 81.8644C257.066 84.1051 263.295 86.0059 266.83 82.0131C268.182 80.4839 265.935 78.222 264.573 79.7618C262.443 82.1299 259.313 81.0042 256.928 80.1122C253.286 78.7742 250.912 77.4786 251.359 72.5406C251.647 69.5035 252.765 67.231 252.03 64.1407C251.934 63.8077 251.733 63.5143 251.457 63.3039C251.181 63.0935 250.844 62.9774 250.497 62.9726C244.236 63.3337 237.113 63.8859 231.502 60.5302C228.86 59.0543 226.81 56.7135 225.699 53.9037C225.22 52.6613 225.092 50.994 223.868 50.1657C221.675 48.6896 219.609 50.8878 217.82 51.9498C215.062 53.5006 211.939 54.2878 208.773 54.2299C205.608 54.172 202.515 53.2711 199.816 51.6206C199.451 51.4259 199.025 51.3798 198.627 51.4921C198.229 51.6043 197.891 51.8662 197.682 52.2225C197.474 52.5789 197.412 53.0019 197.51 53.4026C197.609 53.8033 197.859 54.1505 198.208 54.371Z" fill="#050505"/>
<path d="M196.034 251.211C211.909 264.57 219.629 287.996 241.317 293.837C241.554 293.898 241.802 293.904 242.043 293.856C242.283 293.807 242.509 293.705 242.704 293.557C242.899 293.409 243.057 293.218 243.167 293C243.278 292.782 243.337 292.541 243.34 292.297C243.586 288.01 242.797 283.728 241.04 279.808L240.465 281.996C244.426 280.212 249.356 287.762 251.751 290.183C254.626 293.083 257.639 295.865 260.77 298.498C272.602 308.514 286.005 316.521 300.441 322.201C305.147 324.048 311.153 326.448 315.124 322.041C315.413 321.738 315.574 321.335 315.574 320.916C315.574 320.497 315.413 320.094 315.124 319.79L294.458 297.213L294.138 299.709C300.175 297.054 310.94 305.082 315.923 308.141C321.438 311.518 326.772 315.192 332.17 318.76C342.732 325.748 353.614 332.247 365.986 335.443C366.258 335.514 366.544 335.512 366.815 335.438C367.086 335.364 367.333 335.221 367.531 335.022C367.73 334.823 367.872 334.576 367.945 334.305C368.017 334.034 368.017 333.749 367.945 333.478C365.219 324.696 356.531 321.394 349.845 316.18C347.162 314.056 341.487 309.139 347.14 306.877C349.355 305.985 352.389 306.707 354.593 307.387C361.259 309.511 367.583 312.824 373.982 315.617C383.565 319.79 395.756 325.248 406.477 323.273C418.679 321.033 403.965 309.086 400.27 306.038V308.289C403.358 304.796 408.16 306.431 411.982 307.663C416.213 309.132 420.547 310.282 424.95 311.104C432.87 312.37 440.947 312.298 448.843 310.891C450.866 310.541 450.014 307.472 447.991 307.822C436.919 309.782 425.531 308.942 414.868 305.38C409.374 303.543 402.41 300.994 397.917 306.091C397.621 306.391 397.454 306.796 397.454 307.217C397.454 307.638 397.621 308.042 397.917 308.343C400.174 310.212 403.241 312.272 404.88 314.714C406.378 315.557 406.627 316.711 405.626 318.176C405.839 320.123 405.072 320.831 403.326 320.3C401.92 320.693 399.727 320.13 398.332 319.971C392.035 319.077 385.886 317.345 380.051 314.82C374.078 312.41 368.286 309.585 362.355 307.089C358.288 305.369 354.082 303.351 349.578 303.405C342.434 303.49 338.931 309.245 343.808 315.033C349.919 322.371 361.812 324.59 364.857 334.349L366.827 332.395C351.921 328.54 339.378 319.748 326.74 311.348C320.73 307.214 314.476 303.444 308.012 300.059C303.156 297.606 297.897 294.612 292.52 296.98C292.311 297.105 292.133 297.275 291.999 297.479C291.866 297.682 291.78 297.913 291.748 298.153C291.717 298.394 291.74 298.639 291.816 298.87C291.893 299.101 292.02 299.311 292.19 299.486L312.909 322.063V319.811C309.651 323.422 303.188 319.918 299.707 318.495C296.055 316.997 292.456 315.309 288.942 313.514C281.725 309.782 274.846 305.433 268.382 300.516C262.154 295.779 256.344 290.517 251.017 284.789C247.716 281.253 244.085 276.931 238.9 279.267C238.541 279.485 238.281 279.834 238.173 280.24C238.066 280.646 238.121 281.077 238.325 281.444C239.79 284.865 240.418 288.585 240.157 292.297L242.18 290.757C221.3 285.139 213.656 261.883 198.302 248.949C196.737 247.643 194.469 249.883 196.045 251.211H196.034Z" fill="#050505"/>
<path d="M93.2251 170.716C96.6351 174.608 101.022 177.524 105.936 179.164C110.85 180.805 116.113 181.111 121.185 180.051L119.162 178.511C119.417 188.652 131.097 193.208 138.008 185.626H135.75C142.139 191.997 152.094 195.544 159.174 188.174C160.601 186.698 158.344 184.447 156.917 185.923C151.072 191.987 143.076 188.408 137.986 183.364C137.684 183.071 137.279 182.907 136.858 182.907C136.436 182.907 136.031 183.071 135.729 183.364C130.767 188.812 122.526 185.987 122.335 178.511C122.33 178.267 122.269 178.028 122.158 177.811C122.048 177.594 121.889 177.405 121.694 177.258C121.5 177.111 121.274 177.01 121.035 176.962C120.795 176.914 120.548 176.921 120.312 176.982C115.786 177.897 111.098 177.592 106.73 176.099C102.362 174.606 98.4719 171.978 95.4611 168.486C94.0982 166.946 91.8516 169.208 93.2038 170.737L93.2251 170.716Z" fill="#050505"/>
<path d="M301.304 107.521C300.921 109.804 300.346 111.843 298.536 113.446C295.736 115.942 291.157 115.973 290.263 111.556C290.183 111.291 290.037 111.05 289.837 110.858C289.638 110.666 289.392 110.528 289.124 110.457C288.856 110.387 288.574 110.386 288.305 110.456C288.037 110.526 287.79 110.663 287.59 110.855C284.973 113.85 281.349 115.787 277.399 116.302C273.449 116.816 269.447 115.872 266.147 113.648C264.422 112.512 262.825 115.262 264.529 116.398C268.441 118.974 273.154 120.059 277.803 119.455C282.452 118.85 286.728 116.597 289.848 113.106L287.175 112.405C287.592 114.35 288.744 116.059 290.392 117.179C292.04 118.298 294.056 118.741 296.023 118.416C300.974 117.673 303.636 112.841 304.381 108.359C304.722 106.352 301.645 105.492 301.304 107.521Z" fill="#050505"/>
<path d="M154.394 344.703C141.691 340.933 129.82 334.402 120.738 324.654C110.09 313.291 106.79 298.923 102.179 284.555C101.551 282.612 98.4635 283.44 99.0916 285.405C103.894 300.368 107.46 315.086 118.48 326.905C127.924 337.047 140.339 343.896 153.552 347.772C155.522 348.356 156.363 345.287 154.394 344.703Z" fill="#050505"/>
<path d="M120.835 344.703C107.409 341.061 94.7492 334.541 86.1568 323.326C76.7766 311.082 72.6135 295.716 73.5185 280.382C73.6463 278.332 70.4521 278.343 70.3244 280.382C69.2478 296.454 73.9724 312.38 83.6441 325.28C92.6517 337.025 105.908 343.96 119.994 347.772C120.397 347.871 120.823 347.809 121.182 347.599C121.54 347.39 121.803 347.049 121.913 346.65C122.024 346.251 121.975 345.824 121.775 345.461C121.576 345.097 121.243 344.826 120.846 344.703H120.835Z" fill="#050505"/>
<path d="M43.001 289.716C43.045 301.488 46.2025 313.04 52.1549 323.206C58.1072 333.371 66.6435 341.79 76.9018 347.613C77.2664 347.807 77.6925 347.854 78.0905 347.741C78.4884 347.629 78.8272 347.367 79.0355 347.011C79.2438 346.654 79.3054 346.231 79.2073 345.831C79.1092 345.43 78.8591 345.083 78.5096 344.862C68.7336 339.32 60.5976 331.303 54.9236 321.62C49.2496 311.937 46.2387 300.931 46.1952 289.716C46.1952 289.294 46.0269 288.889 45.7274 288.59C45.4279 288.291 45.0216 288.123 44.5981 288.123C44.1745 288.123 43.7683 288.291 43.4688 288.59C43.1692 288.889 43.001 289.294 43.001 289.716Z" fill="#050505"/>
<path d="M21.6962 303.936C18.6298 324.378 39.2429 336.378 53.2867 346.997C54.9263 348.229 56.4809 345.468 54.9051 344.246C42.2987 334.763 22.005 323.358 24.7733 304.828C25.0714 302.821 21.9944 301.96 21.6962 303.989V303.936Z" fill="#050505"/>
</g>
<defs>
<clipPath id="clip0">
<rect width="518" height="348" fill="white"/>
</clipPath>
</defs>
</svg>
