<svg width="205" height="202" viewBox="0 0 205 202" fill="none" xmlns="http://www.w3.org/2000/svg">
<path d="M204.65 119.84L193.18 65.2299C193.079 64.7448 192.935 64.2695 192.75 63.8099C191.12 58.1299 188.94 56.8999 186 54.5099C183.28 52.4499 182.11 51.6699 182.11 51.6699C182.11 51.6699 174.67 68.8499 172.64 70.4799C152.74 86.4799 119.4 111.41 111.25 115.91L111.1 115.99C108.421 117.624 105.39 118.591 102.26 118.81V201C109.219 200.818 116.015 198.856 122 195.3C131 190.3 154.94 171.08 183 148.3L194 139.38C201.31 133.49 204.82 127.64 204.74 121.47C204.762 120.925 204.732 120.379 204.65 119.84Z" fill="#56189E"/>
<path d="M95.109 116.59L30.869 69.2896C30.3332 68.8452 29.856 68.3345 29.449 67.7696C29.3922 66.2174 28.9232 64.7082 28.0902 63.3972C27.2572 62.0861 26.0901 61.0205 24.709 60.3097L25.119 50.8896C25.119 50.8896 23.779 51.7696 20.719 53.6196C16.869 55.9296 13.979 57.6196 11.999 66.7096L10.509 74.1497L1.16903 120.89C1.03903 121.548 0.982016 122.219 0.999027 122.89C1.21903 131.34 8.46903 137.26 10.129 138.5L83.389 194.86C88.8655 198.964 95.5461 201.14 102.389 201.05V118.8C99.7759 118.959 97.1923 118.175 95.109 116.59V116.59Z" fill="#3A1B9B"/>
<path d="M187.428 55.5196C187.303 55.4298 187.183 55.333 187.068 55.2296C184.808 53.3196 140.198 22.6796 113.808 4.58964C110.316 2.17864 106.156 0.921707 101.912 0.995239C97.669 1.06877 93.5552 2.46907 90.1482 4.99964L86.9182 7.43964C81.3182 11.6496 70.9182 19.4396 58.3782 28.3696C43.9982 38.6196 30.7682 47.5396 18.9982 54.6096C13.9982 57.6096 9.37822 65.7196 21.9982 75.6096C23.3282 76.6096 89.7182 125.86 89.7182 125.86C97.3382 131.47 106.358 130.97 115.308 125.78C124.018 120.97 154.858 97.8796 174.308 82.4696L179.248 78.5396C179.708 78.1696 180.128 77.8096 180.528 77.4496C188.838 70.5796 195.808 61.3096 187.428 55.5196Z" fill="#8524E2"/>
<path d="M71.4791 73.3099C73.7185 75.1903 76.405 76.4612 79.2791 76.9999C82.0459 77.4728 84.8781 77.4048 87.6191 76.7999C90.4615 76.1887 93.2428 75.3218 95.9291 74.2099C97.8591 73.4199 99.8091 72.5499 101.929 71.5499C102.109 71.4699 102.929 71.0599 103.039 71.1799L113.449 79.1799C114.179 79.7199 114.209 79.9799 112.759 80.5599C111.498 81.0237 110.162 81.2475 108.819 81.2199H108.719C105.576 81.1747 102.531 80.1233 100.029 78.2199C99.7417 78.0009 99.3904 77.8823 99.0291 77.8823C98.6678 77.8823 98.3165 78.0009 98.0291 78.2199L88.2891 85.7799C88.0887 85.9335 87.9273 86.1322 87.8178 86.3598C87.7084 86.5873 87.654 86.8374 87.6591 87.0899C87.6626 87.35 87.7268 87.6057 87.8466 87.8366C87.9664 88.0675 88.1384 88.2673 88.3491 88.4199C91.6974 90.9141 95.5854 92.5858 99.6991 93.2999C101.311 93.5799 102.943 93.7204 104.579 93.7199C107.747 93.7027 110.895 93.2141 113.919 92.2699C117.169 91.2728 120.268 89.8362 123.129 87.9999C123.221 87.934 123.331 87.8985 123.444 87.8985C123.557 87.8985 123.667 87.934 123.759 87.9999L128.759 91.8199C129.048 92.0358 129.399 92.1524 129.759 92.1524C130.12 92.1524 130.47 92.0358 130.759 91.8199L135.469 88.0999C135.67 87.9447 135.832 87.7443 135.942 87.515C136.051 87.2857 136.105 87.0339 136.099 86.7799C136.094 86.5288 136.033 86.2821 135.918 86.0586C135.804 85.835 135.64 85.6405 135.439 85.4899L131.169 82.2899C131.109 82.2426 131.06 82.1836 131.024 82.1165C130.988 82.0495 130.966 81.9758 130.959 81.8999C130.95 81.8177 130.96 81.7345 130.988 81.6566C131.015 81.5787 131.06 81.508 131.119 81.4499C133.074 79.479 134.719 77.2234 135.999 74.7599C137.611 71.8504 138.186 68.4792 137.629 65.1999C136.943 62.0867 135.057 59.3699 132.379 57.6399C129.907 55.8158 127.068 54.55 124.059 53.9299C121.356 53.4248 118.582 53.4248 115.879 53.9299C113.184 54.4269 110.547 55.1976 108.009 56.2299C105.719 57.1599 101.739 58.9999 101.229 59.2299C100.719 59.4599 100.099 59.6399 99.8091 59.4299L90.6591 52.5699C91.0277 52.3925 91.4087 52.2421 91.7991 52.1199C93.5375 51.575 95.3606 51.3514 97.1791 51.4599C98.6975 51.5489 100.172 52.0017 101.479 52.7799C101.758 52.9511 102.082 53.0359 102.41 53.0234C102.737 53.0109 103.054 52.9019 103.319 52.7099L111.999 46.3199C112.221 46.1557 112.399 45.9384 112.515 45.6878C112.632 45.4373 112.683 45.1615 112.665 44.8858C112.647 44.6101 112.56 44.3433 112.413 44.1099C112.265 43.8765 112.061 43.6839 111.819 43.5499C108.935 41.9459 105.724 41.0192 102.429 40.8399C98.3688 40.6202 94.3024 41.1421 90.4291 42.3799C87.8176 43.1941 85.2948 44.2695 82.8991 45.5899C82.8109 45.6459 82.7086 45.6757 82.6041 45.6757C82.4996 45.6757 82.3973 45.6459 82.3091 45.5899L78.1291 42.4499C77.8469 42.2501 77.5098 42.1429 77.1641 42.1429C76.8184 42.1429 76.4812 42.2501 76.1991 42.4499L71.7991 45.4499C71.584 45.5949 71.407 45.7897 71.2834 46.0178C71.1598 46.2459 71.0931 46.5005 71.0891 46.7599C71.0804 47.0196 71.134 47.2777 71.2453 47.5125C71.3566 47.7474 71.5225 47.9522 71.7291 48.1099L74.7991 50.4699C74.864 50.5175 74.9174 50.579 74.9555 50.65C74.9936 50.7209 75.0153 50.7995 75.0191 50.8799C75.0188 50.9647 75.0009 51.0485 74.9665 51.126C74.9321 51.2035 74.8819 51.2729 74.8191 51.3299C72.9518 52.944 71.3163 54.8083 69.9591 56.8699C68.1149 59.4798 67.1866 62.6269 67.3191 65.8199C67.4537 67.289 67.8932 68.7138 68.6094 70.0035C69.3257 71.2931 70.3031 72.4192 71.4791 73.3099V73.3099ZM82.6091 59.4699C82.8316 58.89 83.1238 58.3393 83.4791 57.8299C84.0591 56.9899 84.1691 56.9699 84.6991 57.3699L91.3991 62.5099C92.0191 63.0099 92.3991 63.2099 90.8291 63.7999C89.8944 64.1227 88.924 64.3309 87.9391 64.4199C87.2394 64.5353 86.5235 64.5061 85.8355 64.3342C85.1475 64.1622 84.5021 63.851 83.9391 63.4199C83.2881 63.0232 82.7979 62.4096 82.5546 61.6871C82.3114 60.9647 82.3307 60.1796 82.6091 59.4699V59.4699ZM120.889 67.0799C122.629 68.3599 123.269 69.8299 122.889 71.5799C122.659 72.5651 122.207 73.4849 121.569 74.2699C121.059 74.8899 120.769 75.0599 120.269 74.7199L111.879 68.4299C110.879 67.5899 110.879 67.5899 112.589 66.8299C113.887 66.3909 115.228 66.0925 116.589 65.9399C118.114 65.771 119.648 66.1775 120.889 67.0799V67.0799Z" fill="white"/>
</svg>
