<svg width="213" height="40" viewBox="0 0 213 40" fill="none" xmlns="http://www.w3.org/2000/svg">
<g clip-path="url(#clip0)">
<path d="M18.457 20.1212C18.457 21.2121 19.3142 22.0606 20.4164 22.0606C21.5185 22.0606 22.3757 21.2121 22.3757 20.1212C22.3757 19.0303 21.5185 18.1818 20.4164 18.1818C19.3142 18.1818 18.457 19.0303 18.457 20.1212ZM34.9888 18.1818C33.8867 18.1818 33.0295 19.0303 33.0295 20.1212C33.0295 21.2121 33.8867 22.0606 34.9888 22.0606C36.0909 22.0606 36.9481 21.2121 36.9481 20.1212C36.9481 19.0303 36.0909 18.1818 34.9888 18.1818ZM34.9888 32.8485C33.8867 32.8485 33.0295 33.697 33.0295 34.7879C33.0295 35.8788 33.8867 36.7273 34.9888 36.7273C36.0909 36.7273 36.9481 35.8788 36.9481 34.7879C36.9481 33.697 36.0909 32.8485 34.9888 32.8485Z" fill="#AD99D8"/>
<path d="M39.1521 2.06061C37.1928 -0.363634 33.6415 -0.484847 31.5597 1.45455L31.3148 1.69697L30.825 2.06061C28.8657 3.63637 25.9267 3.51515 24.0898 1.69697V1.57576C23.4775 0.969699 22.6203 0.48485 21.7631 0.242426C21.6407 0.242426 21.3957 0.121214 21.2733 0.121214H19.314C19.1915 0.121214 19.069 0.121214 18.9466 0.242426H18.7017C18.5792 0.242426 18.4568 0.363638 18.3343 0.363638C18.3343 0.363638 18.2118 0.363638 18.2118 0.48485C18.0894 0.48485 17.9669 0.606062 17.8445 0.606062C17.8445 0.606062 17.722 0.606063 17.722 0.727275C17.5995 0.848487 17.4771 0.848487 17.3546 0.969699C17.3546 0.969699 17.2322 0.969699 17.2322 1.09091C17.1097 1.21212 16.9873 1.21212 16.8648 1.33334L16.7423 1.45455L16.4974 1.69697L16.0076 2.06061C14.0483 3.63637 11.1093 3.51515 9.39488 1.69697C9.39488 1.69697 9.27242 1.69697 9.27242 1.57576L9.02751 1.33334C8.29276 0.727275 7.43556 0.242426 6.45589 0.121214H4.25165C4.25165 0.242426 4.1292 0.242426 4.00674 0.363638H3.88428C3.27199 0.606062 2.6597 0.848487 2.16987 1.33334L2.04742 1.45455L1.68004 1.81818C1.19021 2.30303 0.945296 2.90909 0.700381 3.39394C0.700381 3.51515 0.577923 3.63637 0.577923 3.75758C0.577923 3.87879 0.455466 4 0.455466 4.24243C0.333008 5.09091 0.333008 5.9394 0.577923 6.78788C0.577923 6.90909 0.700381 7.03031 0.700381 7.15152V7.27273C0.700381 7.39394 0.822839 7.51515 0.822839 7.63637C0.945296 7.75758 0.945296 7.87879 1.06775 8.12121C1.31267 8.24243 1.55759 8.48485 1.68004 8.60606L1.92496 8.84849L2.16987 9.09091C4.00674 10.9091 4.00674 14.0606 2.04742 16C1.8025 16.2424 1.43513 16.6061 1.31267 16.8485C1.19021 16.9697 1.19021 17.0909 1.06775 17.3333V17.4545C0.945296 17.5758 0.945296 17.697 0.822839 17.8182V17.9394C0.822839 18.0606 0.700381 18.1818 0.700381 18.303V18.4242C0.700381 18.5455 0.700381 18.6667 0.577923 18.7879V20.6061C0.577923 20.7273 0.577923 20.8485 0.700381 20.9697V21.0909C0.945296 21.9394 1.43513 22.7879 2.16987 23.5152C4.1292 25.4545 4.1292 28.6061 2.16987 30.5455L2.04742 30.6667L1.8025 30.9091V31.0303C1.68004 31.1515 1.55759 31.2727 1.55759 31.3939C1.55759 31.3939 1.55759 31.5152 1.43513 31.5152C1.31267 31.6364 1.31267 31.7576 1.19021 31.8788L1.06775 32C1.06775 32.1212 0.945296 32.1212 0.945296 32.2424C0.945296 32.3636 0.822839 32.3636 0.822839 32.4849C0.822839 32.6061 0.822839 32.6061 0.700381 32.7273C0.455466 33.2121 0.333008 33.8182 0.333008 34.303V35.2727C0.455466 35.6364 0.455466 36 0.700381 36.2424C0.700381 36.3636 0.822839 36.4849 0.822839 36.4849C0.822839 36.4849 0.822839 36.6061 0.945296 36.6061C0.945296 36.7273 1.06775 36.8485 1.06775 36.9697C1.06775 36.9697 1.06775 37.0909 1.19021 37.0909C1.31267 37.3333 1.43513 37.4545 1.55759 37.5758C1.55759 37.5758 1.55759 37.697 1.68004 37.697C1.68004 37.697 1.68004 37.8182 1.8025 37.8182C1.8025 37.9394 1.92496 37.9394 1.92496 37.9394L2.04742 38.0606C2.16987 38.1818 2.29233 38.1818 2.29233 38.303L2.41479 38.4242C2.41479 38.4242 2.53725 38.4242 2.53725 38.5455C2.6597 38.6667 2.78216 38.7879 2.90462 38.7879C2.90462 38.7879 3.02708 38.7879 3.02708 38.9091C3.14954 39.0303 3.27199 39.0303 3.39445 39.1515H3.51691C3.63937 39.2727 3.76182 39.2727 4.00674 39.2727C4.1292 39.2727 4.37411 39.3939 4.49657 39.3939H4.61903C4.74149 39.3939 4.86394 39.3939 4.9864 39.5152H6.08852C6.45589 39.5152 6.70081 39.3939 7.06818 39.3939H7.19064C7.3131 39.3939 7.43556 39.2727 7.55801 39.2727H7.68047C7.80293 39.2727 7.92539 39.1515 8.04784 39.1515H8.1703C8.41522 39.0303 8.78259 38.7879 9.02751 38.6667L9.39488 38.303L9.51734 38.1818C11.4767 36.1212 14.6606 36.1212 16.6199 38.1818C18.8241 40.4849 22.4979 40.3636 24.5796 37.8182C26.0491 36 26.0491 33.3333 24.5796 31.3939C22.6203 28.9697 19.069 28.8485 16.9873 30.7879L16.7423 31.0303L16.2525 31.3939C14.2932 32.9697 11.3542 32.8485 9.51734 31.0303L9.27242 30.7879L8.90505 30.303C7.3131 28.3636 7.43556 25.4545 9.27242 23.6364C10.3745 22.6667 10.8644 21.3333 10.8644 20V19.6364C10.8644 18.4242 10.3745 17.2121 9.39488 16.3636C9.39488 16.2424 9.27242 16.2424 9.27242 16.1212L8.90505 15.6364C7.3131 13.697 7.43556 10.7879 9.27242 8.9697L9.39488 8.84849L9.51734 8.72727C11.4767 6.66667 14.6606 6.66667 16.6199 8.72727L16.7423 8.84849L16.8648 8.9697L17.1097 9.21212C17.2322 9.21212 17.2322 9.33333 17.3546 9.33333C17.4771 9.33333 17.4771 9.45455 17.5995 9.45455C17.722 9.45455 17.722 9.57576 17.8445 9.57576C17.9669 9.57576 17.9669 9.69697 18.0894 9.69697C18.2118 9.69697 18.2118 9.81818 18.3343 9.81818C18.4568 9.81818 18.4567 9.9394 18.5792 9.9394C18.7017 9.9394 18.7017 9.9394 18.8241 10.0606C18.9466 10.0606 18.9466 10.0606 19.069 10.1818H21.1508C21.2733 10.1818 21.3957 10.1818 21.5182 10.0606H21.7631C21.8856 10.0606 22.008 9.9394 22.1305 9.9394H22.2529C22.3754 9.9394 22.4979 9.81818 22.7428 9.69697C23.2326 9.45455 23.7224 9.09091 24.0898 8.72727L24.2123 8.60606C26.1716 6.54546 29.3555 6.54546 31.3148 8.60606C33.3966 11.0303 37.1928 10.9091 39.1521 8.36364C40.6216 6.54546 40.6216 3.87879 39.1521 2.06061Z" fill="#AD99D8"/>
<path d="M67.0723 17.0909C66.3375 16.3636 65.7252 15.8788 64.868 15.5152C64.1333 15.1515 63.2761 14.9091 62.174 14.9091C61.1943 14.9091 60.2146 15.1515 59.4799 15.5152C58.7451 15.8788 58.1329 16.3636 57.643 17.0909C57.1532 17.697 56.7858 18.4242 56.5409 19.2727C56.296 20.1212 56.1735 20.9697 56.1735 21.8182C56.1735 22.6667 56.296 23.5152 56.6634 24.3636C56.9083 25.2121 57.3981 25.8182 57.8879 26.4242C58.3778 27.0303 59.1125 27.5152 59.8473 27.8788C60.582 28.2424 61.4392 28.3636 62.4189 28.3636C63.521 28.3636 64.3782 28.1212 65.1129 27.7576C65.8477 27.3939 66.5824 26.9091 67.1947 26.1818L69.7663 28.8485C68.7867 29.9394 67.6846 30.6667 66.46 31.1515C65.2354 31.6364 63.8884 31.8788 62.4189 31.8788C60.9494 31.8788 59.4799 31.6364 58.2553 31.1515C57.0307 30.6667 55.9286 29.9394 55.0714 29.0909C54.2142 28.2424 53.4795 27.1515 52.9896 25.9394C52.4998 24.7273 52.2549 23.2727 52.2549 21.8182C52.2549 20.3636 52.4998 18.9091 52.9896 17.697C53.4795 16.4848 54.2142 15.3939 55.0714 14.4242C55.9286 13.5758 57.0307 12.8485 58.2553 12.3636C59.4799 11.8788 60.9494 11.6364 62.4189 11.6364C63.8884 11.6364 65.2354 11.8788 66.46 12.3636C67.807 12.8485 68.9091 13.697 69.8888 14.6667L67.0723 17.0909ZM75.3994 21.5758C75.3994 22.5455 75.5218 23.5152 75.8892 24.2424C76.1341 25.0909 76.624 25.8182 77.1138 26.4242C77.6036 27.0303 78.3384 27.5152 79.0731 27.7576C79.8079 28.1212 80.7875 28.2424 81.7672 28.2424C82.7469 28.2424 83.6041 28.1212 84.4613 27.7576C85.196 27.3939 85.9308 26.9091 86.4206 26.4242C86.9104 25.8182 87.4002 25.0909 87.6452 24.2424C87.8901 23.3939 88.135 22.5455 88.135 21.5758C88.135 20.6061 88.0125 19.6364 87.6452 18.9091C87.4002 18.0606 86.9104 17.3333 86.4206 16.7273C85.9308 16.1212 85.196 15.6364 84.4613 15.3939C83.7265 15.0303 82.7469 14.9091 81.7672 14.9091C80.7875 14.9091 79.9303 15.0303 79.0731 15.3939C78.3384 15.7576 77.6036 16.2424 77.1138 16.7273C76.624 17.3333 76.1341 18.0606 75.8892 18.9091C75.6443 19.7576 75.3994 20.6061 75.3994 21.5758ZM71.4807 21.5758C71.4807 20.1212 71.7257 18.7879 72.2155 17.5758C72.7053 16.3636 73.4401 15.2727 74.4197 14.303C75.3994 13.3333 76.3791 12.6061 77.7261 12.1212C78.9507 11.6364 80.2977 11.2727 81.7672 11.2727C83.2367 11.2727 84.5837 11.5152 85.8083 12.1212C87.0329 12.6061 88.135 13.3333 89.1147 14.303C90.0943 15.2727 90.7066 16.3636 91.3189 17.5758C91.8087 18.7879 92.0536 20.1212 92.0536 21.5758C92.0536 23.0303 91.8087 24.3636 91.3189 25.5758C90.8291 26.7879 90.0943 27.8788 89.1147 28.8485C88.135 29.8182 87.1553 30.4242 85.8083 31.0303C84.5837 31.5152 83.2367 31.8788 81.7672 31.8788C80.2977 31.8788 78.9507 31.6364 77.7261 31.0303C76.5015 30.5455 75.3994 29.8182 74.4197 28.8485C73.4401 27.8788 72.8278 26.9091 72.2155 25.5758C71.8481 24.3636 71.4807 23.0303 71.4807 21.5758ZM95.8498 31.3939H99.5236V12H95.8498V31.3939ZM94.9926 4.9697C94.9926 4.24242 95.2375 3.63636 95.7274 3.0303C96.2172 2.54545 96.8295 2.18182 97.5642 2.18182C98.299 2.18182 98.9113 2.42424 99.4011 3.0303C99.8909 3.51515 100.136 4.24242 100.136 4.9697C100.136 5.69697 99.8909 6.30303 99.4011 6.90909C98.9113 7.39394 98.299 7.75758 97.5642 7.75758C96.8295 7.75758 96.2172 7.51515 95.7274 6.90909C95.2375 6.42424 94.9926 5.69697 94.9926 4.9697ZM104.667 12H108.341V15.0303H108.463C108.953 13.9394 109.688 13.0909 110.912 12.4848C112.014 11.8788 113.361 11.5152 114.953 11.5152C115.933 11.5152 116.79 11.6364 117.647 12C118.505 12.2424 119.239 12.7273 119.852 13.3333C120.464 13.9394 120.954 14.6667 121.443 15.6364C121.811 16.6061 122.056 17.697 122.056 19.0303V31.5152H118.382V20C118.382 19.1515 118.26 18.303 118.015 17.697C117.77 17.0909 117.402 16.4848 117.035 16.1212C116.668 15.7576 116.178 15.3939 115.566 15.2727C115.076 15.1515 114.463 15.0303 113.851 15.0303C113.116 15.0303 112.382 15.1515 111.769 15.3939C111.157 15.6364 110.545 16 110.055 16.6061C109.565 17.0909 109.198 17.8182 108.953 18.6667C108.708 19.5152 108.585 20.4848 108.585 21.5758V31.6364H104.912V12H104.667ZM135.649 28.3636C136.628 28.3636 137.485 28.2424 138.343 27.8788C139.2 27.5152 139.812 27.0303 140.424 26.4242C140.914 25.8182 141.404 25.0909 141.649 24.2424C141.894 23.3939 142.139 22.5455 142.139 21.4545C142.139 20.4848 142.016 19.5152 141.649 18.6667C141.404 17.8182 140.914 17.0909 140.424 16.4848C139.812 15.8788 139.2 15.3939 138.343 15.0303C137.485 14.6667 136.628 14.5455 135.649 14.5455C134.669 14.5455 133.812 14.6667 132.955 15.0303C132.097 15.3939 131.485 15.8788 130.873 16.4848C130.383 17.0909 129.893 17.8182 129.648 18.6667C129.403 19.5152 129.158 20.3636 129.158 21.4545C129.158 22.4242 129.281 23.3939 129.648 24.2424C129.893 25.0909 130.383 25.8182 130.873 26.4242C131.363 27.0303 132.097 27.5152 132.955 27.8788C133.689 28.1212 134.669 28.3636 135.649 28.3636ZM145.813 31.2727H142.139V28.4848H142.016C141.282 29.5758 140.302 30.303 139.077 30.9091C137.853 31.5152 136.506 31.7576 135.159 31.7576C133.689 31.7576 132.22 31.5152 130.995 31.0303C129.771 30.5455 128.668 29.8182 127.811 28.8485C126.954 27.8788 126.219 26.7879 125.852 25.5758C125.362 24.3636 125.117 23.0303 125.117 21.5758C125.117 20.1212 125.362 18.7879 125.852 17.4545C126.342 16.2424 126.954 15.1515 127.811 14.1818C128.668 13.2121 129.771 12.4848 130.995 12C132.22 11.5152 133.567 11.2727 135.159 11.2727C136.506 11.2727 137.853 11.5152 139.077 12.1212C140.302 12.7273 141.282 13.5758 141.894 14.5455H142.016V0H145.69V31.2727H145.813ZM164.549 20C164.549 19.1515 164.426 18.4242 164.181 17.697C163.936 16.9697 163.569 16.3636 163.079 15.8788C162.589 15.3939 161.977 15.0303 161.365 14.6667C160.63 14.4242 159.895 14.1818 158.916 14.1818C158.058 14.1818 157.201 14.303 156.466 14.6667C155.732 15.0303 155.119 15.3939 154.507 16C154.017 16.4848 153.527 17.0909 153.283 17.8182C153.038 18.5455 152.793 19.1515 152.793 19.7576H164.549V20ZM152.793 23.0303C152.793 23.8788 153.038 24.6061 153.405 25.3333C153.772 26.0606 154.262 26.6667 154.874 27.1515C155.487 27.6364 156.221 28 156.956 28.2424C157.813 28.4848 158.548 28.6061 159.405 28.6061C160.507 28.6061 161.61 28.3636 162.467 27.7576C163.324 27.2727 164.059 26.5455 164.794 25.697L167.61 27.8788C165.528 30.5455 162.589 31.8788 158.916 31.8788C157.324 31.8788 155.977 31.6364 154.752 31.1515C153.527 30.6667 152.425 29.9394 151.568 28.9697C150.711 28 149.976 27.0303 149.609 25.697C149.119 24.4848 148.874 23.1515 148.874 21.697C148.874 20.2424 149.119 18.9091 149.609 17.697C150.099 16.4848 150.833 15.3939 151.691 14.4242C152.548 13.4545 153.65 12.8485 154.874 12.2424C156.099 11.7576 157.446 11.5152 158.916 11.5152C160.63 11.5152 162.099 11.7576 163.324 12.3636C164.549 12.9697 165.528 13.697 166.263 14.6667C166.998 15.6364 167.61 16.7273 167.977 17.9394C168.345 19.1515 168.467 20.3636 168.467 21.697V23.0303H152.793ZM182.917 16.8485C182.427 16.3636 181.938 15.8788 181.325 15.5152C180.713 15.1515 179.856 14.9091 178.999 14.9091C178.141 14.9091 177.407 15.1515 176.672 15.5152C176.06 15.8788 175.692 16.3636 175.692 17.0909C175.692 17.697 175.937 18.1818 176.305 18.4242C176.672 18.7879 177.162 19.0303 177.652 19.2727C178.141 19.5152 178.754 19.6364 179.244 19.7576C179.856 19.8788 180.346 20 180.713 20C181.448 20.2424 182.305 20.3636 182.917 20.7273C183.652 20.9697 184.264 21.3333 184.754 21.8182C185.244 22.303 185.611 22.7879 185.979 23.3939C186.224 24 186.469 24.7273 186.469 25.697C186.469 26.7879 186.224 27.7576 185.734 28.4848C185.244 29.2121 184.632 29.9394 183.897 30.4242C183.162 30.9091 182.305 31.2727 181.325 31.5152C180.346 31.7576 179.366 31.8788 178.509 31.8788C176.917 31.8788 175.447 31.6364 174.223 31.1515C172.998 30.6667 171.896 29.8182 170.916 28.4848L173.733 26.1818C174.345 26.7879 174.958 27.2727 175.692 27.7576C176.427 28.2424 177.284 28.4848 178.386 28.4848C178.876 28.4848 179.366 28.4848 179.856 28.3636C180.346 28.2424 180.713 28.1212 181.08 27.8788C181.448 27.6364 181.693 27.3939 181.938 27.1515C182.183 26.7879 182.305 26.4242 182.305 26.0606C182.305 25.5758 182.183 25.0909 181.815 24.7273C181.448 24.3636 181.08 24.1212 180.591 23.8788C180.101 23.6364 179.611 23.5151 179.121 23.3939L177.652 23.0303C176.917 22.7879 176.06 22.6667 175.447 22.4242C174.713 22.1818 174.1 21.8182 173.61 21.4545C173.121 21.0909 172.631 20.4848 172.263 19.8788C171.896 19.2727 171.774 18.4242 171.774 17.5758C171.774 16.6061 172.019 15.6364 172.386 14.9091C172.753 14.1818 173.366 13.5758 174.1 13.0909C174.835 12.6061 175.57 12.2424 176.427 12C177.284 11.7576 178.264 11.6364 179.121 11.6364C180.468 11.6364 181.693 11.8788 182.917 12.3636C184.142 12.8485 185.122 13.697 185.856 14.7879L182.917 16.8485ZM190.02 0.484848H193.694V20.1212L202.021 11.8788H207.041L198.102 20.6061L207.899 31.0303H202.633L193.694 21.0909V31.0303H190.02V0.484848Z" fill="#AD99D8"/>
</g>
<defs>
<clipPath id="clip0">
<rect width="211.852" height="40" fill="white" transform="translate(0.333008)"/>
</clipPath>
</defs>
</svg>
