<svg width="103" height="24" viewBox="0 0 103 24" fill="none" xmlns="http://www.w3.org/2000/svg">
<path d="M10.9577 3.14673C8.89376 5.50536 8.5185 6.8157 8.5185 6.8157C5.77166 14.6944 10.7326 20.0689 13.3594 21.4036C15.1448 22.5438 16.7988 22.8998 16.8118 22.9517C16.8494 23.1015 14.8229 24 11.9334 24C6.71723 24 0 19.732 0 11.7202C0 4.79402 6.30444 -0.110426 11.9334 0.00189012C17.4498 0.00189012 21.7653 3.93294 23.0412 7.30241C24.6624 10.6269 23.8668 14.6528 23.2664 16.2502C21.6152 17.1862 17.8626 18.4591 14.0349 16.2502C7.61036 11.9972 9.2315 5.3556 10.9577 3.14673Z" fill="white"/>
<path d="M33.96 16H36.864C39.588 16 41.508 14.284 41.508 11.872C41.508 9.46 39.588 7.756 36.864 7.756H33.96V16ZM35.46 14.644V9.112H37.02C38.76 9.112 39.984 10.252 39.984 11.872C39.984 13.492 38.76 14.644 37.02 14.644H35.46ZM45.2009 16H46.6889V9.124H49.3289V7.756H42.5609V9.124H45.2009V16ZM54.6298 16.144C55.8418 16.144 56.9458 15.628 57.7378 14.8L56.6818 13.816C56.1658 14.404 55.4338 14.776 54.6298 14.776C53.1058 14.776 51.8218 13.456 51.8218 11.872C51.8218 10.3 53.1058 8.98 54.6298 8.98C55.4218 8.98 56.1658 9.352 56.6698 9.94L57.7378 8.944C56.9458 8.128 55.8418 7.612 54.6298 7.612C52.2778 7.612 50.2978 9.556 50.2978 11.872C50.2978 14.188 52.2778 16.144 54.6298 16.144ZM66.3134 16.144C67.5254 16.144 68.6294 15.628 69.4214 14.8L68.3654 13.816C67.8494 14.404 67.1174 14.776 66.3134 14.776C64.7894 14.776 63.5054 13.456 63.5054 11.872C63.5054 10.3 64.7894 8.98 66.3134 8.98C67.1054 8.98 67.8494 9.352 68.3534 9.94L69.4214 8.944C68.6294 8.128 67.5254 7.612 66.3134 7.612C63.9614 7.612 61.9814 9.556 61.9814 11.872C61.9814 14.188 63.9614 16.144 66.3134 16.144ZM73.2306 9.652C72.4506 9.652 71.6346 9.868 70.7586 10.3L71.2626 11.32C71.7906 11.056 72.3546 10.852 72.9426 10.852C74.0706 10.852 74.4666 11.548 74.4666 12.268V12.436C73.9026 12.22 73.2906 12.1 72.7266 12.1C71.3346 12.1 70.1946 12.94 70.1946 14.164C70.1946 15.364 71.1906 16.144 72.5106 16.144C73.2306 16.144 74.0106 15.832 74.4666 15.256V16H75.8946V12.268C75.8946 10.696 74.8746 9.652 73.2306 9.652ZM72.8346 15.076C72.1386 15.076 71.6226 14.704 71.6226 14.116C71.6226 13.528 72.2106 13.12 72.9426 13.12C73.4946 13.12 74.0106 13.204 74.4666 13.36V14.056C74.2986 14.716 73.5426 15.076 72.8346 15.076ZM81.1398 9.652C80.2158 9.652 79.4718 10.072 78.9798 10.78V9.796H77.5158V18.064H78.9798V15.016C79.4718 15.724 80.2158 16.144 81.1398 16.144C82.7838 16.144 83.9838 14.8 83.9838 12.892C83.9838 10.996 82.7838 9.652 81.1398 9.652ZM80.7438 14.896C79.7118 14.896 78.9918 14.056 78.9918 12.892C78.9918 11.728 79.7118 10.9 80.7438 10.9C81.7878 10.9 82.5318 11.728 82.5318 12.892C82.5318 14.056 81.7878 14.896 80.7438 14.896ZM86.0519 8.86C86.5079 8.86 86.8799 8.464 86.8799 8.02C86.8799 7.576 86.5079 7.192 86.0519 7.192C85.5839 7.192 85.2119 7.576 85.2119 8.02C85.2119 8.464 85.5839 8.86 86.0519 8.86ZM85.3079 16H86.7719V9.796H85.3079V16ZM91.4859 14.668C91.3539 14.8 91.1259 14.896 90.8739 14.896C90.5259 14.896 90.2619 14.596 90.2619 14.176V11.008H91.6659V9.796H90.2619V8.092H88.8339V9.796H87.9339V11.008H88.8339V14.356C88.8339 15.4 89.5539 16.144 90.5859 16.144C91.0539 16.144 91.5579 15.952 91.9059 15.652L91.4859 14.668ZM95.7423 9.652C94.9623 9.652 94.1463 9.868 93.2703 10.3L93.7743 11.32C94.3023 11.056 94.8663 10.852 95.4543 10.852C96.5823 10.852 96.9783 11.548 96.9783 12.268V12.436C96.4143 12.22 95.8023 12.1 95.2383 12.1C93.8463 12.1 92.7063 12.94 92.7063 14.164C92.7063 15.364 93.7023 16.144 95.0223 16.144C95.7423 16.144 96.5223 15.832 96.9783 15.256V16H98.4063V12.268C98.4063 10.696 97.3863 9.652 95.7423 9.652ZM95.3463 15.076C94.6503 15.076 94.1343 14.704 94.1343 14.116C94.1343 13.528 94.7223 13.12 95.4543 13.12C96.0063 13.12 96.5223 13.204 96.9783 13.36V14.056C96.8103 14.716 96.0543 15.076 95.3463 15.076ZM99.9915 16H101.456V7.612H99.9915V16Z" fill="white"/>
</svg>
