<svg xmlns="http://www.w3.org/2000/svg" width="29" height="28" viewBox="0 0 29 28">
  <g fill="none" fill-rule="evenodd" stroke="#FFF" stroke-linecap="round" stroke-linejoin="round" stroke-width="2" transform="translate(1.5 1)">
    <path d="M5.80682188,12.3179598 C5.80677217,12.0261496 5.92222652,11.746349 6.12763758,11.5404714 C6.33304863,11.3345938 6.6114806,11.2196135 6.90132299,11.220973 L8.71589524,11.2269636 C9.3183901,11.2269636 9.80680868,11.718693 9.80680868,12.3252719 L9.80680868,19.2333289 C10.0112182,19.1723656 10.2733805,19.1073499 10.5605689,19.039515 C10.9711067,18.9422411 11.2612791,18.5734649 11.2613891,18.1488519 L11.2613891,9.57998569 C11.2613408,8.97334386 11.7497452,8.48151041 12.3523026,8.4814131 L14.17055,8.4814131 C14.7730873,8.48155904 15.2614634,8.973364 15.2614634,9.57998569 L15.2614634,17.5330522 C15.2614634,17.5330522 15.7164847,17.3475194 16.1600429,17.1590794 C16.496756,17.0156739 16.7156547,16.6834523 16.7159564,16.3153721 L16.7159564,6.83373042 C16.7159331,6.54246431 16.8308369,6.26311842 17.03539,6.05714566 C17.2399431,5.8511729 17.5173898,5.73544548 17.8066948,5.73542212 L19.6249422,5.73542212 C20.2274512,5.73542212 20.7158948,6.22713724 20.7159432,6.83373042 L20.7159432,14.6413484 C22.2922418,13.4912389 23.8898039,12.1078479 25.1575631,10.4444839 C25.5311568,9.95407038 25.6358035,9.30780956 25.4362636,8.72332813 C23.6787155,3.56653625 18.8940596,0.0762935405 13.4793552,0.00117273702 C6.35310989,-0.0952056441 0.463647344,5.76141081 0.464225128,12.9368429 C0.457350275,15.2073851 1.04596598,17.4395332 2.17067706,19.4075853 C2.48734244,19.9571528 3.09155023,20.2722805 3.72011193,20.2157012 C4.06409049,20.1852196 4.49233549,20.14214 5.00143427,20.0819696 C5.46015811,20.0294136 5.80679628,19.6388534 5.8072594,19.1740395 L5.8072594,12.3179598"/>
    <path d="M19.1489773,24.724299 C23.0685628,22.7245339 25.5363789,18.6901582 25.5356757,14.2833513 C25.5356757,14.0135608 25.5231707,13.7468025 25.5051706,13.4814805 C21.2327696,19.8651672 13.3442553,22.8499398 6.96424694,23.7586576 C10.5212503,26.3508483 15.2293918,26.7240641 19.1489773,24.724299 Z" transform="rotate(3 16.25 19.74)"/>
  </g>
</svg>
