<svg width="160" height="38" viewBox="0 0 160 38" fill="none" xmlns="http://www.w3.org/2000/svg">
<g clip-path="url(#clip0)">
<path d="M29.2958 0.481552C26.2405 0.494273 23.2011 2.10179 21.6842 5.30317L20.9834 6.78087V18.991V31.2011L21.6842 32.6788C22.7718 34.9741 24.4552 36.423 26.9783 37.2229C28.7865 37.7962 31.6689 37.4941 33.5075 36.5431C34.7001 35.9261 36.3878 34.0894 37.0392 32.6996L37.6359 31.4231V18.991V6.55887L36.9837 5.24073C35.4179 2.05218 32.3511 0.468836 29.2958 0.481552ZM29.4346 6.53112C29.5451 6.53178 29.6556 6.54273 29.7607 6.5658C30.113 6.64318 30.7006 7.0516 31.0721 7.47463L31.752 8.2447V18.9355V29.6263L31.2525 30.3547C30.9777 30.7573 30.4617 31.1882 30.1076 31.3121C29.7536 31.4361 29.3539 31.5359 29.2195 31.5341C28.6844 31.527 27.8539 30.9352 27.3738 30.2229L26.8673 29.4737V19.0188C26.8681 9.03914 26.8838 8.52755 27.2975 7.84926C27.7867 7.04702 28.6611 6.52592 29.4346 6.53112Z" fill="#AD99D8"/>
<path d="M99.2981 37.1068C96.7244 36.1524 95.0336 34.5082 94.0594 32.0122C93.7165 31.1339 93.6821 29.6505 93.6881 16.028L93.6947 1.01205L96.6936 0.950287L99.6925 0.888519L99.6958 15.2694C99.6983 26.3827 99.7626 29.7765 99.9787 30.2054C100.132 30.5106 100.612 30.9508 101.043 31.1835C102.014 31.7065 102.827 31.5458 103.718 30.6551L104.355 30.0175V15.453V0.888519L107.356 0.950287L110.357 1.01205L110.357 16.0364C110.356 30.7183 110.346 31.089 109.893 32.2974C109.24 34.0429 107.574 35.7952 105.722 36.6841C103.791 37.6109 101.13 37.786 99.2981 37.1068H99.2981Z" fill="#AD99D8"/>
<path d="M0 18.9942V0.901047H7.43813H14.8763V4.00908V7.11711H10.5466H6.21695V11.3466V15.5761L8.93686 15.5383L11.6568 15.5005L11.7186 18.5239L11.7803 21.5473H8.99864H6.21695V29.3173V37.0874H3.10847H0V18.9942Z" fill="#AD99D8"/>
<path d="M45.9619 18.9942V0.901047H50.578C55.6045 0.901047 56.9803 1.10919 58.7297 2.13431C60.0495 2.90761 61.4288 4.46234 62.1305 5.96754C62.6982 7.18526 62.7207 7.3881 62.793 11.9346C62.8532 15.7181 62.7979 16.9142 62.5109 18.0342C62.0966 19.6511 61.3415 21.0292 60.2984 22.0722L59.5607 22.8097L61.5069 29.4738C62.5773 33.139 63.521 36.3515 63.6039 36.6126C63.7531 37.0827 63.7228 37.0874 60.5504 37.0874H57.3463L56.4138 33.4799C55.4845 29.8849 53.1119 20.8783 52.9106 20.1818C52.8343 19.9179 52.9894 19.7748 53.4649 19.6704C54.3458 19.4769 55.9372 18.0884 56.3154 17.1833C56.5349 16.658 56.6195 15.3368 56.6195 12.4352V8.41497L55.9705 7.76604C55.3674 7.163 55.2025 7.11711 53.6392 7.11711H51.9568V22.1023V37.0874H48.9594H45.9619V18.9942Z" fill="#AD99D8"/>
<path d="M75.0446 36.9209C75.0433 36.8294 75.0184 30.111 74.9891 21.9913L74.9359 7.22811L72.216 7.16578L69.4961 7.10345V4.00224V0.901047H77.9334H86.3706V4.00908V7.11711H83.7062H81.0418V22.1023V37.0874H78.0444C76.3958 37.0874 75.0459 37.0125 75.0446 36.9209Z" fill="#AD99D8"/>
<path d="M118.344 18.9942V0.901053H121.406H124.469L124.705 1.73356C124.836 2.19144 125.847 5.41325 126.953 8.89314C128.058 12.373 129.279 16.2442 129.666 17.4957C130.052 18.7473 130.462 19.7713 130.577 19.7713C130.705 19.7713 130.781 16.1273 130.773 10.3917L130.758 1.01205L133.765 0.950287L136.773 0.888519V18.988V37.0874H133.377H129.982L129.346 35.0339C128.996 33.9045 128.38 31.9457 127.977 30.681C127.574 29.4164 126.673 26.5442 125.976 24.2985C125.278 22.0527 124.624 20.2153 124.523 20.2153C124.422 20.2153 124.339 24.0115 124.339 28.6513V37.0874H121.341H118.344V18.9942H118.344Z" fill="#AD99D8"/>
<path d="M144.767 18.9942V0.901047H152.205H159.643V4.00908V7.11711H155.197H150.752L150.812 11.2797L150.873 15.4422H153.704H156.535L156.535 18.4947L156.534 21.5473H153.648H150.762V26.2093V30.8714H155.202H159.643V33.9794V37.0874H152.205H144.767V18.9942H144.767Z" fill="#AD99D8"/>
</g>
<defs>
<clipPath id="clip0">
<rect width="159.642" height="37.037" fill="white" transform="translate(0 0.481476)"/>
</clipPath>
</defs>
</svg>
