<svg width="18" height="18" viewBox="0 0 18 18" fill="none" xmlns="http://www.w3.org/2000/svg">
<path d="M9 0C4.02979 0 0 4.13166 0 9.22752C0 13.3051 2.5785 16.7632 6.15509 17.9831C6.60498 18.0676 6.76923 17.7826 6.76923 17.5393C6.76923 17.3196 6.76099 16.592 6.75659 15.8215C4.25391 16.3791 3.72491 14.7334 3.72491 14.7334C3.31513 13.6678 2.7257 13.384 2.7257 13.384C1.90777 12.8117 2.78775 12.823 2.78775 12.823C3.69137 12.8872 4.16711 13.7737 4.16711 13.7737C4.97021 15.184 6.27428 14.7762 6.78625 14.5396C6.86805 13.9449 7.10097 13.5371 7.35754 13.3074C5.35968 13.0742 3.258 12.2823 3.258 8.74653C3.258 7.73839 3.60902 6.91613 4.18359 6.27013C4.09185 6.03584 3.78204 5.09698 4.27257 3.82697C4.27257 3.82697 5.02734 3.57916 6.74778 4.77315C7.46518 4.56759 8.23479 4.46621 8.99998 4.46282C9.76463 4.46621 10.5348 4.5687 11.2533 4.77427C12.9705 3.57916 13.7263 3.82809 13.7263 3.82809C14.2185 5.09923 13.9087 6.03696 13.8164 6.27013C14.3932 6.91613 14.7415 7.73841 14.7415 8.74653C14.7415 12.2913 12.6365 13.0719 10.6315 13.3006C10.9556 13.5867 11.2423 14.1477 11.2423 15.0082C11.2423 16.2417 11.2302 17.2363 11.2302 17.5404C11.2302 17.786 11.3939 18.0732 11.8499 17.9831C15.4237 16.7609 18 13.3029 18 9.22752C18 4.13166 13.9702 0 9 0Z" fill="#BBB2CE"/>
</svg>
