<svg xmlns="http://www.w3.org/2000/svg" width="30" height="28" viewBox="0 0 30 28">
  <g fill="none" transform="translate(1 1)">
    <path stroke="#FFF" stroke-linecap="round" stroke-linejoin="round" stroke-width="2" d="M7.6109091,19.7381818 C2.17454545,21.3690909 2.17454545,17.02 1.77635684e-15,16.4763636 M15.2218182,23 L15.2218182,18.7922545 C15.3043239,17.7434683 14.9320504,16.7098154 14.1997818,15.9544727 C17.6138182,15.5739273 21.2018182,14.2800727 21.2018182,8.3435636 C21.2015391,6.8255428 20.6176179,5.3657398 19.5709091,4.2662909 C20.0665487,2.93819439 20.0315039,1.47020532 19.4730545,0.16727273 C19.4730545,0.16727273 18.1900727,-0.21327273 15.2218182,1.77643636 C12.729799,1.10104619 10.1029283,1.10104619 7.6109091,1.77643636 C4.6426545,-0.21327273 3.35967273,0.16727273 3.35967273,0.16727273 C2.80122336,1.47020532 2.76617853,2.93819439 3.26181818,4.2662909 C2.20730184,5.3738953 1.62277917,6.8468924 1.63074343,8.3761818 C1.63074343,14.2692 5.2189091,15.5630545 8.6329455,15.9870909 C7.9094955,16.73466 7.537922,17.7545107 7.6109091,18.7922545 L7.6109091,23"/>
    <path fill="#FFF" d="M28.4193511,21.00122 L26.6774818,21.00122 L26.6774818,19.0484265 L28.2148078,17.4598318 C28.4415706,17.2255526 28.4415706,16.8455939 28.2148078,16.6113146 C27.9880838,16.3770354 27.6204169,16.3770354 27.3936542,16.6113146 L26.4762289,17.5593515 C25.9774515,16.0713564 24.6075459,15 23,15 C21.3924541,15 20.0227034,16.0714764 19.5239647,17.5595515 L18.6063459,16.6113146 C18.3796605,16.3769554 18.0119936,16.3770354 17.7851922,16.6113146 C17.5583907,16.8455939 17.5584294,17.2255126 17.7851922,17.4598318 L19.3225956,19.0485065 L19.3225956,21.00122 L17.5806489,21.00122 C17.2599759,21.00122 17,21.2698591 17,21.601218 C17,21.9325769 17.2599759,22.201216 17.5806489,22.201216 L19.3277828,22.201216 C19.3608797,22.8537738 19.5541971,23.4632518 19.867554,23.98841 L17.9442513,25.9757234 C17.7174885,26.2100026 17.7174885,26.5898814 17.9442513,26.8242406 C18.0576326,26.9414402 18.20624,27 18.3548475,27 C18.5034161,27 18.6520623,26.9414002 18.7654049,26.8242406 L20.6271589,24.900527 C21.2681179,25.4612451 22.0964716,25.799964 23.0001161,25.799964 C23.0008516,25.799964 23.0015484,25.799924 23.0023226,25.799924 C23.0027484,25.799924 23.0031742,25.800004 23.0036,25.800004 C23.0043355,25.800004 23.0050323,25.799884 23.0057678,25.799884 C23.9071284,25.798484 24.7333531,25.4601251 25.3728798,24.900567 L27.2345951,26.8242406 C27.3479764,26.9414002 27.4965838,27 27.6451525,27 C27.79376,27 27.9423674,26.9414002 28.0557487,26.8242406 C28.2825115,26.5899214 28.2825115,26.2100426 28.0557487,25.9757234 L26.1325234,23.98849 C26.445919,23.4632518 26.6391977,22.8538538 26.6722947,22.201216 L28.4193511,22.201216 C28.7400241,22.201216 29,21.9325769 29,21.601218 C29,21.2698591 28.7400241,21.00122 28.4193511,21.00122 Z M23,16.199996 C24.1876593,16.199996 25.185756,17.0545931 25.4485577,18.199996 L20.5515197,18.199996 C20.8142827,17.0545931 21.8123407,16.199996 23,16.199996 Z M20.4838934,21.9999767 L20.4838934,21.6290979 C20.4843192,21.6198179 20.4852483,21.610618 20.4852483,21.601258 C20.4852483,21.591898 20.4843192,21.5826981 20.4838934,21.5734581 L20.4838934,19.4000253 L22.4229511,19.4000253 L22.4229511,24.5301682 C21.3128665,24.2597691 20.4838934,23.2283326 20.4838934,21.9999767 Z M23.5842489,24.5284882 L23.5842489,19.3999853 L25.516184,19.3999853 L25.516184,21.5718581 C25.5157195,21.5816181 25.5147517,21.591298 25.5147517,21.601218 C25.5147517,21.611138 25.5157195,21.6208179 25.516184,21.6305779 L25.516184,21.9999367 C25.516184,23.2258126 24.6907335,24.2555292 23.5842489,24.5284882 Z"/>
  </g>
</svg>
