<svg xmlns="http://www.w3.org/2000/svg" width="24" height="25" viewBox="0 0 24 25">
  <path fill="none" stroke="#FFF" stroke-linecap="round" stroke-linejoin="round" stroke-width="2" d="M7.6109091,19.7381818 C2.1745455,21.3690909 2.1745455,17.02 1.77635684e-15,16.4763636 M15.2218182,23 L15.2218182,18.7922545 C15.3043239,17.7434683 14.9320504,16.7098154 14.1997818,15.9544727 C17.6138182,15.5739273 21.2018182,14.2800727 21.2018182,8.3435636 C21.2015391,6.8255428 20.6176179,5.3657398 19.5709091,4.2662909 C20.0665487,2.9381944 20.0315039,1.4702053 19.4730545,0.1672727 C19.4730545,0.1672727 18.1900727,-0.21327273 15.2218182,1.7764364 C12.729799,1.1010462 10.1029283,1.1010462 7.6109091,1.7764364 C4.6426545,-0.21327273 3.3596727,0.1672727 3.3596727,0.1672727 C2.8012234,1.4702053 2.7661785,2.9381944 3.2618182,4.2662909 C2.2073018,5.3738953 1.6227792,6.8468924 1.63074342,8.3761818 C1.63074342,14.2692 5.2189091,15.5630545 8.6329455,15.9870909 C7.9094955,16.73466 7.537922,17.7545107 7.6109091,18.7922545 L7.6109091,23" transform="translate(1 1)"/>
</svg>
