<svg stroke='white' fill='white' xmlns="http://www.w3.org/2000/svg" viewBox="0 0 283 65"><path d="M104.5 2.6H75.4v59.6h28.6c18.5-0.2 31.2-13.2 31.2-29.9C135.2 15.8 122.7 3.1 104.5 2.6zM104 52V52H86.1V12.9h18.1c11.7 0.3 19.4 8.5 19.4 19.6C123.5 43.7 115.8 51.8 104 52z"></path><polygon points="59.6 13.1 59.6 2.6 0 2.6 0 13.1 24.5 13.1 24.5 51.8 0 51.8 0 62.3 59.6 62.3 59.6 51.8 35.2 51.8 35.2 13.1 "></polygon><polygon points="208.4 13.1 208.4 2.6 148.2 2.6 148.2 62.3 208.4 62.3 208.4 51.8 159 51.8 159 37.7 197.5 37.7 197.5 27.2 159 27.2 159 13.1 "></polygon><path d="M250.7 0c-18.1 0-32.8 14.5-32.8 32.4 0 17.9 14.7 32.4 32.8 32.4 18.1 0 32.8-14.5 32.8-32.4C283.5 14.5 268.8 0 250.7 0zM250.7 53.7c-11.8 0-21.5-9.5-21.5-21.2 0-11.7 9.6-21.2 21.5-21.2 11.8 0 21.5 9.5 21.5 21.2C272.2 44.2 262.5 53.7 250.7 53.7z"></path></svg>