<svg width="128" height="52" viewBox="0 0 128 52" fill="none" xmlns="http://www.w3.org/2000/svg">
<g clip-path="url(#clip0_1602_1407)">
<path d="M3.42979 38.4L25.5998 51.2L47.7698 38.4V12.8L25.5998 0.00100708L3.42979 12.801V38.4Z" fill="url(#paint0_linear_1602_1407)"/>
<path d="M23.3113 3.084L7.2373 12.3646C7.26943 12.65 7.26943 12.9381 7.2373 13.2235L23.3123 22.5041C24.6677 21.504 26.5166 21.504 27.872 22.5041L43.947 13.2234C43.9149 12.938 43.9147 12.6501 43.9469 12.3646L27.8729 3.08404C26.5175 4.08414 24.6685 4.08414 23.313 3.08404L23.3113 3.084ZM45.4903 15.787L29.3983 25.171C29.5867 26.8449 28.6622 28.4461 27.1184 29.1199L27.1365 47.5779C27.3997 47.6928 27.6491 47.8368 27.8803 48.0073L43.9553 38.7268C43.7669 37.0529 44.6914 35.4516 46.2352 34.7778V16.2168C45.9719 16.1019 45.7224 15.9579 45.4912 15.7874L45.4903 15.787ZM5.7093 15.8902C5.47818 16.0607 5.22876 16.2048 4.9655 16.3197V34.8807C6.5093 35.5545 7.4338 37.1557 7.2454 38.8296L23.3194 48.1102C23.5505 47.9397 23.8001 47.7955 24.0633 47.6807V29.1197C22.5195 28.4459 21.595 26.8447 21.7834 25.1708L5.70944 15.8897L5.7093 15.8902Z" fill="url(#paint1_linear_1602_1407)"/>
<path d="M25.6 51.2L47.77 38.4V12.8L25.6 25.6V51.2Z" fill="black" fill-opacity="0.25098"/>
<path d="M25.6 51.2V25.6L3.42999 12.8V38.4L25.6 51.2Z" fill="black" fill-opacity="0.039216"/>
<path d="M3.42979 12.8L25.5998 25.6L47.7698 12.8L25.5998 0L3.42979 12.8Z" fill="black" fill-opacity="0.13018"/>
</g>
<path d="M60.609 12.895H57.599V38.445H60.609V12.895Z" fill="white"/>
<path d="M73.759 25.145C72.604 25.145 69.314 25.11 69.314 25.11V15.59H74.599C77.749 15.59 80.024 16.815 80.024 19.825C80.024 22.38 79.569 25.145 73.759 25.145V25.145ZM69.314 38.445V27.525C70.609 27.63 72.429 27.77 73.479 27.77C81.039 27.77 83.104 24.515 83.104 19.755C83.104 14.82 79.394 12.895 74.529 12.895H66.269V38.445H69.314V38.445Z" fill="white"/>
<path d="M99.899 24.13H89.364V15.52H100.249L100.494 12.895H86.354V38.445H89.364V26.58H99.899V24.13V24.13Z" fill="white"/>
<path d="M104.119 34.28C106.394 35.4 109.334 36.24 112.589 36.24C116.229 36.24 118.154 34.63 118.154 31.165C118.154 29.1 117.314 27.7 114.059 26.895L109.019 25.635C105.484 24.76 103.279 22.87 103.279 19.475C103.279 14.505 106.989 12.37 112.589 12.37C115.704 12.37 118.504 13.14 120.254 14.225L119.379 16.605C118.014 15.87 115.319 14.995 112.554 14.995C108.494 14.995 106.359 16.36 106.359 19.3C106.359 21.295 107.689 22.38 110.139 22.975L114.934 24.13C118.749 25.04 121.199 26.895 121.199 31.06C121.199 36.38 117.629 38.83 112.414 38.83C107.969 38.83 104.784 37.675 103.244 36.73L104.119 34.28V34.28Z" fill="white"/>
<defs>
<linearGradient id="paint0_linear_1602_1407" x1="3.42979" y1="25.6" x2="47.7703" y2="25.6" gradientUnits="userSpaceOnUse">
<stop stop-color="#4A9EA1"/>
</linearGradient>
<linearGradient id="paint1_linear_1602_1407" x1="4.9658" y1="25.597" x2="46.2343" y2="25.597" gradientUnits="userSpaceOnUse">
<stop stop-color="#63D3D7"/>
</linearGradient>
<clipPath id="clip0_1602_1407">
<rect width="51.2" height="51.2" fill="white"/>
</clipPath>
</defs>
</svg>
