<svg width="42" height="41" viewBox="0 0 42 41" fill="none" xmlns="http://www.w3.org/2000/svg">
<path d="M21 0C9.4045 0 0 9.40275 0 21C0 30.2785 6.0165 38.15 14.3622 40.9272C15.4105 41.1215 15.75 40.4705 15.75 39.9175V36.008C9.9085 37.2785 8.69225 33.53 8.69225 33.53C7.73675 31.1027 6.3595 30.457 6.3595 30.457C4.45375 29.1532 6.50475 29.1812 6.50475 29.1812C8.6135 29.3282 9.723 31.346 9.723 31.346C11.5955 34.5555 14.6353 33.628 15.834 33.0908C16.0212 31.7345 16.5655 30.807 17.1675 30.2838C12.5038 29.75 7.60025 27.9492 7.60025 19.9045C7.60025 17.6102 8.421 15.7378 9.76325 14.2677C9.54625 13.7375 8.827 11.6007 9.968 8.70975C9.968 8.70975 11.732 8.14625 15.7447 10.8622C17.4195 10.3967 19.215 10.164 21 10.1552C22.785 10.164 24.5822 10.3967 26.2605 10.8622C30.2697 8.14625 32.0303 8.70975 32.0303 8.70975C33.173 11.6025 32.4538 13.7393 32.2367 14.2677C33.5842 15.7378 34.398 17.612 34.398 19.9045C34.398 27.9702 29.4858 29.7465 24.8097 30.2663C25.5623 30.9172 26.25 32.1948 26.25 34.1548V39.9175C26.25 40.4757 26.586 41.132 27.6517 40.9255C35.9905 38.1447 42 30.275 42 21C42 9.40275 32.5972 0 21 0Z" fill="white"/>
</svg>
