<svg width="1163" height="246" viewBox="0 0 1163 246" fill="none" xmlns="http://www.w3.org/2000/svg">
<path d="M135.5 25.5C116.7 31.9 112.667 62.5 112.5 78C117.5 75.5 130.6 67.9999 147 61.9999C163.4 55.9999 176.833 52.5 182.5 50.5C174 39.1666 154.3 19.1 135.5 25.5Z" fill="white"/>
<path d="M2.49996 180C-14.3 151.2 66.5 104.333 109 84.4999L137 71.9999C187.5 51.4999 298.6 16.7999 339 41.9999C379.4 67.1999 268.5 112.167 208 132.5L199.5 127.5L201.5 122.5L203.5 118C206.5 118.167 206.8 116.5 210 110.5C214 103 203.5 99.7224 178 103.5C160.5 106.092 152.656 108.822 138.5 116C126.359 122.156 122 128.5 116.5 137C115.206 139 117.5 137 121.5 137C118.7 145 120.333 159.333 121.5 164.5C87.6667 182.333 19.3 208.8 2.49996 180Z" fill="white"/>
<path fill-rule="evenodd" clip-rule="evenodd" d="M292 168.5C279.333 185.167 243.199 208.5 203.999 168.5C200.938 165.376 197.887 160.74 195.732 155.094C194.752 154.837 194.412 154.517 194.412 154.24C192.714 158.656 184.853 167.322 166 168.501C150.866 169.446 136.602 168.176 128.056 166.943C132.116 193.573 149.089 217.336 184.499 231.5C236.5 248 274.999 215.5 285.499 191C293.899 171.4 293.666 167.833 292 168.5ZM127.654 163.939L132.5 162.001L143 157.501C154 152.501 162 148.001 174 133.501C181 126.5 189 127.5 191.5 133.501L193.252 132.068C194.429 124.481 197.682 116.438 203.999 108.5C193.833 106.333 164.799 107.5 129.999 129.5C127.276 141.109 126.361 152.752 127.654 163.939Z" fill="white"/>
<path d="M155.327 156.148C163.636 152.948 168.837 148.407 177.902 139.125C183.189 134.644 189.232 135.284 191.12 139.125L195.275 136.245C197.038 138.485 202.98 142.966 212.648 142.966C218.713 142.966 221.726 142.546 223.068 142.102C223.394 141.849 223.699 141.603 223.979 141.366C224.073 141.565 223.866 141.838 223.068 142.102C218.116 145.936 208.121 151.307 201.318 151.547C194.882 151.774 193.325 151.178 193.32 150.743C192.038 153.656 186.099 161.605 171.859 162.359C157.355 163.127 143.91 163.273 139 162.42L146.554 159.859L155.327 156.148Z" fill="white"/>
<path d="M445.42 172V91.5001H458.3L474.975 127.84L491.65 91.5001H504.53V172H492.915V114.73L479.805 143.48H470.145L457.035 114.845V172H445.42Z" fill="white"/>
<path d="M519.13 172V91.5001H570.535V102.425H531.32V125.885H567.085V136.695H531.32V161.075H570.535V172H519.13Z" fill="white"/>
<path d="M607.79 172V102.425H586.17V91.5001H641.6V102.425H619.98V172H607.79Z" fill="white"/>
<path d="M652.06 172L676.095 91.5001H690.585L714.62 172H701.395L695.99 152.68H670.69L665.285 172H652.06ZM682.995 108.75L673.45 142.905H693.23L683.685 108.75H682.995Z" fill="white"/>
<path d="M753.025 173.38C746.278 173.38 740.528 171.655 735.775 168.205C731.098 164.755 727.495 159.925 724.965 153.715C722.512 147.428 721.285 140.145 721.285 131.865C721.285 123.508 722.512 116.225 724.965 110.015C727.495 103.728 731.137 98.8601 735.89 95.4101C740.643 91.8835 746.355 90.1201 753.025 90.1201C761.688 90.1201 768.588 92.4968 773.725 97.2501C778.862 101.927 781.852 108.29 782.695 116.34H769.24C768.55 112.123 766.825 108.635 764.065 105.875C761.382 103.038 757.663 101.62 752.91 101.62C746.853 101.62 742.138 104.303 738.765 109.67C735.392 115.037 733.705 122.435 733.705 131.865C733.705 141.218 735.392 148.578 738.765 153.945C742.138 159.235 746.853 161.88 752.91 161.88C757.817 161.88 761.573 160.615 764.18 158.085C766.787 155.478 768.473 152.067 769.24 147.85H782.695C781.468 155.747 778.363 161.995 773.38 166.595C768.397 171.118 761.612 173.38 753.025 173.38Z" fill="white"/>
<path d="M790.97 172L815.005 91.5001H829.495L853.53 172H840.305L834.9 152.68H809.6L804.195 172H790.97ZM821.905 108.75L812.36 142.905H832.14L822.595 108.75H821.905Z" fill="white"/>
<path d="M865.83 172V91.5001H892.165C898.452 91.5001 903.627 92.5734 907.69 94.7201C911.83 96.8668 914.897 99.7801 916.89 103.46C918.96 107.063 919.995 111.165 919.995 115.765C919.995 120.978 918.653 125.617 915.97 129.68C913.363 133.667 909.338 136.58 903.895 138.42L920.8 172H906.655L891.245 140.145H878.02V172H865.83ZM878.02 129.105H891.475C896.995 129.105 901.02 127.878 903.55 125.425C906.157 122.972 907.46 119.752 907.46 115.765C907.46 111.702 906.195 108.482 903.665 106.105C901.135 103.652 897.033 102.425 891.36 102.425H878.02V129.105Z" fill="white"/>
<path d="M955.065 172V102.425H933.445V91.5001H988.875V102.425H967.255V172H955.065Z" fill="white"/>
<path d="M1005.32 172V91.5001H1056.72V102.425H1017.51V125.885H1053.27V136.695H1017.51V161.075H1056.72V172H1005.32Z" fill="white"/>
<path d="M1074.89 172V91.5001H1087.08V161.075H1126.75V172H1074.89Z" fill="white"/>
</svg>
