<svg width="23" height="23" viewBox="0 0 23 23" fill="none" xmlns="http://www.w3.org/2000/svg">
<rect width="23" height="23" fill="white"/>
<path d="M21.1551 13.1755H20.5968V12.059C20.5968 11.1706 20.2439 10.3187 19.6158 9.69053C18.9876 9.06239 18.1357 8.7095 17.2474 8.7095H12.7814V6.1668C13.2071 5.92102 13.5398 5.54165 13.7279 5.08751C13.916 4.63337 13.949 4.12985 13.8218 3.65504C13.6946 3.18024 13.4142 2.76068 13.0243 2.46144C12.6343 2.1622 12.1565 2 11.6649 2C11.1734 2 10.6955 2.1622 10.3056 2.46144C9.91558 2.76068 9.63524 3.18024 9.50801 3.65504C9.38079 4.12985 9.41379 4.63337 9.6019 5.08751C9.79001 5.54165 10.1227 5.92102 10.5484 6.1668V8.7095H6.08245C5.19412 8.7095 4.34217 9.06239 3.71402 9.69053C3.08587 10.3187 2.73298 11.1706 2.73298 12.059V13.1755H2.17474C1.73057 13.1755 1.30459 13.3519 0.990519 13.666C0.676445 13.9801 0.5 14.406 0.5 14.8502C0.5 15.2944 0.676445 15.7203 0.990519 16.0344C1.30459 16.3485 1.73057 16.5249 2.17474 16.5249H2.73298V17.6414C2.73298 18.5298 3.08587 19.3817 3.71402 20.0099C4.34217 20.638 5.19412 20.9909 6.08245 20.9909H17.2474C18.1357 20.9909 18.9876 20.638 19.6158 20.0099C20.2439 19.3817 20.5968 18.5298 20.5968 17.6414V16.5249H21.1551C21.5992 16.5249 22.0252 16.3485 22.3393 16.0344C22.6534 15.7203 22.8298 15.2944 22.8298 14.8502C22.8298 14.406 22.6534 13.9801 22.3393 13.666C22.0252 13.3519 21.5992 13.1755 21.1551 13.1755ZM19.4803 17.6414C19.4797 18.2334 19.2442 18.801 18.8256 19.2196C18.407 19.6383 17.8394 19.8737 17.2474 19.8744H6.08245C5.49044 19.8737 4.92287 19.6382 4.50425 19.2196C4.08563 18.801 3.85015 18.2334 3.84947 17.6414V12.059C3.85014 11.467 4.08561 10.8994 4.50424 10.4808C4.92286 10.0621 5.49044 9.82666 6.08245 9.82599H17.2474C17.8394 9.82664 18.407 10.0621 18.8256 10.4807C19.2442 10.8994 19.4797 11.4669 19.4803 12.059V17.6414ZM9.43193 14.8502C9.43193 15.1814 9.33371 15.5052 9.14968 15.7806C8.96566 16.056 8.7041 16.2707 8.39808 16.3975C8.09207 16.5242 7.75533 16.5574 7.43047 16.4928C7.1056 16.4281 6.80719 16.2686 6.57297 16.0344C6.33876 15.8002 6.17925 15.5018 6.11463 15.1769C6.05001 14.8521 6.08318 14.5153 6.20994 14.2093C6.33669 13.9033 6.55135 13.6417 6.82676 13.4577C7.10217 13.2737 7.42596 13.1755 7.75719 13.1755C8.20136 13.1755 8.62733 13.3519 8.94141 13.666C9.25548 13.9801 9.43193 14.406 9.43193 14.8502ZM17.2474 14.8502C17.2474 15.1814 17.1491 15.5052 16.9651 15.7806C16.7811 16.056 16.5195 16.2707 16.2135 16.3975C15.9075 16.5242 15.5708 16.5574 15.2459 16.4928C14.921 16.4281 14.6226 16.2686 14.3884 16.0344C14.1542 15.8002 13.9947 15.5018 13.9301 15.1769C13.8654 14.8521 13.8986 14.5153 14.0254 14.2093C14.1521 13.9033 14.3668 13.6417 14.6422 13.4577C14.9176 13.2737 15.2414 13.1755 15.5726 13.1755C16.0168 13.1755 16.4428 13.3519 16.7568 13.666C17.0709 13.9801 17.2474 14.406 17.2474 14.8502V14.8502Z" fill="black"/>
</svg>
