<svg width="2430" height="660" viewBox="0 0 2430 660" fill="none" xmlns="http://www.w3.org/2000/svg">
<path fill-rule="evenodd" clip-rule="evenodd" d="M142 357.937C176.683 278.621 211.53 199.373 245.816 119.889C249.602 111.112 253.93 107.887 263.58 108C307.152 108.533 350.739 108.397 394.315 108.09C402.487 108.033 407.763 109.238 411.451 117.938C471.799 260.312 532.531 402.522 593.113 544.796C593.788 546.385 593.594 548.342 594 551.745C568.212 551.745 542.913 551.192 517.652 551.989C505.844 552.36 505.114 543.52 502.223 536.726C454.54 424.583 406.699 312.504 360.015 199.948C353.907 185.224 346.7 180.009 331.448 181.364C315.986 182.739 301.507 178.302 293.382 200.282C273.68 253.587 250.11 305.472 228.097 357.931C199.399 357.933 170.7 357.935 142 357.937Z" fill="white"/>
<path fill-rule="evenodd" clip-rule="evenodd" d="M163.852 435.01C143.282 435.014 123.907 435.02 107.348 435.02C90.4612 473.417 73.5625 511.831 56 551.757C84.2851 551.757 109.345 551.35 134.379 551.989C142.682 552.201 146.725 549.366 149.709 542.208C164.627 506.4 179.867 470.719 195 435C184.555 435.004 174.108 435.008 163.852 435.01Z" fill="white"/>
<path fill-rule="evenodd" clip-rule="evenodd" d="M1038 236.28C1054.73 197.157 1071.53 158.069 1088.07 118.864C1089.9 114.535 1091.98 112.944 1096.64 113C1117.65 113.263 1138.67 113.196 1159.69 113.045C1163.63 113.016 1166.18 113.611 1167.96 117.902C1197.06 188.127 1226.35 258.271 1255.57 328.447C1255.9 329.23 1255.8 330.195 1256 331.874C1243.56 331.874 1231.36 331.602 1219.18 331.994C1213.48 332.178 1213.13 327.817 1211.74 324.466C1188.74 269.152 1165.66 213.87 1143.15 158.353C1140.2 151.09 1136.73 148.518 1129.37 149.186C1121.91 149.865 1114.93 147.676 1111.01 158.517C1101.51 184.81 1090.14 210.402 1079.52 236.277C1065.68 236.278 1051.84 236.279 1038 236.28Z" fill="white"/>
<path fill-rule="evenodd" clip-rule="evenodd" d="M1689 236.28C1705.73 197.157 1722.53 158.069 1739.07 118.864C1740.9 114.535 1742.98 112.944 1747.64 113C1768.65 113.263 1789.67 113.196 1810.69 113.045C1814.63 113.016 1817.18 113.611 1818.96 117.902C1848.06 188.127 1877.35 258.271 1906.57 328.447C1906.9 329.23 1906.81 330.195 1907 331.874C1894.56 331.874 1882.36 331.602 1870.18 331.994C1864.48 332.178 1864.13 327.817 1862.74 324.466C1839.74 269.152 1816.66 213.87 1794.15 158.353C1791.2 151.09 1787.73 148.518 1780.37 149.186C1772.91 149.865 1765.93 147.676 1762.01 158.517C1752.51 184.81 1741.14 210.402 1730.52 236.277C1716.68 236.278 1702.84 236.279 1689 236.28Z" fill="white"/>
<path fill-rule="evenodd" clip-rule="evenodd" d="M853.77 230.68C865.163 230.68 873.05 229.624 877.432 227.512C881.807 225.399 884.001 221.527 884.001 215.896V155C884.001 149.366 881.807 145.497 877.432 143.384C873.05 141.272 865.163 140.216 853.77 140.216H789.81V230.68H853.77ZM789.81 331H746V111H853.336C872.899 111 888.162 113.348 899.114 118.041C910.065 122.738 917.953 130.421 922.776 141.095C927.592 151.778 930 166.499 930 185.273C930 211.558 924.59 230.328 913.791 241.592C902.985 252.858 885.022 258.488 859.905 258.488H789.81V331Z" fill="white"/>
<path fill-rule="evenodd" clip-rule="evenodd" d="M1390.73 225.399H1456.78C1468.15 225.399 1476.02 224.343 1480.4 222.23C1484.77 220.118 1486.96 216.249 1486.96 210.615V155C1486.96 149.366 1484.77 145.497 1480.4 143.384C1476.02 141.272 1468.15 140.216 1456.78 140.216H1390.73V225.399ZM1498.33 331L1452.84 253.207H1390.73V331H1347V111H1456.34C1475.87 111 1491.11 113.348 1502.05 118.041C1512.98 122.738 1520.85 130.421 1525.66 141.095C1530.47 151.778 1532.88 166.498 1532.88 185.272C1532.88 203.347 1530.04 217.479 1524.35 227.687C1518.67 237.897 1509.41 244.996 1496.58 248.982L1546 331H1498.33Z" fill="white"/>
<path fill-rule="evenodd" clip-rule="evenodd" d="M2058.82 331H2015V111H2164L2159.18 140.217H2058.82V211.672H2146.47V239.48H2058.82V331Z" fill="white"/>
<mask id="mask0" mask-type="alpha" maskUnits="userSpaceOnUse" x="591" y="0" width="1839" height="660">
<path d="M591 660H2430V0H591V660Z" fill="white"/>
</mask>
<g mask="url(#mask0)">
<path fill-rule="evenodd" clip-rule="evenodd" d="M2280 331H2323V111H2280V331Z" fill="white"/>
<path fill-rule="evenodd" clip-rule="evenodd" d="M1020.75 273.01C1012.61 292.045 1004.47 311.087 996 330.88C1009.63 330.88 1021.71 330.678 1033.78 330.995C1037.78 331.099 1039.73 329.694 1041.17 326.146C1048.36 308.395 1055.71 290.707 1063 273C1057.97 273.002 1052.93 273.004 1047.99 273.005C1038.07 273.007 1028.73 273.01 1020.75 273.01Z" fill="white"/>
<path fill-rule="evenodd" clip-rule="evenodd" d="M1700.2 273.005C1690.22 273.007 1680.81 273.01 1672.8 273.01C1664.64 292.045 1656.48 311.086 1648 330.881C1661.62 330.881 1673.69 330.679 1685.74 330.995C1689.74 331.099 1691.68 329.699 1693.12 326.161C1700.33 308.405 1707.69 290.712 1715 273C1710.04 273.002 1705.07 273.003 1700.2 273.005Z" fill="white"/>
<path fill-rule="evenodd" clip-rule="evenodd" d="M866 518.963V486.037C866 475.545 868.34 467.915 873.015 463.15C877.693 458.383 885.132 456 895.335 456H912.481C921.173 456 927.645 457.854 931.896 461.56C936.147 465.267 938.507 471.213 938.981 479.396C939.169 481.899 937.941 483.149 935.297 483.149C933.03 483.149 931.801 481.899 931.613 479.396C931.234 473.524 929.628 469.409 926.794 467.048C923.96 464.69 919.189 463.509 912.481 463.509H895.335C889.855 463.509 885.533 464.233 882.368 465.676C879.202 467.12 876.913 469.455 875.496 472.681C874.078 475.907 873.371 480.358 873.371 486.037V518.963C873.371 524.646 874.078 529.096 875.496 532.32C876.913 535.547 879.202 537.881 882.368 539.325C885.533 540.768 889.901 541.492 895.478 541.492H912.481C919.189 541.492 923.96 540.336 926.794 538.026C929.628 535.714 931.234 531.576 931.613 525.607C931.801 523.103 933.03 521.851 935.297 521.851C937.941 521.851 939.169 523.151 938.981 525.751C938.507 533.935 936.147 539.854 931.896 543.513C927.645 547.173 921.173 549 912.481 549H895.478C885.273 549 877.809 546.595 873.086 541.779C868.362 536.967 866 529.36 866 518.963Z" fill="white"/>
<path fill-rule="evenodd" clip-rule="evenodd" d="M1114.54 516.363H1154.46L1134.5 467.841L1114.54 516.363ZM1174 545.534C1174 546.787 1173.2 547.797 1171.61 548.566C1171.05 548.855 1170.44 549 1169.78 549C1168.47 549 1167.53 548.23 1166.97 546.69L1157.55 523.872H1157.13H1111.59L1102.17 546.69C1101.51 548.23 1100.48 549 1099.08 549C1098.61 549 1098 548.855 1097.25 548.566C1095.75 547.989 1095 546.931 1095 545.39C1095 544.621 1095.09 544.042 1095.28 543.658L1130.14 458.888C1130.89 456.963 1132.3 456 1134.36 456H1134.64C1136.51 456 1137.87 456.963 1138.72 458.888L1173.58 543.658C1173.86 544.33 1174 544.957 1174 545.534Z" fill="white"/>
<path fill-rule="evenodd" clip-rule="evenodd" d="M1385.67 480.983C1385.67 474.919 1384.34 470.491 1381.66 467.698C1378.98 464.906 1374.64 463.509 1368.63 463.509H1339.33V502.789H1368.63C1374.64 502.789 1378.98 501.418 1381.66 498.674C1384.34 495.93 1385.67 491.478 1385.67 485.315V480.983ZM1386.8 462.353C1390.93 466.592 1393 472.802 1393 480.983V485.315C1393 493.499 1390.96 499.709 1386.87 503.944C1382.79 508.183 1376.7 510.297 1368.63 510.297H1339.33V545.245C1339.33 547.75 1338.1 549 1335.66 549C1333.22 549 1332 547.75 1332 545.245V459.755C1332 457.252 1333.22 456 1335.66 456H1368.63C1376.61 456 1382.67 458.118 1386.8 462.353Z" fill="white"/>
<path fill-rule="evenodd" clip-rule="evenodd" d="M1552.94 547.989C1552.31 547.316 1552 546.4 1552 545.245V459.755C1552 458.6 1552.31 457.687 1552.94 457.011C1553.57 456.339 1554.42 456 1555.5 456C1556.58 456 1557.43 456.339 1558.06 457.011C1558.69 457.687 1559 458.6 1559 459.755V545.245C1559 546.4 1558.69 547.316 1558.06 547.989C1557.43 548.664 1556.58 549 1555.5 549C1554.42 549 1553.57 548.664 1552.94 547.989Z" fill="white"/>
<path fill-rule="evenodd" clip-rule="evenodd" d="M1753.88 547.918C1753.17 547.198 1752.82 546.31 1752.82 545.252V463.496H1722.68C1721.64 463.496 1720.77 463.138 1720.06 462.417C1719.35 461.694 1719 460.808 1719 459.749C1719 458.595 1719.35 457.683 1720.06 457.008C1720.77 456.339 1721.64 456 1722.68 456H1790.32C1791.45 456 1792.35 456.339 1793.01 457.008C1793.67 457.683 1794 458.595 1794 459.749C1794 460.808 1793.67 461.694 1793.01 462.417C1792.35 463.138 1791.45 463.496 1790.32 463.496H1760.18V545.252C1760.18 546.31 1759.85 547.198 1759.19 547.918C1758.53 548.641 1757.63 549 1756.5 549C1755.46 549 1754.59 548.641 1753.88 547.918Z" fill="white"/>
<path fill-rule="evenodd" clip-rule="evenodd" d="M1941.54 516.363H1981.46L1961.5 467.841L1941.54 516.363ZM2001 545.534C2001 546.787 2000.2 547.797 1998.61 548.566C1998.04 548.855 1997.44 549 1996.78 549C1995.47 549 1994.53 548.23 1993.97 546.69L1984.55 523.872H1984.13H1938.58L1929.17 546.69C1928.51 548.23 1927.48 549 1926.07 549C1925.6 549 1925 548.855 1924.25 548.566C1922.75 547.989 1922 546.931 1922 545.39C1922 544.621 1922.09 544.042 1922.28 543.658L1957.14 458.888C1957.89 456.963 1959.29 456 1961.36 456H1961.64C1963.51 456 1964.87 456.963 1965.71 458.888L2000.58 543.658C2000.86 544.33 2001 544.957 2001 545.534Z" fill="white"/>
<path fill-rule="evenodd" clip-rule="evenodd" d="M2160 545.245V459.756C2160 457.252 2161.22 456 2163.66 456C2166.11 456 2167.33 457.252 2167.33 459.756V541.492H2210.33C2212.78 541.492 2214 542.743 2214 545.245C2214 547.75 2212.78 549 2210.33 549H2163.66C2161.22 549 2160 547.75 2160 545.245Z" fill="white"/>
</g>
</svg>
