<svg xmlns="http://www.w3.org/2000/svg" width="30" height="29" viewBox="0 0 30 29">
  <path fill="none" stroke="#FFF" stroke-linejoin="round" stroke-width="2" d="M7,13.5023859 C7,9.9191461 10.1425422,7 14,7 C17.8574578,7 21,9.9191461 21,13.5023859 C21,14.4483612 20.7788391,15.3417824 20.38795,16.1492057 L15.7692873,11.8588732 L12.235856,15.1411209 L16.8545187,19.4314534 C15.9595885,19.808888 14.9875092,20 14.0051433,20 C10.1425422,20.0047718 7,17.0856257 7,13.5023859 Z M25.3762238,13.5 C25.3762238,11.3003497 24.6958042,9.2517483 23.5405594,7.5335664 L28,3.2333916 L24.6468531,0 L20.1874126,4.3001748 C18.4055944,3.1861888 16.2811189,2.5300699 14,2.5300699 C11.7188811,2.5300699 9.5944056,3.1861888 7.8125874,4.3001748 L3.3531469,0 L0,3.2333916 L4.4594406,7.5335664 C3.3041958,9.2517483 2.62377622,11.3003497 2.62377622,13.5 C2.62377622,15.6996503 3.3041958,17.7482517 4.4594406,19.4664336 L0,23.7666084 L3.3531469,27 L7.8125874,22.6998252 C9.5944056,23.8185315 11.713986,24.4699301 14,24.4699301 C16.286014,24.4699301 18.4055944,23.8138112 20.1874126,22.6998252 L24.6468531,27 L28,23.7666084 L23.5405594,19.4664336 C24.6958042,17.7482517 25.3762238,15.6996503 25.3762238,13.5 Z" transform="translate(1 1)"/>
</svg>
