<svg width="144" height="9" viewBox="0 0 144 9" fill="none" xmlns="http://www.w3.org/2000/svg">
<path d="M138.23 3.4C137.105 4.8 136.39 5.6 134.958 5.6C133.527 5.6 132.811 4.8 131.687 3.4C130.46 1.9 129.028 0 125.961 0C122.996 0 121.462 1.9 120.235 3.4C119.111 4.8 118.395 5.6 116.964 5.6C115.532 5.6 114.817 4.8 113.692 3.4C112.465 1.9 111.034 0 107.967 0C105.002 0 103.468 1.9 102.241 3.4C101.116 4.8 100.401 5.6 98.9693 5.6C97.5379 5.6 96.8222 4.8 95.6975 3.4C94.4706 1.9 93.0393 0 89.972 0C86.9048 0 85.4734 1.9 84.2465 3.4C83.1219 4.8 82.4062 5.6 80.9748 5.6C79.5434 5.6 78.8277 4.8 77.7031 3.4C76.4762 1.9 75.0448 0 71.9775 0V3C73.4089 3 74.1246 3.8 75.2493 5.2C76.4762 6.7 77.9075 8.6 80.9748 8.6C84.042 8.6 85.4734 6.7 86.7003 5.2C87.825 3.8 88.5406 3 89.972 3C91.4034 3 92.1191 3.8 93.2437 5.2C94.4706 6.7 95.902 8.6 98.9693 8.6C101.934 8.6 103.468 6.7 104.695 5.2C105.819 3.8 106.535 3 107.967 3C109.398 3 110.114 3.8 111.238 5.2C112.465 6.7 113.897 8.6 116.964 8.6C119.929 8.6 121.462 6.7 122.689 5.2C123.814 3.8 124.53 3 125.961 3C127.392 3 128.108 3.8 129.233 5.2C130.46 6.7 131.891 8.6 134.958 8.6C138.025 8.6 139.457 6.7 140.684 5.2C141.808 3.8 142.524 3 143.955 3V0C140.99 0 139.457 1.9 138.23 3.4Z" fill="#715EE9"/>
<path d="M66.2524 3.4C65.1278 4.8 64.4121 5.6 62.9807 5.6C61.5493 5.6 60.8336 4.8 59.709 3.4C58.4821 1.9 57.0507 0 53.9835 0C51.0185 0 49.4848 1.9 48.2579 3.4C47.1333 4.8 46.4176 5.6 44.9862 5.6C43.5548 5.6 42.8391 4.8 41.7145 3.4C40.4876 1.9 39.0562 0 35.989 0C33.024 0 31.4903 1.9 30.2635 3.4C29.1388 4.8 28.4231 5.6 26.9917 5.6C25.5603 5.6 24.8447 4.8 23.72 3.4C22.4931 1.9 21.0617 0 17.9945 0C14.9272 0 13.4959 1.9 12.269 3.4C11.1443 4.8 10.4286 5.6 8.99724 5.6C7.56586 5.6 6.85017 4.8 5.72552 3.4C4.49862 1.9 3.06724 0 0 0V3C1.43138 3 2.14707 3.8 3.27172 5.2C4.49862 6.7 5.93 8.6 8.99724 8.6C12.0645 8.6 13.4959 6.7 14.7228 5.2C15.8474 3.8 16.5631 3 17.9945 3C19.4259 3 20.1416 3.8 21.2662 5.2C22.4931 6.7 23.9245 8.6 26.9917 8.6C29.9567 8.6 31.4903 6.7 32.7172 5.2C33.8419 3.8 34.5576 3 35.989 3C37.4203 3 38.136 3.8 39.2607 5.2C40.4876 6.7 41.919 8.6 44.9862 8.6C47.9512 8.6 49.4848 6.7 50.7117 5.2C51.8364 3.8 52.5521 3 53.9835 3C55.4148 3 56.1305 3.8 57.2552 5.2C58.4821 6.7 59.9134 8.6 62.9807 8.6C66.0479 8.6 67.4793 6.7 68.7062 5.2C69.8309 3.8 70.5466 3 71.9779 3V0C69.0129 0 67.4793 1.9 66.2524 3.4Z" fill="#715EE9"/>
</svg>
