<svg width="101" height="3" viewBox="0 0 101 3" fill="none" xmlns="http://www.w3.org/2000/svg">
<path d="M48.2197 1.18605C47.8274 1.67442 47.5777 1.95349 47.0784 1.95349C46.5791 1.95349 46.3294 1.67442 45.9371 1.18605C45.5091 0.66279 45.0098 0 43.9398 0C42.9055 0 42.3705 0.66279 41.9426 1.18605C41.5502 1.67442 41.3006 1.95349 40.8013 1.95349C40.3019 1.95349 40.0523 1.67442 39.66 1.18605C39.232 0.66279 38.7327 0 37.6627 0C36.6284 0 36.0934 0.66279 35.6654 1.18605C35.2731 1.67442 35.0234 1.95349 34.5241 1.95349C34.0248 1.95349 33.7751 1.67442 33.3828 1.18605C32.9548 0.66279 32.4555 0 31.3855 0C30.3156 0 29.8163 0.66279 29.3883 1.18605C28.9959 1.67442 28.7463 1.95349 28.247 1.95349C27.7477 1.95349 27.498 1.67442 27.1057 1.18605C26.6777 0.66279 26.1784 0 25.1084 0V1.04651C25.6077 1.04651 25.8574 1.32558 26.2497 1.81395C26.6777 2.33721 27.177 3 28.247 3C29.3169 3 29.8163 2.33721 30.2442 1.81395C30.6366 1.32558 30.8862 1.04651 31.3855 1.04651C31.8849 1.04651 32.1345 1.32558 32.5268 1.81395C32.9548 2.33721 33.4541 3 34.5241 3C35.5584 3 36.0934 2.33721 36.5214 1.81395C36.9137 1.32558 37.1634 1.04651 37.6627 1.04651C38.162 1.04651 38.4117 1.32558 38.804 1.81395C39.232 2.33721 39.7313 3 40.8013 3C41.8356 3 42.3705 2.33721 42.7985 1.81395C43.1909 1.32558 43.4405 1.04651 43.9398 1.04651C44.4391 1.04651 44.6888 1.32558 45.0811 1.81395C45.5091 2.33721 46.0084 3 47.0784 3C48.1484 3 48.6477 2.33721 49.0757 1.81395C49.468 1.32558 49.7177 1.04651 50.217 1.04651V0C49.1827 0 48.6477 0.66279 48.2197 1.18605Z" fill="#35F0D0"/>
<path d="M23.1113 1.18678C22.719 1.67515 22.4693 1.95422 21.97 1.95422C21.4707 1.95422 21.221 1.67515 20.8287 1.18678C20.4007 0.663522 19.9014 0.000732422 18.8314 0.000732422C17.7971 0.000732422 17.2621 0.663522 16.8342 1.18678C16.4418 1.67515 16.1922 1.95422 15.6929 1.95422C15.1935 1.95422 14.9439 1.67515 14.5516 1.18678C14.1236 0.663522 13.6243 0.000732422 12.5543 0.000732422C11.52 0.000732422 10.985 0.663522 10.557 1.18678C10.1647 1.67515 9.91503 1.95422 9.41572 1.95422C8.9164 1.95422 8.66674 1.67515 8.27442 1.18678C7.84643 0.663522 7.34711 0.000732422 6.27714 0.000732422C5.20718 0.000732422 4.70786 0.663522 4.27987 1.18678C3.88755 1.67515 3.63789 1.95422 3.13857 1.95422C2.63925 1.95422 2.38959 1.67515 1.99727 1.18678C1.56929 0.663522 1.06997 0.000732422 0 0.000732422V1.04724C0.499318 1.04724 0.748977 1.32631 1.1413 1.81469C1.56929 2.33794 2.0686 3.00073 3.13857 3.00073C4.20854 3.00073 4.70786 2.33794 5.13584 1.81469C5.52817 1.32631 5.77783 1.04724 6.27714 1.04724C6.77646 1.04724 7.02612 1.32631 7.41844 1.81469C7.84643 2.33794 8.34575 3.00073 9.41572 3.00073C10.45 3.00073 10.985 2.33794 11.413 1.81469C11.8053 1.32631 12.055 1.04724 12.5543 1.04724C13.0536 1.04724 13.3033 1.32631 13.6956 1.81469C14.1236 2.33794 14.6229 3.00073 15.6929 3.00073C16.7272 3.00073 17.2621 2.33794 17.6901 1.81469C18.0825 1.32631 18.3321 1.04724 18.8314 1.04724C19.3308 1.04724 19.5804 1.32631 19.9727 1.81469C20.4007 2.33794 20.9 3.00073 21.97 3.00073C23.04 3.00073 23.5393 2.33794 23.9673 1.81469C24.3596 1.32631 24.6093 1.04724 25.1086 1.04724V0.000732422C24.0743 0.000732422 23.5393 0.663522 23.1113 1.18678Z" fill="#35F0D0"/>
<path d="M98.4365 1.18605C98.0442 1.67442 97.7945 1.95349 97.2952 1.95349C96.7959 1.95349 96.5462 1.67442 96.1539 1.18605C95.7259 0.66279 95.2266 0 94.1566 0C93.1223 0 92.5873 0.66279 92.1594 1.18605C91.767 1.67442 91.5174 1.95349 91.0181 1.95349C90.5187 1.95349 90.2691 1.67442 89.8768 1.18605C89.4488 0.66279 88.9494 0 87.8795 0C86.8452 0 86.3102 0.66279 85.8822 1.18605C85.4899 1.67442 85.2402 1.95349 84.7409 1.95349C84.2416 1.95349 83.9919 1.67442 83.5996 1.18605C83.1716 0.66279 82.6723 0 81.6023 0C80.5324 0 80.0331 0.66279 79.6051 1.18605C79.2127 1.67442 78.9631 1.95349 78.4638 1.95349C77.9644 1.95349 77.7148 1.67442 77.3225 1.18605C76.8945 0.66279 76.3952 0 75.3252 0V1.04651C75.8245 1.04651 76.0742 1.32558 76.4665 1.81395C76.8945 2.33721 77.3938 3 78.4638 3C79.5337 3 80.0331 2.33721 80.461 1.81395C80.8534 1.32558 81.103 1.04651 81.6023 1.04651C82.1017 1.04651 82.3513 1.32558 82.7436 1.81395C83.1716 2.33721 83.6709 3 84.7409 3C85.7752 3 86.3102 2.33721 86.7382 1.81395C87.1305 1.32558 87.3802 1.04651 87.8795 1.04651C88.3788 1.04651 88.6285 1.32558 89.0208 1.81395C89.4488 2.33721 89.9481 3 91.0181 3C92.0524 3 92.5873 2.33721 93.0153 1.81395C93.4076 1.32558 93.6573 1.04651 94.1566 1.04651C94.6559 1.04651 94.9056 1.32558 95.2979 1.81395C95.7259 2.33721 96.2252 3 97.2952 3C98.3652 3 98.8645 2.33721 99.2925 1.81395C99.6848 1.32558 99.9345 1.04651 100.434 1.04651V0C99.3995 0 98.8645 0.66279 98.4365 1.18605Z" fill="#35F0D0"/>
<path d="M73.3281 1.18629C72.9358 1.67466 72.6861 1.95373 72.1868 1.95373C71.6875 1.95373 71.4378 1.67466 71.0455 1.18629C70.6175 0.663034 70.1182 0.000244141 69.0482 0.000244141C68.0139 0.000244141 67.4789 0.663034 67.051 1.18629C66.6586 1.67466 66.409 1.95373 65.9097 1.95373C65.4103 1.95373 65.1607 1.67466 64.7684 1.18629C64.3404 0.663034 63.8411 0.000244141 62.7711 0.000244141C61.7368 0.000244141 61.2018 0.663034 60.7738 1.18629C60.3815 1.67466 60.1318 1.95373 59.6325 1.95373C59.1332 1.95373 58.8835 1.67466 58.4912 1.18629C58.0632 0.663034 57.5639 0.000244141 56.4939 0.000244141C55.424 0.000244141 54.9247 0.663034 54.4967 1.18629C54.1043 1.67466 53.8547 1.95373 53.3554 1.95373C52.8561 1.95373 52.6064 1.67466 52.2141 1.18629C51.7861 0.663034 51.2868 0.000244141 50.2168 0.000244141V1.04676C50.7161 1.04676 50.9658 1.32583 51.3581 1.8142C51.7861 2.33745 52.2854 3.00024 53.3554 3.00024C54.4253 3.00024 54.9247 2.33745 55.3526 1.8142C55.745 1.32583 55.9946 1.04676 56.4939 1.04676C56.9933 1.04676 57.2429 1.32583 57.6352 1.8142C58.0632 2.33745 58.5625 3.00024 59.6325 3.00024C60.6668 3.00024 61.2018 2.33745 61.6298 1.8142C62.0221 1.32583 62.2718 1.04676 62.7711 1.04676C63.2704 1.04676 63.5201 1.32583 63.9124 1.8142C64.3404 2.33745 64.8397 3.00024 65.9097 3.00024C66.944 3.00024 67.4789 2.33745 67.9069 1.8142C68.2992 1.32583 68.5489 1.04676 69.0482 1.04676C69.5475 1.04676 69.7972 1.32583 70.1895 1.8142C70.6175 2.33745 71.1168 3.00024 72.1868 3.00024C73.2568 3.00024 73.7561 2.33745 74.1841 1.8142C74.5764 1.32583 74.8261 1.04676 75.3254 1.04676V0.000244141C74.2911 0.000244141 73.7561 0.663034 73.3281 1.18629Z" fill="#35F0D0"/>
</svg>
