<svg width="896" height="585" viewBox="0 0 896 585" fill="none" xmlns="http://www.w3.org/2000/svg">
<g clip-path="url(#clip0)">
<path d="M287 76V82H314V76H287Z" fill="white"/>
<path d="M287 60V66H320.5V124H336.5V166.5H343.5V117.5H327V60H287Z" fill="white"/>
<path d="M130 458V271V262.5L132.5 258.5L136.5 256.5L141 258.5L143 262.5V451.5L239 452L242 454L243 458L242 462L239 464H149H135L131.5 462L130 458Z" fill="white"/>
<path d="M160 429.5V299.5V291L162.5 287L166.5 285L171 287L173 291V423V429.5L171.5 433.5L167 435.5L161.5 433.5L160 429.5Z" fill="white"/>
<path d="M162.857 483L249.269 483L253.338 483C254.405 483 255.451 483.308 256.348 483.886L256.675 484.097C257.318 484.512 257.835 485.097 258.169 485.785C258.696 486.872 258.725 488.138 258.247 489.247C257.866 490.132 257.19 490.857 256.334 491.298L256.058 491.441C255.345 491.808 254.555 492 253.753 492L166.389 492L162.913 492C162.327 492 161.746 491.892 161.2 491.68L160.98 491.595C159.932 491.19 159.092 490.38 158.647 489.349C158.231 488.383 158.194 487.295 158.544 486.303L158.661 485.97C159.093 484.744 160.04 483.769 161.252 483.3C161.764 483.102 162.308 483 162.857 483Z" fill="white"/>
<circle cx="337" cy="489" r="7" fill="white"/>
<path d="M393 284L313.5 491.5C312.167 493.667 308.3 497.4 303.5 495C298.7 492.6 301.5 485.667 303.5 482.5C329.167 416.333 381.9 280.5 387.5 266.5C391 255.5 398.5 259.5 400.5 266.5C414.833 302.167 443.8 375.9 445 385.5C446.2 395.1 438.5 394.5 434.5 391L393 284Z" fill="white"/>
<path d="M394.15 351.332L348.65 471.832C347.317 473.998 343.45 477.732 338.65 475.332C333.85 472.932 336.65 465.998 338.65 462.832C364.317 396.665 383.05 347.832 388.65 333.832C393.183 322.5 403 327.5 401.65 333.832L394.15 351.332Z" fill="white"/>
<path d="M455.245 418.269L392.45 418.771C389.947 418.318 385.062 417.076 385.549 411.732C386.036 406.387 392.45 406.2 397.191 406.18C442.161 405.991 454.463 405.657 469.541 405.774C475.119 405.818 477.922 408.132 478.711 410.732L504.5 485.5C508 492.5 498.5 499.812 493 489.5C485.8 476 474.694 437.347 469.541 418.771L455.245 418.269Z" fill="white"/>
<path d="M439.503 448.875L384.5 449C380 449 375.614 447.936 375.614 443.633C375.614 438.5 379.5 438.181 384.949 438.181C421.011 438.029 438.876 437.761 450.967 437.855C455.44 437.89 460.687 439.746 461.32 441.831L470.5 471.5C473.307 477.113 464.41 482.77 460 474.5C456 463 455.099 463.896 450.967 449L439.503 448.875Z" fill="white"/>
<path d="M459.65 392L427.15 298L421.65 283V280.5C422.5 274.5 431.837 273.5 434.65 280.5C448.984 316.166 468.95 376.9 470.15 386.5C471.35 396.1 463.65 395.5 459.65 392Z" fill="white"/>
<circle cx="634" cy="265" r="7" fill="white"/>
<path d="M606 270.5C612 266.1 616.5 268.666 618 270.5C621.2 275.3 616.667 280.167 614 282C595.5 296.5 565.5 323 565.5 376.5C567 449 623 484.5 663 483C690 481.988 759.5 468 759.5 372.5C759.5 296.1 698.833 270 668.5 266.5V289C668.5 292.5 668 296.5 663 296.5C612.922 296.5 592.5 344 592.5 376.5C592.5 409 618.217 452 662 452C705.783 452 734 414.5 734 372.5C734 330.5 698 306 693.5 303.5C689 301 688.5 299.5 690 295.5C691.2 292.3 695.833 292.833 698 293.5C720 310.5 742.5 323 745.5 372.5C745.5 455 680.5 463.5 662 463.5C639 463.5 582.5 445 581 376.5C581 310.5 632.333 287.667 658 284.5V259.5C658 252.5 662 252.5 663.5 252.5C703 252.5 773.5 287.5 773.5 372.5C773.5 457.5 711 496 662 496C604 496 553.5 444.5 552.5 376.5C551.5 308.5 598.5 276 606 270.5Z" fill="white"/>
<path d="M320.5 181V134.5H327V181H320.5Z" fill="white"/>
<path d="M364.5 61H337V66H364.5V61Z" fill="white"/>
<path d="M368 61.5V66.5H375V61.5H368Z" fill="white"/>
<path d="M374.5 83V77H336.5V109H343V83H374.5Z" fill="white"/>
<path d="M417.5 61H411.5V117.5H417.5V61Z" fill="white"/>
<path d="M432.5 61H427V117.5H476V168H482V111.5H432.5V61Z" fill="white"/>
<path d="M498 75H493V180H498V75Z" fill="white"/>
<path d="M482.5 61H477V102H482.5V61Z" fill="white"/>
<path d="M411 126.5H468.5V132H417.5V180H411V126.5Z" fill="white"/>
<path d="M432.5 140H427V180.5H432.5V140Z" fill="white"/>
<path d="M482.5 174H476.5V180.5H482.5V174Z" fill="white"/>
<path d="M545 61H538.5V117H590.5V110.5H545V61Z" fill="white"/>
<path d="M607 67H554.5V61H607V67Z" fill="white"/>
<path d="M606.5 75H554.5V102H558.5V80.5H606.5V75Z" fill="white"/>
<path d="M539 125.5H590.5V131H545V175H607V180.5H539V125.5Z" fill="white"/>
<path d="M607.5 161H600.5V167H607.5V161Z" fill="white"/>
<path d="M558.5 140H553.5V167H596.5V161H558.5V140Z" fill="white"/>
</g>
<defs>
<clipPath id="clip0">
<rect width="896" height="585" fill="white"/>
</clipPath>
</defs>
</svg>
