<svg width="200" height="200" viewBox="0 0 200 200" fill="none" xmlns="http://www.w3.org/2000/svg">
<rect width="200" height="200" rx="100" fill="#2D368A"/>
<path d="M100.385 119.104C93.1554 129.86 88.0107 137.51 87.9312 137.625C87.6606 138.004 87.9312 137.949 87.9312 137.949L128.402 137.952C128.679 137.952 128.947 138.054 129.15 138.241L147.619 155.116C147.844 155.32 147.971 155.61 147.971 155.912C147.971 156.513 147.478 157 146.871 157H56.2494C54.6012 157 53.1166 155.535 53.1166 153.906C53.1166 153.906 52.5437 151.212 53.9373 148.94C54.2192 148.537 63.34 135.238 74.3318 119.208L100.385 119.104ZM100.355 81.2551C107.641 70.6265 112.866 63.0079 113.007 62.8026C113.479 62.1131 113.007 62.1517 113.007 62.1517L88.1176 62.0464H71.1741C70.8808 62.0464 70.5989 61.9305 70.392 61.7243L53.4395 44.8507C52.7483 44.1656 53.2417 43 54.2192 43H88.1176H144.838C146.487 43 147.971 44.4643 147.971 46.0927C147.971 46.0927 148.226 47.7585 147.223 49.3218C146.757 50.0527 137.1 64.4414 125.712 81.3991L100.355 81.2551Z" fill="white"/>
</svg>
