<svg width="258" height="46" viewBox="0 0 258 46" fill="none" xmlns="http://www.w3.org/2000/svg">
<path d="M67.3481 28.0485C66.9046 28.605 66.3354 29.0493 65.6869 29.345C64.9999 29.6522 64.2537 29.8062 63.5007 29.796C62.7641 29.8115 62.0336 29.6606 61.3637 29.3549C60.6939 29.0491 60.1022 28.5963 59.633 28.0304C58.6161 26.8534 58.1076 25.2126 58.1076 23.108C58.1076 21.6784 58.3339 20.4758 58.7866 19.5001C59.1921 18.5761 59.8691 17.7963 60.7283 17.2633C61.5993 16.7414 62.6 16.4742 63.6161 16.4921C64.8714 16.4921 65.8959 16.8055 66.6895 17.4324C67.4831 18.0592 67.9803 18.986 68.1809 20.2127H73.3862C73.3243 18.7032 72.8261 17.2436 71.9513 16.0095C71.0676 14.8058 69.8843 13.8522 68.5181 13.2428C66.9767 12.5557 65.3023 12.2154 63.6139 12.2461C61.4503 12.2461 59.5696 12.6783 57.9718 13.5427C56.3884 14.392 55.09 15.6856 54.2376 17.2633C53.3474 18.8778 52.9023 20.826 52.9023 23.108C52.9023 25.3373 53.324 27.266 54.1674 28.8941C54.9759 30.4882 56.2523 31.7993 57.827 32.653C59.4233 33.5294 61.316 33.9676 63.5052 33.9676C65.1727 33.9921 66.8259 33.6591 68.3529 32.9912C69.7362 32.3876 70.9477 31.4517 71.8789 30.2673C72.7984 29.0613 73.3591 27.622 73.4971 26.1138H68.2918C68.1248 26.8203 67.8025 27.4811 67.3481 28.0485Z" fill="white"/>
<path d="M86.7524 12.2464C84.539 12.2464 82.6402 12.6846 81.056 13.561C79.4914 14.4186 78.2177 15.7198 77.3965 17.2996C76.541 18.9156 76.1133 20.8639 76.1133 23.1443C76.1133 25.3737 76.541 27.2971 77.3965 28.9146C78.2177 30.4945 79.4914 31.7957 81.056 32.6533C82.6402 33.5297 84.539 33.9679 86.7524 33.9679C88.9658 33.9679 90.8653 33.5297 92.451 32.6533C94.0128 31.7987 95.2807 30.4961 96.0902 28.9146C96.9351 27.2986 97.3568 25.3752 97.3553 23.1443C97.3553 19.7364 96.4183 17.0681 94.5444 15.1394C92.6705 13.2107 90.0732 12.2464 86.7524 12.2464ZM90.7333 27.9743C89.7647 29.1679 88.4377 29.7647 86.7524 29.7647C85.0445 29.7647 83.7054 29.1694 82.7353 27.9789C81.7651 26.7883 81.2808 25.1662 81.2823 23.1128C81.2823 21.0307 81.7666 19.402 82.7353 18.2264C83.7039 17.0508 85.0429 16.4623 86.7524 16.4608C88.4392 16.4608 89.7662 17.0493 90.7333 18.2264C91.7004 19.4035 92.1847 21.0322 92.1862 23.1128C92.1862 25.1647 91.7019 26.7853 90.7333 27.9743Z" fill="white"/>
<path d="M115.818 14.952C115.061 14.1049 114.128 13.4317 113.084 12.979C111.961 12.4842 110.745 12.2343 109.518 12.2461C107.8 12.2185 106.115 12.7167 104.69 13.6735C103.257 14.6541 102.112 15.9964 101.37 17.5632C100.545 19.2942 100.131 21.1917 100.162 23.108C100.134 25.011 100.547 26.8947 101.37 28.6122C102.114 30.1831 103.259 31.5316 104.69 32.5222C106.111 33.4894 107.797 33.9943 109.518 33.9676C110.774 33.9838 112.018 33.7212 113.159 33.1987C114.208 32.7186 115.141 32.0196 115.895 31.149L116.008 33.5166H120.956V5.78131H115.818V14.952ZM115.818 25.8883C115.458 26.9795 114.783 27.9404 113.876 28.6505C112.999 29.334 111.914 29.6984 110.801 29.6833C109.79 29.698 108.801 29.3959 107.972 28.8196C107.127 28.2262 106.462 27.4136 106.048 26.47C105.581 25.4112 105.35 24.2643 105.369 23.108C105.347 21.9383 105.578 20.7775 106.048 19.7053C106.459 18.7656 107.125 17.9588 107.972 17.376C108.805 16.8112 109.793 16.516 110.801 16.5304C111.908 16.5145 112.99 16.8641 113.876 17.5248C114.794 18.2267 115.473 19.1937 115.818 20.2939V25.8883Z" fill="white"/>
<path d="M142.92 15.2341C141.272 13.2183 138.65 12.2096 135.053 12.2081C132.74 12.2081 130.766 12.6403 129.13 13.5046C127.525 14.3406 126.215 15.645 125.376 17.2433C124.508 18.8743 124.074 20.8165 124.074 23.0699C124.074 25.3233 124.508 27.2648 125.376 28.8943C126.206 30.4858 127.493 31.7945 129.074 32.6533C130.671 33.5297 132.589 33.9679 134.826 33.9679C137.719 33.9679 140.071 33.2794 141.883 31.9024C143.695 30.5254 144.751 28.6711 145.051 26.3395H139.846C139.635 27.3538 139.032 28.2446 138.167 28.8199C137.186 29.4901 136.016 29.832 134.826 29.7963C133.619 29.7963 132.607 29.5084 131.789 28.9327C130.963 28.3456 130.312 27.547 129.904 26.6214C129.475 25.6433 129.252 24.5882 129.248 23.5209H145.011C145.264 20.0168 144.567 17.2545 142.92 15.2341ZM129.73 19.9131C129.938 19.2614 130.259 18.6509 130.678 18.1091C131.633 16.9065 133.079 16.3052 135.017 16.3052C136.349 16.3052 137.443 16.6435 138.298 17.3199C138.706 17.6254 139.042 18.0156 139.283 18.4634C139.524 18.9111 139.664 19.4058 139.695 19.9131H129.73Z" fill="white"/>
<path d="M183.94 12.2464C182.844 12.2233 181.755 12.4305 180.744 12.8543C179.733 13.2782 178.823 13.9093 178.074 14.7065C177.829 14.9568 177.603 15.2274 177.377 15.5115L177.193 12.6974H172.246V33.5169H177.451V20.4205C177.955 19.4697 178.626 18.6166 179.432 17.9017C180.408 17.0474 181.661 16.5733 182.96 16.5668C184.039 16.5668 184.859 16.8758 185.411 17.4891L188.059 13.2589C186.801 12.5622 185.379 12.2127 183.94 12.2464Z" fill="#CDBEF4"/>
<path d="M206.478 15.2341C204.831 13.2183 202.208 12.2096 198.611 12.2081C196.295 12.2081 194.321 12.6403 192.689 13.5046C191.083 14.3393 189.773 15.644 188.934 17.2433C188.065 18.8743 187.631 20.8165 187.633 23.0699C187.634 25.3233 188.068 27.2648 188.934 28.8943C189.764 30.4858 191.052 31.7945 192.632 32.6533C194.228 33.5297 196.146 33.9679 198.385 33.9679C201.277 33.9679 203.629 33.2794 205.439 31.9024C207.25 30.5254 208.306 28.6711 208.608 26.3395H203.4C203.19 27.3545 202.587 28.2459 201.721 28.8199C200.74 29.4902 199.571 29.8321 198.383 29.7963C197.176 29.7963 196.163 29.5084 195.346 28.9327C194.52 28.3449 193.868 27.5466 193.458 26.6214C193.031 25.6428 192.809 24.5879 192.804 23.5209H208.569C208.823 20.0168 208.126 17.2545 206.478 15.2341ZM193.286 19.9131C193.495 19.2614 193.815 18.6509 194.234 18.1091C195.189 16.9065 196.636 16.3052 198.573 16.3052C199.905 16.3052 201 16.6435 201.857 17.3199C202.264 17.6259 202.599 18.0162 202.84 18.4639C203.08 18.9116 203.221 19.4061 203.251 19.9131H193.286Z" fill="#CDBEF4"/>
<path d="M227.769 13.2609C226.624 12.5844 225.259 12.2462 223.675 12.2462C222.137 12.2471 220.627 12.6557 219.3 13.43C218.415 13.943 217.638 14.6213 217.012 15.4278L216.885 12.6971H211.906V33.5166H217.075V21.0019C217.8 19.5836 218.567 18.5215 219.377 17.827C220.277 17.018 221.446 16.5691 222.659 16.5665C223.139 16.5492 223.618 16.6399 224.059 16.832C224.499 17.024 224.891 17.3125 225.205 17.676C225.847 18.4156 226.169 19.3867 226.169 20.5893V33.5166H231.374V20.2939C231.374 18.6659 231.059 17.2573 230.43 16.0682C229.827 14.9008 228.904 13.9274 227.769 13.2609Z" fill="#CDBEF4"/>
<path d="M252.7 15.7598C251.879 14.5878 250.732 13.6802 249.401 13.1486C247.979 12.5473 246.3 12.2467 244.363 12.2467C242.64 12.2143 240.925 12.5011 239.307 13.0922C237.952 13.584 236.749 14.4195 235.817 15.5163C234.938 16.597 234.418 17.9231 234.328 19.3113H239.346C239.392 18.8177 239.548 18.3406 239.802 17.9146C240.057 17.4887 240.403 17.1246 240.817 16.8489C241.672 16.2626 242.792 15.9688 244.175 15.9672C245.583 15.9672 246.689 16.2927 247.495 16.9436C248.301 17.5945 248.703 18.4965 248.701 19.6495V21.0024H244.401C241.432 21.0024 239.118 21.5977 237.458 22.7883C235.798 23.9789 234.969 25.6385 234.969 27.7671C234.944 28.9054 235.245 30.027 235.838 31.0007C236.428 31.939 237.271 32.6937 238.271 33.1789C239.404 33.7261 240.653 33.9966 241.912 33.9681C243.772 33.9681 245.356 33.6111 246.665 32.8971C247.491 32.449 248.211 31.8292 248.776 31.0796L248.892 33.5171H253.87V19.9517C253.87 18.2966 253.48 16.8993 252.7 15.7598ZM248.701 26.6622C248.138 27.5288 247.407 28.2753 246.551 28.8585C245.538 29.5374 244.34 29.8914 243.118 29.8732C242.16 29.8732 241.406 29.641 240.855 29.1765C240.594 28.9742 240.384 28.7149 240.24 28.4185C240.095 28.122 240.022 27.7966 240.024 27.4672C240.006 27.0476 240.101 26.6306 240.3 26.2603C240.499 25.89 240.795 25.5802 241.156 25.3634C241.91 24.8869 242.942 24.6486 244.25 24.6486H248.701V26.6622Z" fill="#CDBEF4"/>
<path d="M166.387 5.80475H159.323L147.781 26.1688V30.0224H161.306V33.8242H166.396V30.0134H169.494V25.3976H166.387V5.80475ZM161.306 19.2327V25.3976H153.5L161.421 11.2097L161.306 19.2327Z" fill="#CDBEF4"/>
<path d="M47.2233 27.2487L44.6274 14.9347C44.6046 14.8253 44.572 14.7181 44.5301 14.6145C44.1612 13.3337 43.6678 13.0563 43.0025 12.5174C42.3869 12.0529 42.1221 11.877 42.1221 11.877C42.1221 11.877 40.4383 15.7509 39.9789 16.1185C35.4752 19.7263 27.9298 25.3478 26.0854 26.3625L26.0514 26.3805C25.4452 26.7489 24.7591 26.967 24.0508 27.0164V45.5495C25.6257 45.5085 27.1638 45.0659 28.5183 44.2642C30.5551 43.1367 35.9731 38.8028 42.3235 33.6661L44.813 31.6548C46.4674 30.3266 47.2617 29.0075 47.2436 27.6162C47.2486 27.4933 47.2418 27.3703 47.2233 27.2487Z" fill="#56189E"/>
<path d="M22.4321 26.515L7.89353 15.8493C7.77225 15.7491 7.66427 15.6339 7.57216 15.5065C7.5593 15.1565 7.45316 14.8162 7.26463 14.5206C7.07611 14.225 6.81199 13.9847 6.49942 13.8244L6.59221 11.7003C6.59221 11.7003 6.28895 11.8987 5.59642 12.3158C4.72511 12.8367 4.07106 13.2178 3.62295 15.2675L3.28574 16.9452L1.17195 27.4846C1.14253 27.633 1.12963 27.7843 1.13348 27.9356C1.18327 29.8409 2.82406 31.1758 3.19974 31.4555L19.7796 44.1641C21.019 45.0895 22.531 45.5803 24.0796 45.5599V27.0133C23.4882 27.0493 22.9035 26.8725 22.4321 26.515Z" fill="#3A1B9B"/>
<path d="M43.3243 12.7447C43.2959 12.7244 43.2687 12.7026 43.2428 12.6793C42.7313 12.2486 32.6354 5.33959 26.6629 1.26047C25.8725 0.716812 24.931 0.433387 23.9707 0.449968C23.0103 0.466549 22.0793 0.782303 21.3083 1.35292L20.5773 1.90312C19.3099 2.85243 16.9562 4.609 14.1182 6.62263C10.8638 8.9339 7.86964 10.9453 5.2059 12.5395C4.07432 13.216 3.02874 15.0447 5.88485 17.2748C6.18585 17.5003 21.2109 28.6057 21.2109 28.6057C22.9355 29.8707 24.9768 29.7579 27.0024 28.5876C28.9736 27.503 35.9532 22.2964 40.355 18.8216L41.473 17.9355C41.5771 17.852 41.6722 17.7709 41.7627 17.6897C43.6434 16.1406 45.2208 14.0503 43.3243 12.7447Z" fill="#8524E2"/>
<path d="M17.0849 16.7566C17.5917 17.1806 18.1997 17.4672 18.8502 17.5886C19.4763 17.6953 20.1173 17.6799 20.7377 17.5435C21.3809 17.4057 22.0104 17.2102 22.6183 16.9595C23.0551 16.7814 23.4964 16.5852 23.9762 16.3597C24.017 16.3417 24.2025 16.2492 24.2274 16.2763L26.5834 18.0802C26.7486 18.202 26.7554 18.2606 26.4272 18.3914C26.1419 18.496 25.8395 18.5464 25.5355 18.5402H25.5129C24.8016 18.53 24.1123 18.2929 23.5462 17.8637C23.4812 17.8144 23.4017 17.7876 23.3199 17.7876C23.2381 17.7876 23.1586 17.8144 23.0936 17.8637L20.8893 19.5684C20.8439 19.6031 20.8074 19.6479 20.7826 19.6992C20.7579 19.7505 20.7456 19.8069 20.7467 19.8638C20.7475 19.9225 20.762 19.9801 20.7891 20.0322C20.8162 20.0843 20.8552 20.1293 20.9029 20.1637C21.6606 20.7262 22.5406 21.1031 23.4715 21.2641C23.8363 21.3273 24.2058 21.3589 24.576 21.3588C25.2929 21.355 26.0053 21.2448 26.6898 21.0319C27.4253 20.807 28.1266 20.4831 28.7741 20.069C28.7949 20.0542 28.8198 20.0462 28.8454 20.0462C28.871 20.0462 28.8959 20.0542 28.9167 20.069L30.0483 20.9304C30.1136 20.9791 30.193 21.0054 30.2746 21.0054C30.3562 21.0054 30.4356 20.9791 30.5009 20.9304L31.5669 20.0916C31.6124 20.0566 31.649 20.0114 31.6738 19.9597C31.6986 19.908 31.7108 19.8512 31.7094 19.7939C31.7084 19.7373 31.6944 19.6817 31.6685 19.6313C31.6426 19.5809 31.6055 19.537 31.5601 19.503L30.5937 18.7815C30.5802 18.7708 30.569 18.7575 30.5608 18.7424C30.5527 18.7273 30.5477 18.7106 30.5462 18.6935C30.5442 18.675 30.5464 18.6562 30.5527 18.6387C30.5589 18.6211 30.5691 18.6052 30.5824 18.5921C31.0248 18.1476 31.3972 17.639 31.6868 17.0835C32.0517 16.4275 32.1818 15.6673 32.0557 14.9279C31.9005 14.2259 31.4735 13.6133 30.8675 13.2231C30.308 12.8118 29.6656 12.5264 28.9846 12.3866C28.3728 12.2727 27.7451 12.2727 27.1333 12.3866C26.5235 12.4987 25.9267 12.6724 25.3522 12.9052C24.834 13.1149 23.9332 13.5298 23.8178 13.5817C23.7024 13.6335 23.5621 13.6741 23.4964 13.6268L21.4257 12.0799C21.5091 12.0399 21.5953 12.006 21.6837 11.9784C22.0771 11.8556 22.4897 11.8051 22.9012 11.8296C23.2449 11.8497 23.5786 11.9518 23.8744 12.1273C23.9376 12.1659 24.0109 12.185 24.085 12.1822C24.1591 12.1794 24.2307 12.1548 24.2908 12.1115L26.2552 10.6706C26.3055 10.6336 26.3457 10.5846 26.372 10.5281C26.3984 10.4716 26.41 10.4094 26.406 10.3472C26.4019 10.285 26.3823 10.2249 26.3488 10.1723C26.3154 10.1196 26.2692 10.0762 26.2145 10.046C25.5618 9.68431 24.8351 9.47534 24.0894 9.43491C23.1705 9.38538 22.2502 9.50306 21.3736 9.78217C20.7826 9.96575 20.2116 10.2083 19.6694 10.506C19.6495 10.5186 19.6263 10.5253 19.6027 10.5253C19.579 10.5253 19.5559 10.5186 19.5359 10.506L18.5899 9.79795C18.5261 9.75291 18.4498 9.72872 18.3715 9.72872C18.2933 9.72872 18.217 9.75291 18.1531 9.79795L17.1573 10.4744C17.1086 10.5071 17.0686 10.5511 17.0406 10.6025C17.0127 10.6539 16.9976 10.7113 16.9967 10.7698C16.9947 10.8284 17.0068 10.8866 17.032 10.9395C17.0572 10.9925 17.0947 11.0387 17.1415 11.0742L17.8363 11.6064C17.851 11.6171 17.8631 11.631 17.8717 11.647C17.8803 11.663 17.8852 11.6807 17.8861 11.6988C17.886 11.718 17.882 11.7369 17.8742 11.7543C17.8664 11.7718 17.855 11.7875 17.8408 11.8003C17.4182 12.1643 17.0481 12.5847 16.7409 13.0495C16.3235 13.638 16.1135 14.3477 16.1434 15.0677C16.1739 15.3989 16.2734 15.7202 16.4355 16.011C16.5976 16.3018 16.8188 16.5557 17.0849 16.7566ZM19.6038 13.6358C19.6542 13.505 19.7203 13.3809 19.8007 13.266C19.932 13.0766 19.9569 13.0721 20.0768 13.1623L21.5931 14.3213C21.7334 14.434 21.8194 14.4791 21.4641 14.6122C21.2526 14.685 21.033 14.7319 20.8101 14.752C20.6517 14.778 20.4897 14.7714 20.334 14.7326C20.1783 14.6939 20.0322 14.6237 19.9048 14.5265C19.7575 14.437 19.6465 14.2987 19.5915 14.1358C19.5364 13.9728 19.5408 13.7958 19.6038 13.6358ZM28.2672 15.3518C28.661 15.6404 28.8058 15.9719 28.7198 16.3665C28.6677 16.5886 28.5655 16.796 28.4211 16.973C28.3057 17.1129 28.24 17.1512 28.1269 17.0745L26.2281 15.6562C26.0018 15.4668 26.0018 15.4668 26.3888 15.2954C26.6824 15.1964 26.9859 15.1291 27.294 15.0947C27.6392 15.0566 27.9863 15.1483 28.2672 15.3518Z" fill="white"/>
</svg>
