<svg width="190" height="40" viewBox="0 0 190 40" fill="none" xmlns="http://www.w3.org/2000/svg">
<g clip-path="url(#clip0_6_2)">
<mask id="mask0_6_2" style="mask-type:luminance" maskUnits="userSpaceOnUse" x="0" y="0" width="190" height="40">
<path d="M189.82 0H0.370117V40H189.82V0Z" fill="white"/>
</mask>
<g mask="url(#mask0_6_2)">
<path d="M48.5073 16.6341C48.5073 9.55766 52.6251 6.32251 58.0347 6.32251C61.5048 6.32251 64.3725 7.79992 65.99 10.6222C67.6076 7.79992 70.4299 6.32251 73.9453 6.32251C79.3549 6.32251 83.4728 9.55766 83.4728 16.6341V29.7679H78.4761V16.6341C78.4761 12.6564 76.3963 10.9517 73.4832 10.9517C70.57 10.9517 68.5319 12.7549 68.5319 16.6341V29.7679H63.5391V16.6341C63.5391 12.7511 61.3646 10.9517 58.4969 10.9517C55.6292 10.9517 53.504 12.6602 53.504 16.6341V29.7679H48.5073V16.6341Z" fill="white"/>
<path d="M87.0791 18.5623C87.0791 11.3003 92.1667 6.30737 99.425 6.30737C106.596 6.30737 111.589 11.1639 111.589 18.5169V29.7679H107.009V25.0516C105.577 28.5671 102.338 30.3551 98.5461 30.3551C92.8031 30.3703 87.0791 26.2562 87.0791 18.5623ZM106.596 18.3312C106.596 14.0316 103.728 10.9328 99.3795 10.9328C95.0306 10.9328 92.1175 14.0316 92.1175 18.3312C92.1175 22.6309 95.0344 25.76 99.3795 25.76C103.725 25.76 106.596 22.646 106.596 18.3464V18.3312Z" fill="white"/>
<path d="M115.195 18.3464C115.195 11.4101 120.283 6.32251 127.496 6.32251C133.648 6.32251 138.182 10.0198 139.338 15.3385H134.296C133.231 12.6867 130.78 10.9479 127.496 10.9479C123.151 10.9479 120.237 14.0467 120.237 18.3464C120.237 22.646 123.151 25.76 127.496 25.76C130.78 25.76 133.231 24.0022 134.296 21.3656H139.338C138.201 26.6691 133.655 30.3854 127.496 30.3854C120.283 30.3702 115.195 25.2826 115.195 18.3464Z" fill="white"/>
<path d="M142.944 16.403C142.944 9.60312 146.967 6.32251 152.888 6.32251C158.809 6.32251 162.783 9.60312 162.783 16.4977V16.6682H157.836V16.403C157.836 12.4708 155.847 10.9479 152.888 10.9479C149.93 10.9479 147.937 12.4632 147.937 16.403V29.7679H142.944V16.403Z" fill="white"/>
<path d="M189.82 16.7288C189.82 18.8123 189.737 20.8694 188.96 22.8317C187.358 26.8964 184.331 29.2717 180.096 30.1051C178.107 30.4656 176.078 30.5548 174.065 30.3703C172.354 30.2475 170.673 29.8523 169.087 29.1997C168.278 28.9039 167.555 28.4142 166.979 27.7735C166.404 27.1329 165.995 26.3608 165.787 25.5251C165.499 24.3396 165.31 23.132 165.223 21.9149C165.125 20.7027 165.151 19.4753 165.17 18.2555C165.2 15.9409 166.037 12.5731 167.572 10.9366C168.964 9.0634 170.958 7.72591 173.22 7.14837C175.069 6.69459 176.958 6.42181 178.861 6.33389C180.41 6.25965 181.963 6.28496 183.509 6.40966C186.539 6.66726 188.388 8.20907 189.161 11.1336C189.277 11.5239 189.362 11.923 189.415 12.3269C189.69 13.7779 189.826 15.2519 189.82 16.7288ZM184.657 18.5623C184.657 14.3498 182.251 11.5276 178.376 11.0124C176.99 10.8008 175.572 11.0045 174.302 11.5978C173.032 12.1911 171.966 13.1474 171.239 14.346C170.449 15.7237 170.102 17.3104 170.242 18.8919C170.447 21.6384 171.606 23.8166 174.182 24.9985C176.758 26.1805 179.387 26.0479 181.759 24.3962C183.85 22.9453 184.596 20.7936 184.657 18.5623Z" fill="white"/>
<path d="M0.370117 30.6393C0.370117 25.2411 4.32883 21.2823 9.94299 21.2823C15.5572 21.2823 19.5197 25.2411 19.5197 30.6393C19.5197 36.0375 15.561 40 9.94299 40C4.32504 40 0.370117 36.0375 0.370117 30.6393Z" fill="white"/>
<path d="M19.963 0C9.99989 0 2.97271 7.02339 2.97271 16.6038C2.96942 17.9858 3.12449 19.3636 3.43487 20.7103C5.40528 19.5489 7.65598 18.9488 9.94306 18.9753C16.8452 18.9753 21.8495 23.8659 21.8495 30.6393C21.8503 31.4784 21.7704 32.3157 21.6108 33.1395C30.6761 32.4084 36.9494 25.6464 36.9494 16.6038C36.9494 7.02339 29.9184 0 19.963 0Z" fill="white"/>
</g>
</g>
<defs>
<clipPath id="clip0_6_2">
<rect width="190" height="40" fill="white"/>
</clipPath>
</defs>
</svg>
