<svg width="254" height="40" viewBox="0 0 254 40" fill="none" xmlns="http://www.w3.org/2000/svg">
<path d="M36.3735 39.6255V29.4135H25.237C22.2112 29.4135 19.3956 31.0104 17.8407 33.616L14.2266 39.6675H36.3735V39.6255Z" fill="#63D2F9"/>
<path d="M0.90625 0.332458V10.5864H30.2394L36.375 0.332458H0.90625Z" fill="#4E5EE4"/>
<path d="M14.9434 16.3438L0.949219 39.6254H12.8842L29.61 11.7631H23.0541C19.7342 11.7631 16.6664 13.4861 14.9434 16.3438Z" fill="#63B0F9"/>
<path d="M61.7151 29.8337C55.7055 29.8337 51.293 25.4632 51.293 19.6218C51.293 13.8224 55.7476 9.40981 61.7151 9.40981C67.6825 9.40981 72.1371 13.8644 72.1371 19.6218C72.2212 25.3791 67.7246 29.8337 61.7151 29.8337ZM61.7571 26.2616C65.5393 26.2616 68.2709 23.446 68.2709 19.6218C68.2709 15.8396 65.5393 12.9819 61.7571 12.9819C57.9328 12.9819 55.2013 15.8396 55.2013 19.6218C55.2433 23.446 57.9328 26.2616 61.7571 26.2616ZM76.2135 35.9273V14.6629H79.8276V16.554H80.0378C80.416 15.9236 81.8028 14.2847 84.4924 14.2847C88.6528 14.2847 91.5105 17.3945 91.5105 21.9752C91.5105 26.5558 88.6948 29.7917 84.6184 29.7917C81.9709 29.7917 80.5841 28.3209 80.0798 27.5224H79.8697V35.8853H76.2135V35.9273ZM83.82 26.5138C86.2154 26.5138 87.8123 24.6647 87.8123 22.0592C87.8123 19.3696 86.2154 17.6046 83.7779 17.6046C81.3405 17.6046 79.8276 19.5377 79.8276 22.0592C79.8276 24.7908 81.5086 26.5138 83.82 26.5138ZM102.059 29.8337C97.6881 29.8337 94.5782 26.5558 94.5782 22.1432C94.5782 17.4785 97.7301 14.2847 102.059 14.2847C106.849 14.2847 109.455 17.8147 109.455 21.9752V23.1098H98.1503C98.2764 25.3791 99.8313 26.892 102.185 26.892C103.992 26.892 105.379 26.0515 105.883 24.8328H109.287C108.572 27.8586 105.883 29.8337 102.059 29.8337ZM98.1924 20.5463H105.925C105.757 18.5291 104.202 17.2264 102.059 17.2264C99.9994 17.2264 98.4025 18.6552 98.1924 20.5463ZM113.405 29.4555V14.6629H116.893V16.4699H117.103C117.692 15.3773 119.163 14.2847 121.306 14.2847C124.626 14.2847 126.685 16.638 126.685 19.7899V29.4555H122.987V20.7564C122.987 18.9494 121.81 17.7307 120.129 17.7307C118.364 17.7307 117.061 19.1175 117.061 21.0086V29.4555H113.405ZM130.299 29.4555V26.0936L140.595 13.192V12.9819H130.677V9.74601H145.302V13.0659L135.006 26.0095V26.2196H145.344V29.4555H130.299ZM155.304 29.8337C150.933 29.8337 147.823 26.5558 147.823 22.1432C147.823 17.4785 150.975 14.2847 155.304 14.2847C160.094 14.2847 162.7 17.8147 162.7 21.9752V23.1098H151.395C151.521 25.3791 153.076 26.892 155.43 26.892C157.237 26.892 158.624 26.0515 159.128 24.8328H162.532C161.818 27.8586 159.17 29.8337 155.304 29.8337ZM151.437 20.5463H159.17C159.002 18.5291 157.447 17.2264 155.304 17.2264C153.244 17.2264 151.69 18.6552 151.437 20.5463ZM166.65 35.9273V14.6629H170.264V16.554H170.475C170.853 15.9236 172.24 14.2847 174.929 14.2847C179.09 14.2847 181.947 17.3945 181.947 21.9752C181.947 26.5558 179.132 29.7917 175.055 29.7917C172.408 29.7917 171.021 28.3209 170.517 27.5224H170.306V35.8853H166.65V35.9273ZM174.257 26.5138C176.652 26.5138 178.249 24.6647 178.249 22.0592C178.249 19.3696 176.652 17.6046 174.215 17.6046C171.777 17.6046 170.264 19.5377 170.264 22.0592C170.264 24.7908 171.945 26.5138 174.257 26.5138ZM185.94 35.9273V14.6629H189.554V16.554H189.764C190.142 15.9236 191.529 14.2847 194.218 14.2847C198.379 14.2847 201.237 17.3945 201.237 21.9752C201.237 26.5558 198.421 29.7917 194.345 29.7917C191.697 29.7917 190.31 28.3209 189.806 27.5224H189.596V35.8853H185.94V35.9273ZM193.504 26.5138C195.899 26.5138 197.496 24.6647 197.496 22.0592C197.496 19.3696 195.899 17.6046 193.462 17.6046C191.025 17.6046 189.512 19.5377 189.512 22.0592C189.512 24.7908 191.235 26.5138 193.504 26.5138ZM211.785 29.8337C207.414 29.8337 204.304 26.5558 204.304 22.1432C204.304 17.4785 207.456 14.2847 211.785 14.2847C216.576 14.2847 219.181 17.8147 219.181 21.9752V23.1098H207.876C208.003 25.3791 209.557 26.892 211.911 26.892C213.718 26.892 215.105 26.0515 215.609 24.8328H219.013C218.256 27.8586 215.609 29.8337 211.785 29.8337ZM207.876 20.5463H215.609C215.441 18.5291 213.886 17.2264 211.743 17.2264C209.683 17.2264 208.129 18.6552 207.876 20.5463ZM226.745 29.4555C224.14 29.4555 222.669 27.9006 222.669 25.2951V8.35919H226.367V24.9589C226.367 25.7994 226.787 26.2616 227.544 26.2616H228.132V29.4555H226.745ZM233.511 12.6877C232.167 12.6877 231.242 11.8893 231.242 10.5445C231.242 9.28374 232.167 8.44325 233.511 8.44325C234.856 8.44325 235.781 9.28374 235.781 10.5445C235.739 11.8893 234.814 12.6877 233.511 12.6877ZM231.662 29.4555V14.6629H235.36V29.4555H231.662ZM239.815 29.4555V14.6629H243.303V16.4699H243.513C244.102 15.3773 245.572 14.2847 247.716 14.2847C251.036 14.2847 253.095 16.638 253.095 19.7899V29.4555H249.397V20.7564C249.397 18.9494 248.22 17.7307 246.539 17.7307C244.774 17.7307 243.471 19.1175 243.471 21.0086V29.4555H239.815Z" fill="white"/>
</svg>
