<svg viewBox="0 0 1226 104" fill="#CDBEF4" class="logo_regular" xmlns="http://www.w3.org/2000/svg">
<path d="M120.954 7.73837L58.3181 56.1032V35.7849C58.3181 33.6508 56.588 31.9208 54.454 31.9208H4.36414C2.22998 31.9208 0.5 33.6508 0.5 35.7849V79.3183C0.5 94.7951 14.9545 103.501 30.3727 103.984C40.6514 104.307 49.9666 99.6316 58.3181 89.9586L127.7 16.444C133.482 10.6403 137.336 7.73837 144.082 7.73837H161.427C164.318 7.73837 165.763 5.80377 165.763 3.8692C165.763 1.9346 164.318 0 161.427 0H139.263C133.482 0 127.379 2.57947 120.954 7.73837Z" fill="white" />
<path d="M210.192 99.3168C217.715 102.135 225.239 103.545 232.762 103.545C240.009 103.545 246.563 102.286 252.425 99.7673C258.286 97.2491 262.925 93.6682 266.341 89.0245C269.756 84.3808 271.464 79.1249 271.464 73.2567C271.464 70.1147 270.933 67.1691 269.872 64.4199C268.81 61.6706 267.483 59.3141 265.891 57.3504C264.298 55.3866 262.325 53.5615 259.971 51.875C257.617 50.1884 255.402 48.8254 253.325 47.7857C251.248 46.7461 248.917 45.7758 246.332 44.8748C243.747 43.9738 241.716 43.3269 240.239 42.9341C238.762 42.5414 237.17 42.1602 235.462 41.7905C232.97 41.2823 230.766 40.7278 228.85 40.1271C226.935 39.5264 225.065 38.7872 223.242 37.9092C221.419 37.0313 220.023 35.9686 219.054 34.721C218.084 33.4735 217.6 32.0873 217.6 30.5625C217.6 27.975 219.007 25.8611 221.823 24.2208C224.639 22.5804 228.239 21.7603 232.624 21.7603C237.147 21.7603 241.647 22.6151 246.124 24.3247C250.601 26.0343 254.271 28.2522 257.133 30.9784L267.379 14.2056C263.594 10.6016 258.69 7.69061 252.667 5.47272C246.643 3.25485 240.009 2.1459 232.762 2.1459C221.454 2.1459 212.338 4.82584 205.414 10.1857C198.491 15.5456 195.029 22.6151 195.029 31.3942C195.029 46.7346 206.43 57.154 229.231 62.6525C231.539 63.207 233.258 63.6344 234.389 63.9347C235.52 64.235 237.008 64.674 238.855 65.2516C240.701 65.8291 242.097 66.3836 243.043 66.915C243.99 67.4463 244.982 68.0817 246.02 68.821C247.059 69.5603 247.797 70.3804 248.236 71.2814C248.674 72.1824 248.894 73.1874 248.894 74.2964C248.894 77.1149 247.313 79.4252 244.151 81.2272C240.989 83.0293 237.147 83.9303 232.624 83.9303C227.5 83.9303 222.227 82.7867 216.803 80.4995C211.38 78.2123 206.638 75.1974 202.576 71.4547L191.221 88.1581C196.345 92.7787 202.668 96.4983 210.192 99.3168Z"/>
<path d="M414.555 3.87863H392.608V42.2064H353.352V3.87863H331.336V101.812H353.352V62.9297H392.608V101.812H414.555V3.87863Z"/>
<path d="M544.765 81.0886H499.693V62.9297H539.365V42.2064H499.693V24.6019H544.073V3.87863H477.677V101.812H544.765V81.0886Z"/>
<path d="M640.4 71.4901L660.547 101.812H686.925L664.078 69.0643C670.217 66.6616 675.109 62.8843 678.755 57.7323C682.402 52.5804 684.225 46.0415 684.225 36.6617C684.225 27.2819 680.994 19.4731 674.532 13.2353C668.07 6.99753 659.97 3.87863 650.231 3.87863H607.79V101.812H629.807V71.4901H640.4ZM629.807 52.2916V24.6019H649.746C653.162 24.6019 656 25.7802 658.262 28.1367C660.524 30.4932 661.949 33.6786 661.949 38.4101C661.949 43.1416 660.512 46.4581 658.227 48.7915C655.943 51.1249 653.116 52.2916 649.746 52.2916H629.807Z"/>
<path d="M809.549 81.0886H767.825V3.87863H745.808V101.812H809.549V81.0886Z"/>
<path d="M900.614 103.545C907.86 103.545 914.668 102.251 921.038 99.6634C927.453 97.0296 932.958 93.4718 937.55 88.9898C942.143 84.5079 945.766 79.1364 948.42 72.8755C951.074 66.6146 952.401 59.9263 952.401 52.8106C952.401 43.3384 950.139 34.7326 945.616 26.9931C941.093 19.2536 934.873 13.1775 926.957 8.76489C919.041 4.35223 910.26 2.1459 900.614 2.1459C893.367 2.1459 886.536 3.43967 880.12 6.02719C873.705 8.61472 868.212 12.1495 863.642 16.6314C859.073 21.1134 855.473 26.4848 852.842 32.7457C850.211 39.0066 848.896 45.6949 848.896 52.8106C848.896 59.9263 850.211 66.6146 852.842 72.8755C855.473 79.1364 859.073 84.5079 863.642 88.9898C868.212 93.4718 873.705 97.0181 880.12 99.6287C886.536 102.239 893.367 103.545 900.614 103.545ZM900.614 82.3362C892.306 82.3362 885.359 79.5407 879.774 73.9498C874.189 68.3127 871.397 61.2663 871.397 52.8106C871.397 44.355 874.189 37.3201 879.774 31.7061C885.359 26.0921 892.306 23.2851 900.614 23.2851C908.922 23.2851 915.868 26.0921 921.453 31.7061C927.038 37.3201 929.831 44.355 929.831 52.8106C929.831 61.2663 927.038 68.3011 921.453 73.9152C915.868 79.5292 908.922 82.3362 900.614 82.3362Z"/>
<path d="M1023.12 99.6287C1029.54 102.239 1036.37 103.545 1043.61 103.545C1052.71 103.545 1061.03 101.592 1068.57 97.6881C1076.12 93.7837 1082.22 88.3892 1086.89 81.5045L1067.85 69.722C1065.17 73.6495 1061.72 76.7337 1057.5 78.9747C1053.27 81.2157 1048.65 82.3362 1043.61 82.3362C1035.31 82.3362 1028.36 79.5292 1022.77 73.9152C1017.19 68.3011 1014.4 61.2663 1014.4 52.8106C1014.4 44.355 1017.19 37.3201 1022.77 31.7061C1028.36 26.0921 1035.31 23.2851 1043.61 23.2851C1048.6 23.2851 1053.21 24.4171 1057.46 26.6812C1061.71 28.9453 1065.17 32.0411 1067.85 35.9686L1086.89 24.1861C1082.22 17.3014 1076.12 11.9069 1068.57 8.0025C1061.03 4.09811 1052.71 2.1459 1043.61 2.1459C1036.37 2.1459 1029.54 3.43967 1023.12 6.02719C1016.71 8.61472 1011.21 12.1495 1006.64 16.6314C1002.07 21.1134 998.473 26.4848 995.843 32.7457C993.212 39.0066 991.896 45.6949 991.896 52.8106C991.896 59.9263 993.212 66.6146 995.843 72.8755C998.473 79.1364 1002.07 84.5079 1006.64 88.9898C1011.21 93.4718 1016.71 97.0181 1023.12 99.6287Z"/>
<path d="M1169.2 66.8803L1198.84 101.812H1227.5L1183.4 51.0086L1225.35 3.87863H1197.45L1161.04 46.157V3.87863H1139.02V101.812H1161.04V76.0984L1169.2 66.8803Z"/>
</svg>